  0
SECTION
  2
HEADER
  9
$ACADVER
  1
AC1009
  0
ENDSEC
  0
SECTION
  2
ENTITIES
  0
POLYLINE
  5
90
  8
Layer_1
  62
12
  66
1
  10
0
  20
0
  30
0
  0
VERTEX
  5
90
  8
Layer_1
  10
299.99994
  20
0.092269897
  0
VERTEX
  5
91
  8
Layer_1
  10
-6.1035156e-05
  20
0.092514038
  0
VERTEX
  5
92
  8
Layer_1
  10
6.1035156e-05
  20
250.09227
  0
VERTEX
  5
93
  8
Layer_1
  10
300.00006
  20
250.09203
  0
VERTEX
  5
94
  8
Layer_1
  10
299.99994
  20
0.092269897
  0
SEQEND
  0
POLYLINE
  5
96
  8
Layer_4
  62
6
  66
1
  10
0
  20
0
  30
0
  0
VERTEX
  5
96
  8
Layer_4
  10
17.01593
  20
116.26675
  0
VERTEX
  5
97
  8
Layer_4
  10
17.01593
  20
118.05093
  0
VERTEX
  5
98
  8
Layer_4
  10
21.01593
  20
118.05093
  0
VERTEX
  5
99
  8
Layer_4
  10
21.01593
  20
116.26675
  0
VERTEX
  5
9a
  8
Layer_4
  10
32.652161
  20
116.26675
  0
VERTEX
  5
9b
  8
Layer_4
  10
32.652161
  20
118.05093
  0
VERTEX
  5
9c
  8
Layer_4
  10
36.652161
  20
118.05093
  0
VERTEX
  5
9d
  8
Layer_4
  10
36.652161
  20
116.26675
  0
VERTEX
  5
9e
  8
Layer_4
  10
40.852844
  20
116.26675
  0
VERTEX
  5
9f
  8
Layer_4
  10
40.852844
  20
95.135895
  0
VERTEX
  5
a0
  8
Layer_4
  10
42.634583
  20
95.135895
  0
VERTEX
  5
a1
  8
Layer_4
  10
42.634583
  20
91.135895
  0
VERTEX
  5
a2
  8
Layer_4
  10
40.852844
  20
91.135895
  0
VERTEX
  5
a3
  8
Layer_4
  10
40.852844
  20
86.951813
  0
VERTEX
  5
a4
  8
Layer_4
  10
36.652161
  20
86.951813
  0
VERTEX
  5
a5
  8
Layer_4
  10
36.652161
  20
85.141754
  0
VERTEX
  5
a6
  8
Layer_4
  10
32.652161
  20
85.141754
  0
VERTEX
  5
a7
  8
Layer_4
  10
32.652161
  20
86.951813
  0
VERTEX
  5
a8
  8
Layer_4
  10
21.01593
  20
86.951828
  0
VERTEX
  5
a9
  8
Layer_4
  10
21.01593
  20
85.141769
  0
VERTEX
  5
aa
  8
Layer_4
  10
17.01593
  20
85.141769
  0
VERTEX
  5
ab
  8
Layer_4
  10
17.01593
  20
86.951828
  0
VERTEX
  5
ac
  8
Layer_4
  10
9.3792114
  20
86.951828
  0
VERTEX
  5
ad
  8
Layer_4
  10
9.3792114
  20
116.26678
  0
VERTEX
  5
ae
  8
Layer_4
  10
17.01593
  20
116.26675
  0
SEQEND
  0
POLYLINE
  5
b0
  8
Layer_4
  62
6
  66
1
  10
0
  20
0
  30
0
  0
VERTEX
  5
b0
  8
Layer_4
  10
34.068665
  20
92.096344
  0
VERTEX
  5
b1
  8
Layer_4
  10
34.090149
  20
91.955231
  42
0.35887648
  0
VERTEX
  5
b2
  8
Layer_4
  10
35.568665
  20
90.749176
  42
0.40916802
  0
VERTEX
  5
b3
  8
Layer_4
  10
37.061829
  20
92.23111
  42
0.39217169
  0
VERTEX
  5
b4
  8
Layer_4
  10
35.693665
  20
93.744781
  42
0.41088469
  0
VERTEX
  5
b5
  8
Layer_4
  10
34.068665
  20
92.400055
  0
VERTEX
  5
b6
  8
Layer_4
  10
34.068665
  20
92.096344
  0
SEQEND
  0
POLYLINE
  5
b8
  8
Layer_4
  62
6
  66
1
  10
0
  20
0
  30
0
  0
VERTEX
  5
b8
  8
Layer_4
  10
32.675598
  20
97.541168
  0
VERTEX
  5
b9
  8
Layer_4
  10
36.675598
  20
97.541168
  0
VERTEX
  5
ba
  8
Layer_4
  10
36.675598
  20
99.309235
  0
VERTEX
  5
bb
  8
Layer_4
  10
32.675598
  20
99.309235
  0
VERTEX
  5
bc
  8
Layer_4
  10
32.675598
  20
97.541168
  0
SEQEND
  0
POLYLINE
  5
be
  8
Layer_4
  62
6
  66
1
  10
0
  20
0
  30
0
  0
VERTEX
  5
be
  8
Layer_4
  10
28.5047
  20
91.14566
  0
VERTEX
  5
bf
  8
Layer_4
  10
30.272766
  20
91.14566
  0
VERTEX
  5
c0
  8
Layer_4
  10
30.272766
  20
95.14566
  0
VERTEX
  5
c1
  8
Layer_4
  10
28.5047
  20
95.14566
  0
VERTEX
  5
c2
  8
Layer_4
  10
28.5047
  20
91.14566
  0
SEQEND
  0
POLYLINE
  5
c4
  8
Layer_4
  62
6
  66
1
  10
0
  20
0
  30
0
  0
VERTEX
  5
c4
  8
Layer_4
  10
28.879337
  20
103.76676
  0
VERTEX
  5
c5
  8
Layer_4
  10
29.77924
  20
103.76676
  0
VERTEX
  5
c6
  8
Layer_4
  10
29.77924
  20
107.76676
  0
VERTEX
  5
c7
  8
Layer_4
  10
28.879337
  20
107.76676
  0
VERTEX
  5
c8
  8
Layer_4
  10
28.879337
  20
109.91666
  0
VERTEX
  5
c9
  8
Layer_4
  10
15.879337
  20
109.91666
  0
VERTEX
  5
ca
  8
Layer_4
  10
15.879337
  20
107.76676
  0
VERTEX
  5
cb
  8
Layer_4
  10
14.979191
  20
107.76676
  0
VERTEX
  5
cc
  8
Layer_4
  10
14.979191
  20
103.76676
  0
VERTEX
  5
cd
  8
Layer_4
  10
15.879337
  20
103.76676
  0
VERTEX
  5
ce
  8
Layer_4
  10
15.879337
  20
101.61686
  0
VERTEX
  5
cf
  8
Layer_4
  10
28.879337
  20
101.61686
  0
VERTEX
  5
d0
  8
Layer_4
  10
28.879337
  20
103.76676
  0
SEQEND
  0
POLYLINE
  5
d2
  8
Layer_4
  62
6
  66
1
  10
0
  20
0
  30
0
  0
VERTEX
  5
d2
  8
Layer_4
  10
186.56749
  20
187.35785
  0
VERTEX
  5
d3
  8
Layer_4
  10
186.56749
  20
189.12787
  0
VERTEX
  5
d4
  8
Layer_4
  10
188.33748
  20
189.12787
  0
VERTEX
  5
d5
  8
Layer_4
  10
188.33748
  20
187.35785
  0
VERTEX
  5
d6
  8
Layer_4
  10
186.56749
  20
187.35785
  0
SEQEND
  0
POLYLINE
  5
d8
  8
Layer_4
  62
6
  66
1
  10
0
  20
0
  30
0
  0
VERTEX
  5
d8
  8
Layer_4
  10
245.42601
  20
187.35785
  0
VERTEX
  5
d9
  8
Layer_4
  10
245.42601
  20
189.12787
  0
VERTEX
  5
da
  8
Layer_4
  10
247.196
  20
189.12787
  0
VERTEX
  5
db
  8
Layer_4
  10
247.196
  20
187.35785
  0
VERTEX
  5
dc
  8
Layer_4
  10
245.42601
  20
187.35785
  0
SEQEND
  0
POLYLINE
  5
de
  8
Layer_4
  62
6
  66
1
  10
0
  20
0
  30
0
  0
VERTEX
  5
de
  8
Layer_4
  10
186.5675
  20
240.89883
  0
VERTEX
  5
df
  8
Layer_4
  10
186.5675
  20
242.66885
  0
VERTEX
  5
e0
  8
Layer_4
  10
188.33749
  20
242.66885
  0
VERTEX
  5
e1
  8
Layer_4
  10
188.33749
  20
240.89883
  0
VERTEX
  5
e2
  8
Layer_4
  10
186.5675
  20
240.89883
  0
SEQEND
  0
POLYLINE
  5
e4
  8
Layer_4
  62
6
  66
1
  10
0
  20
0
  30
0
  0
VERTEX
  5
e4
  8
Layer_4
  10
245.42603
  20
240.89883
  0
VERTEX
  5
e5
  8
Layer_4
  10
245.42603
  20
242.66885
  0
VERTEX
  5
e6
  8
Layer_4
  10
247.19601
  20
242.66885
  0
VERTEX
  5
e7
  8
Layer_4
  10
247.19601
  20
240.89883
  0
VERTEX
  5
e8
  8
Layer_4
  10
245.42603
  20
240.89883
  0
SEQEND
  0
POLYLINE
  5
ea
  8
Layer_4
  62
6
  66
1
  10
0
  20
0
  30
0
  0
VERTEX
  5
ea
  8
Layer_4
  10
154.89656
  20
202.86197
  0
VERTEX
  5
eb
  8
Layer_4
  10
154.94392
  20
202.26627
  0
VERTEX
  5
ec
  8
Layer_4
  10
155.02107
  20
201.67984
  0
VERTEX
  5
ed
  8
Layer_4
  10
155.12752
  20
201.10074
  0
VERTEX
  5
ee
  8
Layer_4
  10
155.26373
  20
200.53287
  0
VERTEX
  5
ef
  8
Layer_4
  10
155.42683
  20
199.97623
  0
VERTEX
  5
f0
  8
Layer_4
  10
155.61726
  20
199.4313
  0
VERTEX
  5
f1
  8
Layer_4
  10
155.83406
  20
198.89908
  0
VERTEX
  5
f2
  8
Layer_4
  10
156.07722
  20
198.37906
  0
VERTEX
  5
f3
  8
Layer_4
  10
156.3448
  20
197.87369
  0
VERTEX
  5
f4
  8
Layer_4
  10
156.63533
  20
197.38589
  0
VERTEX
  5
f5
  8
Layer_4
  10
156.94881
  20
196.91226
  0
VERTEX
  5
f6
  8
Layer_4
  10
157.28572
  20
196.45377
  0
VERTEX
  5
f7
  8
Layer_4
  10
157.64314
  20
196.01334
  0
VERTEX
  5
f8
  8
Layer_4
  10
158.02156
  20
195.59097
  0
VERTEX
  5
f9
  8
Layer_4
  10
158.42
  20
195.18716
  0
VERTEX
  5
fa
  8
Layer_4
  10
158.83748
  20
194.8024
  0
VERTEX
  5
fb
  8
Layer_4
  10
159.27303
  20
194.43765
  0
VERTEX
  5
fc
  8
Layer_4
  10
159.72615
  20
194.09293
  0
VERTEX
  5
fd
  8
Layer_4
  10
160.19588
  20
193.77017
  0
VERTEX
  5
fe
  8
Layer_4
  10
160.68221
  20
193.46793
  0
VERTEX
  5
ff
  8
Layer_4
  10
161.18513
  20
193.18814
  0
VERTEX
  5
100
  8
Layer_4
  10
161.70125
  20
192.93277
  0
VERTEX
  5
101
  8
Layer_4
  10
162.23201
  20
192.70084
  0
VERTEX
  5
102
  8
Layer_4
  10
162.77596
  20
192.4938
  0
VERTEX
  5
103
  8
Layer_4
  10
163.33162
  20
192.31168
  0
VERTEX
  5
104
  8
Layer_4
  10
163.89998
  20
192.15543
  0
VERTEX
  5
105
  8
Layer_4
  10
164.4781
  20
192.02652
  0
VERTEX
  5
106
  8
Layer_4
  10
165.06697
  20
191.92496
  0
VERTEX
  5
107
  8
Layer_4
  10
165.66365
  20
191.85172
  0
VERTEX
  5
108
  8
Layer_4
  10
166.26961
  20
191.80679
  0
VERTEX
  5
109
  8
Layer_4
  10
166.85799
  20
191.79263
  0
VERTEX
  5
10a
  8
Layer_4
  10
266.90582
  20
191.79262
  0
VERTEX
  5
10b
  8
Layer_4
  10
267.4942
  20
191.80678
  0
VERTEX
  5
10c
  8
Layer_4
  10
268.10016
  20
191.8517
  0
VERTEX
  5
10d
  8
Layer_4
  10
268.69733
  20
191.92494
  0
VERTEX
  5
10e
  8
Layer_4
  10
269.28522
  20
192.0265
  0
VERTEX
  5
10f
  8
Layer_4
  10
269.86383
  20
192.15541
  0
VERTEX
  5
110
  8
Layer_4
  10
270.43121
  20
192.31117
  0
VERTEX
  5
111
  8
Layer_4
  10
270.98785
  20
192.4933
  0
VERTEX
  5
112
  8
Layer_4
  10
271.53229
  20
192.70082
  0
VERTEX
  5
113
  8
Layer_4
  10
272.06256
  20
192.93275
  0
VERTEX
  5
114
  8
Layer_4
  10
272.57916
  20
193.18861
  0
VERTEX
  5
115
  8
Layer_4
  10
273.08063
  20
193.46791
  0
VERTEX
  5
116
  8
Layer_4
  10
273.56744
  20
193.76918
  0
VERTEX
  5
117
  8
Layer_4
  10
274.03766
  20
194.0934
  0
VERTEX
  5
118
  8
Layer_4
  10
274.4903
  20
194.43715
  0
VERTEX
  5
119
  8
Layer_4
  10
274.92633
  20
194.80238
  0
VERTEX
  5
11a
  8
Layer_4
  10
275.34381
  20
195.18764
  0
VERTEX
  5
11b
  8
Layer_4
  10
275.74176
  20
195.59096
  0
VERTEX
  5
11c
  8
Layer_4
  10
276.12018
  20
196.01332
  0
VERTEX
  5
11d
  8
Layer_4
  10
276.4776
  20
196.45375
  0
VERTEX
  5
11e
  8
Layer_4
  10
276.81403
  20
196.91127
  0
VERTEX
  5
11f
  8
Layer_4
  10
277.12799
  20
197.3849
  0
VERTEX
  5
120
  8
Layer_4
  10
277.41949
  20
197.87465
  0
VERTEX
  5
121
  8
Layer_4
  10
277.68658
  20
198.37953
  0
VERTEX
  5
122
  8
Layer_4
  10
277.92877
  20
198.89809
  0
VERTEX
  5
123
  8
Layer_4
  10
278.14606
  20
199.43031
  0
VERTEX
  5
124
  8
Layer_4
  10
278.33698
  20
199.97621
  0
VERTEX
  5
125
  8
Layer_4
  10
278.50006
  20
200.53285
  0
VERTEX
  5
126
  8
Layer_4
  10
278.63629
  20
201.10072
  0
VERTEX
  5
127
  8
Layer_4
  10
278.74274
  20
201.67982
  0
VERTEX
  5
128
  8
Layer_4
  10
278.81989
  20
202.26723
  0
VERTEX
  5
129
  8
Layer_4
  10
278.86676
  20
202.86195
  0
VERTEX
  5
12a
  8
Layer_4
  10
278.8819
  20
203.43813
  0
VERTEX
  5
12b
  8
Layer_4
  10
278.88193
  20
226.70424
  0
VERTEX
  5
12c
  8
Layer_4
  10
278.86679
  20
227.28041
  0
VERTEX
  5
12d
  8
Layer_4
  10
278.81992
  20
227.87514
  0
VERTEX
  5
12e
  8
Layer_4
  10
278.74277
  20
228.46205
  0
VERTEX
  5
12f
  8
Layer_4
  10
278.63632
  20
229.04115
  0
VERTEX
  5
130
  8
Layer_4
  10
278.50009
  20
229.60951
  0
VERTEX
  5
131
  8
Layer_4
  10
278.33701
  20
230.16615
  0
VERTEX
  5
132
  8
Layer_4
  10
278.14609
  20
230.71156
  0
VERTEX
  5
133
  8
Layer_4
  10
277.9288
  20
231.24428
  0
VERTEX
  5
134
  8
Layer_4
  10
277.68661
  20
231.76283
  0
VERTEX
  5
135
  8
Layer_4
  10
277.41953
  20
232.26674
  0
VERTEX
  5
136
  8
Layer_4
  10
277.12851
  20
232.75697
  0
VERTEX
  5
137
  8
Layer_4
  10
276.81406
  20
233.23158
  0
VERTEX
  5
138
  8
Layer_4
  10
276.47763
  20
233.68813
  0
VERTEX
  5
139
  8
Layer_4
  10
276.12021
  20
234.12904
  0
VERTEX
  5
13a
  8
Layer_4
  10
275.7413
  20
234.55141
  0
VERTEX
  5
13b
  8
Layer_4
  10
275.34384
  20
234.95424
  0
VERTEX
  5
13c
  8
Layer_4
  10
274.92685
  20
235.339
  0
VERTEX
  5
13d
  8
Layer_4
  10
274.49081
  20
235.70473
  0
VERTEX
  5
13e
  8
Layer_4
  10
274.03671
  20
236.04945
  0
VERTEX
  5
13f
  8
Layer_4
  10
273.5665
  20
236.3727
  0
VERTEX
  5
140
  8
Layer_4
  10
273.08066
  20
236.67397
  0
VERTEX
  5
141
  8
Layer_4
  10
272.57968
  20
236.95277
  0
VERTEX
  5
142
  8
Layer_4
  10
272.06259
  20
237.20961
  0
VERTEX
  5
143
  8
Layer_4
  10
271.53183
  20
237.44106
  0
VERTEX
  5
144
  8
Layer_4
  10
270.98886
  20
237.64857
  0
VERTEX
  5
145
  8
Layer_4
  10
270.43124
  20
237.83119
  0
VERTEX
  5
146
  8
Layer_4
  10
269.86386
  20
237.98647
  0
VERTEX
  5
147
  8
Layer_4
  10
269.28622
  20
238.11586
  0
VERTEX
  5
148
  8
Layer_4
  10
268.69736
  20
238.21742
  0
VERTEX
  5
149
  8
Layer_4
  10
268.09921
  20
238.29115
  0
VERTEX
  5
14a
  8
Layer_4
  10
267.49423
  20
238.3351
  0
VERTEX
  5
14b
  8
Layer_4
  10
266.90683
  20
238.34975
  0
VERTEX
  5
14c
  8
Layer_4
  10
166.85703
  20
238.34976
  0
VERTEX
  5
14d
  8
Layer_4
  10
166.26962
  20
238.33511
  0
VERTEX
  5
14e
  8
Layer_4
  10
165.66464
  20
238.29117
  0
VERTEX
  5
14f
  8
Layer_4
  10
165.06699
  20
238.21744
  0
VERTEX
  5
150
  8
Layer_4
  10
164.47714
  20
238.11588
  0
VERTEX
  5
151
  8
Layer_4
  10
163.89999
  20
237.98648
  0
VERTEX
  5
152
  8
Layer_4
  10
163.33261
  20
237.83121
  0
VERTEX
  5
153
  8
Layer_4
  10
162.77499
  20
237.64859
  0
VERTEX
  5
154
  8
Layer_4
  10
162.23203
  20
237.44107
  0
VERTEX
  5
155
  8
Layer_4
  10
161.70126
  20
237.20963
  0
VERTEX
  5
156
  8
Layer_4
  10
161.18466
  20
236.95328
  0
VERTEX
  5
157
  8
Layer_4
  10
160.6832
  20
236.67447
  0
VERTEX
  5
158
  8
Layer_4
  10
160.19687
  20
236.37271
  0
VERTEX
  5
159
  8
Layer_4
  10
159.72617
  20
236.04947
  0
VERTEX
  5
15a
  8
Layer_4
  10
159.27255
  20
235.70425
  0
VERTEX
  5
15b
  8
Layer_4
  10
158.83749
  20
235.33951
  0
VERTEX
  5
15c
  8
Layer_4
  10
158.42001
  20
234.95474
  0
VERTEX
  5
15d
  8
Layer_4
  10
158.02206
  20
234.55142
  0
VERTEX
  5
15e
  8
Layer_4
  10
157.64316
  20
234.12906
  0
VERTEX
  5
15f
  8
Layer_4
  10
157.28574
  20
233.68814
  0
VERTEX
  5
160
  8
Layer_4
  10
156.94882
  20
233.23062
  0
VERTEX
  5
161
  8
Layer_4
  10
156.63486
  20
232.75601
  0
VERTEX
  5
162
  8
Layer_4
  10
156.34482
  20
232.26773
  0
VERTEX
  5
163
  8
Layer_4
  10
156.07724
  20
231.76334
  0
VERTEX
  5
164
  8
Layer_4
  10
155.83408
  20
231.24332
  0
VERTEX
  5
165
  8
Layer_4
  10
155.61728
  20
230.7106
  0
VERTEX
  5
166
  8
Layer_4
  10
155.42685
  20
230.16617
  0
VERTEX
  5
167
  8
Layer_4
  10
155.26375
  20
229.60953
  0
VERTEX
  5
168
  8
Layer_4
  10
155.12753
  20
229.04117
  0
VERTEX
  5
169
  8
Layer_4
  10
155.02109
  20
228.46207
  0
VERTEX
  5
16a
  8
Layer_4
  10
154.94394
  20
227.87613
  0
VERTEX
  5
16b
  8
Layer_4
  10
154.89658
  20
227.28043
  0
VERTEX
  5
16c
  8
Layer_4
  10
154.88193
  20
226.70328
  0
VERTEX
  5
16d
  8
Layer_4
  10
154.88191
  20
203.43912
  0
VERTEX
  5
16e
  8
Layer_4
  10
154.89656
  20
202.86197
  0
SEQEND
  0
POLYLINE
  5
170
  8
Layer_4
  62
6
  66
1
  10
0
  20
0
  30
0
  0
VERTEX
  5
170
  8
Layer_4
  10
148.88174
  20
244.51335
  0
VERTEX
  5
171
  8
Layer_4
  10
284.88177
  20
244.51331
  0
VERTEX
  5
172
  8
Layer_4
  10
284.88174
  20
185.51332
  0
VERTEX
  5
173
  8
Layer_4
  10
148.88173
  20
185.51337
  0
VERTEX
  5
174
  8
Layer_4
  10
148.88174
  20
244.51335
  0
SEQEND
  0
POLYLINE
  5
176
  8
Layer_4
  62
6
  66
1
  10
0
  20
0
  30
0
  0
VERTEX
  5
176
  8
Layer_4
  10
151.45135
  20
239.38588
  0
VERTEX
  5
177
  8
Layer_4
  10
151.46426
  20
239.63311
  0
VERTEX
  5
178
  8
Layer_4
  10
151.50215
  20
239.8732
  0
VERTEX
  5
179
  8
Layer_4
  10
151.56375
  20
240.10493
  0
VERTEX
  5
17a
  8
Layer_4
  10
151.64782
  20
240.32709
  0
VERTEX
  5
17b
  8
Layer_4
  10
151.87832
  20
240.73782
  0
VERTEX
  5
17c
  8
Layer_4
  10
152.18359
  20
241.09569
  0
VERTEX
  5
17d
  8
Layer_4
  10
152.55358
  20
241.39095
  0
VERTEX
  5
17e
  8
Layer_4
  10
152.97824
  20
241.61389
  0
VERTEX
  5
17f
  8
Layer_4
  10
153.44752
  20
241.75479
  0
VERTEX
  5
180
  8
Layer_4
  10
153.95136
  20
241.80391
  0
VERTEX
  5
181
  8
Layer_4
  10
154.45519
  20
241.75479
  0
VERTEX
  5
182
  8
Layer_4
  10
154.92447
  20
241.61389
  0
VERTEX
  5
183
  8
Layer_4
  10
155.34913
  20
241.39095
  0
VERTEX
  5
184
  8
Layer_4
  10
155.71912
  20
241.09569
  0
VERTEX
  5
185
  8
Layer_4
  10
156.02439
  20
240.73782
  0
VERTEX
  5
186
  8
Layer_4
  10
156.25489
  20
240.32709
  0
VERTEX
  5
187
  8
Layer_4
  10
156.33896
  20
240.10493
  0
VERTEX
  5
188
  8
Layer_4
  10
156.40056
  20
239.8732
  0
VERTEX
  5
189
  8
Layer_4
  10
156.43845
  20
239.63311
  0
VERTEX
  5
18a
  8
Layer_4
  10
156.45136
  20
239.38588
  0
VERTEX
  5
18b
  8
Layer_4
  10
156.43845
  20
239.13865
  0
VERTEX
  5
18c
  8
Layer_4
  10
156.40056
  20
238.89856
  0
VERTEX
  5
18d
  8
Layer_4
  10
156.33896
  20
238.66683
  0
VERTEX
  5
18e
  8
Layer_4
  10
156.25489
  20
238.44467
  0
VERTEX
  5
18f
  8
Layer_4
  10
156.02439
  20
238.03393
  0
VERTEX
  5
190
  8
Layer_4
  10
155.71912
  20
237.67607
  0
VERTEX
  5
191
  8
Layer_4
  10
155.34913
  20
237.38081
  0
VERTEX
  5
192
  8
Layer_4
  10
154.92447
  20
237.15787
  0
VERTEX
  5
193
  8
Layer_4
  10
154.45519
  20
237.01697
  0
VERTEX
  5
194
  8
Layer_4
  10
153.95135
  20
236.96785
  0
VERTEX
  5
195
  8
Layer_4
  10
153.44752
  20
237.01697
  0
VERTEX
  5
196
  8
Layer_4
  10
152.97824
  20
237.15787
  0
VERTEX
  5
197
  8
Layer_4
  10
152.55358
  20
237.38081
  0
VERTEX
  5
198
  8
Layer_4
  10
152.18359
  20
237.67607
  0
VERTEX
  5
199
  8
Layer_4
  10
151.87832
  20
238.03394
  0
VERTEX
  5
19a
  8
Layer_4
  10
151.64782
  20
238.44467
  0
VERTEX
  5
19b
  8
Layer_4
  10
151.56375
  20
238.66683
  0
VERTEX
  5
19c
  8
Layer_4
  10
151.50215
  20
238.89856
  0
VERTEX
  5
19d
  8
Layer_4
  10
151.46426
  20
239.13865
  0
VERTEX
  5
19e
  8
Layer_4
  10
151.45135
  20
239.38588
  0
SEQEND
  0
POLYLINE
  5
1a0
  8
Layer_4
  62
6
  66
1
  10
0
  20
0
  30
0
  0
VERTEX
  5
1a0
  8
Layer_4
  10
151.45135
  20
190.52527
  0
VERTEX
  5
1a1
  8
Layer_4
  10
151.46426
  20
190.7725
  0
VERTEX
  5
1a2
  8
Layer_4
  10
151.50215
  20
191.01259
  0
VERTEX
  5
1a3
  8
Layer_4
  10
151.56375
  20
191.24432
  0
VERTEX
  5
1a4
  8
Layer_4
  10
151.64782
  20
191.46648
  0
VERTEX
  5
1a5
  8
Layer_4
  10
151.87832
  20
191.87721
  0
VERTEX
  5
1a6
  8
Layer_4
  10
152.18359
  20
192.23508
  0
VERTEX
  5
1a7
  8
Layer_4
  10
152.55358
  20
192.53034
  0
VERTEX
  5
1a8
  8
Layer_4
  10
152.97824
  20
192.75328
  0
VERTEX
  5
1a9
  8
Layer_4
  10
153.44752
  20
192.89418
  0
VERTEX
  5
1aa
  8
Layer_4
  10
153.95136
  20
192.9433
  0
VERTEX
  5
1ab
  8
Layer_4
  10
154.45519
  20
192.89417
  0
VERTEX
  5
1ac
  8
Layer_4
  10
154.92447
  20
192.75328
  0
VERTEX
  5
1ad
  8
Layer_4
  10
155.34913
  20
192.53034
  0
VERTEX
  5
1ae
  8
Layer_4
  10
155.71912
  20
192.23507
  0
VERTEX
  5
1af
  8
Layer_4
  10
156.02439
  20
191.87721
  0
VERTEX
  5
1b0
  8
Layer_4
  10
156.25489
  20
191.46648
  0
VERTEX
  5
1b1
  8
Layer_4
  10
156.33896
  20
191.24432
  0
VERTEX
  5
1b2
  8
Layer_4
  10
156.40056
  20
191.01259
  0
VERTEX
  5
1b3
  8
Layer_4
  10
156.43845
  20
190.7725
  0
VERTEX
  5
1b4
  8
Layer_4
  10
156.45136
  20
190.52527
  0
VERTEX
  5
1b5
  8
Layer_4
  10
156.43845
  20
190.27804
  0
VERTEX
  5
1b6
  8
Layer_4
  10
156.40056
  20
190.03795
  0
VERTEX
  5
1b7
  8
Layer_4
  10
156.33896
  20
189.80622
  0
VERTEX
  5
1b8
  8
Layer_4
  10
156.25489
  20
189.58406
  0
VERTEX
  5
1b9
  8
Layer_4
  10
156.02439
  20
189.17332
  0
VERTEX
  5
1ba
  8
Layer_4
  10
155.71912
  20
188.81546
  0
VERTEX
  5
1bb
  8
Layer_4
  10
155.34913
  20
188.5202
  0
VERTEX
  5
1bc
  8
Layer_4
  10
154.92447
  20
188.29726
  0
VERTEX
  5
1bd
  8
Layer_4
  10
154.45519
  20
188.15636
  0
VERTEX
  5
1be
  8
Layer_4
  10
153.95135
  20
188.10724
  0
VERTEX
  5
1bf
  8
Layer_4
  10
153.44752
  20
188.15636
  0
VERTEX
  5
1c0
  8
Layer_4
  10
152.97824
  20
188.29726
  0
VERTEX
  5
1c1
  8
Layer_4
  10
152.55358
  20
188.5202
  0
VERTEX
  5
1c2
  8
Layer_4
  10
152.18359
  20
188.81546
  0
VERTEX
  5
1c3
  8
Layer_4
  10
151.87832
  20
189.17332
  0
VERTEX
  5
1c4
  8
Layer_4
  10
151.64782
  20
189.58406
  0
VERTEX
  5
1c5
  8
Layer_4
  10
151.56375
  20
189.80622
  0
VERTEX
  5
1c6
  8
Layer_4
  10
151.50215
  20
190.03795
  0
VERTEX
  5
1c7
  8
Layer_4
  10
151.46426
  20
190.27804
  0
VERTEX
  5
1c8
  8
Layer_4
  10
151.45135
  20
190.52527
  0
SEQEND
  0
POLYLINE
  5
1ca
  8
Layer_4
  62
6
  66
1
  10
0
  20
0
  30
0
  0
VERTEX
  5
1ca
  8
Layer_4
  10
277.3121
  20
239.38857
  0
VERTEX
  5
1cb
  8
Layer_4
  10
277.32501
  20
239.6358
  0
VERTEX
  5
1cc
  8
Layer_4
  10
277.36289
  20
239.87588
  0
VERTEX
  5
1cd
  8
Layer_4
  10
277.4245
  20
240.10761
  0
VERTEX
  5
1ce
  8
Layer_4
  10
277.50857
  20
240.32977
  0
VERTEX
  5
1cf
  8
Layer_4
  10
277.73906
  20
240.74051
  0
VERTEX
  5
1d0
  8
Layer_4
  10
278.04434
  20
241.09837
  0
VERTEX
  5
1d1
  8
Layer_4
  10
278.41433
  20
241.39364
  0
VERTEX
  5
1d2
  8
Layer_4
  10
278.83899
  20
241.61658
  0
VERTEX
  5
1d3
  8
Layer_4
  10
279.30827
  20
241.75747
  0
VERTEX
  5
1d4
  8
Layer_4
  10
279.8121
  20
241.8066
  0
VERTEX
  5
1d5
  8
Layer_4
  10
280.31594
  20
241.75747
  0
VERTEX
  5
1d6
  8
Layer_4
  10
280.78522
  20
241.61658
  0
VERTEX
  5
1d7
  8
Layer_4
  10
281.20988
  20
241.39363
  0
VERTEX
  5
1d8
  8
Layer_4
  10
281.57987
  20
241.09837
  0
VERTEX
  5
1d9
  8
Layer_4
  10
281.88514
  20
240.74051
  0
VERTEX
  5
1da
  8
Layer_4
  10
282.11564
  20
240.32977
  0
VERTEX
  5
1db
  8
Layer_4
  10
282.19971
  20
240.10761
  0
VERTEX
  5
1dc
  8
Layer_4
  10
282.26131
  20
239.87588
  0
VERTEX
  5
1dd
  8
Layer_4
  10
282.2992
  20
239.63579
  0
VERTEX
  5
1de
  8
Layer_4
  10
282.3121
  20
239.38856
  0
VERTEX
  5
1df
  8
Layer_4
  10
282.2992
  20
239.14133
  0
VERTEX
  5
1e0
  8
Layer_4
  10
282.26131
  20
238.90125
  0
VERTEX
  5
1e1
  8
Layer_4
  10
282.19971
  20
238.66952
  0
VERTEX
  5
1e2
  8
Layer_4
  10
282.11564
  20
238.44736
  0
VERTEX
  5
1e3
  8
Layer_4
  10
281.88514
  20
238.03662
  0
VERTEX
  5
1e4
  8
Layer_4
  10
281.57987
  20
237.67876
  0
VERTEX
  5
1e5
  8
Layer_4
  10
281.20988
  20
237.38349
  0
VERTEX
  5
1e6
  8
Layer_4
  10
280.78522
  20
237.16055
  0
VERTEX
  5
1e7
  8
Layer_4
  10
280.31594
  20
237.01966
  0
VERTEX
  5
1e8
  8
Layer_4
  10
279.8121
  20
236.97053
  0
VERTEX
  5
1e9
  8
Layer_4
  10
279.30827
  20
237.01966
  0
VERTEX
  5
1ea
  8
Layer_4
  10
278.83899
  20
237.16055
  0
VERTEX
  5
1eb
  8
Layer_4
  10
278.41433
  20
237.3835
  0
VERTEX
  5
1ec
  8
Layer_4
  10
278.04434
  20
237.67876
  0
VERTEX
  5
1ed
  8
Layer_4
  10
277.73906
  20
238.03662
  0
VERTEX
  5
1ee
  8
Layer_4
  10
277.50857
  20
238.44736
  0
VERTEX
  5
1ef
  8
Layer_4
  10
277.4245
  20
238.66952
  0
VERTEX
  5
1f0
  8
Layer_4
  10
277.36289
  20
238.90125
  0
VERTEX
  5
1f1
  8
Layer_4
  10
277.32501
  20
239.14134
  0
VERTEX
  5
1f2
  8
Layer_4
  10
277.3121
  20
239.38857
  0
SEQEND
  0
POLYLINE
  5
1f4
  8
Layer_4
  62
6
  66
1
  10
0
  20
0
  30
0
  0
VERTEX
  5
1f4
  8
Layer_4
  10
277.31195
  20
190.52527
  0
VERTEX
  5
1f5
  8
Layer_4
  10
277.32486
  20
190.7725
  0
VERTEX
  5
1f6
  8
Layer_4
  10
277.36274
  20
191.01259
  0
VERTEX
  5
1f7
  8
Layer_4
  10
277.42435
  20
191.24432
  0
VERTEX
  5
1f8
  8
Layer_4
  10
277.50841
  20
191.46648
  0
VERTEX
  5
1f9
  8
Layer_4
  10
277.73891
  20
191.87721
  0
VERTEX
  5
1fa
  8
Layer_4
  10
278.04418
  20
192.23508
  0
VERTEX
  5
1fb
  8
Layer_4
  10
278.41418
  20
192.53034
  0
VERTEX
  5
1fc
  8
Layer_4
  10
278.83884
  20
192.75328
  0
VERTEX
  5
1fd
  8
Layer_4
  10
279.30811
  20
192.89418
  0
VERTEX
  5
1fe
  8
Layer_4
  10
279.81195
  20
192.9433
  0
VERTEX
  5
1ff
  8
Layer_4
  10
280.31579
  20
192.89417
  0
VERTEX
  5
200
  8
Layer_4
  10
280.78506
  20
192.75328
  0
VERTEX
  5
201
  8
Layer_4
  10
281.20973
  20
192.53034
  0
VERTEX
  5
202
  8
Layer_4
  10
281.57972
  20
192.23507
  0
VERTEX
  5
203
  8
Layer_4
  10
281.88499
  20
191.87721
  0
VERTEX
  5
204
  8
Layer_4
  10
282.11549
  20
191.46648
  0
VERTEX
  5
205
  8
Layer_4
  10
282.19956
  20
191.24432
  0
VERTEX
  5
206
  8
Layer_4
  10
282.26116
  20
191.01259
  0
VERTEX
  5
207
  8
Layer_4
  10
282.29904
  20
190.7725
  0
VERTEX
  5
208
  8
Layer_4
  10
282.31195
  20
190.52527
  0
VERTEX
  5
209
  8
Layer_4
  10
282.29904
  20
190.27804
  0
VERTEX
  5
20a
  8
Layer_4
  10
282.26116
  20
190.03795
  0
VERTEX
  5
20b
  8
Layer_4
  10
282.19956
  20
189.80622
  0
VERTEX
  5
20c
  8
Layer_4
  10
282.11549
  20
189.58406
  0
VERTEX
  5
20d
  8
Layer_4
  10
281.88499
  20
189.17332
  0
VERTEX
  5
20e
  8
Layer_4
  10
281.57972
  20
188.81546
  0
VERTEX
  5
20f
  8
Layer_4
  10
281.20972
  20
188.5202
  0
VERTEX
  5
210
  8
Layer_4
  10
280.78506
  20
188.29726
  0
VERTEX
  5
211
  8
Layer_4
  10
280.31579
  20
188.15636
  0
VERTEX
  5
212
  8
Layer_4
  10
279.81195
  20
188.10724
  0
VERTEX
  5
213
  8
Layer_4
  10
279.30811
  20
188.15636
  0
VERTEX
  5
214
  8
Layer_4
  10
278.83884
  20
188.29726
  0
VERTEX
  5
215
  8
Layer_4
  10
278.41418
  20
188.5202
  0
VERTEX
  5
216
  8
Layer_4
  10
278.04418
  20
188.81546
  0
VERTEX
  5
217
  8
Layer_4
  10
277.73891
  20
189.17332
  0
VERTEX
  5
218
  8
Layer_4
  10
277.50841
  20
189.58406
  0
VERTEX
  5
219
  8
Layer_4
  10
277.42435
  20
189.80622
  0
VERTEX
  5
21a
  8
Layer_4
  10
277.36274
  20
190.03795
  0
VERTEX
  5
21b
  8
Layer_4
  10
277.32486
  20
190.27804
  0
VERTEX
  5
21c
  8
Layer_4
  10
277.31195
  20
190.52527
  0
SEQEND
  0
POLYLINE
  5
21e
  8
Layer_4
  62
6
  66
1
  10
0
  20
0
  30
0
  0
VERTEX
  5
21e
  8
Layer_4
  10
269.32993
  20
7.5096436
  0
VERTEX
  5
21f
  8
Layer_4
  10
261.30447
  20
7.5262451
  0
VERTEX
  5
220
  8
Layer_4
  10
261.30447
  20
11.699081
  0
VERTEX
  5
221
  8
Layer_4
  10
259.53647
  20
11.699097
  0
VERTEX
  5
222
  8
Layer_4
  10
259.53647
  20
15.661987
  0
VERTEX
  5
223
  8
Layer_4
  10
261.30447
  20
15.661972
  0
VERTEX
  5
224
  8
Layer_4
  10
261.30447
  20
17.953979
  0
VERTEX
  5
225
  8
Layer_4
  10
266.12369
  20
17.953979
  0
VERTEX
  5
226
  8
Layer_4
  10
266.12369
  20
19.73967
  0
VERTEX
  5
227
  8
Layer_4
  10
270.32339
  20
19.739426
  0
VERTEX
  5
228
  8
Layer_4
  10
270.32364
  20
17.953003
  0
VERTEX
  5
229
  8
Layer_4
  10
274.52383
  20
17.953003
  0
VERTEX
  5
22a
  8
Layer_4
  10
274.52335
  20
19.739914
  0
VERTEX
  5
22b
  8
Layer_4
  10
278.72379
  20
19.739914
  0
VERTEX
  5
22c
  8
Layer_4
  10
278.72379
  20
17.953003
  0
VERTEX
  5
22d
  8
Layer_4
  10
282.92374
  20
17.953003
  0
VERTEX
  5
22e
  8
Layer_4
  10
282.92325
  20
19.73967
  0
VERTEX
  5
22f
  8
Layer_4
  10
287.12369
  20
19.73967
  0
VERTEX
  5
230
  8
Layer_4
  10
287.12378
  20
17.962646
  0
VERTEX
  5
231
  8
Layer_4
  10
287.74673
  20
17.962646
  0
VERTEX
  5
232
  8
Layer_4
  10
287.74673
  20
15.08342
  0
VERTEX
  5
233
  8
Layer_4
  10
289.51855
  20
15.083176
  0
VERTEX
  5
234
  8
Layer_4
  10
289.51855
  20
11.105392
  0
VERTEX
  5
235
  8
Layer_4
  10
287.74673
  20
11.105392
  0
VERTEX
  5
236
  8
Layer_4
  10
287.74673
  20
7.5262451
  0
VERTEX
  5
237
  8
Layer_4
  10
279.7435
  20
7.5096436
  0
VERTEX
  5
238
  8
Layer_4
  10
279.7435
  20
5.763855
  0
VERTEX
  5
239
  8
Layer_4
  10
269.32993
  20
5.7638702
  0
VERTEX
  5
23a
  8
Layer_4
  10
269.32993
  20
7.5096436
  0
SEQEND
  0
POLYLINE
  5
23c
  8
Layer_4
  62
6
  66
1
  10
0
  20
0
  30
0
  0
VERTEX
  5
23c
  8
Layer_4
  10
96.34314
  20
87.352249
  0
VERTEX
  5
23d
  8
Layer_4
  10
96.343124
  20
83.152298
  0
VERTEX
  5
23e
  8
Layer_4
  10
94.566086
  20
83.152298
  0
VERTEX
  5
23f
  8
Layer_4
  10
94.566086
  20
78.952347
  0
VERTEX
  5
240
  8
Layer_4
  10
96.343124
  20
78.952347
  0
VERTEX
  5
241
  8
Layer_4
  10
96.343124
  20
74.752396
  0
VERTEX
  5
242
  8
Layer_4
  10
94.566086
  20
74.752396
  0
VERTEX
  5
243
  8
Layer_4
  10
94.566086
  20
68.152298
  0
VERTEX
  5
244
  8
Layer_4
  10
101.10539
  20
68.152298
  0
VERTEX
  5
245
  8
Layer_4
  10
101.10539
  20
69.929306
  0
VERTEX
  5
246
  8
Layer_4
  10
105.12932
  20
69.929306
  0
VERTEX
  5
247
  8
Layer_4
  10
105.12932
  20
68.152298
  0
VERTEX
  5
248
  8
Layer_4
  10
124.73088
  20
68.152283
  0
VERTEX
  5
249
  8
Layer_4
  10
124.73088
  20
69.929291
  0
VERTEX
  5
24a
  8
Layer_4
  10
128.75481
  20
69.929291
  0
VERTEX
  5
24b
  8
Layer_4
  10
128.75481
  20
68.152283
  0
VERTEX
  5
24c
  8
Layer_4
  10
148.35661
  20
68.152267
  0
VERTEX
  5
24d
  8
Layer_4
  10
148.35661
  20
69.929276
  0
VERTEX
  5
24e
  8
Layer_4
  10
152.38054
  20
69.929276
  0
VERTEX
  5
24f
  8
Layer_4
  10
152.38054
  20
68.152267
  0
VERTEX
  5
250
  8
Layer_4
  10
159.54173
  20
68.152252
  0
VERTEX
  5
251
  8
Layer_4
  10
159.54173
  20
70.552155
  0
VERTEX
  5
252
  8
Layer_4
  10
157.23637
  20
70.552155
  0
VERTEX
  5
253
  8
Layer_4
  10
157.23637
  20
74.75235
  0
VERTEX
  5
254
  8
Layer_4
  10
161.31877
  20
74.75235
  0
VERTEX
  5
255
  8
Layer_4
  10
161.31877
  20
78.952301
  0
VERTEX
  5
256
  8
Layer_4
  10
157.23637
  20
78.952301
  0
VERTEX
  5
257
  8
Layer_4
  10
157.23639
  20
83.152252
  0
VERTEX
  5
258
  8
Layer_4
  10
161.31879
  20
83.152252
  0
VERTEX
  5
259
  8
Layer_4
  10
161.31879
  20
87.352203
  0
VERTEX
  5
25a
  8
Layer_4
  10
157.23639
  20
87.352203
  0
VERTEX
  5
25b
  8
Layer_4
  10
157.23639
  20
91.552155
  0
VERTEX
  5
25c
  8
Layer_4
  10
161.31879
  20
91.552155
  0
VERTEX
  5
25d
  8
Layer_4
  10
161.31879
  20
95.75235
  0
VERTEX
  5
25e
  8
Layer_4
  10
159.54175
  20
95.75235
  0
VERTEX
  5
25f
  8
Layer_4
  10
159.54175
  20
98.152252
  0
VERTEX
  5
260
  8
Layer_4
  10
152.37958
  20
98.152267
  0
VERTEX
  5
261
  8
Layer_4
  10
152.37958
  20
96.375259
  0
VERTEX
  5
262
  8
Layer_4
  10
148.35541
  20
96.375259
  0
VERTEX
  5
263
  8
Layer_4
  10
148.35541
  20
98.152267
  0
VERTEX
  5
264
  8
Layer_4
  10
128.75385
  20
98.152283
  0
VERTEX
  5
265
  8
Layer_4
  10
128.75383
  20
96.375275
  0
VERTEX
  5
266
  8
Layer_4
  10
124.72992
  20
96.375275
  0
VERTEX
  5
267
  8
Layer_4
  10
124.72992
  20
98.152283
  0
VERTEX
  5
268
  8
Layer_4
  10
105.12836
  20
98.152298
  0
VERTEX
  5
269
  8
Layer_4
  10
105.12836
  20
96.37529
  0
VERTEX
  5
26a
  8
Layer_4
  10
101.10443
  20
96.37529
  0
VERTEX
  5
26b
  8
Layer_4
  10
101.10443
  20
98.152298
  0
VERTEX
  5
26c
  8
Layer_4
  10
94.566101
  20
98.152298
  0
VERTEX
  5
26d
  8
Layer_4
  10
94.566101
  20
95.752396
  0
VERTEX
  5
26e
  8
Layer_4
  10
96.34314
  20
95.752396
  0
VERTEX
  5
26f
  8
Layer_4
  10
96.34314
  20
91.5522
  0
VERTEX
  5
270
  8
Layer_4
  10
94.566101
  20
91.5522
  0
VERTEX
  5
271
  8
Layer_4
  10
94.566101
  20
87.352249
  0
VERTEX
  5
272
  8
Layer_4
  10
96.34314
  20
87.352249
  0
SEQEND
  0
POLYLINE
  5
274
  8
Layer_4
  62
6
  66
1
  10
0
  20
0
  30
0
  0
VERTEX
  5
274
  8
Layer_4
  10
96.343124
  20
57.352219
  0
VERTEX
  5
275
  8
Layer_4
  10
96.343124
  20
53.152267
  0
VERTEX
  5
276
  8
Layer_4
  10
94.566086
  20
53.152267
  0
VERTEX
  5
277
  8
Layer_4
  10
94.566086
  20
48.952316
  0
VERTEX
  5
278
  8
Layer_4
  10
96.343124
  20
48.952316
  0
VERTEX
  5
279
  8
Layer_4
  10
96.343124
  20
44.752365
  0
VERTEX
  5
27a
  8
Layer_4
  10
94.566086
  20
44.752365
  0
VERTEX
  5
27b
  8
Layer_4
  10
94.566071
  20
38.152267
  0
VERTEX
  5
27c
  8
Layer_4
  10
101.10538
  20
38.152267
  0
VERTEX
  5
27d
  8
Layer_4
  10
101.10538
  20
39.929276
  0
VERTEX
  5
27e
  8
Layer_4
  10
105.1293
  20
39.929276
  0
VERTEX
  5
27f
  8
Layer_4
  10
105.1293
  20
38.152267
  0
VERTEX
  5
280
  8
Layer_4
  10
124.73087
  20
38.152252
  0
VERTEX
  5
281
  8
Layer_4
  10
124.73087
  20
39.92926
  0
VERTEX
  5
282
  8
Layer_4
  10
128.75479
  20
39.92926
  0
VERTEX
  5
283
  8
Layer_4
  10
128.75479
  20
38.152252
  0
VERTEX
  5
284
  8
Layer_4
  10
148.3566
  20
38.152237
  0
VERTEX
  5
285
  8
Layer_4
  10
148.3566
  20
39.929245
  0
VERTEX
  5
286
  8
Layer_4
  10
152.38052
  20
39.929245
  0
VERTEX
  5
287
  8
Layer_4
  10
152.38052
  20
38.152237
  0
VERTEX
  5
288
  8
Layer_4
  10
159.54172
  20
38.152222
  0
VERTEX
  5
289
  8
Layer_4
  10
159.54172
  20
40.552124
  0
VERTEX
  5
28a
  8
Layer_4
  10
157.23636
  20
40.552124
  0
VERTEX
  5
28b
  8
Layer_4
  10
157.23636
  20
44.752319
  0
VERTEX
  5
28c
  8
Layer_4
  10
161.31876
  20
44.752319
  0
VERTEX
  5
28d
  8
Layer_4
  10
161.31876
  20
48.952271
  0
VERTEX
  5
28e
  8
Layer_4
  10
157.23636
  20
48.952271
  0
VERTEX
  5
28f
  8
Layer_4
  10
157.23637
  20
53.152222
  0
VERTEX
  5
290
  8
Layer_4
  10
161.31877
  20
53.152222
  0
VERTEX
  5
291
  8
Layer_4
  10
161.31877
  20
57.352173
  0
VERTEX
  5
292
  8
Layer_4
  10
157.23637
  20
57.352173
  0
VERTEX
  5
293
  8
Layer_4
  10
157.23637
  20
61.552124
  0
VERTEX
  5
294
  8
Layer_4
  10
161.31877
  20
61.552124
  0
VERTEX
  5
295
  8
Layer_4
  10
161.31877
  20
65.752319
  0
VERTEX
  5
296
  8
Layer_4
  10
159.54173
  20
65.752319
  0
VERTEX
  5
297
  8
Layer_4
  10
159.54173
  20
68.152222
  0
VERTEX
  5
298
  8
Layer_4
  10
152.37958
  20
68.152237
  0
VERTEX
  5
299
  8
Layer_4
  10
152.37956
  20
66.375229
  0
VERTEX
  5
29a
  8
Layer_4
  10
148.35539
  20
66.375229
  0
VERTEX
  5
29b
  8
Layer_4
  10
148.35541
  20
68.152237
  0
VERTEX
  5
29c
  8
Layer_4
  10
128.75383
  20
68.152252
  0
VERTEX
  5
29d
  8
Layer_4
  10
128.75383
  20
66.375244
  0
VERTEX
  5
29e
  8
Layer_4
  10
124.7299
  20
66.375244
  0
VERTEX
  5
29f
  8
Layer_4
  10
124.72992
  20
68.152252
  0
VERTEX
  5
2a0
  8
Layer_4
  10
105.12836
  20
68.152267
  0
VERTEX
  5
2a1
  8
Layer_4
  10
105.12834
  20
66.375259
  0
VERTEX
  5
2a2
  8
Layer_4
  10
101.10442
  20
66.375259
  0
VERTEX
  5
2a3
  8
Layer_4
  10
101.10443
  20
68.152267
  0
VERTEX
  5
2a4
  8
Layer_4
  10
94.566101
  20
68.152267
  0
VERTEX
  5
2a5
  8
Layer_4
  10
94.566086
  20
65.752365
  0
VERTEX
  5
2a6
  8
Layer_4
  10
96.343124
  20
65.752365
  0
VERTEX
  5
2a7
  8
Layer_4
  10
96.343124
  20
61.55217
  0
VERTEX
  5
2a8
  8
Layer_4
  10
94.566086
  20
61.55217
  0
VERTEX
  5
2a9
  8
Layer_4
  10
94.566086
  20
57.352219
  0
VERTEX
  5
2aa
  8
Layer_4
  10
96.343124
  20
57.352219
  0
SEQEND
  0
POLYLINE
  5
2ac
  8
Layer_4
  62
6
  66
1
  10
0
  20
0
  30
0
  0
VERTEX
  5
2ac
  8
Layer_4
  10
283.97281
  20
139.04463
  42
-0.31599744
  0
VERTEX
  5
2ad
  8
Layer_4
  10
284.90363
  20
138.37068
  42
-0.088874833
  0
VERTEX
  5
2ae
  8
Layer_4
  10
284.95795
  20
138.03
  0
VERTEX
  5
2af
  8
Layer_4
  10
284.59528
  20
113.44039
  42
-0.044178079
  0
VERTEX
  5
2b0
  8
Layer_4
  10
283.92456
  20
106.65389
  42
-0.052936326
  0
VERTEX
  5
2b1
  8
Layer_4
  10
282.03333
  20
100.66575
  42
-0.064287377
  0
VERTEX
  5
2b2
  8
Layer_4
  10
278.55566
  20
95.847855
  42
-0.041515528
  0
VERTEX
  5
2b3
  8
Layer_4
  10
276.03992
  20
93.524841
  42
-0.026665826
  0
VERTEX
  5
2b4
  8
Layer_4
  10
275.33469
  20
93.071808
  0
VERTEX
  5
2b5
  8
Layer_4
  10
275.01331
  20
92.853867
  42
0.13148803
  0
VERTEX
  5
2b6
  8
Layer_4
  10
272.82709
  20
90.257164
  42
0.25691318
  0
VERTEX
  5
2b7
  8
Layer_4
  10
273.29886
  20
86.321068
  42
0.11150396
  0
VERTEX
  5
2b8
  8
Layer_4
  10
275.57568
  20
84.165672
  0
VERTEX
  5
2b9
  8
Layer_4
  10
275.91727
  20
83.916229
  42
-0.081058235
  0
VERTEX
  5
2ba
  8
Layer_4
  10
280.75211
  20
78.276932
  42
-0.01842144
  0
VERTEX
  5
2bb
  8
Layer_4
  10
281.62866
  20
76.738449
  42
-0.080310234
  0
VERTEX
  5
2bc
  8
Layer_4
  10
283.74893
  20
67.576294
  42
-0.023980689
  0
VERTEX
  5
2bd
  8
Layer_4
  10
283.86517
  20
63.968967
  0
VERTEX
  5
2be
  8
Layer_4
  10
283.4996
  20
39.16502
  42
-0.19903721
  0
VERTEX
  5
2bf
  8
Layer_4
  10
283.1965
  20
38.462086
  42
-0.19915544
  0
VERTEX
  5
2c0
  8
Layer_4
  10
282.48495
  20
38.179878
  0
VERTEX
  5
2c1
  8
Layer_4
  10
282.2229
  20
20.410904
  0
VERTEX
  5
2c2
  8
Layer_4
  10
288.10376
  20
20.32848
  0
VERTEX
  5
2c3
  8
Layer_4
  10
288.14716
  20
23.294952
  0
VERTEX
  5
2c4
  8
Layer_4
  10
289.94189
  20
23.268484
  0
VERTEX
  5
2c5
  8
Layer_4
  10
290.02039
  20
28.590172
  0
VERTEX
  5
2c6
  8
Layer_4
  10
288.22614
  20
28.616634
  0
VERTEX
  5
2c7
  8
Layer_4
  10
288.60913
  20
54.583782
  0
VERTEX
  5
2c8
  8
Layer_4
  10
290.40335
  20
54.55732
  0
VERTEX
  5
2c9
  8
Layer_4
  10
290.48184
  20
59.879005
  0
VERTEX
  5
2ca
  8
Layer_4
  10
288.68762
  20
59.905468
  0
VERTEX
  5
2cb
  8
Layer_4
  10
289.07059
  20
85.872375
  0
VERTEX
  5
2cc
  8
Layer_4
  10
290.86481
  20
85.845909
  0
VERTEX
  5
2cd
  8
Layer_4
  10
290.9433
  20
91.167595
  0
VERTEX
  5
2ce
  8
Layer_4
  10
289.14908
  20
91.194061
  0
VERTEX
  5
2cf
  8
Layer_4
  10
289.53204
  20
117.16121
  0
VERTEX
  5
2d0
  8
Layer_4
  10
291.32629
  20
117.13474
  0
VERTEX
  5
2d1
  8
Layer_4
  10
291.40479
  20
122.45644
  0
VERTEX
  5
2d2
  8
Layer_4
  10
289.61053
  20
122.4829
  0
VERTEX
  5
2d3
  8
Layer_4
  10
289.9935
  20
148.45004
  0
VERTEX
  5
2d4
  8
Layer_4
  10
291.78775
  20
148.42358
  0
VERTEX
  5
2d5
  8
Layer_4
  10
291.86624
  20
153.74527
  0
VERTEX
  5
2d6
  8
Layer_4
  10
290.0715
  20
153.77174
  0
VERTEX
  5
2d7
  8
Layer_4
  10
290.11621
  20
156.78026
  0
VERTEX
  5
2d8
  8
Layer_4
  10
284.23544
  20
156.867
  0
VERTEX
  5
2d9
  8
Layer_4
  10
283.97281
  20
139.04463
  0
SEQEND
  0
POLYLINE
  5
2db
  8
Layer_4
  62
6
  66
1
  10
0
  20
0
  30
0
  0
VERTEX
  5
2db
  8
Layer_4
  10
273.53619
  20
88.632759
  0
VERTEX
  5
2dc
  8
Layer_4
  10
273.55542
  20
88.396126
  42
0.39261545
  0
VERTEX
  5
2dd
  8
Layer_4
  10
276.17697
  20
86.22319
  42
0.40817437
  0
VERTEX
  5
2de
  8
Layer_4
  10
278.53519
  20
88.807838
  42
0.39320827
  0
VERTEX
  5
2df
  8
Layer_4
  10
276.12567
  20
91.220833
  42
0.40692701
  0
VERTEX
  5
2e0
  8
Layer_4
  10
273.53952
  20
88.874191
  0
VERTEX
  5
2e1
  8
Layer_4
  10
273.53619
  20
88.632759
  0
SEQEND
  0
POLYLINE
  5
2e3
  8
Layer_4
  62
6
  66
1
  10
0
  20
0
  30
0
  0
VERTEX
  5
2e3
  8
Layer_4
  10
284.70456
  20
36.139568
  0
VERTEX
  5
2e4
  8
Layer_4
  10
284.67157
  20
34.369858
  0
VERTEX
  5
2e5
  8
Layer_4
  10
286.44125
  20
34.33688
  0
VERTEX
  5
2e6
  8
Layer_4
  10
286.47424
  20
36.10659
  0
VERTEX
  5
2e7
  8
Layer_4
  10
284.70456
  20
36.139568
  0
SEQEND
  0
POLYLINE
  5
2e9
  8
Layer_4
  62
6
  66
1
  10
0
  20
0
  30
0
  0
VERTEX
  5
2e9
  8
Layer_4
  10
284.57617
  20
27.434547
  0
VERTEX
  5
2ea
  8
Layer_4
  10
284.54318
  20
25.664835
  0
VERTEX
  5
2eb
  8
Layer_4
  10
286.31287
  20
25.631859
  0
VERTEX
  5
2ec
  8
Layer_4
  10
286.34586
  20
27.401571
  0
VERTEX
  5
2ed
  8
Layer_4
  10
284.57617
  20
27.434547
  0
SEQEND
  0
POLYLINE
  5
2ef
  8
Layer_4
  62
6
  66
1
  10
0
  20
0
  30
0
  0
VERTEX
  5
2ef
  8
Layer_4
  10
286.25131
  20
141.01709
  0
VERTEX
  5
2f0
  8
Layer_4
  10
286.27054
  20
142.78702
  0
VERTEX
  5
2f1
  8
Layer_4
  10
288.04044
  20
142.76779
  0
VERTEX
  5
2f2
  8
Layer_4
  10
288.02121
  20
140.99786
  0
VERTEX
  5
2f3
  8
Layer_4
  10
286.25131
  20
141.01709
  0
SEQEND
  0
POLYLINE
  5
2f5
  8
Layer_4
  62
6
  66
1
  10
0
  20
0
  30
0
  0
VERTEX
  5
2f5
  8
Layer_4
  10
286.3797
  20
149.72209
  0
VERTEX
  5
2f6
  8
Layer_4
  10
286.39893
  20
151.49202
  0
VERTEX
  5
2f7
  8
Layer_4
  10
288.16882
  20
151.47279
  0
VERTEX
  5
2f8
  8
Layer_4
  10
288.1496
  20
149.70287
  0
VERTEX
  5
2f9
  8
Layer_4
  10
286.3797
  20
149.72209
  0
SEQEND
  0
POLYLINE
  5
2fb
  8
Layer_4
  62
6
  66
1
  10
0
  20
0
  30
0
  0
VERTEX
  5
2fb
  8
Layer_4
  10
284.53223
  20
144.94553
  0
VERTEX
  5
2fc
  8
Layer_4
  10
284.57648
  20
147.94521
  0
VERTEX
  5
2fd
  8
Layer_4
  10
286.34625
  20
147.9191
  0
VERTEX
  5
2fe
  8
Layer_4
  10
286.302
  20
144.91942
  0
VERTEX
  5
2ff
  8
Layer_4
  10
284.53223
  20
144.94553
  0
SEQEND
  0
POLYLINE
  5
301
  8
Layer_4
  62
6
  66
1
  10
0
  20
0
  30
0
  0
VERTEX
  5
301
  8
Layer_4
  10
282.87033
  20
32.263508
  0
VERTEX
  5
302
  8
Layer_4
  10
282.82608
  20
29.263836
  0
VERTEX
  5
303
  8
Layer_4
  10
284.59586
  20
29.237734
  0
VERTEX
  5
304
  8
Layer_4
  10
284.64011
  20
32.237408
  0
VERTEX
  5
305
  8
Layer_4
  10
282.87033
  20
32.263508
  0
SEQEND
  0
POLYLINE
  5
307
  8
Layer_4
  62
6
  66
1
  10
0
  20
0
  30
0
  0
VERTEX
  5
307
  8
Layer_4
  10
242.49667
  20
24.104408
  42
-0.31599744
  0
VERTEX
  5
308
  8
Layer_4
  10
241.55595
  20
24.764488
  42
-0.088874833
  0
VERTEX
  5
309
  8
Layer_4
  10
241.4966
  20
25.10434
  0
VERTEX
  5
30a
  8
Layer_4
  10
241.49492
  20
49.696625
  42
-0.044178079
  0
VERTEX
  5
30b
  8
Layer_4
  10
242.065
  20
56.492317
  42
-0.052936326
  0
VERTEX
  5
30c
  8
Layer_4
  10
243.86732
  20
62.50782
  42
-0.064287377
  0
VERTEX
  5
30d
  8
Layer_4
  10
247.27324
  20
67.376709
  42
-0.041515528
  0
VERTEX
  5
30e
  8
Layer_4
  10
249.75427
  20
69.73674
  42
-0.026665826
  0
VERTEX
  5
30f
  8
Layer_4
  10
250.45273
  20
70.200165
  0
VERTEX
  5
310
  8
Layer_4
  10
250.77083
  20
70.422844
  42
0.13148803
  0
VERTEX
  5
311
  8
Layer_4
  10
252.91837
  20
73.051651
  42
0.25691318
  0
VERTEX
  5
312
  8
Layer_4
  10
252.38831
  20
76.980331
  42
0.11150396
  0
VERTEX
  5
313
  8
Layer_4
  10
250.0798
  20
79.101753
  0
VERTEX
  5
314
  8
Layer_4
  10
249.73457
  20
79.346115
  42
-0.081058235
  0
VERTEX
  5
315
  8
Layer_4
  10
244.81671
  20
84.913155
  42
-0.01842144
  0
VERTEX
  5
316
  8
Layer_4
  10
243.91743
  20
86.438484
  42
-0.080310234
  0
VERTEX
  5
317
  8
Layer_4
  10
241.66168
  20
95.568207
  42
-0.023980689
  0
VERTEX
  5
318
  8
Layer_4
  10
241.492
  20
99.173424
  0
VERTEX
  5
319
  8
Layer_4
  10
241.49005
  20
123.98006
  42
-0.19903721
  0
VERTEX
  5
31a
  8
Layer_4
  10
241.78271
  20
124.68741
  42
-0.19915544
  0
VERTEX
  5
31b
  8
Layer_4
  10
242.48999
  20
124.98013
  0
VERTEX
  5
31c
  8
Layer_4
  10
242.48877
  20
142.75104
  0
VERTEX
  5
31d
  8
Layer_4
  10
236.60733
  20
142.74632
  0
VERTEX
  5
31e
  8
Layer_4
  10
236.60786
  20
139.77953
  0
VERTEX
  5
31f
  8
Layer_4
  10
234.81294
  20
139.7794
  0
VERTEX
  5
320
  8
Layer_4
  10
234.81331
  20
134.45714
  0
VERTEX
  5
321
  8
Layer_4
  10
236.60774
  20
134.45726
  0
VERTEX
  5
322
  8
Layer_4
  10
236.60953
  20
108.4873
  0
VERTEX
  5
323
  8
Layer_4
  10
234.81509
  20
108.48717
  0
VERTEX
  5
324
  8
Layer_4
  10
234.81546
  20
103.16491
  0
VERTEX
  5
325
  8
Layer_4
  10
236.60989
  20
103.16503
  0
VERTEX
  5
326
  8
Layer_4
  10
236.61168
  20
77.195313
  0
VERTEX
  5
327
  8
Layer_4
  10
234.81725
  20
77.195183
  0
VERTEX
  5
328
  8
Layer_4
  10
234.81761
  20
71.872917
  0
VERTEX
  5
329
  8
Layer_4
  10
236.61205
  20
71.873047
  0
VERTEX
  5
32a
  8
Layer_4
  10
236.61383
  20
45.903076
  0
VERTEX
  5
32b
  8
Layer_4
  10
234.8194
  20
45.902946
  0
VERTEX
  5
32c
  8
Layer_4
  10
234.81976
  20
40.580673
  0
VERTEX
  5
32d
  8
Layer_4
  10
236.6142
  20
40.580803
  0
VERTEX
  5
32e
  8
Layer_4
  10
236.61597
  20
14.61084
  0
VERTEX
  5
32f
  8
Layer_4
  10
234.82153
  20
14.610718
  0
VERTEX
  5
330
  8
Layer_4
  10
234.8219
  20
9.2884521
  0
VERTEX
  5
331
  8
Layer_4
  10
236.61682
  20
9.2885742
  0
VERTEX
  5
332
  8
Layer_4
  10
236.6167
  20
6.2797089
  0
VERTEX
  5
333
  8
Layer_4
  10
242.49812
  20
6.2801208
  0
VERTEX
  5
334
  8
Layer_4
  10
242.49667
  20
24.104408
  0
SEQEND
  0
POLYLINE
  5
336
  8
Layer_4
  62
6
  66
1
  10
0
  20
0
  30
0
  0
VERTEX
  5
336
  8
Layer_4
  10
252.18527
  20
74.665375
  0
VERTEX
  5
337
  8
Layer_4
  10
252.16254
  20
74.901695
  42
0.39261545
  0
VERTEX
  5
338
  8
Layer_4
  10
249.50906
  20
77.035553
  42
0.40817437
  0
VERTEX
  5
339
  8
Layer_4
  10
247.18942
  20
74.416252
  42
0.39320827
  0
VERTEX
  5
33a
  8
Layer_4
  10
249.6344
  20
72.039223
  42
0.40692701
  0
VERTEX
  5
33b
  8
Layer_4
  10
252.18552
  20
74.42392
  0
VERTEX
  5
33c
  8
Layer_4
  10
252.18527
  20
74.665375
  0
SEQEND
  0
POLYLINE
  5
33e
  8
Layer_4
  62
6
  66
1
  10
0
  20
0
  30
0
  0
VERTEX
  5
33e
  8
Layer_4
  10
240.24043
  20
126.98732
  0
VERTEX
  5
33f
  8
Layer_4
  10
240.24719
  20
128.75732
  0
VERTEX
  5
340
  8
Layer_4
  10
238.47722
  20
128.76408
  0
VERTEX
  5
341
  8
Layer_4
  10
238.47046
  20
126.99408
  0
VERTEX
  5
342
  8
Layer_4
  10
240.24043
  20
126.98732
  0
SEQEND
  0
POLYLINE
  5
344
  8
Layer_4
  62
6
  66
1
  10
0
  20
0
  30
0
  0
VERTEX
  5
344
  8
Layer_4
  10
240.23982
  20
135.69328
  0
VERTEX
  5
345
  8
Layer_4
  10
240.24658
  20
137.46329
  0
VERTEX
  5
346
  8
Layer_4
  10
238.47661
  20
137.47005
  0
VERTEX
  5
347
  8
Layer_4
  10
238.46985
  20
135.70004
  0
VERTEX
  5
348
  8
Layer_4
  10
240.23982
  20
135.69328
  0
SEQEND
  0
POLYLINE
  5
34a
  8
Layer_4
  62
6
  66
1
  10
0
  20
0
  30
0
  0
VERTEX
  5
34a
  8
Layer_4
  10
240.24763
  20
22.098402
  0
VERTEX
  5
34b
  8
Layer_4
  10
240.25464
  20
20.328396
  0
VERTEX
  5
34c
  8
Layer_4
  10
238.48466
  20
20.321398
  0
VERTEX
  5
34d
  8
Layer_4
  10
238.47766
  20
22.091404
  0
VERTEX
  5
34e
  8
Layer_4
  10
240.24763
  20
22.098402
  0
SEQEND
  0
POLYLINE
  5
350
  8
Layer_4
  62
6
  66
1
  10
0
  20
0
  30
0
  0
VERTEX
  5
350
  8
Layer_4
  10
240.24823
  20
13.392453
  0
VERTEX
  5
351
  8
Layer_4
  10
240.25523
  20
11.622448
  0
VERTEX
  5
352
  8
Layer_4
  10
238.48526
  20
11.615451
  0
VERTEX
  5
353
  8
Layer_4
  10
238.47826
  20
13.385456
  0
VERTEX
  5
354
  8
Layer_4
  10
240.24823
  20
13.392453
  0
SEQEND
  0
POLYLINE
  5
356
  8
Layer_4
  62
6
  66
1
  10
0
  20
0
  30
0
  0
VERTEX
  5
356
  8
Layer_4
  10
242.02475
  20
18.195862
  0
VERTEX
  5
357
  8
Layer_4
  10
242.02495
  20
15.195862
  0
VERTEX
  5
358
  8
Layer_4
  10
240.25497
  20
15.19574
  0
VERTEX
  5
359
  8
Layer_4
  10
240.25478
  20
18.19574
  0
VERTEX
  5
35a
  8
Layer_4
  10
242.02475
  20
18.195862
  0
SEQEND
  0
POLYLINE
  5
35c
  8
Layer_4
  62
6
  66
1
  10
0
  20
0
  30
0
  0
VERTEX
  5
35c
  8
Layer_4
  10
242.017
  20
130.89014
  0
VERTEX
  5
35d
  8
Layer_4
  10
242.0168
  20
133.89014
  0
VERTEX
  5
35e
  8
Layer_4
  10
240.24683
  20
133.89001
  0
VERTEX
  5
35f
  8
Layer_4
  10
240.24702
  20
130.89001
  0
VERTEX
  5
360
  8
Layer_4
  10
242.017
  20
130.89014
  0
SEQEND
  0
POLYLINE
  5
362
  8
Layer_4
  62
6
  66
1
  10
0
  20
0
  30
0
  0
VERTEX
  5
362
  8
Layer_4
  10
217.70886
  20
97.512276
  0
VERTEX
  5
363
  8
Layer_4
  10
217.70886
  20
93.512276
  0
VERTEX
  5
364
  8
Layer_4
  10
215.9303
  20
93.512276
  0
VERTEX
  5
365
  8
Layer_4
  10
215.9303
  20
89.338448
  0
VERTEX
  5
366
  8
Layer_4
  10
220.10413
  20
89.338455
  0
VERTEX
  5
367
  8
Layer_4
  10
220.10413
  20
87.556961
  0
VERTEX
  5
368
  8
Layer_4
  10
224.10413
  20
87.556961
  0
VERTEX
  5
369
  8
Layer_4
  10
224.10413
  20
89.338455
  0
VERTEX
  5
36a
  8
Layer_4
  10
228.28821
  20
89.338455
  0
VERTEX
  5
36b
  8
Layer_4
  10
228.28821
  20
93.512283
  0
VERTEX
  5
36c
  8
Layer_4
  10
230.0697
  20
93.512283
  0
VERTEX
  5
36d
  8
Layer_4
  10
230.0697
  20
97.512283
  0
VERTEX
  5
36e
  8
Layer_4
  10
228.29138
  20
97.512283
  0
VERTEX
  5
36f
  8
Layer_4
  10
228.28821
  20
101.69637
  0
VERTEX
  5
370
  8
Layer_4
  10
224.10413
  20
101.69637
  0
VERTEX
  5
371
  8
Layer_4
  10
224.10413
  20
99.914871
  0
VERTEX
  5
372
  8
Layer_4
  10
220.10413
  20
99.914864
  0
VERTEX
  5
373
  8
Layer_4
  10
220.10413
  20
101.69636
  0
VERTEX
  5
374
  8
Layer_4
  10
215.9303
  20
101.69636
  0
VERTEX
  5
375
  8
Layer_4
  10
215.9303
  20
97.512276
  0
VERTEX
  5
376
  8
Layer_4
  10
217.70886
  20
97.512276
  0
SEQEND
  0
POLYLINE
  5
378
  8
Layer_4
  62
6
  66
1
  10
0
  20
0
  30
0
  0
VERTEX
  5
378
  8
Layer_4
  10
221.50769
  20
94.780106
  0
VERTEX
  5
379
  8
Layer_4
  10
221.53064
  20
94.929031
  42
-0.38501287
  0
VERTEX
  5
37a
  8
Layer_4
  10
223.15344
  20
96.118973
  42
-0.38464969
  0
VERTEX
  5
37b
  8
Layer_4
  10
224.50012
  20
94.626541
  42
-0.41421491
  0
VERTEX
  5
37c
  8
Layer_4
  10
223.00012
  20
93.126541
  42
-0.38449117
  0
VERTEX
  5
37d
  8
Layer_4
  10
221.50769
  20
94.473221
  42
-0.04934534
  0
VERTEX
  5
37e
  8
Layer_4
  10
221.50769
  20
94.780106
  0
SEQEND
  0
POLYLINE
  5
380
  8
Layer_4
  62
6
  66
1
  10
0
  20
0
  30
0
  0
VERTEX
  5
380
  8
Layer_4
  10
156.88562
  20
35.917793
  0
VERTEX
  5
381
  8
Layer_4
  10
152.88562
  20
35.917793
  0
VERTEX
  5
382
  8
Layer_4
  10
152.88562
  20
37.696358
  0
VERTEX
  5
383
  8
Layer_4
  10
148.71179
  20
37.696358
  0
VERTEX
  5
384
  8
Layer_4
  10
148.71179
  20
33.52253
  0
VERTEX
  5
385
  8
Layer_4
  10
146.9303
  20
33.52253
  0
VERTEX
  5
386
  8
Layer_4
  10
146.9303
  20
29.52253
  0
VERTEX
  5
387
  8
Layer_4
  10
148.71179
  20
29.52253
  0
VERTEX
  5
388
  8
Layer_4
  10
148.71179
  20
25.338448
  0
VERTEX
  5
389
  8
Layer_4
  10
152.88562
  20
25.338448
  0
VERTEX
  5
38a
  8
Layer_4
  10
152.88562
  20
23.556953
  0
VERTEX
  5
38b
  8
Layer_4
  10
156.88562
  20
23.556953
  0
VERTEX
  5
38c
  8
Layer_4
  10
156.88562
  20
25.335274
  0
VERTEX
  5
38d
  8
Layer_4
  10
161.0697
  20
25.338448
  0
VERTEX
  5
38e
  8
Layer_4
  10
161.0697
  20
29.52253
  0
VERTEX
  5
38f
  8
Layer_4
  10
159.28821
  20
29.52253
  0
VERTEX
  5
390
  8
Layer_4
  10
159.28821
  20
33.52253
  0
VERTEX
  5
391
  8
Layer_4
  10
161.0697
  20
33.52253
  0
VERTEX
  5
392
  8
Layer_4
  10
161.0697
  20
37.696358
  0
VERTEX
  5
393
  8
Layer_4
  10
156.88562
  20
37.696358
  0
VERTEX
  5
394
  8
Layer_4
  10
156.88562
  20
35.917793
  0
SEQEND
  0
POLYLINE
  5
396
  8
Layer_4
  62
6
  66
1
  10
0
  20
0
  30
0
  0
VERTEX
  5
396
  8
Layer_4
  10
154.15344
  20
32.118965
  0
VERTEX
  5
397
  8
Layer_4
  10
154.30237
  20
32.096016
  42
-0.38501287
  0
VERTEX
  5
398
  8
Layer_4
  10
155.49231
  20
30.473213
  42
-0.38464969
  0
VERTEX
  5
399
  8
Layer_4
  10
153.99988
  20
29.126534
  42
-0.41421491
  0
VERTEX
  5
39a
  8
Layer_4
  10
152.49988
  20
30.626534
  42
-0.38449117
  0
VERTEX
  5
39b
  8
Layer_4
  10
153.84656
  20
32.118965
  42
-0.04934534
  0
VERTEX
  5
39c
  8
Layer_4
  10
154.15344
  20
32.118965
  0
SEQEND
  0
POLYLINE
  5
39e
  8
Layer_4
  62
6
  66
1
  10
0
  20
0
  30
0
  0
VERTEX
  5
39e
  8
Layer_4
  10
123.70886
  20
141.51227
  0
VERTEX
  5
39f
  8
Layer_4
  10
123.70886
  20
137.51227
  0
VERTEX
  5
3a0
  8
Layer_4
  10
121.9303
  20
137.51227
  0
VERTEX
  5
3a1
  8
Layer_4
  10
121.9303
  20
133.33844
  0
VERTEX
  5
3a2
  8
Layer_4
  10
126.10413
  20
133.33844
  0
VERTEX
  5
3a3
  8
Layer_4
  10
126.10413
  20
131.55695
  0
VERTEX
  5
3a4
  8
Layer_4
  10
130.10413
  20
131.55695
  0
VERTEX
  5
3a5
  8
Layer_4
  10
130.10413
  20
133.33844
  0
VERTEX
  5
3a6
  8
Layer_4
  10
134.28821
  20
133.33844
  0
VERTEX
  5
3a7
  8
Layer_4
  10
134.28821
  20
137.51227
  0
VERTEX
  5
3a8
  8
Layer_4
  10
136.0697
  20
137.51227
  0
VERTEX
  5
3a9
  8
Layer_4
  10
136.0697
  20
141.51227
  0
VERTEX
  5
3aa
  8
Layer_4
  10
134.29138
  20
141.51227
  0
VERTEX
  5
3ab
  8
Layer_4
  10
134.28821
  20
145.69635
  0
VERTEX
  5
3ac
  8
Layer_4
  10
130.10413
  20
145.69635
  0
VERTEX
  5
3ad
  8
Layer_4
  10
130.10413
  20
143.91486
  0
VERTEX
  5
3ae
  8
Layer_4
  10
126.10413
  20
143.91486
  0
VERTEX
  5
3af
  8
Layer_4
  10
126.10413
  20
145.69635
  0
VERTEX
  5
3b0
  8
Layer_4
  10
121.9303
  20
145.69635
  0
VERTEX
  5
3b1
  8
Layer_4
  10
121.9303
  20
141.51227
  0
VERTEX
  5
3b2
  8
Layer_4
  10
123.70886
  20
141.51227
  0
SEQEND
  0
POLYLINE
  5
3b4
  8
Layer_4
  62
6
  66
1
  10
0
  20
0
  30
0
  0
VERTEX
  5
3b4
  8
Layer_4
  10
127.50769
  20
138.78009
  0
VERTEX
  5
3b5
  8
Layer_4
  10
127.53064
  20
138.92902
  42
-0.38501287
  0
VERTEX
  5
3b6
  8
Layer_4
  10
129.15344
  20
140.11896
  42
-0.38464969
  0
VERTEX
  5
3b7
  8
Layer_4
  10
130.50012
  20
138.62653
  42
-0.41421491
  0
VERTEX
  5
3b8
  8
Layer_4
  10
129.00012
  20
137.12653
  42
-0.38449117
  0
VERTEX
  5
3b9
  8
Layer_4
  10
127.50769
  20
138.47321
  42
-0.04934534
  0
VERTEX
  5
3ba
  8
Layer_4
  10
127.50769
  20
138.78009
  0
SEQEND
  0
POLYLINE
  5
3bc
  8
Layer_4
  62
6
  66
1
  10
0
  20
0
  30
0
  0
VERTEX
  5
3bc
  8
Layer_4
  10
151.11436
  20
10.335519
  0
VERTEX
  5
3bd
  8
Layer_4
  10
155.11436
  20
10.335519
  0
VERTEX
  5
3be
  8
Layer_4
  10
155.11436
  20
8.5569544
  0
VERTEX
  5
3bf
  8
Layer_4
  10
159.28819
  20
8.5569525
  0
VERTEX
  5
3c0
  8
Layer_4
  10
159.28819
  20
12.730781
  0
VERTEX
  5
3c1
  8
Layer_4
  10
161.06969
  20
12.730781
  0
VERTEX
  5
3c2
  8
Layer_4
  10
161.0697
  20
16.730782
  0
VERTEX
  5
3c3
  8
Layer_4
  10
159.28821
  20
16.730782
  0
VERTEX
  5
3c4
  8
Layer_4
  10
159.28821
  20
20.914864
  0
VERTEX
  5
3c5
  8
Layer_4
  10
155.11438
  20
20.914864
  0
VERTEX
  5
3c6
  8
Layer_4
  10
155.11438
  20
22.696358
  0
VERTEX
  5
3c7
  8
Layer_4
  10
151.11438
  20
22.696358
  0
VERTEX
  5
3c8
  8
Layer_4
  10
151.11438
  20
20.918037
  0
VERTEX
  5
3c9
  8
Layer_4
  10
146.9303
  20
20.914867
  0
VERTEX
  5
3ca
  8
Layer_4
  10
146.9303
  20
16.730785
  0
VERTEX
  5
3cb
  8
Layer_4
  10
148.71179
  20
16.730785
  0
VERTEX
  5
3cc
  8
Layer_4
  10
148.71178
  20
12.730784
  0
VERTEX
  5
3cd
  8
Layer_4
  10
146.93028
  20
12.730784
  0
VERTEX
  5
3ce
  8
Layer_4
  10
146.93028
  20
8.5569563
  0
VERTEX
  5
3cf
  8
Layer_4
  10
151.11436
  20
8.5569544
  0
VERTEX
  5
3d0
  8
Layer_4
  10
151.11436
  20
10.335519
  0
SEQEND
  0
POLYLINE
  5
3d2
  8
Layer_4
  62
6
  66
1
  10
0
  20
0
  30
0
  0
VERTEX
  5
3d2
  8
Layer_4
  10
153.84656
  20
14.134347
  0
VERTEX
  5
3d3
  8
Layer_4
  10
153.69763
  20
14.157296
  42
-0.38501287
  0
VERTEX
  5
3d4
  8
Layer_4
  10
152.50769
  20
15.780099
  42
-0.38464969
  0
VERTEX
  5
3d5
  8
Layer_4
  10
154.00012
  20
17.126778
  42
-0.41421491
  0
VERTEX
  5
3d6
  8
Layer_4
  10
155.50012
  20
15.626777
  42
-0.38449117
  0
VERTEX
  5
3d7
  8
Layer_4
  10
154.15344
  20
14.134347
  42
-0.04934534
  0
VERTEX
  5
3d8
  8
Layer_4
  10
153.84656
  20
14.134347
  0
SEQEND
  0
POLYLINE
  5
3da
  8
Layer_4
  62
6
  66
1
  10
0
  20
0
  30
0
  0
VERTEX
  5
3da
  8
Layer_4
  10
264.73334
  20
86.012756
  0
VERTEX
  5
3db
  8
Layer_4
  10
264.78369
  20
85.770355
  42
0.3860124
  0
VERTEX
  5
3dc
  8
Layer_4
  10
267.59052
  20
83.929413
  42
0.4127621
  0
VERTEX
  5
3dd
  8
Layer_4
  10
269.6759
  20
86.770355
  42
0.3888613
  0
VERTEX
  5
3de
  8
Layer_4
  10
267.05362
  20
88.895493
  42
0.41268843
  0
VERTEX
  5
3df
  8
Layer_4
  10
264.70636
  20
86.267227
  0
VERTEX
  5
3e0
  8
Layer_4
  10
264.73334
  20
86.012756
  0
SEQEND
  0
POLYLINE
  5
3e2
  8
Layer_4
  62
6
  66
1
  10
0
  20
0
  30
0
  0
VERTEX
  5
3e2
  8
Layer_4
  10
269.44305
  20
147.8094
  0
VERTEX
  5
3e3
  8
Layer_4
  10
269.62509
  20
149.57002
  0
VERTEX
  5
3e4
  8
Layer_4
  10
267.8645
  20
149.75206
  0
VERTEX
  5
3e5
  8
Layer_4
  10
267.68246
  20
147.99144
  0
VERTEX
  5
3e6
  8
Layer_4
  10
269.44305
  20
147.8094
  0
SEQEND
  0
POLYLINE
  5
3e8
  8
Layer_4
  62
6
  66
1
  10
0
  20
0
  30
0
  0
VERTEX
  5
3e8
  8
Layer_4
  10
267.21719
  20
143.20375
  0
VERTEX
  5
3e9
  8
Layer_4
  10
267.51413
  20
146.18901
  0
VERTEX
  5
3ea
  8
Layer_4
  10
265.75284
  20
146.36421
  0
VERTEX
  5
3eb
  8
Layer_4
  10
265.4559
  20
143.37895
  0
VERTEX
  5
3ec
  8
Layer_4
  10
267.21719
  20
143.20375
  0
SEQEND
  0
POLYLINE
  5
3ee
  8
Layer_4
  62
6
  66
1
  10
0
  20
0
  30
0
  0
VERTEX
  5
3ee
  8
Layer_4
  10
268.58453
  20
139.14587
  0
VERTEX
  5
3ef
  8
Layer_4
  10
268.76657
  20
140.90649
  0
VERTEX
  5
3f0
  8
Layer_4
  10
267.00598
  20
141.08853
  0
VERTEX
  5
3f1
  8
Layer_4
  10
266.82394
  20
139.32791
  0
VERTEX
  5
3f2
  8
Layer_4
  10
268.58453
  20
139.14587
  0
SEQEND
  0
POLYLINE
  5
3f4
  8
Layer_4
  62
6
  66
1
  10
0
  20
0
  30
0
  0
VERTEX
  5
3f4
  8
Layer_4
  10
269.09052
  20
24.975252
  0
VERTEX
  5
3f5
  8
Layer_4
  10
269.26273
  20
23.213633
  0
VERTEX
  5
3f6
  8
Layer_4
  10
267.50116
  20
23.04141
  0
VERTEX
  5
3f7
  8
Layer_4
  10
267.32895
  20
24.80303
  0
VERTEX
  5
3f8
  8
Layer_4
  10
269.09052
  20
24.975252
  0
SEQEND
  0
POLYLINE
  5
3fa
  8
Layer_4
  62
6
  66
1
  10
0
  20
0
  30
0
  0
VERTEX
  5
3fa
  8
Layer_4
  10
266.89032
  20
29.593216
  0
VERTEX
  5
3fb
  8
Layer_4
  10
267.17062
  20
26.60634
  0
VERTEX
  5
3fc
  8
Layer_4
  10
265.40839
  20
26.440964
  0
VERTEX
  5
3fd
  8
Layer_4
  10
265.12808
  20
29.427839
  0
VERTEX
  5
3fe
  8
Layer_4
  10
266.89032
  20
29.593216
  0
SEQEND
  0
POLYLINE
  5
400
  8
Layer_4
  62
6
  66
1
  10
0
  20
0
  30
0
  0
VERTEX
  5
400
  8
Layer_4
  10
268.28027
  20
33.643433
  0
VERTEX
  5
401
  8
Layer_4
  10
268.45248
  20
31.881815
  0
VERTEX
  5
402
  8
Layer_4
  10
266.69092
  20
31.709593
  0
VERTEX
  5
403
  8
Layer_4
  10
266.51871
  20
33.471214
  0
VERTEX
  5
404
  8
Layer_4
  10
268.28027
  20
33.643433
  0
SEQEND
  0
POLYLINE
  5
406
  8
Layer_4
  62
6
  66
1
  10
0
  20
0
  30
0
  0
VERTEX
  5
406
  8
Layer_4
  10
277.80405
  20
144.14989
  0
VERTEX
  5
407
  8
Layer_4
  10
278.42603
  20
150.68147
  0
VERTEX
  5
408
  8
Layer_4
  10
278.49265
  20
150.97891
  42
0.010362663
  0
VERTEX
  5
409
  8
Layer_4
  10
276.20486
  20
151.43736
  0
VERTEX
  5
40a
  8
Layer_4
  10
276.04044
  20
149.73996
  0
VERTEX
  5
40b
  8
Layer_4
  10
272.08218
  20
150.13242
  0
VERTEX
  5
40c
  8
Layer_4
  10
272.25656
  20
151.87856
  0
VERTEX
  5
40d
  8
Layer_4
  10
271.48761
  20
151.93762
  0
VERTEX
  5
40e
  8
Layer_4
  10
270.68777
  20
152.00168
  42
0.027873472
  0
VERTEX
  5
40f
  8
Layer_4
  10
265.23187
  20
152.1987
  0
VERTEX
  5
410
  8
Layer_4
  10
263.76117
  20
137.21071
  0
VERTEX
  5
411
  8
Layer_4
  10
263.81076
  20
137.19421
  42
-0.1189494
  0
VERTEX
  5
412
  8
Layer_4
  10
264.91562
  20
135.93173
  42
-0.08574558
  0
VERTEX
  5
413
  8
Layer_4
  10
266.05524
  20
132.60507
  42
-0.02358644
  0
VERTEX
  5
414
  8
Layer_4
  10
266.28491
  20
130.89362
  0
VERTEX
  5
415
  8
Layer_4
  10
267.22198
  20
100.13335
  42
-0.24144723
  0
VERTEX
  5
416
  8
Layer_4
  10
263.09286
  20
92.088943
  0
VERTEX
  5
417
  8
Layer_4
  10
262.76697
  20
91.840088
  42
0.40988936
  0
VERTEX
  5
418
  8
Layer_4
  10
261.65063
  20
82.104828
  42
0.072865584
  0
VERTEX
  5
419
  8
Layer_4
  10
263.07452
  20
80.732086
  0
VERTEX
  5
41a
  8
Layer_4
  10
263.52701
  20
80.376755
  42
-0.22373418
  0
VERTEX
  5
41b
  8
Layer_4
  10
267.13519
  20
72.662872
  0
VERTEX
  5
41c
  8
Layer_4
  10
266.02667
  20
41.90831
  42
-0.078109994
  0
VERTEX
  5
41d
  8
Layer_4
  10
265.05115
  20
37.711746
  42
-0.098814643
  0
VERTEX
  5
41e
  8
Layer_4
  10
263.86804
  20
35.886505
  42
-0.11556201
  0
VERTEX
  5
41f
  8
Layer_4
  10
263.4679
  20
35.60556
  0
VERTEX
  5
420
  8
Layer_4
  10
264.85504
  20
20.609497
  42
0.02775704
  0
VERTEX
  5
421
  8
Layer_4
  10
271.11203
  20
20.835693
  0
VERTEX
  5
422
  8
Layer_4
  10
271.88129
  20
20.890442
  0
VERTEX
  5
423
  8
Layer_4
  10
271.71646
  20
22.637573
  0
VERTEX
  5
424
  8
Layer_4
  10
275.677
  20
23.007874
  0
VERTEX
  5
425
  8
Layer_4
  10
275.83185
  20
21.30957
  42
0.010311486
  0
VERTEX
  5
426
  8
Layer_4
  10
278.12231
  20
21.755371
  0
VERTEX
  5
427
  8
Layer_4
  10
278.05725
  20
22.053131
  0
VERTEX
  5
428
  8
Layer_4
  10
277.47162
  20
28.588226
  0
VERTEX
  5
429
  8
Layer_4
  10
279.23425
  20
28.752502
  0
VERTEX
  5
42a
  8
Layer_4
  10
278.86096
  20
32.764465
  0
VERTEX
  5
42b
  8
Layer_4
  10
277.11295
  20
32.622375
  0
VERTEX
  5
42c
  8
Layer_4
  10
275.25571
  20
52.135834
  0
VERTEX
  5
42d
  8
Layer_4
  10
277.08176
  20
52.279739
  0
VERTEX
  5
42e
  8
Layer_4
  10
276.70917
  20
56.286377
  0
VERTEX
  5
42f
  8
Layer_4
  10
274.87415
  20
56.141647
  0
VERTEX
  5
430
  8
Layer_4
  10
273.01666
  20
75.65506
  0
VERTEX
  5
431
  8
Layer_4
  10
274.92896
  20
75.791748
  0
VERTEX
  5
432
  8
Layer_4
  10
274.55957
  20
79.787643
  0
VERTEX
  5
433
  8
Layer_4
  10
272.63507
  20
79.660873
  0
VERTEX
  5
434
  8
Layer_4
  10
272.03448
  20
86.1577
  0
VERTEX
  5
435
  8
Layer_4
  10
272.03308
  20
86.611282
  0
VERTEX
  5
436
  8
Layer_4
  10
272.68289
  20
93.104752
  0
VERTEX
  5
437
  8
Layer_4
  10
274.60632
  20
92.967361
  0
VERTEX
  5
438
  8
Layer_4
  10
274.99817
  20
96.961105
  0
VERTEX
  5
439
  8
Layer_4
  10
273.08658
  20
97.108414
  0
VERTEX
  5
43a
  8
Layer_4
  10
275.05298
  20
116.61122
  0
VERTEX
  5
43b
  8
Layer_4
  10
276.88733
  20
116.45627
  0
VERTEX
  5
43c
  8
Layer_4
  10
277.2821
  20
120.46082
  0
VERTEX
  5
43d
  8
Layer_4
  10
275.45667
  20
120.61487
  0
VERTEX
  5
43e
  8
Layer_4
  10
277.42285
  20
140.11766
  0
VERTEX
  5
43f
  8
Layer_4
  10
279.17007
  20
139.96591
  0
VERTEX
  5
440
  8
Layer_4
  10
279.56561
  20
143.97545
  0
VERTEX
  5
441
  8
Layer_4
  10
277.80405
  20
144.14989
  0
SEQEND
  0
POLYLINE
  5
443
  8
Layer_4
  62
6
  66
1
  10
0
  20
0
  30
0
  0
VERTEX
  5
443
  8
Layer_4
  10
268.27307
  20
219.6698
  0
VERTEX
  5
444
  8
Layer_4
  10
268.27307
  20
219.6698
  0
VERTEX
  5
445
  8
Layer_4
  10
268.27307
  20
219.6698
  0
VERTEX
  5
446
  8
Layer_4
  10
268.27307
  20
219.6698
  0
VERTEX
  5
447
  8
Layer_4
  10
268.27307
  20
219.6698
  0
SEQEND
  0
POLYLINE
  5
449
  8
Layer_4
  62
6
  66
1
  10
0
  20
0
  30
0
  0
VERTEX
  5
449
  8
Layer_4
  10
247.7738
  20
224.06544
  0
VERTEX
  5
44a
  8
Layer_4
  10
247.77383
  20
230.99953
  0
VERTEX
  5
44b
  8
Layer_4
  10
246.01588
  20
230.99953
  0
VERTEX
  5
44c
  8
Layer_4
  10
246.0159
  20
232.76955
  0
VERTEX
  5
44d
  8
Layer_4
  10
247.77383
  20
232.76955
  0
VERTEX
  5
44e
  8
Layer_4
  10
247.77383
  20
233.58351
  0
VERTEX
  5
44f
  8
Layer_4
  10
274.21609
  20
233.58348
  0
VERTEX
  5
450
  8
Layer_4
  10
274.21609
  20
232.76952
  0
VERTEX
  5
451
  8
Layer_4
  10
275.9841
  20
232.76952
  0
VERTEX
  5
452
  8
Layer_4
  10
275.9841
  20
230.9995
  0
VERTEX
  5
453
  8
Layer_4
  10
274.21609
  20
230.9995
  0
VERTEX
  5
454
  8
Layer_4
  10
274.21606
  20
224.06541
  0
VERTEX
  5
455
  8
Layer_4
  10
275.98407
  20
224.06541
  0
VERTEX
  5
456
  8
Layer_4
  10
275.98407
  20
222.29539
  0
VERTEX
  5
457
  8
Layer_4
  10
274.21606
  20
222.29539
  0
VERTEX
  5
458
  8
Layer_4
  10
274.21606
  20
221.99945
  0
VERTEX
  5
459
  8
Layer_4
  10
247.7738
  20
221.99948
  0
VERTEX
  5
45a
  8
Layer_4
  10
247.7738
  20
222.29543
  0
VERTEX
  5
45b
  8
Layer_4
  10
246.01588
  20
222.29543
  0
VERTEX
  5
45c
  8
Layer_4
  10
246.01588
  20
224.06544
  0
VERTEX
  5
45d
  8
Layer_4
  10
247.7738
  20
224.06544
  0
SEQEND
  0
POLYLINE
  5
45f
  8
Layer_4
  62
6
  66
1
  10
0
  20
0
  30
0
  0
VERTEX
  5
45f
  8
Layer_4
  10
250.83276
  20
227.26831
  0
VERTEX
  5
460
  8
Layer_4
  10
250.83276
  20
229.03833
  0
VERTEX
  5
461
  8
Layer_4
  10
252.83276
  20
229.03833
  0
VERTEX
  5
462
  8
Layer_4
  10
252.83276
  20
227.26831
  0
VERTEX
  5
463
  8
Layer_4
  10
250.83276
  20
227.26831
  0
SEQEND
  0
POLYLINE
  5
465
  8
Layer_4
  62
6
  66
1
  10
0
  20
0
  30
0
  0
VERTEX
  5
465
  8
Layer_4
  10
269.00073
  20
227.26831
  0
VERTEX
  5
466
  8
Layer_4
  10
269.00073
  20
229.03833
  0
VERTEX
  5
467
  8
Layer_4
  10
271.00073
  20
229.03833
  0
VERTEX
  5
468
  8
Layer_4
  10
271.00073
  20
227.26831
  0
VERTEX
  5
469
  8
Layer_4
  10
269.00073
  20
227.26831
  0
SEQEND
  0
POLYLINE
  5
46b
  8
Layer_4
  62
6
  66
1
  10
0
  20
0
  30
0
  0
VERTEX
  5
46b
  8
Layer_4
  10
177.02069
  20
197.67052
  0
VERTEX
  5
46c
  8
Layer_4
  10
178.76776
  20
197.67052
  0
VERTEX
  5
46d
  8
Layer_4
  10
178.76776
  20
192.94322
  0
VERTEX
  5
46e
  8
Layer_4
  10
205.21002
  20
192.94321
  0
VERTEX
  5
46f
  8
Layer_4
  10
205.21002
  20
197.6705
  0
VERTEX
  5
470
  8
Layer_4
  10
206.97955
  20
197.6705
  0
VERTEX
  5
471
  8
Layer_4
  10
206.97955
  20
200.6666
  0
VERTEX
  5
472
  8
Layer_4
  10
205.21002
  20
200.6666
  0
VERTEX
  5
473
  8
Layer_4
  10
205.21002
  20
206.31004
  0
VERTEX
  5
474
  8
Layer_4
  10
197.20679
  20
206.29344
  0
VERTEX
  5
475
  8
Layer_4
  10
197.20679
  20
204.54767
  0
VERTEX
  5
476
  8
Layer_4
  10
186.79321
  20
204.54767
  0
VERTEX
  5
477
  8
Layer_4
  10
186.79321
  20
206.29344
  0
VERTEX
  5
478
  8
Layer_4
  10
178.76776
  20
206.31006
  0
VERTEX
  5
479
  8
Layer_4
  10
178.76776
  20
200.66661
  0
VERTEX
  5
47a
  8
Layer_4
  10
177.02045
  20
200.66661
  0
VERTEX
  5
47b
  8
Layer_4
  10
177.02069
  20
197.67052
  0
SEQEND
  0
CIRCLE
  5
47d
  8
Layer_4
  62
6
  10
192
  20
199.34137
  30
0
  40
3
  0
POLYLINE
  5
47d
  8
Layer_4
  62
6
  66
1
  10
0
  20
0
  30
0
  0
VERTEX
  5
47d
  8
Layer_4
  10
181.82671
  20
198.74162
  0
VERTEX
  5
47e
  8
Layer_4
  10
181.82671
  20
200.51164
  0
VERTEX
  5
47f
  8
Layer_4
  10
183.82671
  20
200.51164
  0
VERTEX
  5
480
  8
Layer_4
  10
183.82671
  20
198.74162
  0
VERTEX
  5
481
  8
Layer_4
  10
181.82671
  20
198.74162
  0
SEQEND
  0
POLYLINE
  5
483
  8
Layer_4
  62
6
  66
1
  10
0
  20
0
  30
0
  0
VERTEX
  5
483
  8
Layer_4
  10
199.99469
  20
198.74162
  0
VERTEX
  5
484
  8
Layer_4
  10
199.99469
  20
200.51164
  0
VERTEX
  5
485
  8
Layer_4
  10
201.99469
  20
200.51164
  0
VERTEX
  5
486
  8
Layer_4
  10
201.99469
  20
198.74162
  0
VERTEX
  5
487
  8
Layer_4
  10
199.99469
  20
198.74162
  0
SEQEND
  0
POLYLINE
  5
489
  8
Layer_4
  62
6
  66
1
  10
0
  20
0
  30
0
  0
VERTEX
  5
489
  8
Layer_4
  10
261.05096
  20
74.834183
  0
VERTEX
  5
48a
  8
Layer_4
  10
261.00977
  20
75.078323
  42
0.3860124
  0
VERTEX
  5
48b
  8
Layer_4
  10
258.27383
  20
77.023117
  42
0.4127621
  0
VERTEX
  5
48c
  8
Layer_4
  10
256.0835
  20
74.262268
  42
0.3888613
  0
VERTEX
  5
48d
  8
Layer_4
  10
258.62433
  20
72.040405
  42
0.41268843
  0
VERTEX
  5
48e
  8
Layer_4
  10
261.06839
  20
74.578903
  0
VERTEX
  5
48f
  8
Layer_4
  10
261.05096
  20
74.834183
  0
SEQEND
  0
POLYLINE
  5
491
  8
Layer_4
  62
6
  66
1
  10
0
  20
0
  30
0
  0
VERTEX
  5
491
  8
Layer_4
  10
254.02965
  20
13.257377
  0
VERTEX
  5
492
  8
Layer_4
  10
253.78178
  20
11.504799
  0
VERTEX
  5
493
  8
Layer_4
  10
255.53432
  20
11.256936
  0
VERTEX
  5
494
  8
Layer_4
  10
255.78218
  20
13.009514
  0
VERTEX
  5
495
  8
Layer_4
  10
254.02965
  20
13.257377
  0
SEQEND
  0
POLYLINE
  5
497
  8
Layer_4
  62
6
  66
1
  10
0
  20
0
  30
0
  0
VERTEX
  5
497
  8
Layer_4
  10
256.42648
  20
17.776396
  0
VERTEX
  5
498
  8
Layer_4
  10
256.01791
  20
14.804348
  0
VERTEX
  5
499
  8
Layer_4
  10
257.77139
  20
14.563296
  0
VERTEX
  5
49a
  8
Layer_4
  10
258.17996
  20
17.535343
  0
VERTEX
  5
49b
  8
Layer_4
  10
256.42648
  20
17.776396
  0
SEQEND
  0
POLYLINE
  5
49d
  8
Layer_4
  62
6
  66
1
  10
0
  20
0
  30
0
  0
VERTEX
  5
49d
  8
Layer_4
  10
255.21211
  20
21.882666
  0
VERTEX
  5
49e
  8
Layer_4
  10
254.96425
  20
20.130089
  0
VERTEX
  5
49f
  8
Layer_4
  10
256.7168
  20
19.882227
  0
VERTEX
  5
4a0
  8
Layer_4
  10
256.96466
  20
21.634804
  0
VERTEX
  5
4a1
  8
Layer_4
  10
255.21211
  20
21.882666
  0
SEQEND
  0
POLYLINE
  5
4a3
  8
Layer_4
  62
6
  66
1
  10
0
  20
0
  30
0
  0
VERTEX
  5
4a3
  8
Layer_4
  10
258.98331
  20
135.99211
  0
VERTEX
  5
4a4
  8
Layer_4
  10
258.8772
  20
137.75896
  0
VERTEX
  5
4a5
  8
Layer_4
  10
260.64401
  20
137.86507
  0
VERTEX
  5
4a6
  8
Layer_4
  10
260.75012
  20
136.09822
  0
VERTEX
  5
4a7
  8
Layer_4
  10
258.98331
  20
135.99211
  0
SEQEND
  0
POLYLINE
  5
4a9
  8
Layer_4
  62
6
  66
1
  10
0
  20
0
  30
0
  0
VERTEX
  5
4a9
  8
Layer_4
  10
261.00891
  20
131.29497
  0
VERTEX
  5
4aa
  8
Layer_4
  10
260.8407
  20
134.29024
  0
VERTEX
  5
4ab
  8
Layer_4
  10
262.60791
  20
134.38948
  0
VERTEX
  5
4ac
  8
Layer_4
  10
262.77612
  20
131.39421
  0
VERTEX
  5
4ad
  8
Layer_4
  10
261.00891
  20
131.29497
  0
SEQEND
  0
POLYLINE
  5
4af
  8
Layer_4
  62
6
  66
1
  10
0
  20
0
  30
0
  0
VERTEX
  5
4af
  8
Layer_4
  10
259.46823
  20
127.29964
  0
VERTEX
  5
4b0
  8
Layer_4
  10
259.36212
  20
129.06648
  0
VERTEX
  5
4b1
  8
Layer_4
  10
261.12894
  20
129.17259
  0
VERTEX
  5
4b2
  8
Layer_4
  10
261.23505
  20
127.40575
  0
VERTEX
  5
4b3
  8
Layer_4
  10
259.46823
  20
127.29964
  0
SEQEND
  0
POLYLINE
  5
4b5
  8
Layer_4
  62
6
  66
1
  10
0
  20
0
  30
0
  0
VERTEX
  5
4b5
  8
Layer_4
  10
245.81161
  20
17.227524
  0
VERTEX
  5
4b6
  8
Layer_4
  10
244.9454
  20
10.723831
  0
VERTEX
  5
4b7
  8
Layer_4
  10
244.86768
  20
10.429077
  42
0.010362663
  0
VERTEX
  5
4b8
  8
Layer_4
  10
247.13669
  20
9.8852539
  0
VERTEX
  5
4b9
  8
Layer_4
  10
247.36458
  20
11.575302
  0
VERTEX
  5
4ba
  8
Layer_4
  10
251.30534
  20
11.034851
  0
VERTEX
  5
4bb
  8
Layer_4
  10
251.06567
  20
9.296463
  0
VERTEX
  5
4bc
  8
Layer_4
  10
251.83189
  20
9.2086334
  0
VERTEX
  5
4bd
  8
Layer_4
  10
252.62875
  20
9.1146698
  42
0.027873472
  0
VERTEX
  5
4be
  8
Layer_4
  10
258.07343
  20
8.7133789
  0
VERTEX
  5
4bf
  8
Layer_4
  10
260.10458
  20
23.635773
  0
VERTEX
  5
4c0
  8
Layer_4
  10
260.05563
  20
23.654114
  42
-0.1189494
  0
VERTEX
  5
4c1
  8
Layer_4
  10
258.99884
  20
24.957108
  42
-0.08574558
  0
VERTEX
  5
4c2
  8
Layer_4
  10
257.98462
  20
28.324127
  42
-0.02358644
  0
VERTEX
  5
4c3
  8
Layer_4
  10
257.81924
  20
30.042984
  0
VERTEX
  5
4c4
  8
Layer_4
  10
258.0351
  20
60.816757
  42
-0.24144723
  0
VERTEX
  5
4c5
  8
Layer_4
  10
262.46265
  20
68.700836
  0
VERTEX
  5
4c6
  8
Layer_4
  10
262.79764
  20
68.937302
  42
0.40988936
  0
VERTEX
  5
4c7
  8
Layer_4
  10
264.27789
  20
78.623917
  42
0.072865584
  0
VERTEX
  5
4c8
  8
Layer_4
  10
262.90643
  20
80.049026
  0
VERTEX
  5
4c9
  8
Layer_4
  10
262.46756
  20
80.421066
  42
-0.22373418
  0
VERTEX
  5
4ca
  8
Layer_4
  10
259.15088
  20
88.264694
  0
VERTEX
  5
4cb
  8
Layer_4
  10
261.41068
  20
118.95615
  42
-0.078109994
  0
VERTEX
  5
4cc
  8
Layer_4
  10
262.54272
  20
123.11322
  42
-0.098814643
  0
VERTEX
  5
4cd
  8
Layer_4
  10
263.79333
  20
124.89285
  42
-0.11556201
  0
VERTEX
  5
4ce
  8
Layer_4
  10
264.20374
  20
125.15865
  0
VERTEX
  5
4cf
  8
Layer_4
  10
263.37933
  20
140.19611
  42
0.02775704
  0
VERTEX
  5
4d0
  8
Layer_4
  10
257.11826
  20
140.20447
  0
VERTEX
  5
4d1
  8
Layer_4
  10
256.3475
  20
140.17859
  0
VERTEX
  5
4d2
  8
Layer_4
  10
256.44675
  20
138.42651
  0
VERTEX
  5
4d3
  8
Layer_4
  10
252.47513
  20
138.20483
  0
VERTEX
  5
4d4
  8
Layer_4
  10
252.38399
  20
139.90771
  42
0.010311486
  0
VERTEX
  5
4d5
  8
Layer_4
  10
250.07845
  20
139.54807
  0
VERTEX
  5
4d6
  8
Layer_4
  10
250.13229
  20
139.24808
  0
VERTEX
  5
4d7
  8
Layer_4
  10
250.47272
  20
132.69562
  0
VERTEX
  5
4d8
  8
Layer_4
  10
248.70517
  20
132.59747
  0
VERTEX
  5
4d9
  8
Layer_4
  10
248.92793
  20
128.57434
  0
VERTEX
  5
4da
  8
Layer_4
  10
250.68002
  20
128.65085
  0
VERTEX
  5
4db
  8
Layer_4
  10
251.80499
  20
109.08153
  0
VERTEX
  5
4dc
  8
Layer_4
  10
249.97484
  20
109.00612
  0
VERTEX
  5
4dd
  8
Layer_4
  10
250.19707
  20
104.98834
  0
VERTEX
  5
4de
  8
Layer_4
  10
252.03625
  20
105.06424
  0
VERTEX
  5
4df
  8
Layer_4
  10
253.16145
  20
85.494919
  0
VERTEX
  5
4e0
  8
Layer_4
  10
251.24539
  20
85.429962
  0
VERTEX
  5
4e1
  8
Layer_4
  10
251.46481
  20
81.42305
  0
VERTEX
  5
4e2
  8
Layer_4
  10
253.3927
  20
81.477631
  0
VERTEX
  5
4e3
  8
Layer_4
  10
253.74951
  20
74.96286
  0
VERTEX
  5
4e4
  8
Layer_4
  10
253.73389
  20
74.509537
  0
VERTEX
  5
4e5
  8
Layer_4
  10
252.84131
  20
68.044983
  0
VERTEX
  5
4e6
  8
Layer_4
  10
250.92439
  20
68.254318
  0
VERTEX
  5
4e7
  8
Layer_4
  10
250.38319
  20
64.278061
  0
VERTEX
  5
4e8
  8
Layer_4
  10
252.28793
  20
64.05925
  0
VERTEX
  5
4e9
  8
Layer_4
  10
249.59235
  20
44.643814
  0
VERTEX
  5
4ea
  8
Layer_4
  10
247.76511
  20
44.867355
  0
VERTEX
  5
4eb
  8
Layer_4
  10
247.22058
  20
40.880402
  0
VERTEX
  5
4ec
  8
Layer_4
  10
249.03894
  20
40.658081
  0
VERTEX
  5
4ed
  8
Layer_4
  10
246.3436
  20
21.242645
  0
VERTEX
  5
4ee
  8
Layer_4
  10
244.60327
  20
21.459717
  0
VERTEX
  5
4ef
  8
Layer_4
  10
244.0578
  20
17.467819
  0
VERTEX
  5
4f0
  8
Layer_4
  10
245.81161
  20
17.227524
  0
SEQEND
  0
POLYLINE
  5
4f2
  8
Layer_4
  62
6
  66
1
  10
0
  20
0
  30
0
  0
VERTEX
  5
4f2
  8
Layer_4
  10
209.15482
  20
207.42444
  0
VERTEX
  5
4f3
  8
Layer_4
  10
209.15482
  20
207.42444
  0
VERTEX
  5
4f4
  8
Layer_4
  10
209.15482
  20
207.42444
  0
VERTEX
  5
4f5
  8
Layer_4
  10
209.15482
  20
207.42444
  0
VERTEX
  5
4f6
  8
Layer_4
  10
209.15482
  20
207.42444
  0
SEQEND
  0
POLYLINE
  5
4f8
  8
Layer_4
  62
6
  66
1
  10
0
  20
0
  30
0
  0
VERTEX
  5
4f8
  8
Layer_4
  10
188.65555
  20
211.82008
  0
VERTEX
  5
4f9
  8
Layer_4
  10
188.65558
  20
218.75417
  0
VERTEX
  5
4fa
  8
Layer_4
  10
186.89763
  20
218.75417
  0
VERTEX
  5
4fb
  8
Layer_4
  10
186.89764
  20
220.52419
  0
VERTEX
  5
4fc
  8
Layer_4
  10
188.65558
  20
220.52419
  0
VERTEX
  5
4fd
  8
Layer_4
  10
188.65558
  20
221.33815
  0
VERTEX
  5
4fe
  8
Layer_4
  10
215.09784
  20
221.33812
  0
VERTEX
  5
4ff
  8
Layer_4
  10
215.09784
  20
220.52415
  0
VERTEX
  5
500
  8
Layer_4
  10
216.86584
  20
220.52415
  0
VERTEX
  5
501
  8
Layer_4
  10
216.86584
  20
218.75414
  0
VERTEX
  5
502
  8
Layer_4
  10
215.09784
  20
218.75414
  0
VERTEX
  5
503
  8
Layer_4
  10
215.09781
  20
211.82005
  0
VERTEX
  5
504
  8
Layer_4
  10
216.86581
  20
211.82005
  0
VERTEX
  5
505
  8
Layer_4
  10
216.86581
  20
210.05003
  0
VERTEX
  5
506
  8
Layer_4
  10
215.09781
  20
210.05003
  0
VERTEX
  5
507
  8
Layer_4
  10
215.09781
  20
209.75409
  0
VERTEX
  5
508
  8
Layer_4
  10
188.65555
  20
209.75412
  0
VERTEX
  5
509
  8
Layer_4
  10
188.65555
  20
210.05006
  0
VERTEX
  5
50a
  8
Layer_4
  10
186.89763
  20
210.05006
  0
VERTEX
  5
50b
  8
Layer_4
  10
186.89763
  20
211.82008
  0
VERTEX
  5
50c
  8
Layer_4
  10
188.65555
  20
211.82008
  0
SEQEND
  0
POLYLINE
  5
50e
  8
Layer_4
  62
6
  66
1
  10
0
  20
0
  30
0
  0
VERTEX
  5
50e
  8
Layer_4
  10
191.71451
  20
215.02295
  0
VERTEX
  5
50f
  8
Layer_4
  10
191.71451
  20
216.79297
  0
VERTEX
  5
510
  8
Layer_4
  10
193.71451
  20
216.79297
  0
VERTEX
  5
511
  8
Layer_4
  10
193.71451
  20
215.02295
  0
VERTEX
  5
512
  8
Layer_4
  10
191.71451
  20
215.02295
  0
SEQEND
  0
POLYLINE
  5
514
  8
Layer_4
  62
6
  66
1
  10
0
  20
0
  30
0
  0
VERTEX
  5
514
  8
Layer_4
  10
209.88248
  20
215.02295
  0
VERTEX
  5
515
  8
Layer_4
  10
209.88248
  20
216.79297
  0
VERTEX
  5
516
  8
Layer_4
  10
211.88248
  20
216.79297
  0
VERTEX
  5
517
  8
Layer_4
  10
211.88248
  20
215.02295
  0
VERTEX
  5
518
  8
Layer_4
  10
209.88248
  20
215.02295
  0
SEQEND
  0
POLYLINE
  5
51a
  8
Layer_4
  62
6
  66
1
  10
0
  20
0
  30
0
  0
VERTEX
  5
51a
  8
Layer_4
  10
208.02069
  20
197.67055
  0
VERTEX
  5
51b
  8
Layer_4
  10
209.76776
  20
197.67055
  0
VERTEX
  5
51c
  8
Layer_4
  10
209.76776
  20
192.94325
  0
VERTEX
  5
51d
  8
Layer_4
  10
236.21002
  20
192.94324
  0
VERTEX
  5
51e
  8
Layer_4
  10
236.21002
  20
197.67053
  0
VERTEX
  5
51f
  8
Layer_4
  10
237.97955
  20
197.67053
  0
VERTEX
  5
520
  8
Layer_4
  10
237.97955
  20
200.66663
  0
VERTEX
  5
521
  8
Layer_4
  10
236.21002
  20
200.66663
  0
VERTEX
  5
522
  8
Layer_4
  10
236.21002
  20
206.31007
  0
VERTEX
  5
523
  8
Layer_4
  10
228.20679
  20
206.29347
  0
VERTEX
  5
524
  8
Layer_4
  10
228.20679
  20
204.5477
  0
VERTEX
  5
525
  8
Layer_4
  10
217.79321
  20
204.5477
  0
VERTEX
  5
526
  8
Layer_4
  10
217.79321
  20
206.29347
  0
VERTEX
  5
527
  8
Layer_4
  10
209.76776
  20
206.31009
  0
VERTEX
  5
528
  8
Layer_4
  10
209.76776
  20
200.66664
  0
VERTEX
  5
529
  8
Layer_4
  10
208.02045
  20
200.66664
  0
VERTEX
  5
52a
  8
Layer_4
  10
208.02069
  20
197.67055
  0
SEQEND
  0
CIRCLE
  5
52c
  8
Layer_4
  62
6
  10
223
  20
199.3414
  30
0
  40
3
  0
POLYLINE
  5
52c
  8
Layer_4
  62
6
  66
1
  10
0
  20
0
  30
0
  0
VERTEX
  5
52c
  8
Layer_4
  10
212.82672
  20
198.74164
  0
VERTEX
  5
52d
  8
Layer_4
  10
212.82672
  20
200.51166
  0
VERTEX
  5
52e
  8
Layer_4
  10
214.82672
  20
200.51166
  0
VERTEX
  5
52f
  8
Layer_4
  10
214.82672
  20
198.74164
  0
VERTEX
  5
530
  8
Layer_4
  10
212.82672
  20
198.74164
  0
SEQEND
  0
POLYLINE
  5
532
  8
Layer_4
  62
6
  66
1
  10
0
  20
0
  30
0
  0
VERTEX
  5
532
  8
Layer_4
  10
230.99469
  20
198.74164
  0
VERTEX
  5
533
  8
Layer_4
  10
230.99469
  20
200.51166
  0
VERTEX
  5
534
  8
Layer_4
  10
232.99469
  20
200.51166
  0
VERTEX
  5
535
  8
Layer_4
  10
232.99469
  20
198.74164
  0
VERTEX
  5
536
  8
Layer_4
  10
230.99469
  20
198.74164
  0
SEQEND
  0
POLYLINE
  5
538
  8
Layer_4
  62
6
  66
1
  10
0
  20
0
  30
0
  0
VERTEX
  5
538
  8
Layer_4
  10
29.630646
  20
64.671768
  0
VERTEX
  5
539
  8
Layer_4
  10
29.630646
  20
66.441788
  0
VERTEX
  5
53a
  8
Layer_4
  10
34.630646
  20
66.441788
  0
VERTEX
  5
53b
  8
Layer_4
  10
34.630646
  20
64.671768
  0
VERTEX
  5
53c
  8
Layer_4
  10
29.630646
  20
64.671768
  0
SEQEND
  0
POLYLINE
  5
53e
  8
Layer_4
  62
6
  66
1
  10
0
  20
0
  30
0
  0
VERTEX
  5
53e
  8
Layer_4
  10
18.095474
  20
64.63176
  0
VERTEX
  5
53f
  8
Layer_4
  10
18.095474
  20
66.441818
  0
VERTEX
  5
540
  8
Layer_4
  10
23.095474
  20
66.441818
  0
VERTEX
  5
541
  8
Layer_4
  10
23.095474
  20
64.63176
  0
VERTEX
  5
542
  8
Layer_4
  10
18.095474
  20
64.63176
  0
SEQEND
  0
POLYLINE
  5
544
  8
Layer_4
  62
6
  66
1
  10
0
  20
0
  30
0
  0
VERTEX
  5
544
  8
Layer_4
  10
57.027496
  20
45.837021
  0
VERTEX
  5
545
  8
Layer_4
  10
57.027496
  20
49.837021
  0
VERTEX
  5
546
  8
Layer_4
  10
58.794098
  20
49.837021
  0
VERTEX
  5
547
  8
Layer_4
  10
58.794098
  20
45.837021
  0
VERTEX
  5
548
  8
Layer_4
  10
57.027496
  20
45.837021
  0
SEQEND
  0
POLYLINE
  5
54a
  8
Layer_4
  62
6
  66
1
  10
0
  20
0
  30
0
  0
VERTEX
  5
54a
  8
Layer_4
  10
18.080017
  20
40.184406
  0
VERTEX
  5
54b
  8
Layer_4
  10
14.080017
  20
40.184406
  0
VERTEX
  5
54c
  8
Layer_4
  10
14.080017
  20
41.954403
  0
VERTEX
  5
54d
  8
Layer_4
  10
18.080017
  20
41.954403
  0
VERTEX
  5
54e
  8
Layer_4
  10
18.080017
  20
40.184406
  0
SEQEND
  0
POLYLINE
  5
550
  8
Layer_4
  62
6
  66
1
  10
0
  20
0
  30
0
  0
VERTEX
  5
550
  8
Layer_4
  10
22.239868
  20
45.837021
  0
VERTEX
  5
551
  8
Layer_4
  10
22.239868
  20
49.837021
  0
VERTEX
  5
552
  8
Layer_4
  10
20.473267
  20
49.837021
  0
VERTEX
  5
553
  8
Layer_4
  10
20.473267
  20
45.837021
  0
VERTEX
  5
554
  8
Layer_4
  10
22.239868
  20
45.837021
  0
SEQEND
  0
POLYLINE
  5
556
  8
Layer_4
  62
6
  66
1
  10
0
  20
0
  30
0
  0
VERTEX
  5
556
  8
Layer_4
  10
61.187798
  20
40.184406
  0
VERTEX
  5
557
  8
Layer_4
  10
65.187798
  20
40.184406
  0
VERTEX
  5
558
  8
Layer_4
  10
65.187798
  20
41.954403
  0
VERTEX
  5
559
  8
Layer_4
  10
61.187798
  20
41.954403
  0
VERTEX
  5
55a
  8
Layer_4
  10
61.187798
  20
40.184406
  0
SEQEND
  0
POLYLINE
  5
55c
  8
Layer_4
  62
6
  66
1
  10
0
  20
0
  30
0
  0
VERTEX
  5
55c
  8
Layer_4
  10
71.133209
  20
41.94397
  0
VERTEX
  5
55d
  8
Layer_4
  10
69.363678
  20
41.94397
  0
VERTEX
  5
55e
  8
Layer_4
  10
69.363678
  20
43.94397
  0
VERTEX
  5
55f
  8
Layer_4
  10
71.133209
  20
43.94397
  0
VERTEX
  5
560
  8
Layer_4
  10
71.133209
  20
51.959106
  0
VERTEX
  5
561
  8
Layer_4
  10
69.363434
  20
51.959106
  0
VERTEX
  5
562
  8
Layer_4
  10
69.363434
  20
53.959106
  0
VERTEX
  5
563
  8
Layer_4
  10
71.133453
  20
53.959106
  0
VERTEX
  5
564
  8
Layer_4
  10
71.133972
  20
56.857803
  0
VERTEX
  5
565
  8
Layer_4
  10
66.541931
  20
61.449356
  0
VERTEX
  5
566
  8
Layer_4
  10
65.290222
  20
60.197647
  0
VERTEX
  5
567
  8
Layer_4
  10
59.633972
  20
65.855118
  0
VERTEX
  5
568
  8
Layer_4
  10
60.88446
  20
67.10585
  0
VERTEX
  5
569
  8
Layer_4
  10
53.096863
  20
74.892227
  0
VERTEX
  5
56a
  8
Layer_4
  10
51.846863
  20
73.642227
  0
VERTEX
  5
56b
  8
Layer_4
  10
46.188416
  20
79.297501
  0
VERTEX
  5
56c
  8
Layer_4
  10
47.439636
  20
80.548721
  0
VERTEX
  5
56d
  8
Layer_4
  10
42.847595
  20
85.139786
  0
VERTEX
  5
56e
  8
Layer_4
  10
9.9038086
  20
85.148117
  0
VERTEX
  5
56f
  8
Layer_4
  10
9.9038086
  20
81.88176
  0
VERTEX
  5
570
  8
Layer_4
  10
8.1337891
  20
81.88176
  0
VERTEX
  5
571
  8
Layer_4
  10
8.1337891
  20
76.88176
  0
VERTEX
  5
572
  8
Layer_4
  10
9.9038086
  20
76.88176
  0
VERTEX
  5
573
  8
Layer_4
  10
9.9038086
  20
69.570969
  0
VERTEX
  5
574
  8
Layer_4
  10
8.1337891
  20
69.570969
  0
VERTEX
  5
575
  8
Layer_4
  10
8.1337738
  20
52.417892
  0
VERTEX
  5
576
  8
Layer_4
  10
9.9037933
  20
52.417892
  0
VERTEX
  5
577
  8
Layer_4
  10
9.9037781
  20
38.153488
  0
VERTEX
  5
578
  8
Layer_4
  10
71.133209
  20
38.152222
  0
VERTEX
  5
579
  8
Layer_4
  10
71.133209
  20
41.94397
  0
SEQEND
  0
POLYLINE
  5
57b
  8
Layer_4
  62
6
  66
1
  10
0
  20
0
  30
0
  0
VERTEX
  5
57b
  8
Layer_4
  10
67.818695
  20
94.572083
  0
VERTEX
  5
57c
  8
Layer_4
  10
66.048798
  20
94.592804
  0
VERTEX
  5
57d
  8
Layer_4
  10
65.990265
  20
89.59314
  0
VERTEX
  5
57e
  8
Layer_4
  10
67.760162
  20
89.572418
  0
VERTEX
  5
57f
  8
Layer_4
  10
67.818695
  20
94.572083
  0
SEQEND
  0
POLYLINE
  5
581
  8
Layer_4
  62
6
  66
1
  10
0
  20
0
  30
0
  0
VERTEX
  5
581
  8
Layer_4
  10
67.993744
  20
106.106
  0
VERTEX
  5
582
  8
Layer_4
  10
66.183807
  20
106.12718
  0
VERTEX
  5
583
  8
Layer_4
  10
66.125275
  20
101.12752
  0
VERTEX
  5
584
  8
Layer_4
  10
67.935211
  20
101.10634
  0
VERTEX
  5
585
  8
Layer_4
  10
67.993744
  20
106.106
  0
SEQEND
  0
POLYLINE
  5
587
  8
Layer_4
  62
6
  66
1
  10
0
  20
0
  30
0
  0
VERTEX
  5
587
  8
Layer_4
  10
86.331482
  20
66.956604
  0
VERTEX
  5
588
  8
Layer_4
  10
82.331757
  20
67.003418
  0
VERTEX
  5
589
  8
Layer_4
  10
82.311081
  20
65.236938
  0
VERTEX
  5
58a
  8
Layer_4
  10
86.310806
  20
65.190125
  0
VERTEX
  5
58b
  8
Layer_4
  10
86.331482
  20
66.956604
  0
SEQEND
  0
POLYLINE
  5
58d
  8
Layer_4
  62
6
  66
1
  10
0
  20
0
  30
0
  0
VERTEX
  5
58d
  8
Layer_4
  10
92.439575
  20
105.83525
  0
VERTEX
  5
58e
  8
Layer_4
  10
92.486397
  20
109.83498
  0
VERTEX
  5
58f
  8
Layer_4
  10
90.716522
  20
109.8557
  0
VERTEX
  5
590
  8
Layer_4
  10
90.669701
  20
105.85597
  0
VERTEX
  5
591
  8
Layer_4
  10
92.439575
  20
105.83525
  0
SEQEND
  0
POLYLINE
  5
593
  8
Layer_4
  62
6
  66
1
  10
0
  20
0
  30
0
  0
VERTEX
  5
593
  8
Layer_4
  10
86.738647
  20
101.74188
  0
VERTEX
  5
594
  8
Layer_4
  10
82.738922
  20
101.7887
  0
VERTEX
  5
595
  8
Layer_4
  10
82.759598
  20
103.55518
  0
VERTEX
  5
596
  8
Layer_4
  10
86.759323
  20
103.50836
  0
VERTEX
  5
597
  8
Layer_4
  10
86.738647
  20
101.74188
  0
SEQEND
  0
POLYLINE
  5
599
  8
Layer_4
  62
6
  66
1
  10
0
  20
0
  30
0
  0
VERTEX
  5
599
  8
Layer_4
  10
91.93502
  20
62.730427
  0
VERTEX
  5
59a
  8
Layer_4
  10
91.888199
  20
58.730698
  0
VERTEX
  5
59b
  8
Layer_4
  10
90.118324
  20
58.751415
  0
VERTEX
  5
59c
  8
Layer_4
  10
90.165146
  20
62.751144
  0
VERTEX
  5
59d
  8
Layer_4
  10
91.93502
  20
62.730427
  0
SEQEND
  0
POLYLINE
  5
59f
  8
Layer_4
  62
6
  66
1
  10
0
  20
0
  30
0
  0
VERTEX
  5
59f
  8
Layer_4
  10
90.059174
  20
52.806305
  0
VERTEX
  5
5a0
  8
Layer_4
  10
90.079895
  20
54.575714
  0
VERTEX
  5
5a1
  8
Layer_4
  10
88.080032
  20
54.599121
  0
VERTEX
  5
5a2
  8
Layer_4
  10
88.059311
  20
52.829712
  0
VERTEX
  5
5a3
  8
Layer_4
  10
80.044739
  20
52.923523
  0
VERTEX
  5
5a4
  8
Layer_4
  10
80.06543
  20
54.693176
  0
VERTEX
  5
5a5
  8
Layer_4
  10
78.065582
  20
54.716583
  0
VERTEX
  5
5a6
  8
Layer_4
  10
78.044861
  20
52.946686
  0
VERTEX
  5
5a7
  8
Layer_4
  10
75.146362
  20
52.980103
  0
VERTEX
  5
5a8
  8
Layer_4
  10
70.608887
  20
57.625549
  0
VERTEX
  5
5a9
  8
Layer_4
  10
71.875153
  20
58.862518
  0
VERTEX
  5
5aa
  8
Layer_4
  10
66.284271
  20
64.584625
  0
VERTEX
  5
5ab
  8
Layer_4
  10
65.018982
  20
63.348877
  0
VERTEX
  5
5ac
  8
Layer_4
  10
57.32428
  20
71.227051
  0
VERTEX
  5
5ad
  8
Layer_4
  10
58.588837
  20
72.462311
  0
VERTEX
  5
5ae
  8
Layer_4
  10
53.000153
  20
78.186584
  0
VERTEX
  5
5af
  8
Layer_4
  10
51.734406
  20
76.950073
  0
VERTEX
  5
5b0
  8
Layer_4
  10
47.197388
  20
81.595551
  0
VERTEX
  5
5b1
  8
Layer_4
  10
47.574646
  20
114.53717
  0
VERTEX
  5
5b2
  8
Layer_4
  10
50.84079
  20
114.49895
  0
VERTEX
  5
5b3
  8
Layer_4
  10
50.861511
  20
116.26884
  0
VERTEX
  5
5b4
  8
Layer_4
  10
55.861176
  20
116.21033
  0
VERTEX
  5
5b5
  8
Layer_4
  10
55.840454
  20
114.44043
  0
VERTEX
  5
5b6
  8
Layer_4
  10
63.150726
  20
114.35486
  0
VERTEX
  5
5b7
  8
Layer_4
  10
63.171448
  20
116.12476
  0
VERTEX
  5
5b8
  8
Layer_4
  10
80.323364
  20
115.924
  0
VERTEX
  5
5b9
  8
Layer_4
  10
80.302643
  20
114.1541
  0
VERTEX
  5
5ba
  8
Layer_4
  10
94.566086
  20
113.98715
  0
VERTEX
  5
5bb
  8
Layer_4
  10
93.850662
  20
52.761902
  0
VERTEX
  5
5bc
  8
Layer_4
  10
90.059174
  20
52.806305
  0
SEQEND
  0
POLYLINE
  5
5be
  8
Layer_4
  62
6
  66
1
  10
0
  20
0
  30
0
  0
VERTEX
  5
5be
  8
Layer_4
  10
208.31413
  20
46.080223
  0
VERTEX
  5
5bf
  8
Layer_4
  10
208.3134
  20
39.571922
  0
VERTEX
  5
5c0
  8
Layer_4
  10
218.455
  20
39.571918
  0
VERTEX
  5
5c1
  8
Layer_4
  10
218.455
  20
37.77309
  0
VERTEX
  5
5c2
  8
Layer_4
  10
222.455
  20
37.77309
  0
VERTEX
  5
5c3
  8
Layer_4
  10
222.455
  20
39.571918
  0
VERTEX
  5
5c4
  8
Layer_4
  10
232.59662
  20
39.571915
  0
VERTEX
  5
5c5
  8
Layer_4
  10
232.59662
  20
53.807266
  0
VERTEX
  5
5c6
  8
Layer_4
  10
234.36469
  20
53.807266
  0
VERTEX
  5
5c7
  8
Layer_4
  10
234.36469
  20
57.807266
  0
VERTEX
  5
5c8
  8
Layer_4
  10
232.59662
  20
57.807266
  0
VERTEX
  5
5c9
  8
Layer_4
  10
232.59662
  20
58.790665
  0
VERTEX
  5
5ca
  8
Layer_4
  10
232.28973
  20
58.806046
  42
-0.41220325
  0
VERTEX
  5
5cb
  8
Layer_4
  10
229.61003
  20
62.076065
  42
-0.38674794
  0
VERTEX
  5
5cc
  8
Layer_4
  10
232.59662
  20
64.790665
  0
VERTEX
  5
5cd
  8
Layer_4
  10
232.59662
  20
65.91127
  0
VERTEX
  5
5ce
  8
Layer_4
  10
234.36469
  20
65.91127
  0
VERTEX
  5
5cf
  8
Layer_4
  10
234.36469
  20
69.91127
  0
VERTEX
  5
5d0
  8
Layer_4
  10
232.59662
  20
69.91127
  0
VERTEX
  5
5d1
  8
Layer_4
  10
232.59662
  20
71.045303
  0
VERTEX
  5
5d2
  8
Layer_4
  10
208.31413
  20
46.080223
  0
SEQEND
  0
POLYLINE
  5
5d4
  8
Layer_4
  62
6
  66
1
  10
0
  20
0
  30
0
  0
VERTEX
  5
5d4
  8
Layer_4
  10
225.15424
  20
52.311176
  0
VERTEX
  5
5d5
  8
Layer_4
  10
225.40814
  20
52.291889
  42
-0.39952416
  0
VERTEX
  5
5d6
  8
Layer_4
  10
229.89056
  20
47.06044
  42
-0.41429057
  0
VERTEX
  5
5d7
  8
Layer_4
  10
224.63957
  20
42.32436
  42
-0.39934115
  0
VERTEX
  5
5d8
  8
Layer_4
  10
219.8969
  20
47.317772
  42
-0.41433635
  0
VERTEX
  5
5d9
  8
Layer_4
  10
224.89691
  20
52.317768
  0
VERTEX
  5
5da
  8
Layer_4
  10
225.15424
  20
52.311176
  0
SEQEND
  0
POLYLINE
  5
5dc
  8
Layer_4
  62
6
  66
1
  10
0
  20
0
  30
0
  0
VERTEX
  5
5dc
  8
Layer_4
  10
180.54831
  20
122.18051
  42
-0.41421356
  0
VERTEX
  5
5dd
  8
Layer_4
  10
179.54831
  20
121.18051
  0
VERTEX
  5
5de
  8
Layer_4
  10
172.54831
  20
121.18051
  42
-0.41421356
  0
VERTEX
  5
5df
  8
Layer_4
  10
171.54831
  20
122.18051
  0
VERTEX
  5
5e0
  8
Layer_4
  10
171.54831
  20
123.18051
  42
-0.41421356
  0
VERTEX
  5
5e1
  8
Layer_4
  10
172.54831
  20
124.18051
  0
VERTEX
  5
5e2
  8
Layer_4
  10
179.54831
  20
124.18051
  42
-0.41421356
  0
VERTEX
  5
5e3
  8
Layer_4
  10
180.54831
  20
123.18051
  0
VERTEX
  5
5e4
  8
Layer_4
  10
180.54831
  20
122.18051
  0
SEQEND
  0
POLYLINE
  5
5e6
  8
Layer_4
  62
6
  66
1
  10
0
  20
0
  30
0
  0
VERTEX
  5
5e6
  8
Layer_4
  10
173.51378
  20
112.22794
  0
VERTEX
  5
5e7
  8
Layer_4
  10
173.51378
  20
113.99796
  0
VERTEX
  5
5e8
  8
Layer_4
  10
177.51378
  20
113.99796
  0
VERTEX
  5
5e9
  8
Layer_4
  10
177.51378
  20
112.22794
  0
VERTEX
  5
5ea
  8
Layer_4
  10
173.51378
  20
112.22794
  0
SEQEND
  0
POLYLINE
  5
5ec
  8
Layer_4
  62
6
  66
1
  10
0
  20
0
  30
0
  0
VERTEX
  5
5ec
  8
Layer_4
  10
173.51378
  20
35.759312
  0
VERTEX
  5
5ed
  8
Layer_4
  10
173.51378
  20
37.529331
  0
VERTEX
  5
5ee
  8
Layer_4
  10
177.51378
  20
37.529331
  0
VERTEX
  5
5ef
  8
Layer_4
  10
177.51378
  20
35.759312
  0
VERTEX
  5
5f0
  8
Layer_4
  10
173.51378
  20
35.759312
  0
SEQEND
  0
POLYLINE
  5
5f2
  8
Layer_4
  62
6
  66
1
  10
0
  20
0
  30
0
  0
VERTEX
  5
5f2
  8
Layer_4
  10
187.6722
  20
124.17253
  0
VERTEX
  5
5f3
  8
Layer_4
  10
189.47581
  20
124.17253
  0
VERTEX
  5
5f4
  8
Layer_4
  10
189.47581
  20
119.45668
  0
VERTEX
  5
5f5
  8
Layer_4
  10
187.6722
  20
119.45668
  0
VERTEX
  5
5f6
  8
Layer_4
  10
187.6722
  20
124.17253
  0
SEQEND
  0
POLYLINE
  5
5f8
  8
Layer_4
  62
6
  66
1
  10
0
  20
0
  30
0
  0
VERTEX
  5
5f8
  8
Layer_4
  10
187.6722
  20
92.882431
  0
VERTEX
  5
5f9
  8
Layer_4
  10
189.47581
  20
92.882431
  0
VERTEX
  5
5fa
  8
Layer_4
  10
189.47581
  20
88.16658
  0
VERTEX
  5
5fb
  8
Layer_4
  10
187.6722
  20
88.16658
  0
VERTEX
  5
5fc
  8
Layer_4
  10
187.6722
  20
92.882431
  0
SEQEND
  0
POLYLINE
  5
5fe
  8
Layer_4
  62
6
  66
1
  10
0
  20
0
  30
0
  0
VERTEX
  5
5fe
  8
Layer_4
  10
187.67218
  20
30.296066
  0
VERTEX
  5
5ff
  8
Layer_4
  10
189.4758
  20
30.296066
  0
VERTEX
  5
600
  8
Layer_4
  10
189.4758
  20
25.580215
  0
VERTEX
  5
601
  8
Layer_4
  10
187.67218
  20
25.580215
  0
VERTEX
  5
602
  8
Layer_4
  10
187.67218
  20
30.296066
  0
SEQEND
  0
POLYLINE
  5
604
  8
Layer_4
  62
6
  66
1
  10
0
  20
0
  30
0
  0
VERTEX
  5
604
  8
Layer_4
  10
187.67218
  20
61.588303
  0
VERTEX
  5
605
  8
Layer_4
  10
189.4758
  20
61.588303
  0
VERTEX
  5
606
  8
Layer_4
  10
189.4758
  20
56.872452
  0
VERTEX
  5
607
  8
Layer_4
  10
187.67218
  20
56.872452
  0
VERTEX
  5
608
  8
Layer_4
  10
187.67218
  20
61.588303
  0
SEQEND
  0
POLYLINE
  5
60a
  8
Layer_4
  62
6
  66
1
  10
0
  20
0
  30
0
  0
VERTEX
  5
60a
  8
Layer_4
  10
200.06964
  20
75.134155
  0
VERTEX
  5
60b
  8
Layer_4
  10
200.10748
  20
75.382446
  42
-0.19874779
  0
VERTEX
  5
60c
  8
Layer_4
  10
201.18118
  20
76.966888
  42
-0.19899595
  0
VERTEX
  5
60d
  8
Layer_4
  10
203.06061
  20
77.327759
  42
-0.38486313
  0
VERTEX
  5
60e
  8
Layer_4
  10
205.04376
  20
74.622925
  42
-0.41393402
  0
VERTEX
  5
60f
  8
Layer_4
  10
202.30106
  20
72.391479
  42
-0.38393648
  0
VERTEX
  5
610
  8
Layer_4
  10
200.0567
  20
74.87854
  0
VERTEX
  5
611
  8
Layer_4
  10
200.06964
  20
75.134155
  0
SEQEND
  0
POLYLINE
  5
613
  8
Layer_4
  62
6
  66
1
  10
0
  20
0
  30
0
  0
VERTEX
  5
613
  8
Layer_4
  10
175.59296
  20
6.6485443
  0
VERTEX
  5
614
  8
Layer_4
  10
192.7458
  20
6.6485443
  0
VERTEX
  5
615
  8
Layer_4
  10
192.7458
  20
4.8785248
  0
VERTEX
  5
616
  8
Layer_4
  10
200.05659
  20
4.8785248
  0
VERTEX
  5
617
  8
Layer_4
  10
200.05659
  20
6.6485443
  0
VERTEX
  5
618
  8
Layer_4
  10
205.05659
  20
6.6485443
  0
VERTEX
  5
619
  8
Layer_4
  10
205.05659
  20
4.8785248
  0
VERTEX
  5
61a
  8
Layer_4
  10
208.31319
  20
4.8785248
  0
VERTEX
  5
61b
  8
Layer_4
  10
208.31343
  20
144.87852
  0
VERTEX
  5
61c
  8
Layer_4
  10
205.05684
  20
144.87852
  0
VERTEX
  5
61d
  8
Layer_4
  10
205.05684
  20
143.10851
  0
VERTEX
  5
61e
  8
Layer_4
  10
200.05684
  20
143.10851
  0
VERTEX
  5
61f
  8
Layer_4
  10
200.05684
  20
144.87877
  0
VERTEX
  5
620
  8
Layer_4
  10
192.74605
  20
144.87852
  0
VERTEX
  5
621
  8
Layer_4
  10
192.74605
  20
143.10851
  0
VERTEX
  5
622
  8
Layer_4
  10
175.59323
  20
143.10852
  0
VERTEX
  5
623
  8
Layer_4
  10
175.59323
  20
144.87854
  0
VERTEX
  5
624
  8
Layer_4
  10
161.31882
  20
144.87854
  0
VERTEX
  5
625
  8
Layer_4
  10
161.31879
  20
4.8785248
  0
VERTEX
  5
626
  8
Layer_4
  10
175.59296
  20
4.8785248
  0
VERTEX
  5
627
  8
Layer_4
  10
175.59296
  20
6.6485443
  0
SEQEND
  0
POLYLINE
  5
629
  8
Layer_4
  62
6
  66
1
  10
0
  20
0
  30
0
  0
VERTEX
  5
629
  8
Layer_4
  10
163.34978
  20
14.824797
  0
VERTEX
  5
62a
  8
Layer_4
  10
163.34978
  20
10.824797
  0
VERTEX
  5
62b
  8
Layer_4
  10
165.11977
  20
10.824797
  0
VERTEX
  5
62c
  8
Layer_4
  10
165.11977
  20
14.824797
  0
VERTEX
  5
62d
  8
Layer_4
  10
163.34978
  20
14.824797
  0
SEQEND
  0
POLYLINE
  5
62f
  8
Layer_4
  62
6
  66
1
  10
0
  20
0
  30
0
  0
VERTEX
  5
62f
  8
Layer_4
  10
169.00238
  20
17.111938
  0
VERTEX
  5
630
  8
Layer_4
  10
173.00238
  20
17.111938
  0
VERTEX
  5
631
  8
Layer_4
  10
173.00238
  20
18.87854
  0
VERTEX
  5
632
  8
Layer_4
  10
169.00238
  20
18.87854
  0
VERTEX
  5
633
  8
Layer_4
  10
169.00238
  20
17.111938
  0
SEQEND
  0
POLYLINE
  5
635
  8
Layer_4
  62
6
  66
1
  10
0
  20
0
  30
0
  0
VERTEX
  5
635
  8
Layer_4
  10
163.34981
  20
134.93228
  0
VERTEX
  5
636
  8
Layer_4
  10
163.34981
  20
138.93228
  0
VERTEX
  5
637
  8
Layer_4
  10
165.1198
  20
138.93228
  0
VERTEX
  5
638
  8
Layer_4
  10
165.1198
  20
134.93228
  0
VERTEX
  5
639
  8
Layer_4
  10
163.34981
  20
134.93228
  0
SEQEND
  0
POLYLINE
  5
63b
  8
Layer_4
  62
6
  66
1
  10
0
  20
0
  30
0
  0
VERTEX
  5
63b
  8
Layer_4
  10
169.00241
  20
130.87805
  0
VERTEX
  5
63c
  8
Layer_4
  10
173.00241
  20
130.87805
  0
VERTEX
  5
63d
  8
Layer_4
  10
173.00241
  20
132.64465
  0
VERTEX
  5
63e
  8
Layer_4
  10
169.00241
  20
132.64465
  0
VERTEX
  5
63f
  8
Layer_4
  10
169.00241
  20
130.87805
  0
SEQEND
  0
POLYLINE
  5
641
  8
Layer_4
  62
6
  66
1
  10
0
  20
0
  30
0
  0
VERTEX
  5
641
  8
Layer_4
  10
173.51286
  20
54.644161
  0
VERTEX
  5
642
  8
Layer_4
  10
173.51286
  20
56.412228
  0
VERTEX
  5
643
  8
Layer_4
  10
177.51286
  20
56.412228
  0
VERTEX
  5
644
  8
Layer_4
  10
177.51286
  20
54.644161
  0
VERTEX
  5
645
  8
Layer_4
  10
173.51286
  20
54.644161
  0
SEQEND
  0
POLYLINE
  5
647
  8
Layer_4
  62
6
  66
1
  10
0
  20
0
  30
0
  0
VERTEX
  5
647
  8
Layer_4
  10
173.51286
  20
93.52243
  0
VERTEX
  5
648
  8
Layer_4
  10
173.51286
  20
95.290497
  0
VERTEX
  5
649
  8
Layer_4
  10
177.51286
  20
95.290497
  0
VERTEX
  5
64a
  8
Layer_4
  10
177.51286
  20
93.52243
  0
VERTEX
  5
64b
  8
Layer_4
  10
173.51286
  20
93.52243
  0
SEQEND
  0
POLYLINE
  5
64d
  8
Layer_4
  62
6
  66
1
  10
0
  20
0
  30
0
  0
VERTEX
  5
64d
  8
Layer_4
  10
234.4236
  20
72.923668
  0
VERTEX
  5
64e
  8
Layer_4
  10
234.42433
  20
79.431969
  0
VERTEX
  5
64f
  8
Layer_4
  10
224.28273
  20
79.431969
  0
VERTEX
  5
650
  8
Layer_4
  10
224.28273
  20
81.230797
  0
VERTEX
  5
651
  8
Layer_4
  10
220.28273
  20
81.230797
  0
VERTEX
  5
652
  8
Layer_4
  10
220.28273
  20
79.431969
  0
VERTEX
  5
653
  8
Layer_4
  10
210.14111
  20
79.431969
  0
VERTEX
  5
654
  8
Layer_4
  10
210.14111
  20
65.196617
  0
VERTEX
  5
655
  8
Layer_4
  10
208.37306
  20
65.196617
  0
VERTEX
  5
656
  8
Layer_4
  10
208.37306
  20
61.196617
  0
VERTEX
  5
657
  8
Layer_4
  10
210.14111
  20
61.196617
  0
VERTEX
  5
658
  8
Layer_4
  10
210.14111
  20
60.213219
  0
VERTEX
  5
659
  8
Layer_4
  10
210.44801
  20
60.197838
  42
-0.41220325
  0
VERTEX
  5
65a
  8
Layer_4
  10
213.12772
  20
56.927818
  42
-0.38674794
  0
VERTEX
  5
65b
  8
Layer_4
  10
210.14111
  20
54.213219
  0
VERTEX
  5
65c
  8
Layer_4
  10
210.14111
  20
53.092613
  0
VERTEX
  5
65d
  8
Layer_4
  10
208.37306
  20
53.092613
  0
VERTEX
  5
65e
  8
Layer_4
  10
208.37306
  20
49.092613
  0
VERTEX
  5
65f
  8
Layer_4
  10
210.14111
  20
49.092613
  0
VERTEX
  5
660
  8
Layer_4
  10
210.14111
  20
47.95858
  0
VERTEX
  5
661
  8
Layer_4
  10
234.4236
  20
72.923668
  0
SEQEND
  0
POLYLINE
  5
663
  8
Layer_4
  62
6
  66
1
  10
0
  20
0
  30
0
  0
VERTEX
  5
663
  8
Layer_4
  10
217.58351
  20
66.692711
  0
VERTEX
  5
664
  8
Layer_4
  10
217.32961
  20
66.711998
  42
-0.39952416
  0
VERTEX
  5
665
  8
Layer_4
  10
212.84718
  20
71.943443
  42
-0.41429057
  0
VERTEX
  5
666
  8
Layer_4
  10
218.09818
  20
76.679527
  42
-0.39934115
  0
VERTEX
  5
667
  8
Layer_4
  10
222.84084
  20
71.686119
  42
-0.41433635
  0
VERTEX
  5
668
  8
Layer_4
  10
217.84084
  20
66.686119
  0
VERTEX
  5
669
  8
Layer_4
  10
217.58351
  20
66.692711
  0
SEQEND
  0
POLYLINE
  5
66b
  8
Layer_4
  62
6
  66
1
  10
0
  20
0
  30
0
  0
VERTEX
  5
66b
  8
Layer_4
  10
247.99066
  20
163.47362
  0
VERTEX
  5
66c
  8
Layer_4
  10
247.97137
  20
163.21971
  42
-0.39951007
  0
VERTEX
  5
66d
  8
Layer_4
  10
242.73993
  20
158.73753
  42
-0.19902447
  0
VERTEX
  5
66e
  8
Layer_4
  10
239.28404
  20
160.38165
  42
-0.19901246
  0
VERTEX
  5
66f
  8
Layer_4
  10
238.00385
  20
163.98828
  42
-0.39938156
  0
VERTEX
  5
670
  8
Layer_4
  10
242.99725
  20
168.73094
  42
-0.39938413
  0
VERTEX
  5
671
  8
Layer_4
  10
247.99066
  20
163.98828
  42
-0.025916584
  0
VERTEX
  5
672
  8
Layer_4
  10
247.99066
  20
163.47362
  0
SEQEND
  0
POLYLINE
  5
674
  8
Layer_4
  62
6
  66
1
  10
0
  20
0
  30
0
  0
VERTEX
  5
674
  8
Layer_4
  10
229.88733
  20
162.06265
  0
VERTEX
  5
675
  8
Layer_4
  10
231.6344
  20
162.06265
  0
VERTEX
  5
676
  8
Layer_4
  10
231.6344
  20
157.33536
  0
VERTEX
  5
677
  8
Layer_4
  10
254.34338
  20
157.33536
  0
VERTEX
  5
678
  8
Layer_4
  10
254.34338
  20
162.06265
  0
VERTEX
  5
679
  8
Layer_4
  10
256.11292
  20
162.06265
  0
VERTEX
  5
67a
  8
Layer_4
  10
256.11292
  20
165.05875
  0
VERTEX
  5
67b
  8
Layer_4
  10
254.34338
  20
165.05875
  0
VERTEX
  5
67c
  8
Layer_4
  10
254.34338
  20
173.91797
  0
VERTEX
  5
67d
  8
Layer_4
  10
231.6344
  20
173.91797
  0
VERTEX
  5
67e
  8
Layer_4
  10
231.6344
  20
165.05875
  0
VERTEX
  5
67f
  8
Layer_4
  10
229.88708
  20
165.05875
  0
VERTEX
  5
680
  8
Layer_4
  10
229.88733
  20
162.06265
  0
SEQEND
  0
POLYLINE
  5
682
  8
Layer_4
  62
6
  66
1
  10
0
  20
0
  30
0
  0
VERTEX
  5
682
  8
Layer_4
  10
101.00937
  20
139.82294
  0
VERTEX
  5
683
  8
Layer_4
  10
101.02866
  20
140.07684
  42
-0.39951007
  0
VERTEX
  5
684
  8
Layer_4
  10
106.2601
  20
144.55904
  42
-0.19902447
  0
VERTEX
  5
685
  8
Layer_4
  10
109.716
  20
142.91492
  42
-0.19901246
  0
VERTEX
  5
686
  8
Layer_4
  10
110.99619
  20
139.30829
  42
-0.39938156
  0
VERTEX
  5
687
  8
Layer_4
  10
106.00278
  20
134.56563
  42
-0.39938413
  0
VERTEX
  5
688
  8
Layer_4
  10
101.00937
  20
139.30829
  42
-0.025916584
  0
VERTEX
  5
689
  8
Layer_4
  10
101.00937
  20
139.82294
  0
SEQEND
  0
POLYLINE
  5
68b
  8
Layer_4
  62
6
  66
1
  10
0
  20
0
  30
0
  0
VERTEX
  5
68b
  8
Layer_4
  10
119.11269
  20
141.23392
  0
VERTEX
  5
68c
  8
Layer_4
  10
117.36562
  20
141.23392
  0
VERTEX
  5
68d
  8
Layer_4
  10
117.36562
  20
145.96121
  0
VERTEX
  5
68e
  8
Layer_4
  10
94.656631
  20
145.96121
  0
VERTEX
  5
68f
  8
Layer_4
  10
94.656631
  20
141.23392
  0
VERTEX
  5
690
  8
Layer_4
  10
92.8871
  20
141.23392
  0
VERTEX
  5
691
  8
Layer_4
  10
92.8871
  20
138.23782
  0
VERTEX
  5
692
  8
Layer_4
  10
94.656631
  20
138.23782
  0
VERTEX
  5
693
  8
Layer_4
  10
94.656631
  20
129.3786
  0
VERTEX
  5
694
  8
Layer_4
  10
117.36562
  20
129.3786
  0
VERTEX
  5
695
  8
Layer_4
  10
117.36562
  20
138.23782
  0
VERTEX
  5
696
  8
Layer_4
  10
119.11293
  20
138.23782
  0
VERTEX
  5
697
  8
Layer_4
  10
119.11269
  20
141.23392
  0
SEQEND
  0
POLYLINE
  5
699
  8
Layer_4
  62
6
  66
1
  10
0
  20
0
  30
0
  0
VERTEX
  5
699
  8
Layer_4
  10
233.05499
  20
11.628891
  0
VERTEX
  5
69a
  8
Layer_4
  10
233.05499
  20
18.562973
  0
VERTEX
  5
69b
  8
Layer_4
  10
234.81293
  20
18.562973
  0
VERTEX
  5
69c
  8
Layer_4
  10
234.81293
  20
20.332993
  0
VERTEX
  5
69d
  8
Layer_4
  10
233.05499
  20
20.332993
  0
VERTEX
  5
69e
  8
Layer_4
  10
233.05499
  20
21.146957
  0
VERTEX
  5
69f
  8
Layer_4
  10
210.34595
  20
21.146954
  0
VERTEX
  5
6a0
  8
Layer_4
  10
210.34595
  20
20.332989
  0
VERTEX
  5
6a1
  8
Layer_4
  10
208.57794
  20
20.332989
  0
VERTEX
  5
6a2
  8
Layer_4
  10
208.57794
  20
18.562969
  0
VERTEX
  5
6a3
  8
Layer_4
  10
210.34595
  20
18.562969
  0
VERTEX
  5
6a4
  8
Layer_4
  10
210.34595
  20
11.628887
  0
VERTEX
  5
6a5
  8
Layer_4
  10
208.57794
  20
11.628886
  0
VERTEX
  5
6a6
  8
Layer_4
  10
208.57794
  20
9.8588667
  0
VERTEX
  5
6a7
  8
Layer_4
  10
210.34595
  20
9.8588676
  0
VERTEX
  5
6a8
  8
Layer_4
  10
210.34595
  20
4.5729485
  0
VERTEX
  5
6a9
  8
Layer_4
  10
233.05499
  20
4.5729523
  0
VERTEX
  5
6aa
  8
Layer_4
  10
233.05499
  20
9.8588715
  0
VERTEX
  5
6ab
  8
Layer_4
  10
234.81293
  20
9.8588715
  0
VERTEX
  5
6ac
  8
Layer_4
  10
234.81293
  20
11.628891
  0
VERTEX
  5
6ad
  8
Layer_4
  10
233.05499
  20
11.628891
  0
SEQEND
  0
POLYLINE
  5
6af
  8
Layer_4
  62
6
  66
1
  10
0
  20
0
  30
0
  0
VERTEX
  5
6af
  8
Layer_4
  10
232.79047
  20
28.2029
  0
VERTEX
  5
6b0
  8
Layer_4
  10
232.79047
  20
35.136982
  0
VERTEX
  5
6b1
  8
Layer_4
  10
234.5484
  20
35.136982
  0
VERTEX
  5
6b2
  8
Layer_4
  10
234.5484
  20
36.907001
  0
VERTEX
  5
6b3
  8
Layer_4
  10
232.79047
  20
36.907001
  0
VERTEX
  5
6b4
  8
Layer_4
  10
232.79047
  20
37.720966
  0
VERTEX
  5
6b5
  8
Layer_4
  10
210.08142
  20
37.720963
  0
VERTEX
  5
6b6
  8
Layer_4
  10
210.08142
  20
36.906998
  0
VERTEX
  5
6b7
  8
Layer_4
  10
208.31342
  20
36.906998
  0
VERTEX
  5
6b8
  8
Layer_4
  10
208.31342
  20
35.136978
  0
VERTEX
  5
6b9
  8
Layer_4
  10
210.08142
  20
35.136978
  0
VERTEX
  5
6ba
  8
Layer_4
  10
210.08142
  20
28.202896
  0
VERTEX
  5
6bb
  8
Layer_4
  10
208.31342
  20
28.202896
  0
VERTEX
  5
6bc
  8
Layer_4
  10
208.31342
  20
26.432877
  0
VERTEX
  5
6bd
  8
Layer_4
  10
210.08142
  20
26.432877
  0
VERTEX
  5
6be
  8
Layer_4
  10
210.08142
  20
21.146957
  0
VERTEX
  5
6bf
  8
Layer_4
  10
232.79047
  20
21.146961
  0
VERTEX
  5
6c0
  8
Layer_4
  10
232.79047
  20
26.43288
  0
VERTEX
  5
6c1
  8
Layer_4
  10
234.5484
  20
26.43288
  0
VERTEX
  5
6c2
  8
Layer_4
  10
234.5484
  20
28.2029
  0
VERTEX
  5
6c3
  8
Layer_4
  10
232.79047
  20
28.2029
  0
SEQEND
  0
POLYLINE
  5
6c5
  8
Layer_4
  62
6
  66
1
  10
0
  20
0
  30
0
  0
VERTEX
  5
6c5
  8
Layer_4
  10
161.98082
  20
196.73422
  0
VERTEX
  5
6c6
  8
Layer_4
  10
161.98082
  20
194.33691
  0
VERTEX
  5
6c7
  8
Layer_4
  10
165.8365
  20
194.33691
  0
VERTEX
  5
6c8
  8
Layer_4
  10
165.8365
  20
192.63037
  0
VERTEX
  5
6c9
  8
Layer_4
  10
169.8365
  20
192.63037
  0
VERTEX
  5
6ca
  8
Layer_4
  10
169.8365
  20
194.33691
  0
VERTEX
  5
6cb
  8
Layer_4
  10
175.83623
  20
194.33691
  0
VERTEX
  5
6cc
  8
Layer_4
  10
175.83624
  20
204.91635
  0
VERTEX
  5
6cd
  8
Layer_4
  10
169.83652
  20
204.91635
  0
VERTEX
  5
6ce
  8
Layer_4
  10
169.83664
  20
206.62289
  0
VERTEX
  5
6cf
  8
Layer_4
  10
165.83664
  20
206.62289
  0
VERTEX
  5
6d0
  8
Layer_4
  10
165.83652
  20
204.91611
  0
VERTEX
  5
6d1
  8
Layer_4
  10
161.98083
  20
204.91611
  0
VERTEX
  5
6d2
  8
Layer_4
  10
161.98083
  20
200.73422
  0
VERTEX
  5
6d3
  8
Layer_4
  10
160.15271
  20
200.73422
  0
VERTEX
  5
6d4
  8
Layer_4
  10
160.15269
  20
196.73422
  0
VERTEX
  5
6d5
  8
Layer_4
  10
161.98082
  20
196.73422
  0
SEQEND
  0
POLYLINE
  5
6d7
  8
Layer_4
  62
6
  66
1
  10
0
  20
0
  30
0
  0
VERTEX
  5
6d7
  8
Layer_4
  10
80.157845
  20
49.919739
  0
VERTEX
  5
6d8
  8
Layer_4
  10
84.157845
  20
49.919739
  0
VERTEX
  5
6d9
  8
Layer_4
  10
84.157845
  20
51.626282
  0
VERTEX
  5
6da
  8
Layer_4
  10
88.013527
  20
51.626282
  0
VERTEX
  5
6db
  8
Layer_4
  10
88.013527
  20
47.509827
  0
VERTEX
  5
6dc
  8
Layer_4
  10
89.841896
  20
47.509827
  0
VERTEX
  5
6dd
  8
Layer_4
  10
89.841896
  20
43.509827
  0
VERTEX
  5
6de
  8
Layer_4
  10
88.013527
  20
43.509827
  0
VERTEX
  5
6df
  8
Layer_4
  10
88.013527
  20
39.393372
  0
VERTEX
  5
6e0
  8
Layer_4
  10
84.157845
  20
39.393372
  0
VERTEX
  5
6e1
  8
Layer_4
  10
84.157845
  20
37.627014
  0
VERTEX
  5
6e2
  8
Layer_4
  10
80.157845
  20
37.627014
  0
VERTEX
  5
6e3
  8
Layer_4
  10
80.157845
  20
39.393372
  0
VERTEX
  5
6e4
  8
Layer_4
  10
74.158104
  20
39.393372
  0
VERTEX
  5
6e5
  8
Layer_4
  10
74.158104
  20
51.626282
  0
VERTEX
  5
6e6
  8
Layer_4
  10
80.157845
  20
51.626282
  0
VERTEX
  5
6e7
  8
Layer_4
  10
80.157845
  20
49.919739
  0
SEQEND
  0
POLYLINE
  5
6e9
  8
Layer_4
  62
6
  66
1
  10
0
  20
0
  30
0
  0
VERTEX
  5
6e9
  8
Layer_4
  10
153.70135
  20
107.80853
  0
VERTEX
  5
6ea
  8
Layer_4
  10
153.70135
  20
105.41123
  0
VERTEX
  5
6eb
  8
Layer_4
  10
149.84567
  20
105.41124
  0
VERTEX
  5
6ec
  8
Layer_4
  10
149.84567
  20
103.7047
  0
VERTEX
  5
6ed
  8
Layer_4
  10
145.84567
  20
103.7047
  0
VERTEX
  5
6ee
  8
Layer_4
  10
145.84567
  20
105.41124
  0
VERTEX
  5
6ef
  8
Layer_4
  10
139.84595
  20
105.41124
  0
VERTEX
  5
6f0
  8
Layer_4
  10
139.84596
  20
115.99067
  0
VERTEX
  5
6f1
  8
Layer_4
  10
145.84569
  20
115.99067
  0
VERTEX
  5
6f2
  8
Layer_4
  10
145.84557
  20
117.69721
  0
VERTEX
  5
6f3
  8
Layer_4
  10
149.84557
  20
117.69721
  0
VERTEX
  5
6f4
  8
Layer_4
  10
149.84569
  20
115.99043
  0
VERTEX
  5
6f5
  8
Layer_4
  10
153.70137
  20
115.99043
  0
VERTEX
  5
6f6
  8
Layer_4
  10
153.70137
  20
111.80853
  0
VERTEX
  5
6f7
  8
Layer_4
  10
155.5295
  20
111.80853
  0
VERTEX
  5
6f8
  8
Layer_4
  10
155.52948
  20
107.80853
  0
VERTEX
  5
6f9
  8
Layer_4
  10
153.70135
  20
107.80853
  0
SEQEND
  0
POLYLINE
  5
6fb
  8
Layer_4
  62
6
  66
1
  10
0
  20
0
  30
0
  0
VERTEX
  5
6fb
  8
Layer_4
  10
107.84215
  20
111.91972
  0
VERTEX
  5
6fc
  8
Layer_4
  10
103.84215
  20
111.91972
  0
VERTEX
  5
6fd
  8
Layer_4
  10
103.84215
  20
113.62627
  0
VERTEX
  5
6fe
  8
Layer_4
  10
99.986465
  20
113.62627
  0
VERTEX
  5
6ff
  8
Layer_4
  10
99.986465
  20
109.50981
  0
VERTEX
  5
700
  8
Layer_4
  10
98.158096
  20
109.50981
  0
VERTEX
  5
701
  8
Layer_4
  10
98.158096
  20
105.50981
  0
VERTEX
  5
702
  8
Layer_4
  10
99.986465
  20
105.50981
  0
VERTEX
  5
703
  8
Layer_4
  10
99.986465
  20
101.39336
  0
VERTEX
  5
704
  8
Layer_4
  10
103.84215
  20
101.39336
  0
VERTEX
  5
705
  8
Layer_4
  10
103.84215
  20
99.626999
  0
VERTEX
  5
706
  8
Layer_4
  10
107.84215
  20
99.626999
  0
VERTEX
  5
707
  8
Layer_4
  10
107.84215
  20
101.39336
  0
VERTEX
  5
708
  8
Layer_4
  10
113.84189
  20
101.39336
  0
VERTEX
  5
709
  8
Layer_4
  10
113.8419
  20
113.62627
  0
VERTEX
  5
70a
  8
Layer_4
  10
107.84215
  20
113.62627
  0
VERTEX
  5
70b
  8
Layer_4
  10
107.84215
  20
111.91972
  0
SEQEND
  0
POLYLINE
  5
70d
  8
Layer_4
  62
6
  66
1
  10
0
  20
0
  30
0
  0
VERTEX
  5
70d
  8
Layer_4
  10
220.5
  20
233.52657
  0
VERTEX
  5
70e
  8
Layer_4
  10
220.5
  20
207.72676
  0
VERTEX
  5
70f
  8
Layer_4
  10
241.5
  20
207.72676
  0
VERTEX
  5
710
  8
Layer_4
  10
241.5
  20
233.52657
  0
VERTEX
  5
711
  8
Layer_4
  10
220.5
  20
233.52657
  0
SEQEND
  0
POLYLINE
  5
713
  8
Layer_4
  62
6
  66
1
  10
0
  20
0
  30
0
  0
VERTEX
  5
713
  8
Layer_4
  10
237.21092
  20
211.62668
  0
VERTEX
  5
714
  8
Layer_4
  10
237.20067
  20
211.42209
  42
-0.38474357
  0
VERTEX
  5
715
  8
Layer_4
  10
235.21091
  20
209.62668
  0
VERTEX
  5
716
  8
Layer_4
  10
229.21088
  20
209.62666
  42
-0.41424593
  0
VERTEX
  5
717
  8
Layer_4
  10
227.21086
  20
211.62666
  0
VERTEX
  5
718
  8
Layer_4
  10
227.21086
  20
217.62666
  42
-0.41424795
  0
VERTEX
  5
719
  8
Layer_4
  10
229.21088
  20
219.62666
  0
VERTEX
  5
71a
  8
Layer_4
  10
235.21091
  20
219.62668
  42
-0.41427223
  0
VERTEX
  5
71b
  8
Layer_4
  10
237.21092
  20
217.62668
  0
VERTEX
  5
71c
  8
Layer_4
  10
237.21092
  20
211.62668
  0
SEQEND
  0
POLYLINE
  5
71e
  8
Layer_4
  62
6
  66
1
  10
0
  20
0
  30
0
  0
VERTEX
  5
71e
  8
Layer_4
  10
237.21092
  20
223.62668
  0
VERTEX
  5
71f
  8
Layer_4
  10
237.20067
  20
223.42209
  42
-0.38474357
  0
VERTEX
  5
720
  8
Layer_4
  10
235.21091
  20
221.62668
  0
VERTEX
  5
721
  8
Layer_4
  10
229.21088
  20
221.62666
  42
-0.41424593
  0
VERTEX
  5
722
  8
Layer_4
  10
227.21086
  20
223.62666
  0
VERTEX
  5
723
  8
Layer_4
  10
227.21086
  20
229.62666
  42
-0.41424795
  0
VERTEX
  5
724
  8
Layer_4
  10
229.21088
  20
231.62666
  0
VERTEX
  5
725
  8
Layer_4
  10
235.21091
  20
231.62668
  42
-0.41427223
  0
VERTEX
  5
726
  8
Layer_4
  10
237.21092
  20
229.62668
  0
VERTEX
  5
727
  8
Layer_4
  10
237.21092
  20
223.62668
  0
SEQEND
  0
POLYLINE
  5
729
  8
Layer_4
  62
6
  66
1
  10
0
  20
0
  30
0
  0
VERTEX
  5
729
  8
Layer_4
  10
84.881729
  20
134.05588
  42
-0.41421356
  0
VERTEX
  5
72a
  8
Layer_4
  10
82.881729
  20
132.05588
  0
VERTEX
  5
72b
  8
Layer_4
  10
74.881729
  20
132.05588
  42
-0.41421356
  0
VERTEX
  5
72c
  8
Layer_4
  10
72.881729
  20
134.05588
  0
VERTEX
  5
72d
  8
Layer_4
  10
72.881729
  20
142.05588
  42
-0.41421356
  0
VERTEX
  5
72e
  8
Layer_4
  10
74.881729
  20
144.05588
  0
VERTEX
  5
72f
  8
Layer_4
  10
82.881729
  20
144.05588
  42
-0.41421356
  0
VERTEX
  5
730
  8
Layer_4
  10
84.881729
  20
142.05588
  0
VERTEX
  5
731
  8
Layer_4
  10
84.881729
  20
134.05588
  0
SEQEND
  0
POLYLINE
  5
733
  8
Layer_4
  62
6
  66
1
  10
0
  20
0
  30
0
  0
VERTEX
  5
733
  8
Layer_4
  10
65.981689
  20
147.65582
  0
VERTEX
  5
734
  8
Layer_4
  10
65.981689
  20
128.45584
  0
VERTEX
  5
735
  8
Layer_4
  10
15.781677
  20
128.45587
  0
VERTEX
  5
736
  8
Layer_4
  10
15.781677
  20
147.65585
  0
VERTEX
  5
737
  8
Layer_4
  10
65.981689
  20
147.65582
  0
SEQEND
  0
POLYLINE
  5
739
  8
Layer_4
  62
6
  66
1
  10
0
  20
0
  30
0
  0
VERTEX
  5
739
  8
Layer_4
  10
141.98166
  20
147.65588
  0
VERTEX
  5
73a
  8
Layer_4
  10
141.98164
  20
128.45587
  0
VERTEX
  5
73b
  8
Layer_4
  10
91.781677
  20
128.45587
  0
VERTEX
  5
73c
  8
Layer_4
  10
91.781677
  20
147.65588
  0
VERTEX
  5
73d
  8
Layer_4
  10
141.98166
  20
147.65588
  0
SEQEND
  0
POLYLINE
  5
73f
  8
Layer_4
  62
6
  66
1
  10
0
  20
0
  30
0
  0
VERTEX
  5
73f
  8
Layer_4
  10
10.651764
  20
151.56223
  0
VERTEX
  5
740
  8
Layer_4
  10
8.8817444
  20
151.56223
  0
VERTEX
  5
741
  8
Layer_4
  10
8.8817444
  20
143.56223
  0
VERTEX
  5
742
  8
Layer_4
  10
10.651764
  20
143.56223
  0
VERTEX
  5
743
  8
Layer_4
  10
10.651764
  20
132.54953
  0
VERTEX
  5
744
  8
Layer_4
  10
8.8817444
  20
132.54953
  0
VERTEX
  5
745
  8
Layer_4
  10
8.8817139
  20
124.54953
  0
VERTEX
  5
746
  8
Layer_4
  10
10.651733
  20
124.54953
  0
VERTEX
  5
747
  8
Layer_4
  10
10.651733
  20
118.05588
  0
VERTEX
  5
748
  8
Layer_4
  10
147.11171
  20
118.05585
  0
VERTEX
  5
749
  8
Layer_4
  10
147.11171
  20
124.5495
  0
VERTEX
  5
74a
  8
Layer_4
  10
148.88173
  20
124.54947
  0
VERTEX
  5
74b
  8
Layer_4
  10
148.88173
  20
132.54947
  0
VERTEX
  5
74c
  8
Layer_4
  10
147.11171
  20
132.5495
  0
VERTEX
  5
74d
  8
Layer_4
  10
147.11171
  20
143.56219
  0
VERTEX
  5
74e
  8
Layer_4
  10
148.88173
  20
143.56216
  0
VERTEX
  5
74f
  8
Layer_4
  10
148.88173
  20
151.56216
  0
VERTEX
  5
750
  8
Layer_4
  10
147.11171
  20
151.56219
  0
VERTEX
  5
751
  8
Layer_4
  10
147.11172
  20
158.05585
  0
VERTEX
  5
752
  8
Layer_4
  10
10.651764
  20
158.05588
  0
VERTEX
  5
753
  8
Layer_4
  10
10.651764
  20
151.56223
  0
SEQEND
  0
POLYLINE
  5
755
  8
Layer_4
  62
6
  66
1
  10
0
  20
0
  30
0
  0
VERTEX
  5
755
  8
Layer_4
  10
230.75735
  20
147.62665
  0
VERTEX
  5
756
  8
Layer_4
  10
230.75735
  20
151.62665
  0
VERTEX
  5
757
  8
Layer_4
  10
263.24265
  20
151.62665
  0
VERTEX
  5
758
  8
Layer_4
  10
263.24265
  20
147.62665
  0
VERTEX
  5
759
  8
Layer_4
  10
230.75735
  20
147.62665
  0
SEQEND
  0
POLYLINE
  5
75b
  8
Layer_4
  62
6
  66
1
  10
0
  20
0
  30
0
  0
VERTEX
  5
75b
  8
Layer_4
  10
230.75735
  20
143.62665
  0
VERTEX
  5
75c
  8
Layer_4
  10
230.75735
  20
147.62665
  0
VERTEX
  5
75d
  8
Layer_4
  10
263.24265
  20
147.62665
  0
VERTEX
  5
75e
  8
Layer_4
  10
263.24265
  20
143.62665
  0
VERTEX
  5
75f
  8
Layer_4
  10
230.75735
  20
143.62665
  0
SEQEND
  0
POLYLINE
  5
761
  8
Layer_4
  62
6
  66
1
  10
0
  20
0
  30
0
  0
VERTEX
  5
761
  8
Layer_4
  10
197
  20
171.62665
  42
-0.41421356
  0
VERTEX
  5
762
  8
Layer_4
  10
198
  20
170.62665
  0
VERTEX
  5
763
  8
Layer_4
  10
198
  20
160.62665
  42
-0.41421356
  0
VERTEX
  5
764
  8
Layer_4
  10
197
  20
159.62665
  0
VERTEX
  5
765
  8
Layer_4
  10
187
  20
159.62665
  42
-0.41421356
  0
VERTEX
  5
766
  8
Layer_4
  10
186
  20
160.62665
  0
VERTEX
  5
767
  8
Layer_4
  10
186
  20
170.62665
  42
-0.41421356
  0
VERTEX
  5
768
  8
Layer_4
  10
187
  20
171.62665
  0
VERTEX
  5
769
  8
Layer_4
  10
197
  20
171.62665
  0
SEQEND
  0
POLYLINE
  5
76b
  8
Layer_4
  62
6
  66
1
  10
0
  20
0
  30
0
  0
VERTEX
  5
76b
  8
Layer_4
  10
200
  20
173.62665
  0
VERTEX
  5
76c
  8
Layer_4
  10
200
  20
157.62665
  0
VERTEX
  5
76d
  8
Layer_4
  10
184
  20
157.62665
  0
VERTEX
  5
76e
  8
Layer_4
  10
184
  20
173.62665
  0
VERTEX
  5
76f
  8
Layer_4
  10
200
  20
173.62665
  0
SEQEND
  0
POLYLINE
  5
771
  8
Layer_4
  62
6
  66
1
  10
0
  20
0
  30
0
  0
VERTEX
  5
771
  8
Layer_4
  10
215.08168
  20
163.71333
  0
VERTEX
  5
772
  8
Layer_4
  10
215.08168
  20
167.31334
  0
VERTEX
  5
773
  8
Layer_4
  10
218.68169
  20
167.31334
  0
VERTEX
  5
774
  8
Layer_4
  10
218.68169
  20
163.71333
  0
VERTEX
  5
775
  8
Layer_4
  10
215.08168
  20
163.71333
  0
SEQEND
  0
POLYLINE
  5
777
  8
Layer_4
  62
6
  66
1
  10
0
  20
0
  30
0
  0
VERTEX
  5
777
  8
Layer_4
  10
83.081726
  20
165.60863
  0
VERTEX
  5
778
  8
Layer_4
  10
83.081726
  20
169.20863
  0
VERTEX
  5
779
  8
Layer_4
  10
86.681732
  20
169.20863
  0
VERTEX
  5
77a
  8
Layer_4
  10
86.681732
  20
165.60863
  0
VERTEX
  5
77b
  8
Layer_4
  10
83.081726
  20
165.60863
  0
SEQEND
  0
POLYLINE
  5
77d
  8
Layer_4
  62
6
  66
1
  10
0
  20
0
  30
0
  0
VERTEX
  5
77d
  8
Layer_4
  10
138.93546
  20
160.08685
  0
VERTEX
  5
77e
  8
Layer_4
  10
142.93546
  20
160.08685
  0
VERTEX
  5
77f
  8
Layer_4
  10
142.93546
  20
161.85684
  0
VERTEX
  5
780
  8
Layer_4
  10
138.93546
  20
161.85684
  0
VERTEX
  5
781
  8
Layer_4
  10
138.93546
  20
160.08685
  0
SEQEND
  0
POLYLINE
  5
783
  8
Layer_4
  62
6
  66
1
  10
0
  20
0
  30
0
  0
VERTEX
  5
783
  8
Layer_4
  10
136.64835
  20
165.73946
  0
VERTEX
  5
784
  8
Layer_4
  10
136.64835
  20
169.73946
  0
VERTEX
  5
785
  8
Layer_4
  10
134.88174
  20
169.73946
  0
VERTEX
  5
786
  8
Layer_4
  10
134.88174
  20
165.73946
  0
VERTEX
  5
787
  8
Layer_4
  10
136.64835
  20
165.73946
  0
SEQEND
  0
POLYLINE
  5
789
  8
Layer_4
  62
6
  66
1
  10
0
  20
0
  30
0
  0
VERTEX
  5
789
  8
Layer_4
  10
18.827972
  20
160.08685
  0
VERTEX
  5
78a
  8
Layer_4
  10
14.827972
  20
160.08685
  0
VERTEX
  5
78b
  8
Layer_4
  10
14.827972
  20
161.85684
  0
VERTEX
  5
78c
  8
Layer_4
  10
18.827972
  20
161.85684
  0
VERTEX
  5
78d
  8
Layer_4
  10
18.827972
  20
160.08685
  0
SEQEND
  0
POLYLINE
  5
78f
  8
Layer_4
  62
6
  66
1
  10
0
  20
0
  30
0
  0
VERTEX
  5
78f
  8
Layer_4
  10
22.882233
  20
165.73946
  0
VERTEX
  5
790
  8
Layer_4
  10
22.882233
  20
169.73946
  0
VERTEX
  5
791
  8
Layer_4
  10
21.115631
  20
169.73946
  0
VERTEX
  5
792
  8
Layer_4
  10
21.115631
  20
165.73946
  0
VERTEX
  5
793
  8
Layer_4
  10
22.882233
  20
165.73946
  0
SEQEND
  0
POLYLINE
  5
795
  8
Layer_4
  62
6
  66
1
  10
0
  20
0
  30
0
  0
VERTEX
  5
795
  8
Layer_4
  10
10.651764
  20
161.84639
  0
VERTEX
  5
796
  8
Layer_4
  10
8.8817444
  20
161.84639
  0
VERTEX
  5
797
  8
Layer_4
  10
8.8817444
  20
163.84639
  0
VERTEX
  5
798
  8
Layer_4
  10
10.651764
  20
163.84639
  0
VERTEX
  5
799
  8
Layer_4
  10
10.651764
  20
171.86153
  0
VERTEX
  5
79a
  8
Layer_4
  10
8.8817444
  20
171.86153
  0
VERTEX
  5
79b
  8
Layer_4
  10
8.8817444
  20
173.86153
  0
VERTEX
  5
79c
  8
Layer_4
  10
10.651764
  20
173.86153
  0
VERTEX
  5
79d
  8
Layer_4
  10
10.651764
  20
176.76143
  0
VERTEX
  5
79e
  8
Layer_4
  10
147.11172
  20
176.76143
  0
VERTEX
  5
79f
  8
Layer_4
  10
147.11172
  20
173.86153
  0
VERTEX
  5
7a0
  8
Layer_4
  10
148.88174
  20
173.86153
  0
VERTEX
  5
7a1
  8
Layer_4
  10
148.88174
  20
171.86201
  0
VERTEX
  5
7a2
  8
Layer_4
  10
147.11172
  20
171.86201
  0
VERTEX
  5
7a3
  8
Layer_4
  10
147.11172
  20
163.84639
  0
VERTEX
  5
7a4
  8
Layer_4
  10
148.88174
  20
163.84639
  0
VERTEX
  5
7a5
  8
Layer_4
  10
148.88174
  20
161.84639
  0
VERTEX
  5
7a6
  8
Layer_4
  10
147.11172
  20
161.84639
  0
VERTEX
  5
7a7
  8
Layer_4
  10
147.11172
  20
158.05586
  0
VERTEX
  5
7a8
  8
Layer_4
  10
10.651764
  20
158.05586
  0
VERTEX
  5
7a9
  8
Layer_4
  10
10.651764
  20
161.84639
  0
SEQEND
  0
POLYLINE
  5
7ab
  8
Layer_4
  62
6
  66
1
  10
0
  20
0
  30
0
  0
VERTEX
  5
7ab
  8
Layer_4
  10
77.881729
  20
164.40863
  42
-0.41421356
  0
VERTEX
  5
7ac
  8
Layer_4
  10
75.881729
  20
162.40863
  0
VERTEX
  5
7ad
  8
Layer_4
  10
69.881729
  20
162.40863
  42
-0.41421356
  0
VERTEX
  5
7ae
  8
Layer_4
  10
67.881729
  20
164.40863
  0
VERTEX
  5
7af
  8
Layer_4
  10
67.881729
  20
170.40863
  42
-0.41421356
  0
VERTEX
  5
7b0
  8
Layer_4
  10
69.881729
  20
172.40863
  0
VERTEX
  5
7b1
  8
Layer_4
  10
75.881729
  20
172.40863
  42
-0.41421356
  0
VERTEX
  5
7b2
  8
Layer_4
  10
77.881729
  20
170.40863
  0
VERTEX
  5
7b3
  8
Layer_4
  10
77.881729
  20
164.40863
  0
SEQEND
  0
POLYLINE
  5
7b5
  8
Layer_4
  62
6
  66
1
  10
0
  20
0
  30
0
  0
VERTEX
  5
7b5
  8
Layer_4
  10
89.881729
  20
164.40863
  42
-0.41421356
  0
VERTEX
  5
7b6
  8
Layer_4
  10
87.881729
  20
162.40863
  0
VERTEX
  5
7b7
  8
Layer_4
  10
81.881729
  20
162.40863
  42
-0.41421356
  0
VERTEX
  5
7b8
  8
Layer_4
  10
79.881729
  20
164.40863
  0
VERTEX
  5
7b9
  8
Layer_4
  10
79.881729
  20
170.40863
  42
-0.41421356
  0
VERTEX
  5
7ba
  8
Layer_4
  10
81.881729
  20
172.40863
  0
VERTEX
  5
7bb
  8
Layer_4
  10
87.881729
  20
172.40863
  42
-0.41421356
  0
VERTEX
  5
7bc
  8
Layer_4
  10
89.881729
  20
170.40863
  0
VERTEX
  5
7bd
  8
Layer_4
  10
89.881729
  20
164.40863
  0
SEQEND
  0
POLYLINE
  5
7bf
  8
Layer_4
  62
6
  66
1
  10
0
  20
0
  30
0
  0
VERTEX
  5
7bf
  8
Layer_4
  10
71.081726
  20
165.60863
  0
VERTEX
  5
7c0
  8
Layer_4
  10
71.081726
  20
169.20863
  0
VERTEX
  5
7c1
  8
Layer_4
  10
74.681732
  20
169.20863
  0
VERTEX
  5
7c2
  8
Layer_4
  10
74.681732
  20
165.60863
  0
VERTEX
  5
7c3
  8
Layer_4
  10
71.081726
  20
165.60863
  0
SEQEND
  0
POLYLINE
  5
7c5
  8
Layer_4
  62
6
  66
1
  10
0
  20
0
  30
0
  0
VERTEX
  5
7c5
  8
Layer_4
  10
210.88168
  20
169.51334
  42
-0.41421356
  0
VERTEX
  5
7c6
  8
Layer_4
  10
212.88168
  20
171.51334
  0
VERTEX
  5
7c7
  8
Layer_4
  10
220.88168
  20
171.51334
  42
-0.41421356
  0
VERTEX
  5
7c8
  8
Layer_4
  10
222.88168
  20
169.51334
  0
VERTEX
  5
7c9
  8
Layer_4
  10
222.88168
  20
161.51334
  42
-0.41421356
  0
VERTEX
  5
7ca
  8
Layer_4
  10
220.88168
  20
159.51334
  0
VERTEX
  5
7cb
  8
Layer_4
  10
212.88168
  20
159.51334
  42
-0.41421356
  0
VERTEX
  5
7cc
  8
Layer_4
  10
210.88168
  20
161.51334
  0
VERTEX
  5
7cd
  8
Layer_4
  10
210.88168
  20
169.51334
  0
SEQEND
  0
POLYLINE
  5
7cf
  8
Layer_4
  62
6
  66
1
  10
0
  20
0
  30
0
  0
VERTEX
  5
7cf
  8
Layer_4
  10
229.7818
  20
145.51328
  0
VERTEX
  5
7d0
  8
Layer_4
  10
229.7818
  20
150.51328
  42
-0.41421356
  0
VERTEX
  5
7d1
  8
Layer_4
  10
231.7818
  20
152.51328
  0
VERTEX
  5
7d2
  8
Layer_4
  10
281.38171
  20
152.51323
  42
0.41421356
  0
VERTEX
  5
7d3
  8
Layer_4
  10
283.38171
  20
154.51323
  0
VERTEX
  5
7d4
  8
Layer_4
  10
283.38174
  20
176.5132
  42
0.41421356
  0
VERTEX
  5
7d5
  8
Layer_4
  10
281.38174
  20
178.5132
  0
VERTEX
  5
7d6
  8
Layer_4
  10
231.78183
  20
178.51324
  42
-0.41421356
  0
VERTEX
  5
7d7
  8
Layer_4
  10
229.78183
  20
180.51324
  0
VERTEX
  5
7d8
  8
Layer_4
  10
229.78183
  20
185.51328
  0
VERTEX
  5
7d9
  8
Layer_4
  10
203.98178
  20
185.51331
  0
VERTEX
  5
7da
  8
Layer_4
  10
203.98178
  20
180.51328
  42
-0.41421356
  0
VERTEX
  5
7db
  8
Layer_4
  10
201.98178
  20
178.51328
  0
VERTEX
  5
7dc
  8
Layer_4
  10
152.38171
  20
178.59468
  42
0.41421356
  0
VERTEX
  5
7dd
  8
Layer_4
  10
150.38171
  20
176.59468
  0
VERTEX
  5
7de
  8
Layer_4
  10
150.38168
  20
154.59471
  42
0.41421356
  0
VERTEX
  5
7df
  8
Layer_4
  10
152.38168
  20
152.59471
  0
VERTEX
  5
7e0
  8
Layer_4
  10
201.98175
  20
152.51331
  42
-0.41421356
  0
VERTEX
  5
7e1
  8
Layer_4
  10
203.98175
  20
150.51331
  0
VERTEX
  5
7e2
  8
Layer_4
  10
203.98175
  20
145.51331
  0
VERTEX
  5
7e3
  8
Layer_4
  10
229.7818
  20
145.51328
  0
SEQEND
  0
POLYLINE
  5
7e5
  8
Layer_4
  62
6
  66
1
  10
0
  20
0
  30
0
  0
VERTEX
  5
7e5
  8
Layer_4
  10
229.78168
  20
155.91333
  0
VERTEX
  5
7e6
  8
Layer_4
  10
229.78171
  20
175.11331
  0
VERTEX
  5
7e7
  8
Layer_4
  10
279.98172
  20
175.11328
  0
VERTEX
  5
7e8
  8
Layer_4
  10
279.98169
  20
155.9133
  0
VERTEX
  5
7e9
  8
Layer_4
  10
229.78168
  20
155.91333
  0
SEQEND
  0
POLYLINE
  5
7eb
  8
Layer_4
  62
6
  66
1
  10
0
  20
0
  30
0
  0
VERTEX
  5
7eb
  8
Layer_4
  10
153.78172
  20
155.91333
  0
VERTEX
  5
7ec
  8
Layer_4
  10
153.78172
  20
175.11334
  0
VERTEX
  5
7ed
  8
Layer_4
  10
203.98172
  20
175.11331
  0
VERTEX
  5
7ee
  8
Layer_4
  10
203.98169
  20
155.9133
  0
VERTEX
  5
7ef
  8
Layer_4
  10
153.78172
  20
155.91333
  0
SEQEND
  0
POLYLINE
  5
7f1
  8
Layer_4
  62
6
  66
1
  10
0
  20
0
  30
0
  0
VERTEX
  5
7f1
  8
Layer_4
  10
200.20667
  20
223.72026
  0
VERTEX
  5
7f2
  8
Layer_4
  10
204.20667
  20
223.72026
  0
VERTEX
  5
7f3
  8
Layer_4
  10
204.20667
  20
222.01372
  0
VERTEX
  5
7f4
  8
Layer_4
  10
208.06235
  20
222.01372
  0
VERTEX
  5
7f5
  8
Layer_4
  10
208.06235
  20
226.13017
  0
VERTEX
  5
7f6
  8
Layer_4
  10
209.89072
  20
226.13017
  0
VERTEX
  5
7f7
  8
Layer_4
  10
209.89072
  20
230.13017
  0
VERTEX
  5
7f8
  8
Layer_4
  10
208.06235
  20
230.13017
  0
VERTEX
  5
7f9
  8
Layer_4
  10
208.06236
  20
234.24663
  0
VERTEX
  5
7fa
  8
Layer_4
  10
204.20668
  20
234.24663
  0
VERTEX
  5
7fb
  8
Layer_4
  10
204.20668
  20
236.01299
  0
VERTEX
  5
7fc
  8
Layer_4
  10
200.20668
  20
236.01299
  0
VERTEX
  5
7fd
  8
Layer_4
  10
200.20668
  20
234.24663
  0
VERTEX
  5
7fe
  8
Layer_4
  10
185.66098
  20
234.24664
  0
VERTEX
  5
7ff
  8
Layer_4
  10
185.66096
  20
222.01373
  0
VERTEX
  5
800
  8
Layer_4
  10
200.20667
  20
222.01372
  0
VERTEX
  5
801
  8
Layer_4
  10
200.20667
  20
223.72026
  0
SEQEND
  0
POLYLINE
  5
803
  8
Layer_4
  62
6
  66
1
  10
0
  20
0
  30
0
  0
VERTEX
  5
803
  8
Layer_4
  10
167.68414
  20
209.13907
  0
VERTEX
  5
804
  8
Layer_4
  10
159.65869
  20
209.15567
  0
VERTEX
  5
805
  8
Layer_4
  10
159.65868
  20
213.32849
  0
VERTEX
  5
806
  8
Layer_4
  10
157.89067
  20
213.32849
  0
VERTEX
  5
807
  8
Layer_4
  10
157.89067
  20
217.29138
  0
VERTEX
  5
808
  8
Layer_4
  10
159.65868
  20
217.29138
  0
VERTEX
  5
809
  8
Layer_4
  10
159.65868
  20
219.5834
  0
VERTEX
  5
80a
  8
Layer_4
  10
164.47789
  20
219.5834
  0
VERTEX
  5
80b
  8
Layer_4
  10
164.47789
  20
221.36908
  0
VERTEX
  5
80c
  8
Layer_4
  10
168.6776
  20
221.36884
  0
VERTEX
  5
80d
  8
Layer_4
  10
168.67784
  20
219.58243
  0
VERTEX
  5
80e
  8
Layer_4
  10
172.87804
  20
219.58243
  0
VERTEX
  5
80f
  8
Layer_4
  10
172.87755
  20
221.36932
  0
VERTEX
  5
810
  8
Layer_4
  10
177.07799
  20
221.36932
  0
VERTEX
  5
811
  8
Layer_4
  10
177.07799
  20
219.58243
  0
VERTEX
  5
812
  8
Layer_4
  10
181.27794
  20
219.58243
  0
VERTEX
  5
813
  8
Layer_4
  10
181.27745
  20
221.36908
  0
VERTEX
  5
814
  8
Layer_4
  10
185.47789
  20
221.36908
  0
VERTEX
  5
815
  8
Layer_4
  10
185.47798
  20
219.59207
  0
VERTEX
  5
816
  8
Layer_4
  10
186.10095
  20
219.59207
  0
VERTEX
  5
817
  8
Layer_4
  10
186.10094
  20
216.71283
  0
VERTEX
  5
818
  8
Layer_4
  10
187.87276
  20
216.71259
  0
VERTEX
  5
819
  8
Layer_4
  10
187.87276
  20
212.7348
  0
VERTEX
  5
81a
  8
Layer_4
  10
186.10094
  20
212.7348
  0
VERTEX
  5
81b
  8
Layer_4
  10
186.10095
  20
209.15567
  0
VERTEX
  5
81c
  8
Layer_4
  10
178.09772
  20
209.13907
  0
VERTEX
  5
81d
  8
Layer_4
  10
178.09772
  20
207.39328
  0
VERTEX
  5
81e
  8
Layer_4
  10
167.68414
  20
207.39328
  0
VERTEX
  5
81f
  8
Layer_4
  10
167.68414
  20
209.13907
  0
SEQEND
  0
POLYLINE
  5
821
  8
Layer_4
  62
6
  66
1
  10
0
  20
0
  30
0
  0
VERTEX
  5
821
  8
Layer_4
  10
183.83279
  20
226.11758
  0
VERTEX
  5
822
  8
Layer_4
  10
183.83279
  20
223.72028
  0
VERTEX
  5
823
  8
Layer_4
  10
179.97711
  20
223.72029
  0
VERTEX
  5
824
  8
Layer_4
  10
179.97699
  20
222.01373
  0
VERTEX
  5
825
  8
Layer_4
  10
175.97699
  20
222.01373
  0
VERTEX
  5
826
  8
Layer_4
  10
175.97711
  20
223.72029
  0
VERTEX
  5
827
  8
Layer_4
  10
161.43143
  20
223.72031
  0
VERTEX
  5
828
  8
Layer_4
  10
161.43144
  20
234.29973
  0
VERTEX
  5
829
  8
Layer_4
  10
175.97713
  20
234.29971
  0
VERTEX
  5
82a
  8
Layer_4
  10
175.97713
  20
236.00626
  0
VERTEX
  5
82b
  8
Layer_4
  10
179.97701
  20
236.00626
  0
VERTEX
  5
82c
  8
Layer_4
  10
179.97713
  20
234.29948
  0
VERTEX
  5
82d
  8
Layer_4
  10
183.83281
  20
234.29947
  0
VERTEX
  5
82e
  8
Layer_4
  10
183.83281
  20
230.11758
  0
VERTEX
  5
82f
  8
Layer_4
  10
185.66093
  20
230.11758
  0
VERTEX
  5
830
  8
Layer_4
  10
185.66092
  20
226.11758
  0
VERTEX
  5
831
  8
Layer_4
  10
183.83279
  20
226.11758
  0
SEQEND
  0
POLYLINE
  5
833
  8
Layer_4
  62
6
  66
1
  10
0
  20
0
  30
0
  0
VERTEX
  5
833
  8
Layer_4
  10
232.28658
  20
137.51907
  0
VERTEX
  5
834
  8
Layer_4
  10
232.28658
  20
139.91637
  0
VERTEX
  5
835
  8
Layer_4
  10
228.43089
  20
139.91637
  0
VERTEX
  5
836
  8
Layer_4
  10
228.43077
  20
141.62292
  0
VERTEX
  5
837
  8
Layer_4
  10
224.43077
  20
141.62292
  0
VERTEX
  5
838
  8
Layer_4
  10
224.43089
  20
139.91637
  0
VERTEX
  5
839
  8
Layer_4
  10
209.88521
  20
139.91638
  0
VERTEX
  5
83a
  8
Layer_4
  10
209.88521
  20
129.33694
  0
VERTEX
  5
83b
  8
Layer_4
  10
224.43089
  20
129.33694
  0
VERTEX
  5
83c
  8
Layer_4
  10
224.43089
  20
127.63039
  0
VERTEX
  5
83d
  8
Layer_4
  10
228.43077
  20
127.63039
  0
VERTEX
  5
83e
  8
Layer_4
  10
228.43089
  20
129.33717
  0
VERTEX
  5
83f
  8
Layer_4
  10
232.28658
  20
129.33717
  0
VERTEX
  5
840
  8
Layer_4
  10
232.28658
  20
133.51907
  0
VERTEX
  5
841
  8
Layer_4
  10
234.1147
  20
133.51907
  0
VERTEX
  5
842
  8
Layer_4
  10
234.1147
  20
137.51907
  0
VERTEX
  5
843
  8
Layer_4
  10
232.28658
  20
137.51907
  0
SEQEND
  0
POLYLINE
  5
845
  8
Layer_4
  62
6
  66
1
  10
0
  20
0
  30
0
  0
VERTEX
  5
845
  8
Layer_4
  10
264.56918
  20
171.91974
  0
VERTEX
  5
846
  8
Layer_4
  10
260.56918
  20
171.91974
  0
VERTEX
  5
847
  8
Layer_4
  10
260.56918
  20
173.62628
  0
VERTEX
  5
848
  8
Layer_4
  10
256.7135
  20
173.62628
  0
VERTEX
  5
849
  8
Layer_4
  10
256.7135
  20
169.50983
  0
VERTEX
  5
84a
  8
Layer_4
  10
254.88513
  20
169.50983
  0
VERTEX
  5
84b
  8
Layer_4
  10
254.88513
  20
165.50983
  0
VERTEX
  5
84c
  8
Layer_4
  10
256.7135
  20
165.50983
  0
VERTEX
  5
84d
  8
Layer_4
  10
256.7135
  20
161.39337
  0
VERTEX
  5
84e
  8
Layer_4
  10
260.56918
  20
161.39337
  0
VERTEX
  5
84f
  8
Layer_4
  10
260.56918
  20
159.62701
  0
VERTEX
  5
850
  8
Layer_4
  10
264.56918
  20
159.62701
  0
VERTEX
  5
851
  8
Layer_4
  10
264.56918
  20
161.39337
  0
VERTEX
  5
852
  8
Layer_4
  10
279.11487
  20
161.39337
  0
VERTEX
  5
853
  8
Layer_4
  10
279.11487
  20
173.62628
  0
VERTEX
  5
854
  8
Layer_4
  10
264.56918
  20
173.62628
  0
VERTEX
  5
855
  8
Layer_4
  10
264.56918
  20
171.91974
  0
SEQEND
  0
POLYLINE
  5
857
  8
Layer_4
  62
6
  66
1
  10
0
  20
0
  30
0
  0
VERTEX
  5
857
  8
Layer_4
  10
242.53421
  20
195.82544
  0
VERTEX
  5
858
  8
Layer_4
  10
243.66824
  20
195.82544
  0
VERTEX
  5
859
  8
Layer_4
  10
243.66824
  20
194.05737
  0
VERTEX
  5
85a
  8
Layer_4
  10
247.66824
  20
194.05737
  0
VERTEX
  5
85b
  8
Layer_4
  10
247.66824
  20
195.82544
  0
VERTEX
  5
85c
  8
Layer_4
  10
248.78885
  20
195.82544
  0
VERTEX
  5
85d
  8
Layer_4
  10
248.80228
  20
196.1123
  42
-0.38883157
  0
VERTEX
  5
85e
  8
Layer_4
  10
251.80862
  20
198.82593
  42
-0.41288149
  0
VERTEX
  5
85f
  8
Layer_4
  10
254.78885
  20
195.82544
  0
VERTEX
  5
860
  8
Layer_4
  10
255.77225
  20
195.82544
  0
VERTEX
  5
861
  8
Layer_4
  10
255.77225
  20
194.05737
  0
VERTEX
  5
862
  8
Layer_4
  10
259.77225
  20
194.05737
  0
VERTEX
  5
863
  8
Layer_4
  10
259.77225
  20
195.82544
  0
VERTEX
  5
864
  8
Layer_4
  10
274.0076
  20
195.82544
  0
VERTEX
  5
865
  8
Layer_4
  10
274.0076
  20
205.96704
  0
VERTEX
  5
866
  8
Layer_4
  10
275.80643
  20
205.96704
  0
VERTEX
  5
867
  8
Layer_4
  10
275.80643
  20
209.96704
  0
VERTEX
  5
868
  8
Layer_4
  10
274.0076
  20
209.96704
  0
VERTEX
  5
869
  8
Layer_4
  10
274.0076
  20
220.10864
  0
VERTEX
  5
86a
  8
Layer_4
  10
269.80618
  20
220.10864
  0
VERTEX
  5
86b
  8
Layer_4
  10
269.80618
  20
218.32422
  0
VERTEX
  5
86c
  8
Layer_4
  10
265.80618
  20
218.32422
  0
VERTEX
  5
86d
  8
Layer_4
  10
265.80618
  20
220.1084
  0
VERTEX
  5
86e
  8
Layer_4
  10
254.1702
  20
220.1084
  0
VERTEX
  5
86f
  8
Layer_4
  10
254.1702
  20
218.32422
  0
VERTEX
  5
870
  8
Layer_4
  10
250.1702
  20
218.32422
  0
VERTEX
  5
871
  8
Layer_4
  10
250.1702
  20
220.10815
  0
VERTEX
  5
872
  8
Layer_4
  10
242.53348
  20
220.10815
  0
VERTEX
  5
873
  8
Layer_4
  10
242.53421
  20
195.82544
  0
SEQEND
  0
POLYLINE
  5
875
  8
Layer_4
  62
6
  66
1
  10
0
  20
0
  30
0
  0
VERTEX
  5
875
  8
Layer_4
  10
247.25711
  20
212.34009
  0
VERTEX
  5
876
  8
Layer_4
  10
247.26761
  20
212.54468
  42
-0.38480076
  0
VERTEX
  5
877
  8
Layer_4
  10
249.25711
  20
214.34009
  0
VERTEX
  5
878
  8
Layer_4
  10
266.25711
  20
214.34009
  42
-0.19887265
  0
VERTEX
  5
879
  8
Layer_4
  10
267.67224
  20
213.75485
  42
-0.1995052
  0
VERTEX
  5
87a
  8
Layer_4
  10
268.25711
  20
212.34009
  0
VERTEX
  5
87b
  8
Layer_4
  10
268.25711
  20
202.88037
  42
-0.41420547
  0
VERTEX
  5
87c
  8
Layer_4
  10
266.25711
  20
200.88037
  0
VERTEX
  5
87d
  8
Layer_4
  10
249.25711
  20
200.88037
  42
-0.19869327
  0
VERTEX
  5
87e
  8
Layer_4
  10
247.84216
  20
201.46585
  42
-0.19942175
  0
VERTEX
  5
87f
  8
Layer_4
  10
247.25711
  20
202.88037
  0
VERTEX
  5
880
  8
Layer_4
  10
247.25711
  20
212.34009
  0
SEQEND
  0
POLYLINE
  5
882
  8
Layer_4
  62
6
  66
1
  10
0
  20
0
  30
0
  0
VERTEX
  5
882
  8
Layer_4
  10
148.88174
  20
239.76147
  0
VERTEX
  5
883
  8
Layer_4
  10
8.8817368
  20
239.76138
  0
VERTEX
  5
884
  8
Layer_4
  10
8.8817825
  20
176.76144
  0
VERTEX
  5
885
  8
Layer_4
  10
148.88177
  20
176.76154
  0
VERTEX
  5
886
  8
Layer_4
  10
148.88174
  20
239.76147
  0
SEQEND
  0
CIRCLE
  5
888
  8
Layer_4
  62
6
  10
141.81219
  20
183.82846
  30
0
  40
3.5
  0
CIRCLE
  5
888
  8
Layer_4
  62
6
  10
141.81204
  20
232.69177
  30
0
  40
3.5
  0
CIRCLE
  5
888
  8
Layer_4
  62
6
  10
15.951454
  20
183.83115
  30
0
  40
3.5
  0
CIRCLE
  5
888
  8
Layer_4
  62
6
  10
15.951447
  20
232.69176
  30
0
  40
3.5
  0
POLYLINE
  5
888
  8
Layer_4
  62
6
  66
1
  10
0
  20
0
  30
0
  0
VERTEX
  5
888
  8
Layer_4
  10
48.567497
  20
235.91696
  0
VERTEX
  5
889
  8
Layer_4
  10
48.567497
  20
234.14694
  0
VERTEX
  5
88a
  8
Layer_4
  10
50.337494
  20
234.14694
  0
VERTEX
  5
88b
  8
Layer_4
  10
50.337494
  20
235.91696
  0
VERTEX
  5
88c
  8
Layer_4
  10
48.567497
  20
235.91696
  0
SEQEND
  0
POLYLINE
  5
88e
  8
Layer_4
  62
6
  66
1
  10
0
  20
0
  30
0
  0
VERTEX
  5
88e
  8
Layer_4
  10
107.42601
  20
235.91696
  0
VERTEX
  5
88f
  8
Layer_4
  10
107.42601
  20
234.14694
  0
VERTEX
  5
890
  8
Layer_4
  10
109.19601
  20
234.14694
  0
VERTEX
  5
891
  8
Layer_4
  10
109.19601
  20
235.91696
  0
VERTEX
  5
892
  8
Layer_4
  10
107.42601
  20
235.91696
  0
SEQEND
  0
POLYLINE
  5
894
  8
Layer_4
  62
6
  66
1
  10
0
  20
0
  30
0
  0
VERTEX
  5
894
  8
Layer_4
  10
48.567505
  20
182.37598
  0
VERTEX
  5
895
  8
Layer_4
  10
48.567505
  20
180.60596
  0
VERTEX
  5
896
  8
Layer_4
  10
50.337502
  20
180.60596
  0
VERTEX
  5
897
  8
Layer_4
  10
50.337502
  20
182.37598
  0
VERTEX
  5
898
  8
Layer_4
  10
48.567505
  20
182.37598
  0
SEQEND
  0
POLYLINE
  5
89a
  8
Layer_4
  62
6
  66
1
  10
0
  20
0
  30
0
  0
VERTEX
  5
89a
  8
Layer_4
  10
107.42602
  20
182.37598
  0
VERTEX
  5
89b
  8
Layer_4
  10
107.42602
  20
180.60596
  0
VERTEX
  5
89c
  8
Layer_4
  10
109.19602
  20
180.60596
  0
VERTEX
  5
89d
  8
Layer_4
  10
109.19602
  20
182.37598
  0
VERTEX
  5
89e
  8
Layer_4
  10
107.42602
  20
182.37598
  0
SEQEND
  0
POLYLINE
  5
8a0
  8
Layer_4
  62
6
  66
1
  10
0
  20
0
  30
0
  0
VERTEX
  5
8a0
  8
Layer_4
  10
24.256363
  20
211.80612
  0
VERTEX
  5
8a1
  8
Layer_4
  10
24.256363
  20
227.20612
  0
VERTEX
  5
8a2
  8
Layer_4
  10
34.656372
  20
227.20612
  0
VERTEX
  5
8a3
  8
Layer_4
  10
34.656372
  20
211.80612
  0
VERTEX
  5
8a4
  8
Layer_4
  10
24.256363
  20
211.80612
  0
SEQEND
  0
POLYLINE
  5
8a6
  8
Layer_4
  62
6
  66
1
  10
0
  20
0
  30
0
  0
VERTEX
  5
8a6
  8
Layer_4
  10
48.259125
  20
147.66568
  0
VERTEX
  5
8a7
  8
Layer_4
  10
48.259125
  20
147.66568
  0
VERTEX
  5
8a8
  8
Layer_4
  10
48.259125
  20
147.66568
  0
VERTEX
  5
8a9
  8
Layer_4
  10
48.259125
  20
147.66568
  0
VERTEX
  5
8aa
  8
Layer_4
  10
48.259125
  20
147.66568
  0
SEQEND
  0
CIRCLE
  5
8ac
  8
Layer_4
  62
6
  10
21.454285
  20
130.58984
  30
0
  40
1
  0
CIRCLE
  5
8ac
  8
Layer_4
  62
6
  10
23.954285
  20
130.58984
  30
0
  40
1
  0
CIRCLE
  5
8ac
  8
Layer_4
  62
6
  10
26.454285
  20
130.58984
  30
0
  40
1
  0
CIRCLE
  5
8ac
  8
Layer_4
  62
6
  10
28.954285
  20
130.58984
  30
0
  40
1
  0
CIRCLE
  5
8ac
  8
Layer_4
  62
6
  10
31.454285
  20
130.58984
  30
0
  40
1
  0
CIRCLE
  5
8ac
  8
Layer_4
  62
6
  10
33.954285
  20
130.58984
  30
0
  40
1
  0
CIRCLE
  5
8ac
  8
Layer_4
  62
6
  10
36.454285
  20
130.58984
  30
0
  40
1
  0
CIRCLE
  5
8ac
  8
Layer_4
  62
6
  10
38.954285
  20
130.58984
  30
0
  40
1
  0
CIRCLE
  5
8ac
  8
Layer_4
  62
6
  10
41.454285
  20
130.58984
  30
0
  40
1
  0
CIRCLE
  5
8ac
  8
Layer_4
  62
6
  10
43.954285
  20
130.58984
  30
0
  40
1
  0
CIRCLE
  5
8ac
  8
Layer_4
  62
6
  10
46.454285
  20
130.58984
  30
0
  40
1
  0
CIRCLE
  5
8ac
  8
Layer_4
  62
6
  10
48.954285
  20
130.58984
  30
0
  40
1
  0
CIRCLE
  5
8ac
  8
Layer_4
  62
6
  10
21.454285
  20
133.08984
  30
0
  40
1
  0
CIRCLE
  5
8ac
  8
Layer_4
  62
6
  10
37.805664
  20
133.08984
  30
0
  40
1
  0
CIRCLE
  5
8ac
  8
Layer_4
  62
6
  10
40.305664
  20
133.08984
  30
0
  40
1
  0
CIRCLE
  5
8ac
  8
Layer_4
  62
6
  10
51.454285
  20
131.89746
  30
0
  40
1
  0
CIRCLE
  5
8ac
  8
Layer_4
  62
6
  10
21.454285
  20
135.58984
  30
0
  40
1
  0
CIRCLE
  5
8ac
  8
Layer_4
  62
6
  10
51.454285
  20
134.39746
  30
0
  40
1
  0
CIRCLE
  5
8ac
  8
Layer_4
  62
6
  10
21.454285
  20
138.08984
  30
0
  40
1
  0
CIRCLE
  5
8ac
  8
Layer_4
  62
6
  10
51.454285
  20
136.89746
  30
0
  40
1
  0
CIRCLE
  5
8ac
  8
Layer_4
  62
6
  10
51.454285
  20
139.39746
  30
0
  40
1
  0
CIRCLE
  5
8ac
  8
Layer_4
  62
6
  10
51.454285
  20
141.89746
  30
0
  40
1
  0
CIRCLE
  5
8ac
  8
Layer_4
  62
6
  10
21.454285
  20
145.58984
  30
0
  40
1
  0
CIRCLE
  5
8ac
  8
Layer_4
  62
6
  10
23.954285
  20
145.58984
  30
0
  40
1
  0
CIRCLE
  5
8ac
  8
Layer_4
  62
6
  10
26.454285
  20
145.58984
  30
0
  40
1
  0
CIRCLE
  5
8ac
  8
Layer_4
  62
6
  10
28.954285
  20
145.58984
  30
0
  40
1
  0
CIRCLE
  5
8ac
  8
Layer_4
  62
6
  10
31.454285
  20
145.58984
  30
0
  40
1
  0
CIRCLE
  5
8ac
  8
Layer_4
  62
6
  10
33.954285
  20
145.58984
  30
0
  40
1
  0
CIRCLE
  5
8ac
  8
Layer_4
  62
6
  10
36.454285
  20
145.58984
  30
0
  40
1
  0
CIRCLE
  5
8ac
  8
Layer_4
  62
6
  10
38.954285
  20
145.58984
  30
0
  40
1
  0
CIRCLE
  5
8ac
  8
Layer_4
  62
6
  10
41.454285
  20
145.58984
  30
0
  40
1
  0
CIRCLE
  5
8ac
  8
Layer_4
  62
6
  10
43.954285
  20
145.58984
  30
0
  40
1
  0
CIRCLE
  5
8ac
  8
Layer_4
  62
6
  10
46.454285
  20
145.58984
  30
0
  40
1
  0
CIRCLE
  5
8ac
  8
Layer_4
  62
6
  10
48.954285
  20
145.58984
  30
0
  40
1
  0
CIRCLE
  5
8ac
  8
Layer_4
  62
6
  10
51.454285
  20
144.39746
  30
0
  40
1
  0
POLYLINE
  5
8ac
  8
Layer_4
  62
6
  66
1
  10
0
  20
0
  30
0
  0
VERTEX
  5
8ac
  8
Layer_4
  10
55.001877
  20
136.08997
  0
VERTEX
  5
8ad
  8
Layer_4
  10
56.801926
  20
136.08997
  0
VERTEX
  5
8ae
  8
Layer_4
  10
56.801926
  20
140.08997
  0
VERTEX
  5
8af
  8
Layer_4
  10
55.001877
  20
140.08997
  0
VERTEX
  5
8b0
  8
Layer_4
  10
55.001877
  20
147.27063
  0
VERTEX
  5
8b1
  8
Layer_4
  10
17.906662
  20
147.27063
  0
VERTEX
  5
8b2
  8
Layer_4
  10
17.906662
  20
140.08997
  0
VERTEX
  5
8b3
  8
Layer_4
  10
16.108566
  20
140.08997
  0
VERTEX
  5
8b4
  8
Layer_4
  10
16.108566
  20
136.08997
  0
VERTEX
  5
8b5
  8
Layer_4
  10
17.906662
  20
136.08997
  0
VERTEX
  5
8b6
  8
Layer_4
  10
17.906662
  20
128.87024
  0
VERTEX
  5
8b7
  8
Layer_4
  10
55.001877
  20
128.87024
  0
VERTEX
  5
8b8
  8
Layer_4
  10
55.001877
  20
136.08997
  0
SEQEND
  0
POLYLINE
  5
8ba
  8
Layer_4
  62
6
  66
1
  10
0
  20
0
  30
0
  0
VERTEX
  5
8ba
  8
Layer_4
  10
116.14615
  20
114.45922
  0
VERTEX
  5
8bb
  8
Layer_4
  10
123.3461
  20
114.45922
  0
VERTEX
  5
8bc
  8
Layer_4
  10
123.3461
  20
112.65917
  0
VERTEX
  5
8bd
  8
Layer_4
  10
127.3461
  20
112.65917
  0
VERTEX
  5
8be
  8
Layer_4
  10
127.3461
  20
114.45922
  0
VERTEX
  5
8bf
  8
Layer_4
  10
134.52676
  20
114.45922
  0
VERTEX
  5
8c0
  8
Layer_4
  10
134.79302
  20
114.38777
  0
VERTEX
  5
8c1
  8
Layer_4
  10
135.05714
  20
114.23463
  0
VERTEX
  5
8c2
  8
Layer_4
  10
135.31823
  20
114.00863
  0
VERTEX
  5
8c3
  8
Layer_4
  10
135.57539
  20
113.7186
  0
VERTEX
  5
8c4
  8
Layer_4
  10
135.82772
  20
113.37338
  0
VERTEX
  5
8c5
  8
Layer_4
  10
136.07432
  20
112.98179
  0
VERTEX
  5
8c6
  8
Layer_4
  10
136.31429
  20
112.55268
  0
VERTEX
  5
8c7
  8
Layer_4
  10
136.54673
  20
112.09487
  0
VERTEX
  5
8c8
  8
Layer_4
  10
136.98544
  20
111.12849
  0
VERTEX
  5
8c9
  8
Layer_4
  10
137.38325
  20
110.15331
  0
VERTEX
  5
8ca
  8
Layer_4
  10
137.56456
  20
109.68451
  0
VERTEX
  5
8cb
  8
Layer_4
  10
137.73296
  20
109.24
  0
VERTEX
  5
8cc
  8
Layer_4
  10
137.88753
  20
108.82863
  0
VERTEX
  5
8cd
  8
Layer_4
  10
138.02738
  20
108.45922
  0
VERTEX
  5
8ce
  8
Layer_4
  10
138.13895
  20
108.13842
  42
0.40420587
  0
VERTEX
  5
8cf
  8
Layer_4
  10
150.0347
  20
102.437
  42
0.40574466
  0
VERTEX
  5
8d0
  8
Layer_4
  10
156.15213
  20
114.1621
  42
0.18030647
  0
VERTEX
  5
8d1
  8
Layer_4
  10
152.17166
  20
119.45043
  0
VERTEX
  5
8d2
  8
Layer_4
  10
152.17264
  20
124.43481
  0
VERTEX
  5
8d3
  8
Layer_4
  10
158.68094
  20
124.43432
  0
VERTEX
  5
8d4
  8
Layer_4
  10
158.67899
  20
114.29272
  0
VERTEX
  5
8d5
  8
Layer_4
  10
160.47781
  20
114.29223
  0
VERTEX
  5
8d6
  8
Layer_4
  10
160.47684
  20
110.29223
  0
VERTEX
  5
8d7
  8
Layer_4
  10
158.67801
  20
110.29272
  0
VERTEX
  5
8d8
  8
Layer_4
  10
158.67557
  20
100.15112
  0
VERTEX
  5
8d9
  8
Layer_4
  10
144.44022
  20
100.15453
  0
VERTEX
  5
8da
  8
Layer_4
  10
144.43973
  20
98.386467
  0
VERTEX
  5
8db
  8
Layer_4
  10
140.43973
  20
98.386955
  0
VERTEX
  5
8dc
  8
Layer_4
  10
140.44022
  20
100.15502
  0
VERTEX
  5
8dd
  8
Layer_4
  10
139.45682
  20
100.15551
  0
VERTEX
  5
8de
  8
Layer_4
  10
139.44168
  20
100.46215
  42
0.41255628
  0
VERTEX
  5
8df
  8
Layer_4
  10
136.17215
  20
103.14281
  42
0.38706712
  0
VERTEX
  5
8e0
  8
Layer_4
  10
133.45682
  20
100.15697
  0
VERTEX
  5
8e1
  8
Layer_4
  10
132.33621
  20
100.15697
  0
VERTEX
  5
8e2
  8
Layer_4
  10
132.33572
  20
98.388908
  0
VERTEX
  5
8e3
  8
Layer_4
  10
128.33572
  20
98.389885
  0
VERTEX
  5
8e4
  8
Layer_4
  10
128.33621
  20
100.15697
  0
VERTEX
  5
8e5
  8
Layer_4
  10
127.20877
  20
100.15697
  0
VERTEX
  5
8e6
  8
Layer_4
  10
127.14081
  20
101.07275
  0
VERTEX
  5
8e7
  8
Layer_4
  10
127.01522
  20
101.92182
  0
VERTEX
  5
8e8
  8
Layer_4
  10
126.83598
  20
102.70784
  0
VERTEX
  5
8e9
  8
Layer_4
  10
126.60706
  20
103.43446
  0
VERTEX
  5
8ea
  8
Layer_4
  10
126.33243
  20
104.10531
  0
VERTEX
  5
8eb
  8
Layer_4
  10
126.01605
  20
104.72405
  0
VERTEX
  5
8ec
  8
Layer_4
  10
125.66191
  20
105.29431
  0
VERTEX
  5
8ed
  8
Layer_4
  10
125.27397
  20
105.81974
  0
VERTEX
  5
8ee
  8
Layer_4
  10
124.8562
  20
106.304
  0
VERTEX
  5
8ef
  8
Layer_4
  10
124.41257
  20
106.75071
  0
VERTEX
  5
8f0
  8
Layer_4
  10
123.94705
  20
107.16353
  0
VERTEX
  5
8f1
  8
Layer_4
  10
123.46361
  20
107.54611
  0
VERTEX
  5
8f2
  8
Layer_4
  10
122.45886
  20
108.2351
  0
VERTEX
  5
8f3
  8
Layer_4
  10
121.43008
  20
108.84685
  0
VERTEX
  5
8f4
  8
Layer_4
  10
120.40903
  20
109.41051
  0
VERTEX
  5
8f5
  8
Layer_4
  10
119.42747
  20
109.95524
  0
VERTEX
  5
8f6
  8
Layer_4
  10
118.96143
  20
110.22962
  0
VERTEX
  5
8f7
  8
Layer_4
  10
118.51717
  20
110.51021
  0
VERTEX
  5
8f8
  8
Layer_4
  10
118.09866
  20
110.80065
  0
VERTEX
  5
8f9
  8
Layer_4
  10
117.70988
  20
111.10458
  0
VERTEX
  5
8fa
  8
Layer_4
  10
117.3548
  20
111.42565
  0
VERTEX
  5
8fb
  8
Layer_4
  10
117.03738
  20
111.7675
  0
VERTEX
  5
8fc
  8
Layer_4
  10
116.76159
  20
112.13378
  0
VERTEX
  5
8fd
  8
Layer_4
  10
116.53141
  20
112.52814
  0
VERTEX
  5
8fe
  8
Layer_4
  10
116.35081
  20
112.95422
  0
VERTEX
  5
8ff
  8
Layer_4
  10
116.22375
  20
113.41566
  0
VERTEX
  5
900
  8
Layer_4
  10
116.15421
  20
113.91611
  0
VERTEX
  5
901
  8
Layer_4
  10
116.14616
  20
114.45922
  0
SEQEND
  0
POLYLINE
  5
903
  8
Layer_4
  62
6
  66
1
  10
0
  20
0
  30
0
  0
VERTEX
  5
903
  8
Layer_4
  10
224.59207
  20
125.6441
  0
VERTEX
  5
904
  8
Layer_4
  10
224.59207
  20
118.44415
  0
VERTEX
  5
905
  8
Layer_4
  10
222.79202
  20
118.44415
  0
VERTEX
  5
906
  8
Layer_4
  10
222.79202
  20
114.44415
  0
VERTEX
  5
907
  8
Layer_4
  10
224.59207
  20
114.44415
  0
VERTEX
  5
908
  8
Layer_4
  10
224.59207
  20
107.26349
  0
VERTEX
  5
909
  8
Layer_4
  10
224.52063
  20
106.99725
  0
VERTEX
  5
90a
  8
Layer_4
  10
224.36749
  20
106.73313
  0
VERTEX
  5
90b
  8
Layer_4
  10
224.14149
  20
106.47204
  0
VERTEX
  5
90c
  8
Layer_4
  10
223.85146
  20
106.21488
  0
VERTEX
  5
90d
  8
Layer_4
  10
223.50624
  20
105.96255
  0
VERTEX
  5
90e
  8
Layer_4
  10
223.11465
  20
105.71596
  0
VERTEX
  5
90f
  8
Layer_4
  10
222.68554
  20
105.47598
  0
VERTEX
  5
910
  8
Layer_4
  10
222.22773
  20
105.24354
  0
VERTEX
  5
911
  8
Layer_4
  10
221.26135
  20
104.80483
  0
VERTEX
  5
912
  8
Layer_4
  10
220.28617
  20
104.40703
  0
VERTEX
  5
913
  8
Layer_4
  10
219.81737
  20
104.22571
  0
VERTEX
  5
914
  8
Layer_4
  10
219.37286
  20
104.05732
  0
VERTEX
  5
915
  8
Layer_4
  10
218.96149
  20
103.90274
  0
VERTEX
  5
916
  8
Layer_4
  10
218.59208
  20
103.76289
  0
VERTEX
  5
917
  8
Layer_4
  10
218.27127
  20
103.65131
  42
0.40420587
  0
VERTEX
  5
918
  8
Layer_4
  10
212.56987
  20
91.755554
  42
0.40574466
  0
VERTEX
  5
919
  8
Layer_4
  10
224.29497
  20
85.638123
  42
0.18030647
  0
VERTEX
  5
91a
  8
Layer_4
  10
229.5833
  20
89.618622
  0
VERTEX
  5
91b
  8
Layer_4
  10
234.56767
  20
89.617645
  0
VERTEX
  5
91c
  8
Layer_4
  10
234.56718
  20
83.109344
  0
VERTEX
  5
91d
  8
Layer_4
  10
224.42558
  20
83.111267
  0
VERTEX
  5
91e
  8
Layer_4
  10
224.42509
  20
81.312439
  0
VERTEX
  5
91f
  8
Layer_4
  10
220.42509
  20
81.313416
  0
VERTEX
  5
920
  8
Layer_4
  10
220.42558
  20
83.112244
  0
VERTEX
  5
921
  8
Layer_4
  10
210.28398
  20
83.114685
  0
VERTEX
  5
922
  8
Layer_4
  10
210.2874
  20
97.350037
  0
VERTEX
  5
923
  8
Layer_4
  10
208.51933
  20
97.350525
  0
VERTEX
  5
924
  8
Layer_4
  10
208.51982
  20
101.35052
  0
VERTEX
  5
925
  8
Layer_4
  10
210.28789
  20
101.35004
  0
VERTEX
  5
926
  8
Layer_4
  10
210.28836
  20
102.33344
  0
VERTEX
  5
927
  8
Layer_4
  10
210.595
  20
102.34857
  42
0.41255628
  0
VERTEX
  5
928
  8
Layer_4
  10
213.27567
  20
105.6181
  42
0.38706712
  0
VERTEX
  5
929
  8
Layer_4
  10
210.28983
  20
108.33344
  0
VERTEX
  5
92a
  8
Layer_4
  10
210.28983
  20
109.45404
  0
VERTEX
  5
92b
  8
Layer_4
  10
208.52176
  20
109.45453
  0
VERTEX
  5
92c
  8
Layer_4
  10
208.52274
  20
113.45453
  0
VERTEX
  5
92d
  8
Layer_4
  10
210.28983
  20
113.45404
  0
VERTEX
  5
92e
  8
Layer_4
  10
210.28983
  20
114.58148
  0
VERTEX
  5
92f
  8
Layer_4
  10
211.2056
  20
114.64946
  0
VERTEX
  5
930
  8
Layer_4
  10
212.05468
  20
114.77505
  0
VERTEX
  5
931
  8
Layer_4
  10
212.8407
  20
114.95429
  0
VERTEX
  5
932
  8
Layer_4
  10
213.56731
  20
115.18321
  0
VERTEX
  5
933
  8
Layer_4
  10
214.23817
  20
115.45785
  0
VERTEX
  5
934
  8
Layer_4
  10
214.8569
  20
115.77422
  0
VERTEX
  5
935
  8
Layer_4
  10
215.42716
  20
116.12836
  0
VERTEX
  5
936
  8
Layer_4
  10
215.9526
  20
116.5163
  0
VERTEX
  5
937
  8
Layer_4
  10
216.43685
  20
116.93407
  0
VERTEX
  5
938
  8
Layer_4
  10
216.88356
  20
117.3777
  0
VERTEX
  5
939
  8
Layer_4
  10
217.29639
  20
117.84322
  0
VERTEX
  5
93a
  8
Layer_4
  10
217.67896
  20
118.32666
  0
VERTEX
  5
93b
  8
Layer_4
  10
218.36796
  20
119.33141
  0
VERTEX
  5
93c
  8
Layer_4
  10
218.9797
  20
120.36019
  0
VERTEX
  5
93d
  8
Layer_4
  10
219.54336
  20
121.38124
  0
VERTEX
  5
93e
  8
Layer_4
  10
220.08809
  20
122.3628
  0
VERTEX
  5
93f
  8
Layer_4
  10
220.36247
  20
122.82885
  0
VERTEX
  5
940
  8
Layer_4
  10
220.64306
  20
123.27311
  0
VERTEX
  5
941
  8
Layer_4
  10
220.9335
  20
123.69161
  0
VERTEX
  5
942
  8
Layer_4
  10
221.23743
  20
124.08039
  0
VERTEX
  5
943
  8
Layer_4
  10
221.5585
  20
124.43548
  0
VERTEX
  5
944
  8
Layer_4
  10
221.90035
  20
124.7529
  0
VERTEX
  5
945
  8
Layer_4
  10
222.26663
  20
125.02868
  0
VERTEX
  5
946
  8
Layer_4
  10
222.66099
  20
125.25886
  0
VERTEX
  5
947
  8
Layer_4
  10
223.08707
  20
125.43947
  0
VERTEX
  5
948
  8
Layer_4
  10
223.54851
  20
125.56652
  0
VERTEX
  5
949
  8
Layer_4
  10
224.04896
  20
125.63606
  0
VERTEX
  5
94a
  8
Layer_4
  10
224.59207
  20
125.64412
  0
SEQEND
  0
POLYLINE
  5
94c
  8
Layer_4
  62
6
  66
1
  10
0
  20
0
  30
0
  0
VERTEX
  5
94c
  8
Layer_4
  10
123.91036
  20
6.424098
  0
VERTEX
  5
94d
  8
Layer_4
  10
123.91036
  20
8.2241096
  0
VERTEX
  5
94e
  8
Layer_4
  10
127.91036
  20
8.2241068
  0
VERTEX
  5
94f
  8
Layer_4
  10
127.91036
  20
6.4240947
  0
VERTEX
  5
950
  8
Layer_4
  10
123.91036
  20
6.424098
  0
SEQEND
  0
POLYLINE
  5
952
  8
Layer_4
  62
6
  66
1
  10
0
  20
0
  30
0
  0
VERTEX
  5
952
  8
Layer_4
  10
123.90987
  20
19.55093
  0
VERTEX
  5
953
  8
Layer_4
  10
123.90987
  20
21.350943
  0
VERTEX
  5
954
  8
Layer_4
  10
127.90987
  20
21.350941
  0
VERTEX
  5
955
  8
Layer_4
  10
127.90987
  20
19.550928
  0
VERTEX
  5
956
  8
Layer_4
  10
123.90987
  20
19.55093
  0
SEQEND
  0
POLYLINE
  5
958
  8
Layer_4
  62
6
  66
1
  10
0
  20
0
  30
0
  0
VERTEX
  5
958
  8
Layer_4
  10
123.90987
  20
28.548672
  0
VERTEX
  5
959
  8
Layer_4
  10
123.90987
  20
30.348684
  0
VERTEX
  5
95a
  8
Layer_4
  10
127.90987
  20
30.348682
  0
VERTEX
  5
95b
  8
Layer_4
  10
127.90987
  20
28.54867
  0
VERTEX
  5
95c
  8
Layer_4
  10
123.90987
  20
28.548672
  0
SEQEND
  0
POLYLINE
  5
95e
  8
Layer_4
  62
6
  66
1
  10
0
  20
0
  30
0
  0
VERTEX
  5
95e
  8
Layer_4
  10
98.58654
  20
18.117432
  0
VERTEX
  5
95f
  8
Layer_4
  10
96.818474
  20
18.117432
  0
VERTEX
  5
960
  8
Layer_4
  10
96.818474
  20
22.117432
  0
VERTEX
  5
961
  8
Layer_4
  10
98.58654
  20
22.117432
  0
VERTEX
  5
962
  8
Layer_4
  10
98.58654
  20
18.117432
  0
SEQEND
  0
POLYLINE
  5
964
  8
Layer_4
  62
6
  66
1
  10
0
  20
0
  30
0
  0
VERTEX
  5
964
  8
Layer_4
  10
98.58654
  20
6.0134277
  0
VERTEX
  5
965
  8
Layer_4
  10
96.818474
  20
6.0134277
  0
VERTEX
  5
966
  8
Layer_4
  10
96.818474
  20
10.013428
  0
VERTEX
  5
967
  8
Layer_4
  10
98.58654
  20
10.013428
  0
VERTEX
  5
968
  8
Layer_4
  10
98.58654
  20
6.0134277
  0
SEQEND
  0
POLYLINE
  5
96a
  8
Layer_4
  62
6
  66
1
  10
0
  20
0
  30
0
  0
VERTEX
  5
96a
  8
Layer_4
  10
41.00071
  20
6.0134277
  0
VERTEX
  5
96b
  8
Layer_4
  10
39.232643
  20
6.0134277
  0
VERTEX
  5
96c
  8
Layer_4
  10
39.232643
  20
10.013428
  0
VERTEX
  5
96d
  8
Layer_4
  10
41.00071
  20
10.013428
  0
VERTEX
  5
96e
  8
Layer_4
  10
41.00071
  20
6.0134277
  0
SEQEND
  0
POLYLINE
  5
970
  8
Layer_4
  62
6
  66
1
  10
0
  20
0
  30
0
  0
VERTEX
  5
970
  8
Layer_4
  10
59.708275
  20
18.117432
  0
VERTEX
  5
971
  8
Layer_4
  10
57.940208
  20
18.117432
  0
VERTEX
  5
972
  8
Layer_4
  10
57.940208
  20
22.117432
  0
VERTEX
  5
973
  8
Layer_4
  10
59.708275
  20
22.117432
  0
VERTEX
  5
974
  8
Layer_4
  10
59.708275
  20
18.117432
  0
SEQEND
  0
POLYLINE
  5
976
  8
Layer_4
  62
6
  66
1
  10
0
  20
0
  30
0
  0
VERTEX
  5
976
  8
Layer_4
  10
59.708275
  20
6.0134277
  0
VERTEX
  5
977
  8
Layer_4
  10
57.940208
  20
6.0134277
  0
VERTEX
  5
978
  8
Layer_4
  10
57.940208
  20
10.013428
  0
VERTEX
  5
979
  8
Layer_4
  10
59.708275
  20
10.013428
  0
VERTEX
  5
97a
  8
Layer_4
  10
59.708275
  20
6.0134277
  0
SEQEND
  0
POLYLINE
  5
97c
  8
Layer_4
  62
6
  66
1
  10
0
  20
0
  30
0
  0
VERTEX
  5
97c
  8
Layer_4
  10
117.47135
  20
6.0134277
  0
VERTEX
  5
97d
  8
Layer_4
  10
115.70329
  20
6.0134277
  0
VERTEX
  5
97e
  8
Layer_4
  10
115.70329
  20
10.013428
  0
VERTEX
  5
97f
  8
Layer_4
  10
117.47135
  20
10.013428
  0
VERTEX
  5
980
  8
Layer_4
  10
117.47135
  20
6.0134277
  0
SEQEND
  0
POLYLINE
  5
982
  8
Layer_4
  62
6
  66
1
  10
0
  20
0
  30
0
  0
VERTEX
  5
982
  8
Layer_4
  10
115.70133
  20
22.118275
  0
VERTEX
  5
983
  8
Layer_4
  10
117.47135
  20
22.118273
  0
VERTEX
  5
984
  8
Layer_4
  10
117.47135
  20
18.118252
  0
VERTEX
  5
985
  8
Layer_4
  10
115.70133
  20
18.118254
  0
VERTEX
  5
986
  8
Layer_4
  10
115.70133
  20
22.118275
  0
SEQEND
  0
POLYLINE
  5
988
  8
Layer_4
  62
6
  66
1
  10
0
  20
0
  30
0
  0
VERTEX
  5
988
  8
Layer_4
  10
39.232712
  20
22.11829
  0
VERTEX
  5
989
  8
Layer_4
  10
41.002731
  20
22.118288
  0
VERTEX
  5
98a
  8
Layer_4
  10
41.002731
  20
18.118267
  0
VERTEX
  5
98b
  8
Layer_4
  10
39.232712
  20
18.118269
  0
VERTEX
  5
98c
  8
Layer_4
  10
39.232712
  20
22.11829
  0
SEQEND
  0
POLYLINE
  5
98e
  8
Layer_4
  62
6
  66
1
  10
0
  20
0
  30
0
  0
VERTEX
  5
98e
  8
Layer_4
  10
111.223
  20
15.080015
  0
VERTEX
  5
98f
  8
Layer_4
  10
112.223
  20
15.080015
  0
VERTEX
  5
990
  8
Layer_4
  10
112.223
  20
27.960253
  0
VERTEX
  5
991
  8
Layer_4
  10
102.32751
  20
27.960257
  0
VERTEX
  5
992
  8
Layer_4
  10
102.32751
  20
20.156557
  0
VERTEX
  5
993
  8
Layer_4
  10
111.223
  20
20.156553
  0
VERTEX
  5
994
  8
Layer_4
  10
111.223
  20
15.080015
  0
SEQEND
  0
CIRCLE
  5
996
  8
Layer_4
  62
6
  10
89.077431
  20
20.118271
  30
0
  40
4
  0
POLYLINE
  5
996
  8
Layer_4
  62
6
  66
1
  10
0
  20
0
  30
0
  0
VERTEX
  5
996
  8
Layer_4
  10
18.277084
  20
33.060333
  0
VERTEX
  5
997
  8
Layer_4
  10
18.277084
  20
31.247513
  0
VERTEX
  5
998
  8
Layer_4
  10
12.954819
  20
31.247513
  0
VERTEX
  5
999
  8
Layer_4
  10
12.954819
  20
33.060333
  0
VERTEX
  5
99a
  8
Layer_4
  10
18.277084
  20
33.060333
  0
SEQEND
  0
POLYLINE
  5
99c
  8
Layer_4
  62
6
  66
1
  10
0
  20
0
  30
0
  0
VERTEX
  5
99c
  8
Layer_4
  10
49.569336
  20
33.060318
  0
VERTEX
  5
99d
  8
Layer_4
  10
49.569336
  20
31.247501
  0
VERTEX
  5
99e
  8
Layer_4
  10
44.247063
  20
31.247505
  0
VERTEX
  5
99f
  8
Layer_4
  10
44.247063
  20
33.060322
  0
VERTEX
  5
9a0
  8
Layer_4
  10
49.569336
  20
33.060318
  0
SEQEND
  0
POLYLINE
  5
9a2
  8
Layer_4
  62
6
  66
1
  10
0
  20
0
  30
0
  0
VERTEX
  5
9a2
  8
Layer_4
  10
112.15358
  20
33.060295
  0
VERTEX
  5
9a3
  8
Layer_4
  10
112.15358
  20
31.247478
  0
VERTEX
  5
9a4
  8
Layer_4
  10
106.83131
  20
31.247478
  0
VERTEX
  5
9a5
  8
Layer_4
  10
106.83131
  20
33.060295
  0
VERTEX
  5
9a6
  8
Layer_4
  10
112.15358
  20
33.060295
  0
SEQEND
  0
POLYLINE
  5
9a8
  8
Layer_4
  62
6
  66
1
  10
0
  20
0
  30
0
  0
VERTEX
  5
9a8
  8
Layer_4
  10
80.861351
  20
33.060307
  0
VERTEX
  5
9a9
  8
Layer_4
  10
80.861351
  20
31.247486
  0
VERTEX
  5
9aa
  8
Layer_4
  10
75.539085
  20
31.24749
  0
VERTEX
  5
9ab
  8
Layer_4
  10
75.539085
  20
33.06031
  0
VERTEX
  5
9ac
  8
Layer_4
  10
80.861351
  20
33.060307
  0
SEQEND
  0
POLYLINE
  5
9ae
  8
Layer_4
  62
6
  66
1
  10
0
  20
0
  30
0
  0
VERTEX
  5
9ae
  8
Layer_4
  10
143.44579
  20
33.060287
  0
VERTEX
  5
9af
  8
Layer_4
  10
143.44579
  20
31.247471
  0
VERTEX
  5
9b0
  8
Layer_4
  10
138.12352
  20
31.247475
  0
VERTEX
  5
9b1
  8
Layer_4
  10
138.12352
  20
33.060291
  0
VERTEX
  5
9b2
  8
Layer_4
  10
143.44579
  20
33.060287
  0
SEQEND
  0
POLYLINE
  5
9b4
  8
Layer_4
  62
6
  66
1
  10
0
  20
0
  30
0
  0
VERTEX
  5
9b4
  8
Layer_4
  10
143.44362
  20
8.5361099
  0
VERTEX
  5
9b5
  8
Layer_4
  10
143.44362
  20
6.7416382
  0
VERTEX
  5
9b6
  8
Layer_4
  10
138.12135
  20
6.741642
  0
VERTEX
  5
9b7
  8
Layer_4
  10
138.12135
  20
8.5361137
  0
VERTEX
  5
9b8
  8
Layer_4
  10
143.44362
  20
8.5361099
  0
SEQEND
  0
POLYLINE
  5
9ba
  8
Layer_4
  62
6
  66
1
  10
0
  20
0
  30
0
  0
VERTEX
  5
9ba
  8
Layer_4
  10
112.15138
  20
8.5361214
  0
VERTEX
  5
9bb
  8
Layer_4
  10
112.15138
  20
6.7416496
  0
VERTEX
  5
9bc
  8
Layer_4
  10
106.82912
  20
6.7416496
  0
VERTEX
  5
9bd
  8
Layer_4
  10
106.82912
  20
8.5361214
  0
VERTEX
  5
9be
  8
Layer_4
  10
112.15138
  20
8.5361214
  0
SEQEND
  0
POLYLINE
  5
9c0
  8
Layer_4
  62
6
  66
1
  10
0
  20
0
  30
0
  0
VERTEX
  5
9c0
  8
Layer_4
  10
80.859146
  20
8.5361328
  0
VERTEX
  5
9c1
  8
Layer_4
  10
80.859146
  20
6.7416611
  0
VERTEX
  5
9c2
  8
Layer_4
  10
75.53688
  20
6.7416649
  0
VERTEX
  5
9c3
  8
Layer_4
  10
75.53688
  20
8.5361366
  0
VERTEX
  5
9c4
  8
Layer_4
  10
80.859146
  20
8.5361328
  0
SEQEND
  0
POLYLINE
  5
9c6
  8
Layer_4
  62
6
  66
1
  10
0
  20
0
  30
0
  0
VERTEX
  5
9c6
  8
Layer_4
  10
49.567162
  20
8.5361443
  0
VERTEX
  5
9c7
  8
Layer_4
  10
49.567162
  20
6.7416725
  0
VERTEX
  5
9c8
  8
Layer_4
  10
44.244888
  20
6.7416763
  0
VERTEX
  5
9c9
  8
Layer_4
  10
44.244888
  20
8.5361481
  0
VERTEX
  5
9ca
  8
Layer_4
  10
49.567162
  20
8.5361443
  0
SEQEND
  0
POLYLINE
  5
9cc
  8
Layer_4
  62
6
  66
1
  10
0
  20
0
  30
0
  0
VERTEX
  5
9cc
  8
Layer_4
  10
18.274918
  20
8.5361519
  0
VERTEX
  5
9cd
  8
Layer_4
  10
18.274918
  20
6.7416801
  0
VERTEX
  5
9ce
  8
Layer_4
  10
12.952652
  20
6.7416801
  0
VERTEX
  5
9cf
  8
Layer_4
  10
12.952652
  20
8.5361519
  0
VERTEX
  5
9d0
  8
Layer_4
  10
18.274918
  20
8.5361519
  0
SEQEND
  0
POLYLINE
  5
9d2
  8
Layer_4
  62
6
  66
1
  10
0
  20
0
  30
0
  0
VERTEX
  5
9d2
  8
Layer_4
  10
122.7813
  20
36.352142
  0
VERTEX
  5
9d3
  8
Layer_4
  10
96.207077
  20
36.352154
  0
VERTEX
  5
9d4
  8
Layer_4
  10
96.207077
  20
38.152203
  0
VERTEX
  5
9d5
  8
Layer_4
  10
91.491257
  20
38.152203
  0
VERTEX
  5
9d6
  8
Layer_4
  10
91.491257
  20
36.352154
  0
VERTEX
  5
9d7
  8
Layer_4
  10
64.912895
  20
36.352165
  0
VERTEX
  5
9d8
  8
Layer_4
  10
64.912895
  20
38.152214
  0
VERTEX
  5
9d9
  8
Layer_4
  10
60.197075
  20
38.152214
  0
VERTEX
  5
9da
  8
Layer_4
  10
60.197075
  20
36.352165
  0
VERTEX
  5
9db
  8
Layer_4
  10
33.620659
  20
36.352173
  0
VERTEX
  5
9dc
  8
Layer_4
  10
33.620659
  20
38.152222
  0
VERTEX
  5
9dd
  8
Layer_4
  10
28.904839
  20
38.152225
  0
VERTEX
  5
9de
  8
Layer_4
  10
28.904839
  20
36.352173
  0
VERTEX
  5
9df
  8
Layer_4
  10
9.9467163
  20
36.35218
  0
VERTEX
  5
9e0
  8
Layer_4
  10
9.9438477
  20
28.160563
  0
VERTEX
  5
9e1
  8
Layer_4
  10
8.1337891
  20
28.160563
  0
VERTEX
  5
9e2
  8
Layer_4
  10
8.1337891
  20
23.160563
  0
VERTEX
  5
9e3
  8
Layer_4
  10
9.9438477
  20
23.160563
  0
VERTEX
  5
9e4
  8
Layer_4
  10
9.9438324
  20
16.625406
  0
VERTEX
  5
9e5
  8
Layer_4
  10
8.1337738
  20
16.625406
  0
VERTEX
  5
9e6
  8
Layer_4
  10
8.1337738
  20
11.625404
  0
VERTEX
  5
9e7
  8
Layer_4
  10
9.9438324
  20
11.625404
  0
VERTEX
  5
9e8
  8
Layer_4
  10
9.9438324
  20
4.8785782
  0
VERTEX
  5
9e9
  8
Layer_4
  10
146.41478
  20
4.8785362
  0
VERTEX
  5
9ea
  8
Layer_4
  10
146.41478
  20
12.936031
  0
VERTEX
  5
9eb
  8
Layer_4
  10
148.17406
  20
12.936031
  0
VERTEX
  5
9ec
  8
Layer_4
  10
148.17406
  20
16.62536
  0
VERTEX
  5
9ed
  8
Layer_4
  10
146.41478
  20
16.62536
  0
VERTEX
  5
9ee
  8
Layer_4
  10
146.41479
  20
23.160517
  0
VERTEX
  5
9ef
  8
Layer_4
  10
148.17407
  20
23.160517
  0
VERTEX
  5
9f0
  8
Layer_4
  10
148.17407
  20
26.849604
  0
VERTEX
  5
9f1
  8
Layer_4
  10
146.41479
  20
26.849604
  0
VERTEX
  5
9f2
  8
Layer_4
  10
146.41765
  20
36.352135
  0
VERTEX
  5
9f3
  8
Layer_4
  10
127.49712
  20
36.352142
  0
VERTEX
  5
9f4
  8
Layer_4
  10
127.49712
  20
38.152191
  0
VERTEX
  5
9f5
  8
Layer_4
  10
122.7813
  20
38.152195
  0
VERTEX
  5
9f6
  8
Layer_4
  10
122.7813
  20
36.352142
  0
SEQEND
  0
CIRCLE
  5
9f8
  8
Layer_4
  62
6
  10
67.449257
  20
20.14064
  30
0
  40
4
  0
POLYLINE
  5
9f8
  8
Layer_4
  62
6
  66
1
  10
0
  20
0
  30
0
  0
VERTEX
  5
9f8
  8
Layer_4
  10
45.303726
  20
25.178913
  0
VERTEX
  5
9f9
  8
Layer_4
  10
44.303726
  20
25.178913
  0
VERTEX
  5
9fa
  8
Layer_4
  10
44.303726
  20
12.298676
  0
VERTEX
  5
9fb
  8
Layer_4
  10
54.199211
  20
12.298672
  0
VERTEX
  5
9fc
  8
Layer_4
  10
54.199211
  20
20.102371
  0
VERTEX
  5
9fd
  8
Layer_4
  10
45.303726
  20
20.102375
  0
VERTEX
  5
9fe
  8
Layer_4
  10
45.303726
  20
25.178913
  0
SEQEND
  0
POLYLINE
  5
a00
  8
Layer_4
  62
6
  66
1
  10
0
  20
0
  30
0
  0
VERTEX
  5
a00
  8
Layer_4
  10
248.67641
  20
98.613708
  0
VERTEX
  5
a01
  8
Layer_4
  10
248.67641
  20
103.62665
  0
VERTEX
  5
a02
  8
Layer_4
  10
245.32547
  20
102.1662
  42
0.29835536
  0
VERTEX
  5
a03
  8
Layer_4
  10
243.52406
  20
99.416046
  0
VERTEX
  5
a04
  8
Layer_4
  10
243.52406
  20
99.12664
  0
VERTEX
  5
a05
  8
Layer_4
  10
245.67641
  20
99.12664
  0
VERTEX
  5
a06
  8
Layer_4
  10
245.67641
  20
98.12664
  0
VERTEX
  5
a07
  8
Layer_4
  10
243.52406
  20
98.12664
  0
VERTEX
  5
a08
  8
Layer_4
  10
243.52406
  20
95.258057
  42
0.28729449
  0
VERTEX
  5
a09
  8
Layer_4
  10
246.34135
  20
90.759644
  0
VERTEX
  5
a0a
  8
Layer_4
  10
248.67641
  20
89.626648
  0
VERTEX
  5
a0b
  8
Layer_4
  10
248.67641
  20
94.613708
  0
VERTEX
  5
a0c
  8
Layer_4
  10
250.47597
  20
94.613708
  0
VERTEX
  5
a0d
  8
Layer_4
  10
250.47597
  20
98.613708
  0
VERTEX
  5
a0e
  8
Layer_4
  10
248.67641
  20
98.613708
  0
SEQEND
  0
POLYLINE
  5
a10
  8
Layer_4
  62
6
  66
1
  10
0
  20
0
  30
0
  0
VERTEX
  5
a10
  8
Layer_4
  10
232.67641
  20
119.61371
  0
VERTEX
  5
a11
  8
Layer_4
  10
232.67641
  20
124.62665
  0
VERTEX
  5
a12
  8
Layer_4
  10
229.32547
  20
123.1662
  42
0.29835536
  0
VERTEX
  5
a13
  8
Layer_4
  10
227.52406
  20
120.41605
  0
VERTEX
  5
a14
  8
Layer_4
  10
227.52406
  20
120.12664
  0
VERTEX
  5
a15
  8
Layer_4
  10
229.67641
  20
120.12664
  0
VERTEX
  5
a16
  8
Layer_4
  10
229.67641
  20
119.12664
  0
VERTEX
  5
a17
  8
Layer_4
  10
227.52406
  20
119.12664
  0
VERTEX
  5
a18
  8
Layer_4
  10
227.52406
  20
116.25806
  42
0.28729449
  0
VERTEX
  5
a19
  8
Layer_4
  10
230.34135
  20
111.75964
  0
VERTEX
  5
a1a
  8
Layer_4
  10
232.67641
  20
110.62665
  0
VERTEX
  5
a1b
  8
Layer_4
  10
232.67641
  20
115.61371
  0
VERTEX
  5
a1c
  8
Layer_4
  10
234.47597
  20
115.61371
  0
VERTEX
  5
a1d
  8
Layer_4
  10
234.47597
  20
119.61371
  0
VERTEX
  5
a1e
  8
Layer_4
  10
232.67641
  20
119.61371
  0
SEQEND
  0
POLYLINE
  5
a20
  8
Layer_4
  62
6
  66
1
  10
0
  20
0
  30
0
  0
VERTEX
  5
a20
  8
Layer_4
  10
157.67639
  20
135.61371
  0
VERTEX
  5
a21
  8
Layer_4
  10
157.67639
  20
140.62665
  0
VERTEX
  5
a22
  8
Layer_4
  10
154.32545
  20
139.1662
  42
0.29835536
  0
VERTEX
  5
a23
  8
Layer_4
  10
152.52405
  20
136.41605
  0
VERTEX
  5
a24
  8
Layer_4
  10
152.52405
  20
132.25806
  42
0.28729449
  0
VERTEX
  5
a25
  8
Layer_4
  10
155.34134
  20
127.75964
  0
VERTEX
  5
a26
  8
Layer_4
  10
157.67639
  20
126.62665
  0
VERTEX
  5
a27
  8
Layer_4
  10
157.67639
  20
131.61371
  0
VERTEX
  5
a28
  8
Layer_4
  10
159.47595
  20
131.61371
  0
VERTEX
  5
a29
  8
Layer_4
  10
159.47595
  20
135.61371
  0
VERTEX
  5
a2a
  8
Layer_4
  10
157.67639
  20
135.61371
  0
SEQEND
  0
POLYLINE
  5
a2c
  8
Layer_4
  62
6
  66
1
  10
0
  20
0
  30
0
  0
VERTEX
  5
a2c
  8
Layer_4
  10
169.00002
  20
159.45102
  42
-0.41421356
  0
VERTEX
  5
a2d
  8
Layer_4
  10
168.00002
  20
158.45102
  0
VERTEX
  5
a2e
  8
Layer_4
  10
158.00002
  20
158.45102
  42
-0.41421356
  0
VERTEX
  5
a2f
  8
Layer_4
  10
157.00002
  20
159.45102
  0
VERTEX
  5
a30
  8
Layer_4
  10
157.00002
  20
169.45102
  42
-0.41421356
  0
VERTEX
  5
a31
  8
Layer_4
  10
158.00002
  20
170.45102
  0
VERTEX
  5
a32
  8
Layer_4
  10
168.00002
  20
170.45102
  42
-0.41421356
  0
VERTEX
  5
a33
  8
Layer_4
  10
169.00002
  20
169.45102
  0
VERTEX
  5
a34
  8
Layer_4
  10
169.00002
  20
159.45102
  0
SEQEND
  0
POLYLINE
  5
a36
  8
Layer_4
  62
6
  66
1
  10
0
  20
0
  30
0
  0
VERTEX
  5
a36
  8
Layer_4
  10
181.00002
  20
159.45102
  42
-0.41421356
  0
VERTEX
  5
a37
  8
Layer_4
  10
180.00002
  20
158.45102
  0
VERTEX
  5
a38
  8
Layer_4
  10
170.00002
  20
158.45102
  42
-0.41421356
  0
VERTEX
  5
a39
  8
Layer_4
  10
169.00002
  20
159.45102
  0
VERTEX
  5
a3a
  8
Layer_4
  10
169.00002
  20
169.45102
  42
-0.41421356
  0
VERTEX
  5
a3b
  8
Layer_4
  10
170.00002
  20
170.45102
  0
VERTEX
  5
a3c
  8
Layer_4
  10
180.00002
  20
170.45102
  42
-0.41421356
  0
VERTEX
  5
a3d
  8
Layer_4
  10
181.00002
  20
169.45102
  0
VERTEX
  5
a3e
  8
Layer_4
  10
181.00002
  20
159.45102
  0
SEQEND
  0
POLYLINE
  5
a40
  8
Layer_4
  62
6
  66
1
  10
0
  20
0
  30
0
  0
VERTEX
  5
a40
  8
Layer_4
  10
183
  20
157.4511
  0
VERTEX
  5
a41
  8
Layer_4
  10
155
  20
157.4511
  0
VERTEX
  5
a42
  8
Layer_4
  10
155
  20
173.8022
  0
VERTEX
  5
a43
  8
Layer_4
  10
183
  20
173.8022
  0
VERTEX
  5
a44
  8
Layer_4
  10
183
  20
157.4511
  0
SEQEND
  0
POLYLINE
  5
a46
  8
Layer_5
  62
172
  66
1
  10
0
  20
0
  30
0
  0
VERTEX
  5
a46
  8
Layer_5
  10
109
  20
242.62665
  0
VERTEX
  5
a47
  8
Layer_5
  10
9
  20
242.62665
  0
VERTEX
  5
a48
  8
Layer_5
  10
9
  20
244.62665
  0
VERTEX
  5
a49
  8
Layer_5
  10
109
  20
244.62665
  0
VERTEX
  5
a4a
  8
Layer_5
  10
109
  20
242.62665
  0
SEQEND
  0
POLYLINE
  5
a4c
  8
Layer_5
  62
172
  66
1
  10
0
  20
0
  30
0
  0
VERTEX
  5
a4c
  8
Layer_5
  10
113.00659
  20
245.6012
  0
VERTEX
  5
a4d
  8
Layer_5
  10
112.69995
  20
245.6012
  0
VERTEX
  5
a4e
  8
Layer_5
  10
112.62671
  20
245.47473
  42
-0.13075945
  0
VERTEX
  5
a4f
  8
Layer_5
  10
111.57837
  20
244.62805
  0
VERTEX
  5
a50
  8
Layer_5
  10
111.57837
  20
244.16809
  42
0.088194948
  0
VERTEX
  5
a51
  8
Layer_5
  10
112.53052
  20
244.74182
  0
VERTEX
  5
a52
  8
Layer_5
  10
112.53052
  20
241.70813
  0
VERTEX
  5
a53
  8
Layer_5
  10
113.00659
  20
241.70813
  0
VERTEX
  5
a54
  8
Layer_5
  10
113.00659
  20
245.6012
  0
SEQEND
  0
POLYLINE
  5
a56
  8
Layer_5
  62
172
  66
1
  10
0
  20
0
  30
0
  0
VERTEX
  5
a56
  8
Layer_5
  10
115.69409
  20
241.65637
  0
VERTEX
  5
a57
  8
Layer_5
  10
115.87915
  20
241.69934
  42
0.24334444
  0
VERTEX
  5
a58
  8
Layer_5
  10
116.61401
  20
242.51868
  42
0.14878946
  0
VERTEX
  5
a59
  8
Layer_5
  10
116.56323
  20
244.85071
  42
0.37538713
  0
VERTEX
  5
a5a
  8
Layer_5
  10
115.28735
  20
245.58704
  42
0.2638548
  0
VERTEX
  5
a5b
  8
Layer_5
  10
114.44653
  20
244.92493
  42
0.10632384
  0
VERTEX
  5
a5c
  8
Layer_5
  10
114.22583
  20
243.62024
  42
0.10378768
  0
VERTEX
  5
a5d
  8
Layer_5
  10
114.44165
  20
242.32385
  42
0.31605186
  0
VERTEX
  5
a5e
  8
Layer_5
  10
115.48999
  20
241.64172
  0
VERTEX
  5
a5f
  8
Layer_5
  10
115.69409
  20
241.65637
  0
SEQEND
  0
POLYLINE
  5
a61
  8
Layer_5
  62
172
  66
1
  10
0
  20
0
  30
0
  0
VERTEX
  5
a61
  8
Layer_5
  10
118.7063
  20
241.65637
  42
0.13991499
  0
VERTEX
  5
a62
  8
Layer_5
  10
119.20728
  20
241.87073
  42
0.19366528
  0
VERTEX
  5
a63
  8
Layer_5
  10
119.73169
  20
243.00354
  42
0.10401534
  0
VERTEX
  5
a64
  8
Layer_5
  10
119.63159
  20
244.70032
  42
0.23750511
  0
VERTEX
  5
a65
  8
Layer_5
  10
118.92749
  20
245.53088
  42
0.40494373
  0
VERTEX
  5
a66
  8
Layer_5
  10
117.45923
  20
244.92493
  42
0.10618863
  0
VERTEX
  5
a67
  8
Layer_5
  10
117.23804
  20
243.62024
  42
0.10319783
  0
VERTEX
  5
a68
  8
Layer_5
  10
117.45386
  20
242.32385
  42
0.31602414
  0
VERTEX
  5
a69
  8
Layer_5
  10
118.50269
  20
241.64172
  0
VERTEX
  5
a6a
  8
Layer_5
  10
118.7063
  20
241.65637
  0
SEQEND
  0
POLYLINE
  5
a6c
  8
Layer_5
  62
172
  66
1
  10
0
  20
0
  30
0
  0
VERTEX
  5
a6c
  8
Layer_5
  10
125.46118
  20
242.16565
  0
VERTEX
  5
a6d
  8
Layer_5
  10
123.55933
  20
242.16565
  0
VERTEX
  5
a6e
  8
Layer_5
  10
123.64917
  20
242.29504
  42
-0.028020257
  0
VERTEX
  5
a6f
  8
Layer_5
  10
124.75073
  20
243.29895
  0
VERTEX
  5
a70
  8
Layer_5
  10
124.91577
  20
243.45813
  42
0.17920914
  0
VERTEX
  5
a71
  8
Layer_5
  10
125.44995
  20
244.40881
  42
0.3552632
  0
VERTEX
  5
a72
  8
Layer_5
  10
124.74683
  20
245.52405
  42
0.25063121
  0
VERTEX
  5
a73
  8
Layer_5
  10
123.36646
  20
245.31458
  42
0.19749069
  0
VERTEX
  5
a74
  8
Layer_5
  10
122.98804
  20
244.4801
  0
VERTEX
  5
a75
  8
Layer_5
  10
123.47729
  20
244.42981
  0
VERTEX
  5
a76
  8
Layer_5
  10
123.49146
  20
244.60217
  42
-0.39408529
  0
VERTEX
  5
a77
  8
Layer_5
  10
124.23657
  20
245.20715
  42
-0.20660354
  0
VERTEX
  5
a78
  8
Layer_5
  10
124.74667
  20
245.02887
  42
-0.20660355
  0
VERTEX
  5
a79
  8
Layer_5
  10
124.96655
  20
244.53528
  42
-0.18064109
  0
VERTEX
  5
a7a
  8
Layer_5
  10
124.60767
  20
243.79797
  42
-0.026300492
  0
VERTEX
  5
a7b
  8
Layer_5
  10
123.53052
  20
242.82825
  0
VERTEX
  5
a7c
  8
Layer_5
  10
123.38696
  20
242.68616
  42
0.19704714
  0
VERTEX
  5
a7d
  8
Layer_5
  10
122.89819
  20
241.70813
  0
VERTEX
  5
a7e
  8
Layer_5
  10
125.46118
  20
241.70813
  0
VERTEX
  5
a7f
  8
Layer_5
  10
125.46118
  20
242.16565
  0
SEQEND
  0
POLYLINE
  5
a81
  8
Layer_5
  62
172
  66
1
  10
0
  20
0
  30
0
  0
VERTEX
  5
a81
  8
Layer_5
  10
115.33276
  20
242.05334
  42
-0.29459481
  0
VERTEX
  5
a82
  8
Layer_5
  10
114.77124
  20
242.82532
  42
-0.10517683
  0
VERTEX
  5
a83
  8
Layer_5
  10
114.85376
  20
244.71497
  42
-0.33449326
  0
VERTEX
  5
a84
  8
Layer_5
  10
115.48462
  20
245.20715
  42
-0.34775243
  0
VERTEX
  5
a85
  8
Layer_5
  10
116.17798
  20
244.56604
  42
-0.11032001
  0
VERTEX
  5
a86
  8
Layer_5
  10
116.1394
  20
242.54895
  42
-0.3162562
  0
VERTEX
  5
a87
  8
Layer_5
  10
115.48999
  20
242.03333
  0
VERTEX
  5
a88
  8
Layer_5
  10
115.33276
  20
242.05334
  0
SEQEND
  0
POLYLINE
  5
a8a
  8
Layer_5
  62
172
  66
1
  10
0
  20
0
  30
0
  0
VERTEX
  5
a8a
  8
Layer_5
  10
118.34497
  20
242.05334
  42
-0.29459518
  0
VERTEX
  5
a8b
  8
Layer_5
  10
117.78345
  20
242.82532
  42
-0.10514123
  0
VERTEX
  5
a8c
  8
Layer_5
  10
117.86597
  20
244.71497
  42
-0.33464869
  0
VERTEX
  5
a8d
  8
Layer_5
  10
118.49731
  20
245.20715
  42
-0.34753498
  0
VERTEX
  5
a8e
  8
Layer_5
  10
119.19019
  20
244.56604
  42
-0.11069819
  0
VERTEX
  5
a8f
  8
Layer_5
  10
119.15161
  20
242.54895
  42
-0.31659036
  0
VERTEX
  5
a90
  8
Layer_5
  10
118.50269
  20
242.03333
  0
VERTEX
  5
a91
  8
Layer_5
  10
118.34497
  20
242.05334
  0
SEQEND
  0
POLYLINE
  5
a93
  8
Layer_5
  62
172
  66
1
  10
0
  20
0
  30
0
  0
VERTEX
  5
a93
  8
Layer_5
  10
126.57935
  20
243.16565
  0
VERTEX
  5
a94
  8
Layer_5
  10
126.58423
  20
243.34583
  42
-0.20746824
  0
VERTEX
  5
a95
  8
Layer_5
  10
126.82397
  20
244.00305
  42
-0.32279854
  0
VERTEX
  5
a96
  8
Layer_5
  10
127.58862
  20
244.07874
  42
-0.21786875
  0
VERTEX
  5
a97
  8
Layer_5
  10
127.77222
  20
243.53284
  0
VERTEX
  5
a98
  8
Layer_5
  10
127.77222
  20
241.70813
  0
VERTEX
  5
a99
  8
Layer_5
  10
128.24829
  20
241.70813
  0
VERTEX
  5
a9a
  8
Layer_5
  10
128.24829
  20
243.33997
  42
-0.19597169
  0
VERTEX
  5
a9b
  8
Layer_5
  10
128.44409
  20
243.97083
  42
-0.33094817
  0
VERTEX
  5
a9c
  8
Layer_5
  10
129.22192
  20
244.09094
  42
-0.25380983
  0
VERTEX
  5
a9d
  8
Layer_5
  10
129.43335
  20
243.61047
  42
-0.011027764
  0
VERTEX
  5
a9e
  8
Layer_5
  10
129.43628
  20
241.70813
  0
VERTEX
  5
a9f
  8
Layer_5
  10
129.90942
  20
241.70813
  0
VERTEX
  5
aa0
  8
Layer_5
  10
129.90942
  20
243.63635
  42
0.19558602
  0
VERTEX
  5
aa1
  8
Layer_5
  10
129.68481
  20
244.34924
  42
0.3483732
  0
VERTEX
  5
aa2
  8
Layer_5
  10
128.45288
  20
244.38831
  42
0.081634261
  0
VERTEX
  5
aa3
  8
Layer_5
  10
128.17456
  20
244.0885
  0
VERTEX
  5
aa4
  8
Layer_5
  10
128.12622
  20
244.19836
  42
0.28696886
  0
VERTEX
  5
aa5
  8
Layer_5
  10
127.3811
  20
244.58069
  42
0.26054064
  0
VERTEX
  5
aa6
  8
Layer_5
  10
126.52954
  20
244.12268
  0
VERTEX
  5
aa7
  8
Layer_5
  10
126.52954
  20
244.51721
  0
VERTEX
  5
aa8
  8
Layer_5
  10
126.10327
  20
244.51721
  0
VERTEX
  5
aa9
  8
Layer_5
  10
126.10327
  20
241.70813
  0
VERTEX
  5
aaa
  8
Layer_5
  10
126.57935
  20
241.70813
  0
VERTEX
  5
aab
  8
Layer_5
  10
126.57935
  20
243.16565
  0
SEQEND
  0
POLYLINE
  5
aad
  8
Layer_5
  62
172
  66
1
  10
0
  20
0
  30
0
  0
VERTEX
  5
aad
  8
Layer_5
  10
131.09155
  20
243.16565
  0
VERTEX
  5
aae
  8
Layer_5
  10
131.09644
  20
243.34583
  42
-0.2086351
  0
VERTEX
  5
aaf
  8
Layer_5
  10
131.33618
  20
244.00305
  42
-0.32284108
  0
VERTEX
  5
ab0
  8
Layer_5
  10
132.10083
  20
244.07874
  42
-0.21765987
  0
VERTEX
  5
ab1
  8
Layer_5
  10
132.28442
  20
243.53284
  0
VERTEX
  5
ab2
  8
Layer_5
  10
132.28442
  20
241.70813
  0
VERTEX
  5
ab3
  8
Layer_5
  10
132.7605
  20
241.70813
  0
VERTEX
  5
ab4
  8
Layer_5
  10
132.7605
  20
243.33997
  42
-0.19619093
  0
VERTEX
  5
ab5
  8
Layer_5
  10
132.9563
  20
243.97083
  42
-0.33106977
  0
VERTEX
  5
ab6
  8
Layer_5
  10
133.73413
  20
244.09094
  42
-0.25380957
  0
VERTEX
  5
ab7
  8
Layer_5
  10
133.94556
  20
243.61047
  42
-0.0091858897
  0
VERTEX
  5
ab8
  8
Layer_5
  10
133.948
  20
241.70813
  0
VERTEX
  5
ab9
  8
Layer_5
  10
134.42163
  20
241.70813
  0
VERTEX
  5
aba
  8
Layer_5
  10
134.42163
  20
243.63635
  42
0.19539092
  0
VERTEX
  5
abb
  8
Layer_5
  10
134.19702
  20
244.34924
  42
0.34812817
  0
VERTEX
  5
abc
  8
Layer_5
  10
132.9646
  20
244.38831
  42
0.080898423
  0
VERTEX
  5
abd
  8
Layer_5
  10
132.68677
  20
244.0885
  0
VERTEX
  5
abe
  8
Layer_5
  10
132.63843
  20
244.19836
  42
0.28688394
  0
VERTEX
  5
abf
  8
Layer_5
  10
131.89331
  20
244.58069
  42
0.26014031
  0
VERTEX
  5
ac0
  8
Layer_5
  10
131.04126
  20
244.12268
  0
VERTEX
  5
ac1
  8
Layer_5
  10
131.04126
  20
244.51721
  0
VERTEX
  5
ac2
  8
Layer_5
  10
130.61548
  20
244.51721
  0
VERTEX
  5
ac3
  8
Layer_5
  10
130.61548
  20
241.70813
  0
VERTEX
  5
ac4
  8
Layer_5
  10
131.09155
  20
241.70813
  0
VERTEX
  5
ac5
  8
Layer_5
  10
131.09155
  20
243.16565
  0
SEQEND
  0
POLYLINE
  5
ac7
  8
Layer_5
  62
172
  70
1
  66
1
  10
0
  20
0
  30
0
  0
VERTEX
  5
ac7
  8
Layer_5
  10
121.37964
  20
242.81604
  42
0.0025978184
  0
VERTEX
  5
ac8
  8
Layer_5
  10
122.11011
  20
241.70813
  0
VERTEX
  5
ac9
  8
Layer_5
  10
122.69458
  20
241.70813
  0
VERTEX
  5
aca
  8
Layer_5
  10
121.64966
  20
243.19446
  0
VERTEX
  5
acb
  8
Layer_5
  10
122.62036
  20
244.51721
  0
VERTEX
  5
acc
  8
Layer_5
  10
122.05151
  20
244.51721
  42
0.010791931
  0
VERTEX
  5
acd
  8
Layer_5
  10
121.36401
  20
243.54358
  0
VERTEX
  5
ace
  8
Layer_5
  10
121.27808
  20
243.68567
  42
0.0066917651
  0
VERTEX
  5
acf
  8
Layer_5
  10
120.73706
  20
244.51721
  0
VERTEX
  5
ad0
  8
Layer_5
  10
120.14185
  20
244.51721
  0
VERTEX
  5
ad1
  8
Layer_5
  10
121.09155
  20
243.16809
  0
VERTEX
  5
ad2
  8
Layer_5
  10
120.06519
  20
241.70813
  0
VERTEX
  5
ad3
  8
Layer_5
  10
120.64185
  20
241.70813
  0
SEQEND
  0
POLYLINE
  5
ad5
  8
Layer_0
  62
138
  66
1
  10
0
  20
0
  30
0
  0
VERTEX
  5
ad5
  8
Layer_0
  10
297.42963
  20
4.4851685
  0
VERTEX
  5
ad6
  8
Layer_0
  10
297.42963
  20
0.092269897
  0
VERTEX
  5
ad7
  8
Layer_0
  10
299.82803
  20
2.1348114
  0
VERTEX
  5
ad8
  8
Layer_0
  10
294.82809
  20
2.1202698
  0
SEQEND
  0
POLYLINE
  5
ada
  8
Layer_0
  62
138
  66
1
  10
0
  20
0
  30
0
  0
VERTEX
  5
ada
  8
Layer_0
  10
2.6081371
  20
4.4851685
  0
VERTEX
  5
adb
  8
Layer_0
  10
2.6081371
  20
0.092269897
  0
VERTEX
  5
adc
  8
Layer_0
  10
0.20971394
  20
2.1606293
  0
VERTEX
  5
add
  8
Layer_0
  10
5.2096539
  20
2.0922699
  0
SEQEND
  0
POLYLINE
  5
adf
  8
Layer_0
  62
138
  66
1
  10
0
  20
0
  30
0
  0
VERTEX
  5
adf
  8
Layer_0
  10
2.3984833
  20
250.09225
  0
VERTEX
  5
ae0
  8
Layer_0
  10
2.3984833
  20
245.69937
  0
VERTEX
  5
ae1
  8
Layer_0
  10
6.0081482e-05
  20
247.76773
  0
VERTEX
  5
ae2
  8
Layer_0
  10
5
  20
247.69937
  0
SEQEND
  0
POLYLINE
  5
ae4
  8
Layer_0
  62
138
  66
1
  10
0
  20
0
  30
0
  0
VERTEX
  5
ae4
  8
Layer_0
  10
297.3194
  20
245.26743
  0
VERTEX
  5
ae5
  8
Layer_0
  10
297.3194
  20
249.66032
  0
VERTEX
  5
ae6
  8
Layer_0
  10
299.71783
  20
247.61778
  0
VERTEX
  5
ae7
  8
Layer_0
  10
294.7179
  20
247.63232
  0
SEQEND
  0
ENDSEC
  0
EOF
