  0
SECTION
  2
HEADER
  9
$ACADVER
  1
AC1009
  0
ENDSEC
  0
SECTION
  2
ENTITIES
  0
POLYLINE
  5
90
  8
Layer_1
  62
12
  66
1
  10
0
  20
0
  30
0
  0
VERTEX
  5
90
  8
Layer_1
  10
299.99994
  20
-9.9182129e-05
  0
VERTEX
  5
91
  8
Layer_1
  10
-6.1035156e-05
  20
9.9182129e-05
  0
VERTEX
  5
92
  8
Layer_1
  10
6.1035156e-05
  20
200.00009
  0
VERTEX
  5
93
  8
Layer_1
  10
300.00006
  20
199.99991
  0
VERTEX
  5
94
  8
Layer_1
  10
299.99994
  20
-9.9182129e-05
  0
SEQEND
  0
POLYLINE
  5
96
  8
Layer_2
  62
6
  66
1
  10
0
  20
0
  30
0
  0
VERTEX
  5
96
  8
Layer_2
  10
354.06714
  20
84.589844
  0
VERTEX
  5
97
  8
Layer_2
  10
307.93286
  20
84.589844
  0
VERTEX
  5
98
  8
Layer_2
  10
307.93286
  20
21.410156
  0
VERTEX
  5
99
  8
Layer_2
  10
354.06714
  20
21.410156
  0
VERTEX
  5
9a
  8
Layer_2
  10
354.06714
  20
84.589844
  0
SEQEND
  0
POLYLINE
  5
9c
  8
Layer_2
  62
6
  66
1
  10
0
  20
0
  30
0
  0
VERTEX
  5
9c
  8
Layer_2
  10
327
  20
74.561035
  0
VERTEX
  5
9d
  8
Layer_2
  10
326.79565
  20
74.571289
  42
-0.3845552
  0
VERTEX
  5
9e
  8
Layer_2
  10
325
  20
76.561035
  42
-0.024924564
  0
VERTEX
  5
9f
  8
Layer_2
  10
325.01025
  20
77.765381
  42
-0.38463636
  0
VERTEX
  5
a0
  8
Layer_2
  10
327
  20
79.561035
  0
VERTEX
  5
a1
  8
Layer_2
  10
335
  20
79.561035
  42
-0.41418524
  0
VERTEX
  5
a2
  8
Layer_2
  10
337
  20
77.561035
  42
-0.025241492
  0
VERTEX
  5
a3
  8
Layer_2
  10
336.98975
  20
76.356445
  42
-0.38484994
  0
VERTEX
  5
a4
  8
Layer_2
  10
335
  20
74.561035
  0
VERTEX
  5
a5
  8
Layer_2
  10
327
  20
74.561035
  0
SEQEND
  0
POLYLINE
  5
a7
  8
Layer_3
  62
30
  66
1
  10
0
  20
0
  30
0
  0
VERTEX
  5
a7
  8
Layer_3
  10
-40000
  20
389.87296
  0
VERTEX
  5
a8
  8
Layer_3
  10
40000
  20
389.87296
  0
SEQEND
  0
POLYLINE
  5
aa
  8
Layer_2
  62
6
  66
1
  10
0
  20
0
  30
0
  0
VERTEX
  5
aa
  8
Layer_2
  10
177.06158
  20
151.92419
  0
VERTEX
  5
ab
  8
Layer_2
  10
177.06158
  20
155.34729
  0
VERTEX
  5
ac
  8
Layer_2
  10
175.29156
  20
155.34729
  0
VERTEX
  5
ad
  8
Layer_2
  10
175.29156
  20
172.50012
  0
VERTEX
  5
ae
  8
Layer_2
  10
177.06158
  20
172.50012
  0
VERTEX
  5
af
  8
Layer_2
  10
177.06158
  20
179.81091
  0
VERTEX
  5
b0
  8
Layer_2
  10
175.29156
  20
179.81091
  0
VERTEX
  5
b1
  8
Layer_2
  10
175.29156
  20
184.81091
  0
VERTEX
  5
b2
  8
Layer_2
  10
177.06158
  20
184.81091
  0
VERTEX
  5
b3
  8
Layer_2
  10
177.06158
  20
188.07727
  0
VERTEX
  5
b4
  8
Layer_2
  10
212.00519
  20
188.06897
  0
VERTEX
  5
b5
  8
Layer_2
  10
216.59723
  20
183.47791
  0
VERTEX
  5
b6
  8
Layer_2
  10
215.34601
  20
182.22668
  0
VERTEX
  5
b7
  8
Layer_2
  10
221.00446
  20
176.57141
  0
VERTEX
  5
b8
  8
Layer_2
  10
222.25446
  20
177.82141
  0
VERTEX
  5
b9
  8
Layer_2
  10
230.04205
  20
170.03503
  0
VERTEX
  5
ba
  8
Layer_2
  10
228.79156
  20
168.7843
  0
VERTEX
  5
bb
  8
Layer_2
  10
234.44781
  20
163.12683
  0
VERTEX
  5
bc
  8
Layer_2
  10
235.69952
  20
164.37854
  0
VERTEX
  5
bd
  8
Layer_2
  10
240.29156
  20
159.78699
  0
VERTEX
  5
be
  8
Layer_2
  10
240.29108
  20
156.88855
  0
VERTEX
  5
bf
  8
Layer_2
  10
238.52106
  20
156.88855
  0
VERTEX
  5
c0
  8
Layer_2
  10
238.52106
  20
154.88855
  0
VERTEX
  5
c1
  8
Layer_2
  10
240.29083
  20
154.88855
  0
VERTEX
  5
c2
  8
Layer_2
  10
240.29083
  20
151.92297
  0
VERTEX
  5
c3
  8
Layer_2
  10
177.06158
  20
151.92419
  0
SEQEND
  0
POLYLINE
  5
c5
  8
Layer_2
  62
6
  66
1
  10
0
  20
0
  30
0
  0
VERTEX
  5
c5
  8
Layer_2
  10
209.44586
  20
166.95398
  0
VERTEX
  5
c6
  8
Layer_2
  10
209.44586
  20
169.40393
  0
VERTEX
  5
c7
  8
Layer_2
  10
179.40729
  20
169.40393
  0
VERTEX
  5
c8
  8
Layer_2
  10
179.40729
  20
166.95398
  0
VERTEX
  5
c9
  8
Layer_2
  10
209.44586
  20
166.95398
  0
SEQEND
  0
POLYLINE
  5
cb
  8
Layer_2
  62
6
  66
1
  10
0
  20
0
  30
0
  0
VERTEX
  5
cb
  8
Layer_2
  10
284.52155
  20
188.07605
  0
VERTEX
  5
cc
  8
Layer_2
  10
284.52155
  20
184.65295
  0
VERTEX
  5
cd
  8
Layer_2
  10
286.29156
  20
184.65295
  0
VERTEX
  5
ce
  8
Layer_2
  10
286.29156
  20
167.50012
  0
VERTEX
  5
cf
  8
Layer_2
  10
284.52155
  20
167.50012
  0
VERTEX
  5
d0
  8
Layer_2
  10
284.52155
  20
160.18933
  0
VERTEX
  5
d1
  8
Layer_2
  10
286.29156
  20
160.18933
  0
VERTEX
  5
d2
  8
Layer_2
  10
286.29156
  20
155.18933
  0
VERTEX
  5
d3
  8
Layer_2
  10
284.52155
  20
155.18933
  0
VERTEX
  5
d4
  8
Layer_2
  10
284.52155
  20
151.92297
  0
VERTEX
  5
d5
  8
Layer_2
  10
249.57794
  20
151.93127
  0
VERTEX
  5
d6
  8
Layer_2
  10
244.9859
  20
156.52234
  0
VERTEX
  5
d7
  8
Layer_2
  10
246.23712
  20
157.77356
  0
VERTEX
  5
d8
  8
Layer_2
  10
240.57867
  20
163.42883
  0
VERTEX
  5
d9
  8
Layer_2
  10
239.32867
  20
162.17883
  0
VERTEX
  5
da
  8
Layer_2
  10
231.54108
  20
169.96521
  0
VERTEX
  5
db
  8
Layer_2
  10
232.79156
  20
171.21594
  0
VERTEX
  5
dc
  8
Layer_2
  10
227.13531
  20
176.87341
  0
VERTEX
  5
dd
  8
Layer_2
  10
225.88361
  20
175.6217
  0
VERTEX
  5
de
  8
Layer_2
  10
221.29156
  20
180.21326
  0
VERTEX
  5
df
  8
Layer_2
  10
221.29205
  20
183.11169
  0
VERTEX
  5
e0
  8
Layer_2
  10
223.06207
  20
183.11169
  0
VERTEX
  5
e1
  8
Layer_2
  10
223.06207
  20
185.11169
  0
VERTEX
  5
e2
  8
Layer_2
  10
221.2923
  20
185.11169
  0
VERTEX
  5
e3
  8
Layer_2
  10
221.2923
  20
188.07727
  0
VERTEX
  5
e4
  8
Layer_2
  10
284.52155
  20
188.07605
  0
SEQEND
  0
POLYLINE
  5
e6
  8
Layer_2
  62
6
  66
1
  10
0
  20
0
  30
0
  0
VERTEX
  5
e6
  8
Layer_2
  10
252.13727
  20
173.04626
  0
VERTEX
  5
e7
  8
Layer_2
  10
252.13727
  20
170.59631
  0
VERTEX
  5
e8
  8
Layer_2
  10
282.17584
  20
170.59631
  0
VERTEX
  5
e9
  8
Layer_2
  10
282.17584
  20
173.04626
  0
VERTEX
  5
ea
  8
Layer_2
  10
252.13727
  20
173.04626
  0
SEQEND
  0
POLYLINE
  5
ec
  8
Layer_2
  62
6
  66
1
  10
0
  20
0
  30
0
  0
VERTEX
  5
ec
  8
Layer_2
  10
174.32756
  20
35.807686
  0
VERTEX
  5
ed
  8
Layer_2
  10
164.57118
  20
35.807686
  0
VERTEX
  5
ee
  8
Layer_2
  10
164.5712
  20
37.577679
  0
VERTEX
  5
ef
  8
Layer_2
  10
156.5712
  20
37.57769
  0
VERTEX
  5
f0
  8
Layer_2
  10
156.5712
  20
35.807686
  0
VERTEX
  5
f1
  8
Layer_2
  10
144.57124
  20
35.807701
  0
VERTEX
  5
f2
  8
Layer_2
  10
144.5712
  20
37.577675
  0
VERTEX
  5
f3
  8
Layer_2
  10
136.5712
  20
37.561275
  0
VERTEX
  5
f4
  8
Layer_2
  10
136.5712
  20
35.807705
  0
VERTEX
  5
f5
  8
Layer_2
  10
118.32787
  20
35.807709
  0
VERTEX
  5
f6
  8
Layer_2
  10
118.32787
  20
37.577698
  0
VERTEX
  5
f7
  8
Layer_2
  10
110.32652
  20
37.577705
  0
VERTEX
  5
f8
  8
Layer_2
  10
110.32787
  20
35.668636
  0
VERTEX
  5
f9
  8
Layer_2
  10
98.327881
  20
35.807713
  0
VERTEX
  5
fa
  8
Layer_2
  10
98.32766
  20
37.577702
  0
VERTEX
  5
fb
  8
Layer_2
  10
90.327881
  20
37.496399
  0
VERTEX
  5
fc
  8
Layer_2
  10
90.327873
  20
35.66864
  0
VERTEX
  5
fd
  8
Layer_2
  10
72.084579
  20
35.807724
  0
VERTEX
  5
fe
  8
Layer_2
  10
72.084549
  20
37.577713
  0
VERTEX
  5
ff
  8
Layer_2
  10
64.084549
  20
37.577717
  0
VERTEX
  5
100
  8
Layer_2
  10
64.084549
  20
35.80772
  0
VERTEX
  5
101
  8
Layer_2
  10
52.084591
  20
35.807724
  0
VERTEX
  5
102
  8
Layer_2
  10
52.084553
  20
37.577713
  0
VERTEX
  5
103
  8
Layer_2
  10
44.084553
  20
37.577702
  0
VERTEX
  5
104
  8
Layer_2
  10
44.084553
  20
35.807728
  0
VERTEX
  5
105
  8
Layer_2
  10
34.327599
  20
35.807732
  0
VERTEX
  5
106
  8
Layer_2
  10
34.327599
  20
29.077705
  0
VERTEX
  5
107
  8
Layer_2
  10
36.097504
  20
29.077703
  0
VERTEX
  5
108
  8
Layer_2
  10
36.097519
  20
21.077703
  0
VERTEX
  5
109
  8
Layer_2
  10
34.327599
  20
21.077705
  0
VERTEX
  5
10a
  8
Layer_2
  10
34.327599
  20
14.347662
  0
VERTEX
  5
10b
  8
Layer_2
  10
44.084545
  20
14.34766
  0
VERTEX
  5
10c
  8
Layer_2
  10
44.084545
  20
12.577703
  0
VERTEX
  5
10d
  8
Layer_2
  10
52.084545
  20
12.5777
  0
VERTEX
  5
10e
  8
Layer_2
  10
52.084545
  20
14.347657
  0
VERTEX
  5
10f
  8
Layer_2
  10
64.084549
  20
14.347653
  0
VERTEX
  5
110
  8
Layer_2
  10
64.084549
  20
12.577696
  0
VERTEX
  5
111
  8
Layer_2
  10
72.084549
  20
12.577693
  0
VERTEX
  5
112
  8
Layer_2
  10
72.084549
  20
14.347651
  0
VERTEX
  5
113
  8
Layer_2
  10
90.327866
  20
14.347631
  0
VERTEX
  5
114
  8
Layer_2
  10
90.327873
  20
12.577674
  0
VERTEX
  5
115
  8
Layer_2
  10
98.327873
  20
12.577672
  0
VERTEX
  5
116
  8
Layer_2
  10
98.327873
  20
14.347631
  0
VERTEX
  5
117
  8
Layer_2
  10
110.32787
  20
14.347626
  0
VERTEX
  5
118
  8
Layer_2
  10
110.32787
  20
12.577687
  0
VERTEX
  5
119
  8
Layer_2
  10
118.32787
  20
12.577683
  0
VERTEX
  5
11a
  8
Layer_2
  10
118.32787
  20
14.347642
  0
VERTEX
  5
11b
  8
Layer_2
  10
136.5712
  20
14.34764
  0
VERTEX
  5
11c
  8
Layer_2
  10
136.5712
  20
12.577685
  0
VERTEX
  5
11d
  8
Layer_2
  10
144.5712
  20
12.577679
  0
VERTEX
  5
11e
  8
Layer_2
  10
144.5712
  20
14.347637
  0
VERTEX
  5
11f
  8
Layer_2
  10
156.5712
  20
14.347622
  0
VERTEX
  5
120
  8
Layer_2
  10
156.5712
  20
12.577679
  0
VERTEX
  5
121
  8
Layer_2
  10
164.5712
  20
12.577669
  0
VERTEX
  5
122
  8
Layer_2
  10
164.5712
  20
14.347625
  0
VERTEX
  5
123
  8
Layer_2
  10
174.32756
  20
14.347617
  0
VERTEX
  5
124
  8
Layer_2
  10
174.32756
  20
21.077675
  0
VERTEX
  5
125
  8
Layer_2
  10
172.55757
  20
21.077675
  0
VERTEX
  5
126
  8
Layer_2
  10
172.55757
  20
29.077677
  0
VERTEX
  5
127
  8
Layer_2
  10
174.32753
  20
29.077675
  0
VERTEX
  5
128
  8
Layer_2
  10
174.32756
  20
35.807686
  0
SEQEND
  0
POLYLINE
  5
12a
  8
Layer_2
  62
6
  66
1
  10
0
  20
0
  30
0
  0
VERTEX
  5
12a
  8
Layer_2
  10
81.260445
  20
29.077698
  0
VERTEX
  5
12b
  8
Layer_2
  10
79.490471
  20
29.077698
  0
VERTEX
  5
12c
  8
Layer_2
  10
79.490471
  20
21.077698
  0
VERTEX
  5
12d
  8
Layer_2
  10
81.260445
  20
21.077698
  0
VERTEX
  5
12e
  8
Layer_2
  10
81.260445
  20
29.077698
  0
SEQEND
  0
POLYLINE
  5
130
  8
Layer_2
  62
6
  66
1
  10
0
  20
0
  30
0
  0
VERTEX
  5
130
  8
Layer_2
  10
129.16466
  20
29.077682
  0
VERTEX
  5
131
  8
Layer_2
  10
127.3947
  20
29.077682
  0
VERTEX
  5
132
  8
Layer_2
  10
127.3947
  20
21.077682
  0
VERTEX
  5
133
  8
Layer_2
  10
129.16466
  20
21.077682
  0
VERTEX
  5
134
  8
Layer_2
  10
129.16466
  20
29.077682
  0
SEQEND
  0
POLYLINE
  5
136
  8
Layer_2
  62
6
  66
1
  10
0
  20
0
  30
0
  0
VERTEX
  5
136
  8
Layer_2
  10
124.82773
  20
18.017654
  0
VERTEX
  5
137
  8
Layer_2
  10
119.82742
  20
18.017654
  0
VERTEX
  5
138
  8
Layer_2
  10
119.82742
  20
16.247665
  0
VERTEX
  5
139
  8
Layer_2
  10
124.82773
  20
16.247665
  0
VERTEX
  5
13a
  8
Layer_2
  10
124.82773
  20
18.017654
  0
SEQEND
  0
POLYLINE
  5
13c
  8
Layer_2
  62
6
  66
1
  10
0
  20
0
  30
0
  0
VERTEX
  5
13c
  8
Layer_2
  10
106.82771
  20
18.017654
  0
VERTEX
  5
13d
  8
Layer_2
  10
101.82741
  20
18.017654
  0
VERTEX
  5
13e
  8
Layer_2
  10
101.82741
  20
16.247665
  0
VERTEX
  5
13f
  8
Layer_2
  10
106.82771
  20
16.247665
  0
VERTEX
  5
140
  8
Layer_2
  10
106.82771
  20
18.017654
  0
SEQEND
  0
POLYLINE
  5
142
  8
Layer_2
  62
6
  66
1
  10
0
  20
0
  30
0
  0
VERTEX
  5
142
  8
Layer_2
  10
88.827713
  20
18.01767
  0
VERTEX
  5
143
  8
Layer_2
  10
83.827408
  20
18.01767
  0
VERTEX
  5
144
  8
Layer_2
  10
83.827408
  20
16.247681
  0
VERTEX
  5
145
  8
Layer_2
  10
88.827713
  20
16.247681
  0
VERTEX
  5
146
  8
Layer_2
  10
88.827713
  20
18.01767
  0
SEQEND
  0
POLYLINE
  5
148
  8
Layer_2
  62
6
  66
1
  10
0
  20
0
  30
0
  0
VERTEX
  5
148
  8
Layer_2
  10
176.09763
  20
127.92266
  0
VERTEX
  5
149
  8
Layer_2
  10
174.32764
  20
127.92266
  0
VERTEX
  5
14a
  8
Layer_2
  10
174.32767
  20
119.92266
  0
VERTEX
  5
14b
  8
Layer_2
  10
176.09764
  20
119.92205
  0
VERTEX
  5
14c
  8
Layer_2
  10
176.09763
  20
99.922668
  0
VERTEX
  5
14d
  8
Layer_2
  10
174.32767
  20
99.922668
  0
VERTEX
  5
14e
  8
Layer_2
  10
174.32762
  20
91.922668
  0
VERTEX
  5
14f
  8
Layer_2
  10
176.09763
  20
91.922661
  0
VERTEX
  5
150
  8
Layer_2
  10
176.09761
  20
79.192772
  0
VERTEX
  5
151
  8
Layer_2
  10
182.70955
  20
79.19278
  0
VERTEX
  5
152
  8
Layer_2
  10
182.70955
  20
77.422791
  0
VERTEX
  5
153
  8
Layer_2
  10
190.70955
  20
77.42276
  0
VERTEX
  5
154
  8
Layer_2
  10
190.70955
  20
79.192772
  0
VERTEX
  5
155
  8
Layer_2
  10
197.43959
  20
79.192772
  0
VERTEX
  5
156
  8
Layer_2
  10
197.43959
  20
91.922653
  0
VERTEX
  5
157
  8
Layer_2
  10
199.20956
  20
91.924866
  0
VERTEX
  5
158
  8
Layer_2
  10
199.20955
  20
99.922668
  0
VERTEX
  5
159
  8
Layer_2
  10
197.43959
  20
99.92218
  0
VERTEX
  5
15a
  8
Layer_2
  10
197.43961
  20
119.92265
  0
VERTEX
  5
15b
  8
Layer_2
  10
199.20958
  20
119.92265
  0
VERTEX
  5
15c
  8
Layer_2
  10
199.20958
  20
127.92265
  0
VERTEX
  5
15d
  8
Layer_2
  10
197.43959
  20
127.92266
  0
VERTEX
  5
15e
  8
Layer_2
  10
197.43961
  20
140.65273
  0
VERTEX
  5
15f
  8
Layer_2
  10
190.70953
  20
140.65273
  0
VERTEX
  5
160
  8
Layer_2
  10
190.70953
  20
142.42268
  0
VERTEX
  5
161
  8
Layer_2
  10
182.70953
  20
142.42267
  0
VERTEX
  5
162
  8
Layer_2
  10
182.70953
  20
140.65271
  0
VERTEX
  5
163
  8
Layer_2
  10
176.09761
  20
140.65273
  0
VERTEX
  5
164
  8
Layer_2
  10
176.09763
  20
127.92266
  0
SEQEND
  0
POLYLINE
  5
166
  8
Layer_2
  62
6
  66
1
  10
0
  20
0
  30
0
  0
VERTEX
  5
166
  8
Layer_2
  10
32.557587
  20
151.30788
  0
VERTEX
  5
167
  8
Layer_2
  10
34.327568
  20
151.30788
  0
VERTEX
  5
168
  8
Layer_2
  10
34.327553
  20
143.30788
  0
VERTEX
  5
169
  8
Layer_2
  10
32.557571
  20
143.30727
  0
VERTEX
  5
16a
  8
Layer_2
  10
32.55759
  20
123.30788
  0
VERTEX
  5
16b
  8
Layer_2
  10
34.327545
  20
123.30788
  0
VERTEX
  5
16c
  8
Layer_2
  10
34.327587
  20
115.30788
  0
VERTEX
  5
16d
  8
Layer_2
  10
32.55759
  20
115.30788
  0
VERTEX
  5
16e
  8
Layer_2
  10
32.55761
  20
102.57799
  0
VERTEX
  5
16f
  8
Layer_2
  10
25.945669
  20
102.57799
  0
VERTEX
  5
170
  8
Layer_2
  10
25.945667
  20
100.808
  0
VERTEX
  5
171
  8
Layer_2
  10
17.945665
  20
100.80798
  0
VERTEX
  5
172
  8
Layer_2
  10
17.945665
  20
102.57799
  0
VERTEX
  5
173
  8
Layer_2
  10
11.215627
  20
102.57799
  0
VERTEX
  5
174
  8
Layer_2
  10
11.215619
  20
115.30787
  0
VERTEX
  5
175
  8
Layer_2
  10
9.4456425
  20
115.31008
  0
VERTEX
  5
176
  8
Layer_2
  10
9.4456673
  20
123.30788
  0
VERTEX
  5
177
  8
Layer_2
  10
11.215621
  20
123.3074
  0
VERTEX
  5
178
  8
Layer_2
  10
11.215611
  20
143.30788
  0
VERTEX
  5
179
  8
Layer_2
  10
9.4456358
  20
143.30786
  0
VERTEX
  5
17a
  8
Layer_2
  10
9.4456348
  20
151.30786
  0
VERTEX
  5
17b
  8
Layer_2
  10
11.215619
  20
151.30788
  0
VERTEX
  5
17c
  8
Layer_2
  10
11.215602
  20
164.03795
  0
VERTEX
  5
17d
  8
Layer_2
  10
17.945675
  20
164.03795
  0
VERTEX
  5
17e
  8
Layer_2
  10
17.945675
  20
165.80789
  0
VERTEX
  5
17f
  8
Layer_2
  10
25.945673
  20
165.80789
  0
VERTEX
  5
180
  8
Layer_2
  10
25.945673
  20
164.03792
  0
VERTEX
  5
181
  8
Layer_2
  10
32.557594
  20
164.03795
  0
VERTEX
  5
182
  8
Layer_2
  10
32.557587
  20
151.30788
  0
SEQEND
  0
POLYLINE
  5
184
  8
Layer_2
  62
6
  66
1
  10
0
  20
0
  30
0
  0
VERTEX
  5
184
  8
Layer_2
  10
197.43956
  20
62.922729
  0
VERTEX
  5
185
  8
Layer_2
  10
199.20955
  20
62.922729
  0
VERTEX
  5
186
  8
Layer_2
  10
199.20953
  20
54.922729
  0
VERTEX
  5
187
  8
Layer_2
  10
197.43954
  20
54.922123
  0
VERTEX
  5
188
  8
Layer_2
  10
197.43956
  20
34.922737
  0
VERTEX
  5
189
  8
Layer_2
  10
199.20952
  20
34.922733
  0
VERTEX
  5
18a
  8
Layer_2
  10
199.20956
  20
26.922735
  0
VERTEX
  5
18b
  8
Layer_2
  10
197.43956
  20
26.922731
  0
VERTEX
  5
18c
  8
Layer_2
  10
197.43958
  20
14.192842
  0
VERTEX
  5
18d
  8
Layer_2
  10
190.82764
  20
14.192844
  0
VERTEX
  5
18e
  8
Layer_2
  10
190.82764
  20
12.422855
  0
VERTEX
  5
18f
  8
Layer_2
  10
182.82764
  20
12.422829
  0
VERTEX
  5
190
  8
Layer_2
  10
182.82764
  20
14.192841
  0
VERTEX
  5
191
  8
Layer_2
  10
176.0976
  20
14.192839
  0
VERTEX
  5
192
  8
Layer_2
  10
176.0976
  20
26.922724
  0
VERTEX
  5
193
  8
Layer_2
  10
174.32762
  20
26.924932
  0
VERTEX
  5
194
  8
Layer_2
  10
174.32764
  20
34.922737
  0
VERTEX
  5
195
  8
Layer_2
  10
176.0976
  20
34.922249
  0
VERTEX
  5
196
  8
Layer_2
  10
176.09758
  20
54.922722
  0
VERTEX
  5
197
  8
Layer_2
  10
174.32761
  20
54.922722
  0
VERTEX
  5
198
  8
Layer_2
  10
174.32761
  20
62.922714
  0
VERTEX
  5
199
  8
Layer_2
  10
176.0976
  20
62.922729
  0
VERTEX
  5
19a
  8
Layer_2
  10
176.09758
  20
75.652802
  0
VERTEX
  5
19b
  8
Layer_2
  10
182.82765
  20
75.652794
  0
VERTEX
  5
19c
  8
Layer_2
  10
182.82765
  20
77.422752
  0
VERTEX
  5
19d
  8
Layer_2
  10
190.82765
  20
77.422745
  0
VERTEX
  5
19e
  8
Layer_2
  10
190.82765
  20
75.652771
  0
VERTEX
  5
19f
  8
Layer_2
  10
197.43958
  20
75.652802
  0
VERTEX
  5
1a0
  8
Layer_2
  10
197.43956
  20
62.922729
  0
SEQEND
  0
POLYLINE
  5
1a2
  8
Layer_2
  62
6
  66
1
  10
0
  20
0
  30
0
  0
VERTEX
  5
1a2
  8
Layer_2
  10
179.76756
  20
47.422913
  0
VERTEX
  5
1a3
  8
Layer_2
  10
179.76756
  20
42.422607
  0
VERTEX
  5
1a4
  8
Layer_2
  10
177.99757
  20
42.422607
  0
VERTEX
  5
1a5
  8
Layer_2
  10
177.99757
  20
47.422913
  0
VERTEX
  5
1a6
  8
Layer_2
  10
179.76756
  20
47.422913
  0
SEQEND
  0
POLYLINE
  5
1a8
  8
Layer_2
  62
6
  66
1
  10
0
  20
0
  30
0
  0
VERTEX
  5
1a8
  8
Layer_2
  10
179.76755
  20
71.421844
  0
VERTEX
  5
1a9
  8
Layer_2
  10
179.76755
  20
66.422821
  0
VERTEX
  5
1aa
  8
Layer_2
  10
177.99756
  20
66.422821
  0
VERTEX
  5
1ab
  8
Layer_2
  10
177.99756
  20
71.421844
  0
VERTEX
  5
1ac
  8
Layer_2
  10
179.76755
  20
71.421844
  0
SEQEND
  0
POLYLINE
  5
1ae
  8
Layer_2
  62
6
  66
1
  10
0
  20
0
  30
0
  0
VERTEX
  5
1ae
  8
Layer_2
  10
179.76756
  20
23.422791
  0
VERTEX
  5
1af
  8
Layer_2
  10
179.76756
  20
18.422485
  0
VERTEX
  5
1b0
  8
Layer_2
  10
177.99757
  20
18.422485
  0
VERTEX
  5
1b1
  8
Layer_2
  10
177.99757
  20
23.422791
  0
VERTEX
  5
1b2
  8
Layer_2
  10
179.76756
  20
23.422791
  0
SEQEND
  0
POLYLINE
  5
1b4
  8
Layer_2
  62
6
  66
1
  10
0
  20
0
  30
0
  0
VERTEX
  5
1b4
  8
Layer_2
  10
193.98831
  20
63.421844
  0
VERTEX
  5
1b5
  8
Layer_2
  10
185.98831
  20
63.421844
  0
VERTEX
  5
1b6
  8
Layer_2
  10
185.98831
  20
71.421844
  0
VERTEX
  5
1b7
  8
Layer_2
  10
193.98831
  20
71.421844
  0
VERTEX
  5
1b8
  8
Layer_2
  10
193.98831
  20
63.421844
  0
SEQEND
  0
POLYLINE
  5
1ba
  8
Layer_2
  62
6
  66
1
  10
0
  20
0
  30
0
  0
VERTEX
  5
1ba
  8
Layer_2
  10
193.98831
  20
18.422485
  0
VERTEX
  5
1bb
  8
Layer_2
  10
185.98831
  20
18.422485
  0
VERTEX
  5
1bc
  8
Layer_2
  10
185.98831
  20
26.422485
  0
VERTEX
  5
1bd
  8
Layer_2
  10
193.98831
  20
26.422485
  0
VERTEX
  5
1be
  8
Layer_2
  10
193.98831
  20
18.422485
  0
SEQEND
  0
POLYLINE
  5
1c0
  8
Layer_2
  62
6
  66
1
  10
0
  20
0
  30
0
  0
VERTEX
  5
1c0
  8
Layer_2
  10
12.985582
  20
86.307938
  0
VERTEX
  5
1c1
  8
Layer_2
  10
11.215598
  20
86.307938
  0
VERTEX
  5
1c2
  8
Layer_2
  10
11.215614
  20
78.307938
  0
VERTEX
  5
1c3
  8
Layer_2
  10
12.985594
  20
78.307327
  0
VERTEX
  5
1c4
  8
Layer_2
  10
12.985578
  20
58.307945
  0
VERTEX
  5
1c5
  8
Layer_2
  10
11.21562
  20
58.307941
  0
VERTEX
  5
1c6
  8
Layer_2
  10
11.21558
  20
50.307945
  0
VERTEX
  5
1c7
  8
Layer_2
  10
12.985577
  20
50.307938
  0
VERTEX
  5
1c8
  8
Layer_2
  10
12.985559
  20
37.578049
  0
VERTEX
  5
1c9
  8
Layer_2
  10
19.597498
  20
37.578053
  0
VERTEX
  5
1ca
  8
Layer_2
  10
19.5975
  20
35.808064
  0
VERTEX
  5
1cb
  8
Layer_2
  10
27.597502
  20
35.808037
  0
VERTEX
  5
1cc
  8
Layer_2
  10
27.597502
  20
37.578049
  0
VERTEX
  5
1cd
  8
Layer_2
  10
34.327541
  20
37.578049
  0
VERTEX
  5
1ce
  8
Layer_2
  10
34.327549
  20
50.30793
  0
VERTEX
  5
1cf
  8
Layer_2
  10
36.097527
  20
50.310143
  0
VERTEX
  5
1d0
  8
Layer_2
  10
36.0975
  20
58.307945
  0
VERTEX
  5
1d1
  8
Layer_2
  10
34.327545
  20
58.307457
  0
VERTEX
  5
1d2
  8
Layer_2
  10
34.327557
  20
78.30793
  0
VERTEX
  5
1d3
  8
Layer_2
  10
36.09753
  20
78.30793
  0
VERTEX
  5
1d4
  8
Layer_2
  10
36.097534
  20
86.307922
  0
VERTEX
  5
1d5
  8
Layer_2
  10
34.327549
  20
86.307938
  0
VERTEX
  5
1d6
  8
Layer_2
  10
34.327564
  20
99.03801
  0
VERTEX
  5
1d7
  8
Layer_2
  10
27.597492
  20
99.038002
  0
VERTEX
  5
1d8
  8
Layer_2
  10
27.597492
  20
100.80796
  0
VERTEX
  5
1d9
  8
Layer_2
  10
19.597494
  20
100.80795
  0
VERTEX
  5
1da
  8
Layer_2
  10
19.597494
  20
99.037979
  0
VERTEX
  5
1db
  8
Layer_2
  10
12.985572
  20
99.03801
  0
VERTEX
  5
1dc
  8
Layer_2
  10
12.985582
  20
86.307938
  0
SEQEND
  0
POLYLINE
  5
1de
  8
Layer_2
  62
6
  66
1
  10
0
  20
0
  30
0
  0
VERTEX
  5
1de
  8
Layer_2
  10
30.657578
  20
70.808121
  0
VERTEX
  5
1df
  8
Layer_2
  10
30.657578
  20
65.807816
  0
VERTEX
  5
1e0
  8
Layer_2
  10
32.427567
  20
65.807816
  0
VERTEX
  5
1e1
  8
Layer_2
  10
32.427567
  20
70.808121
  0
VERTEX
  5
1e2
  8
Layer_2
  10
30.657578
  20
70.808121
  0
SEQEND
  0
POLYLINE
  5
1e4
  8
Layer_2
  62
6
  66
1
  10
0
  20
0
  30
0
  0
VERTEX
  5
1e4
  8
Layer_2
  10
30.657593
  20
94.807053
  0
VERTEX
  5
1e5
  8
Layer_2
  10
30.657593
  20
89.808029
  0
VERTEX
  5
1e6
  8
Layer_2
  10
32.427582
  20
89.808029
  0
VERTEX
  5
1e7
  8
Layer_2
  10
32.427582
  20
94.807053
  0
VERTEX
  5
1e8
  8
Layer_2
  10
30.657593
  20
94.807053
  0
SEQEND
  0
POLYLINE
  5
1ea
  8
Layer_2
  62
6
  66
1
  10
0
  20
0
  30
0
  0
VERTEX
  5
1ea
  8
Layer_2
  10
30.657578
  20
46.807999
  0
VERTEX
  5
1eb
  8
Layer_2
  10
30.657578
  20
41.807693
  0
VERTEX
  5
1ec
  8
Layer_2
  10
32.427567
  20
41.807693
  0
VERTEX
  5
1ed
  8
Layer_2
  10
32.427567
  20
46.807999
  0
VERTEX
  5
1ee
  8
Layer_2
  10
30.657578
  20
46.807999
  0
SEQEND
  0
POLYLINE
  5
1f0
  8
Layer_2
  62
6
  66
1
  10
0
  20
0
  30
0
  0
VERTEX
  5
1f0
  8
Layer_2
  10
16.436829
  20
86.807053
  0
VERTEX
  5
1f1
  8
Layer_2
  10
24.436829
  20
86.807053
  0
VERTEX
  5
1f2
  8
Layer_2
  10
24.436829
  20
94.807053
  0
VERTEX
  5
1f3
  8
Layer_2
  10
16.436829
  20
94.807053
  0
VERTEX
  5
1f4
  8
Layer_2
  10
16.436829
  20
86.807053
  0
SEQEND
  0
POLYLINE
  5
1f6
  8
Layer_2
  62
6
  66
1
  10
0
  20
0
  30
0
  0
VERTEX
  5
1f6
  8
Layer_2
  10
16.436829
  20
41.807693
  0
VERTEX
  5
1f7
  8
Layer_2
  10
24.436829
  20
41.807693
  0
VERTEX
  5
1f8
  8
Layer_2
  10
24.436829
  20
49.807693
  0
VERTEX
  5
1f9
  8
Layer_2
  10
16.436829
  20
49.807693
  0
VERTEX
  5
1fa
  8
Layer_2
  10
16.436829
  20
41.807693
  0
SEQEND
  0
POLYLINE
  5
1fc
  8
Layer_2
  62
6
  66
1
  10
0
  20
0
  30
0
  0
VERTEX
  5
1fc
  8
Layer_2
  10
174.32761
  20
35.807968
  0
VERTEX
  5
1fd
  8
Layer_2
  10
164.57124
  20
35.807968
  0
VERTEX
  5
1fe
  8
Layer_2
  10
164.57124
  20
37.577927
  0
VERTEX
  5
1ff
  8
Layer_2
  10
156.57124
  20
37.577911
  0
VERTEX
  5
200
  8
Layer_2
  10
156.57124
  20
35.807968
  0
VERTEX
  5
201
  8
Layer_2
  10
144.57124
  20
35.807968
  0
VERTEX
  5
202
  8
Layer_2
  10
144.57124
  20
37.577927
  0
VERTEX
  5
203
  8
Layer_2
  10
136.57124
  20
37.577915
  0
VERTEX
  5
204
  8
Layer_2
  10
136.57124
  20
35.807968
  0
VERTEX
  5
205
  8
Layer_2
  10
118.32791
  20
35.807968
  0
VERTEX
  5
206
  8
Layer_2
  10
118.32791
  20
37.577915
  0
VERTEX
  5
207
  8
Layer_2
  10
110.32791
  20
37.577927
  0
VERTEX
  5
208
  8
Layer_2
  10
110.32791
  20
35.807968
  0
VERTEX
  5
209
  8
Layer_2
  10
98.327919
  20
35.807968
  0
VERTEX
  5
20a
  8
Layer_2
  10
98.327919
  20
37.577927
  0
VERTEX
  5
20b
  8
Layer_2
  10
90.327919
  20
37.577923
  0
VERTEX
  5
20c
  8
Layer_2
  10
90.327919
  20
35.807968
  0
VERTEX
  5
20d
  8
Layer_2
  10
72.084595
  20
35.807968
  0
VERTEX
  5
20e
  8
Layer_2
  10
72.084595
  20
37.577927
  0
VERTEX
  5
20f
  8
Layer_2
  10
64.084595
  20
37.577934
  0
VERTEX
  5
210
  8
Layer_2
  10
64.084595
  20
35.807968
  0
VERTEX
  5
211
  8
Layer_2
  10
52.084595
  20
35.807968
  0
VERTEX
  5
212
  8
Layer_2
  10
52.084595
  20
37.577927
  0
VERTEX
  5
213
  8
Layer_2
  10
44.084591
  20
37.577915
  0
VERTEX
  5
214
  8
Layer_2
  10
44.084595
  20
35.807968
  0
VERTEX
  5
215
  8
Layer_2
  10
34.327606
  20
35.807968
  0
VERTEX
  5
216
  8
Layer_2
  10
34.327576
  20
50.307846
  0
VERTEX
  5
217
  8
Layer_2
  10
36.097565
  20
50.307846
  0
VERTEX
  5
218
  8
Layer_2
  10
36.097565
  20
58.307846
  0
VERTEX
  5
219
  8
Layer_2
  10
34.327576
  20
58.307846
  0
VERTEX
  5
21a
  8
Layer_2
  10
34.327576
  20
78.307846
  0
VERTEX
  5
21b
  8
Layer_2
  10
36.09758
  20
78.307846
  0
VERTEX
  5
21c
  8
Layer_2
  10
36.097557
  20
86.307846
  0
VERTEX
  5
21d
  8
Layer_2
  10
34.327606
  20
86.307846
  0
VERTEX
  5
21e
  8
Layer_2
  10
34.327606
  20
100.80797
  0
VERTEX
  5
21f
  8
Layer_2
  10
44.084595
  20
100.80791
  0
VERTEX
  5
220
  8
Layer_2
  10
44.084595
  20
99.037956
  0
VERTEX
  5
221
  8
Layer_2
  10
52.084595
  20
99.037949
  0
VERTEX
  5
222
  8
Layer_2
  10
52.084595
  20
100.80791
  0
VERTEX
  5
223
  8
Layer_2
  10
64.084595
  20
100.80791
  0
VERTEX
  5
224
  8
Layer_2
  10
64.084595
  20
99.037956
  0
VERTEX
  5
225
  8
Layer_2
  10
72.084595
  20
99.037964
  0
VERTEX
  5
226
  8
Layer_2
  10
72.084595
  20
100.80792
  0
VERTEX
  5
227
  8
Layer_2
  10
136.57124
  20
100.80791
  0
VERTEX
  5
228
  8
Layer_2
  10
136.57124
  20
99.037956
  0
VERTEX
  5
229
  8
Layer_2
  10
144.57124
  20
99.037941
  0
VERTEX
  5
22a
  8
Layer_2
  10
144.57124
  20
100.80791
  0
VERTEX
  5
22b
  8
Layer_2
  10
156.57124
  20
100.80791
  0
VERTEX
  5
22c
  8
Layer_2
  10
156.57124
  20
99.037956
  0
VERTEX
  5
22d
  8
Layer_2
  10
164.57124
  20
99.037949
  0
VERTEX
  5
22e
  8
Layer_2
  10
164.57124
  20
100.80792
  0
VERTEX
  5
22f
  8
Layer_2
  10
174.32761
  20
100.80797
  0
VERTEX
  5
230
  8
Layer_2
  10
174.32761
  20
86.307846
  0
VERTEX
  5
231
  8
Layer_2
  10
172.55759
  20
86.307846
  0
VERTEX
  5
232
  8
Layer_2
  10
172.55762
  20
78.307846
  0
VERTEX
  5
233
  8
Layer_2
  10
174.32759
  20
78.307846
  0
VERTEX
  5
234
  8
Layer_2
  10
174.32761
  20
58.307846
  0
VERTEX
  5
235
  8
Layer_2
  10
172.55762
  20
58.307846
  0
VERTEX
  5
236
  8
Layer_2
  10
172.55762
  20
50.307846
  0
VERTEX
  5
237
  8
Layer_2
  10
174.32761
  20
50.307846
  0
VERTEX
  5
238
  8
Layer_2
  10
174.32761
  20
35.807968
  0
SEQEND
  0
POLYLINE
  5
23a
  8
Layer_2
  62
6
  66
1
  10
0
  20
0
  30
0
  0
VERTEX
  5
23a
  8
Layer_2
  10
125.39473
  20
100.80791
  0
VERTEX
  5
23b
  8
Layer_2
  10
125.39473
  20
39.577927
  0
VERTEX
  5
23c
  8
Layer_2
  10
83.260483
  20
39.577927
  0
VERTEX
  5
23d
  8
Layer_2
  10
83.260483
  20
100.80791
  0
SEQEND
  0
POLYLINE
  5
23f
  8
Layer_2
  62
6
  66
1
  10
0
  20
0
  30
0
  0
VERTEX
  5
23f
  8
Layer_2
  10
110.32761
  20
92.779007
  42
-0.41421356
  0
VERTEX
  5
240
  8
Layer_2
  10
108.32761
  20
90.779007
  0
VERTEX
  5
241
  8
Layer_2
  10
100.32761
  20
90.779007
  42
-0.41421356
  0
VERTEX
  5
242
  8
Layer_2
  10
98.327606
  20
92.779007
  0
VERTEX
  5
243
  8
Layer_2
  10
98.327606
  20
93.779007
  42
-0.41421356
  0
VERTEX
  5
244
  8
Layer_2
  10
100.32761
  20
95.779007
  0
VERTEX
  5
245
  8
Layer_2
  10
108.32761
  20
95.779007
  42
-0.41421356
  0
VERTEX
  5
246
  8
Layer_2
  10
110.32761
  20
93.779007
  0
VERTEX
  5
247
  8
Layer_2
  10
110.32761
  20
92.779007
  0
SEQEND
  0
POLYLINE
  5
249
  8
Layer_2
  62
6
  66
1
  10
0
  20
0
  30
0
  0
VERTEX
  5
249
  8
Layer_2
  10
81.260483
  20
78.307846
  0
VERTEX
  5
24a
  8
Layer_2
  10
79.490494
  20
78.307846
  0
VERTEX
  5
24b
  8
Layer_2
  10
79.490494
  20
86.307846
  0
VERTEX
  5
24c
  8
Layer_2
  10
81.260483
  20
86.307846
  0
VERTEX
  5
24d
  8
Layer_2
  10
81.260483
  20
78.307846
  0
SEQEND
  0
POLYLINE
  5
24f
  8
Layer_2
  62
6
  66
1
  10
0
  20
0
  30
0
  0
VERTEX
  5
24f
  8
Layer_2
  10
129.16472
  20
78.307846
  0
VERTEX
  5
250
  8
Layer_2
  10
127.39473
  20
78.307846
  0
VERTEX
  5
251
  8
Layer_2
  10
127.39473
  20
86.307846
  0
VERTEX
  5
252
  8
Layer_2
  10
129.16472
  20
86.307846
  0
VERTEX
  5
253
  8
Layer_2
  10
129.16472
  20
78.307846
  0
SEQEND
  0
POLYLINE
  5
255
  8
Layer_2
  62
6
  66
1
  10
0
  20
0
  30
0
  0
VERTEX
  5
255
  8
Layer_2
  10
81.260483
  20
50.307846
  0
VERTEX
  5
256
  8
Layer_2
  10
79.490509
  20
50.307846
  0
VERTEX
  5
257
  8
Layer_2
  10
79.490509
  20
58.307846
  0
VERTEX
  5
258
  8
Layer_2
  10
81.260483
  20
58.307846
  0
VERTEX
  5
259
  8
Layer_2
  10
81.260483
  20
50.307846
  0
SEQEND
  0
POLYLINE
  5
25b
  8
Layer_2
  62
6
  66
1
  10
0
  20
0
  30
0
  0
VERTEX
  5
25b
  8
Layer_2
  10
129.1647
  20
50.307846
  0
VERTEX
  5
25c
  8
Layer_2
  10
127.39474
  20
50.307846
  0
VERTEX
  5
25d
  8
Layer_2
  10
127.39474
  20
58.307846
  0
VERTEX
  5
25e
  8
Layer_2
  10
129.1647
  20
58.307846
  0
VERTEX
  5
25f
  8
Layer_2
  10
129.1647
  20
50.307846
  0
SEQEND
  0
POLYLINE
  5
261
  8
Layer_2
  62
6
  66
1
  10
0
  20
0
  30
0
  0
VERTEX
  5
261
  8
Layer_2
  10
249.8815
  20
104.42303
  0
VERTEX
  5
262
  8
Layer_2
  10
249.8815
  20
117.42255
  0
VERTEX
  5
263
  8
Layer_2
  10
251.60147
  20
117.42255
  0
VERTEX
  5
264
  8
Layer_2
  10
251.60147
  20
122.42303
  0
VERTEX
  5
265
  8
Layer_2
  10
249.8815
  20
122.42303
  0
VERTEX
  5
266
  8
Layer_2
  10
249.8815
  20
135.42255
  0
VERTEX
  5
267
  8
Layer_2
  10
251.60147
  20
135.42255
  0
VERTEX
  5
268
  8
Layer_2
  10
251.60147
  20
140.42303
  0
VERTEX
  5
269
  8
Layer_2
  10
249.8815
  20
140.42303
  0
VERTEX
  5
26a
  8
Layer_2
  10
249.8815
  20
142.98993
  0
VERTEX
  5
26b
  8
Layer_2
  10
247.9816
  20
142.98993
  0
VERTEX
  5
26c
  8
Layer_2
  10
247.9816
  20
96.855652
  0
VERTEX
  5
26d
  8
Layer_2
  10
249.8815
  20
96.855652
  0
VERTEX
  5
26e
  8
Layer_2
  10
249.8815
  20
99.422554
  0
VERTEX
  5
26f
  8
Layer_2
  10
251.60147
  20
99.422554
  0
VERTEX
  5
270
  8
Layer_2
  10
251.60147
  20
104.42303
  0
VERTEX
  5
271
  8
Layer_2
  10
249.8815
  20
104.42303
  0
SEQEND
  0
POLYLINE
  5
273
  8
Layer_2
  62
6
  66
1
  10
0
  20
0
  30
0
  0
VERTEX
  5
273
  8
Layer_2
  10
73.696075
  20
128.61642
  42
0.41388561
  0
VERTEX
  5
274
  8
Layer_2
  10
75.693848
  20
130.61642
  0
VERTEX
  5
275
  8
Layer_2
  10
75.693848
  20
182.03784
  42
0.41421356
  0
VERTEX
  5
276
  8
Layer_2
  10
73.693848
  20
184.03784
  0
VERTEX
  5
277
  8
Layer_2
  10
44.995605
  20
184.03784
  42
0.41421356
  0
VERTEX
  5
278
  8
Layer_2
  10
42.995605
  20
182.03784
  0
VERTEX
  5
279
  8
Layer_2
  10
42.995605
  20
181.05396
  42
-0.41421356
  0
VERTEX
  5
27a
  8
Layer_2
  10
40.995605
  20
179.05396
  0
VERTEX
  5
27b
  8
Layer_2
  10
39.794189
  20
179.05396
  42
0.41421356
  0
VERTEX
  5
27c
  8
Layer_2
  10
37.794189
  20
177.05396
  0
VERTEX
  5
27d
  8
Layer_2
  10
37.794189
  20
148.92285
  42
0.41421356
  0
VERTEX
  5
27e
  8
Layer_2
  10
39.794189
  20
146.92285
  0
VERTEX
  5
27f
  8
Layer_2
  10
41.1604
  20
146.92285
  42
-0.41399337
  0
VERTEX
  5
280
  8
Layer_2
  10
43.05542
  20
144.92285
  0
VERTEX
  5
281
  8
Layer_2
  10
43.05542
  20
130.5845
  42
0.199055
  0
VERTEX
  5
282
  8
Layer_2
  10
43.641998
  20
129.16949
  42
0.19905581
  0
VERTEX
  5
283
  8
Layer_2
  10
45.057648
  20
128.5845
  0
VERTEX
  5
284
  8
Layer_2
  10
73.696075
  20
128.61642
  0
SEQEND
  0
POLYLINE
  5
286
  8
Layer_2
  62
6
  66
1
  10
0
  20
0
  30
0
  0
VERTEX
  5
286
  8
Layer_2
  10
134.95932
  20
128.61642
  42
-0.41388561
  0
VERTEX
  5
287
  8
Layer_2
  10
132.96155
  20
130.61642
  0
VERTEX
  5
288
  8
Layer_2
  10
132.96155
  20
182.03784
  42
-0.41421356
  0
VERTEX
  5
289
  8
Layer_2
  10
134.96155
  20
184.03784
  0
VERTEX
  5
28a
  8
Layer_2
  10
163.65979
  20
184.03784
  42
-0.41421356
  0
VERTEX
  5
28b
  8
Layer_2
  10
165.65979
  20
182.03784
  0
VERTEX
  5
28c
  8
Layer_2
  10
165.65979
  20
181.05396
  42
0.41421356
  0
VERTEX
  5
28d
  8
Layer_2
  10
167.65979
  20
179.05396
  0
VERTEX
  5
28e
  8
Layer_2
  10
168.86121
  20
179.05396
  42
-0.41421356
  0
VERTEX
  5
28f
  8
Layer_2
  10
170.86121
  20
177.05396
  0
VERTEX
  5
290
  8
Layer_2
  10
170.86121
  20
148.92285
  42
-0.41421356
  0
VERTEX
  5
291
  8
Layer_2
  10
168.86121
  20
146.92285
  0
VERTEX
  5
292
  8
Layer_2
  10
167.495
  20
146.92285
  42
0.41399337
  0
VERTEX
  5
293
  8
Layer_2
  10
165.59998
  20
144.92285
  0
VERTEX
  5
294
  8
Layer_2
  10
165.59998
  20
130.5845
  42
-0.199055
  0
VERTEX
  5
295
  8
Layer_2
  10
165.0134
  20
129.16949
  42
-0.19905581
  0
VERTEX
  5
296
  8
Layer_2
  10
163.59775
  20
128.5845
  0
VERTEX
  5
297
  8
Layer_2
  10
134.95932
  20
128.61642
  0
SEQEND
  0
POLYLINE
  5
299
  8
Layer_2
  62
6
  66
1
  10
0
  20
0
  30
0
  0
VERTEX
  5
299
  8
Layer_2
  10
101.82764
  20
179.78693
  42
0.41421356
  0
VERTEX
  5
29a
  8
Layer_2
  10
99.827637
  20
181.7869
  0
VERTEX
  5
29b
  8
Layer_2
  10
87.404541
  20
181.7869
  0
VERTEX
  5
29c
  8
Layer_2
  10
87.043316
  20
181.77271
  0
VERTEX
  5
29d
  8
Layer_2
  10
86.688469
  20
181.70707
  0
VERTEX
  5
29e
  8
Layer_2
  10
86.342853
  20
181.5916
  0
VERTEX
  5
29f
  8
Layer_2
  10
86.009319
  20
181.42791
  0
VERTEX
  5
2a0
  8
Layer_2
  10
85.690718
  20
181.21763
  0
VERTEX
  5
2a1
  8
Layer_2
  10
85.389902
  20
180.96238
  0
VERTEX
  5
2a2
  8
Layer_2
  10
85.109721
  20
180.66378
  0
VERTEX
  5
2a3
  8
Layer_2
  10
84.853027
  20
180.32344
  0
VERTEX
  5
2a4
  8
Layer_2
  10
84.63128
  20
179.91152
  0
VERTEX
  5
2a5
  8
Layer_2
  10
84.467743
  20
179.45769
  0
VERTEX
  5
2a6
  8
Layer_2
  10
84.3655
  20
178.9728
  0
VERTEX
  5
2a7
  8
Layer_2
  10
84.327637
  20
178.46769
  0
VERTEX
  5
2a8
  8
Layer_2
  10
84.327637
  20
131.5864
  0
VERTEX
  5
2a9
  8
Layer_2
  10
84.356162
  20
131.19697
  0
VERTEX
  5
2aa
  8
Layer_2
  10
84.419881
  20
130.81975
  0
VERTEX
  5
2ab
  8
Layer_2
  10
84.517115
  20
130.45853
  0
VERTEX
  5
2ac
  8
Layer_2
  10
84.646187
  20
130.11709
  0
VERTEX
  5
2ad
  8
Layer_2
  10
84.805416
  20
129.79923
  0
VERTEX
  5
2ae
  8
Layer_2
  10
84.993125
  20
129.50875
  0
VERTEX
  5
2af
  8
Layer_2
  10
85.207634
  20
129.24942
  0
VERTEX
  5
2b0
  8
Layer_2
  10
85.447266
  20
129.02506
  0
VERTEX
  5
2b1
  8
Layer_2
  10
85.901611
  20
128.69335
  0
VERTEX
  5
2b2
  8
Layer_2
  10
86.384476
  20
128.45427
  0
VERTEX
  5
2b3
  8
Layer_2
  10
86.888054
  20
128.31105
  0
VERTEX
  5
2b4
  8
Layer_2
  10
87.404541
  20
128.26688
  0
VERTEX
  5
2b5
  8
Layer_2
  10
99.827637
  20
128.26688
  42
0.41421356
  0
VERTEX
  5
2b6
  8
Layer_2
  10
101.82764
  20
130.26691
  0
VERTEX
  5
2b7
  8
Layer_2
  10
101.82764
  20
179.78693
  0
SEQEND
  0
POLYLINE
  5
2b9
  8
Layer_2
  62
6
  66
1
  10
0
  20
0
  30
0
  0
VERTEX
  5
2b9
  8
Layer_2
  10
121.56543
  20
128.28418
  0
VERTEX
  5
2ba
  8
Layer_2
  10
121.87085
  20
128.3345
  0
VERTEX
  5
2bb
  8
Layer_2
  10
122.18031
  20
128.41222
  0
VERTEX
  5
2bc
  8
Layer_2
  10
122.47997
  20
128.53065
  0
VERTEX
  5
2bd
  8
Layer_2
  10
122.76777
  20
128.68814
  0
VERTEX
  5
2be
  8
Layer_2
  10
123.04162
  20
128.88305
  0
VERTEX
  5
2bf
  8
Layer_2
  10
123.29947
  20
129.11373
  0
VERTEX
  5
2c0
  8
Layer_2
  10
123.53925
  20
129.37855
  0
VERTEX
  5
2c1
  8
Layer_2
  10
123.75888
  20
129.67588
  0
VERTEX
  5
2c2
  8
Layer_2
  10
123.9563
  20
130.00406
  42
0.11956949
  0
VERTEX
  5
2c3
  8
Layer_2
  10
124.32764
  20
131.5864
  0
VERTEX
  5
2c4
  8
Layer_2
  10
124.32764
  20
178.46768
  0
VERTEX
  5
2c5
  8
Layer_2
  10
124.30736
  20
178.81151
  0
VERTEX
  5
2c6
  8
Layer_2
  10
124.25838
  20
179.14673
  0
VERTEX
  5
2c7
  8
Layer_2
  10
124.18187
  20
179.47043
  0
VERTEX
  5
2c8
  8
Layer_2
  10
124.07897
  20
179.77972
  0
VERTEX
  5
2c9
  8
Layer_2
  10
123.95083
  20
180.0717
  0
VERTEX
  5
2ca
  8
Layer_2
  10
123.79861
  20
180.34346
  0
VERTEX
  5
2cb
  8
Layer_2
  10
123.62345
  20
180.59211
  0
VERTEX
  5
2cc
  8
Layer_2
  10
123.42651
  20
180.81474
  0
VERTEX
  5
2cd
  8
Layer_2
  10
123.18687
  20
181.04256
  0
VERTEX
  5
2ce
  8
Layer_2
  10
122.93502
  20
181.24131
  0
VERTEX
  5
2cf
  8
Layer_2
  10
122.67244
  20
181.41032
  0
VERTEX
  5
2d0
  8
Layer_2
  10
122.40062
  20
181.54897
  0
VERTEX
  5
2d1
  8
Layer_2
  10
122.12105
  20
181.65659
  0
VERTEX
  5
2d2
  8
Layer_2
  10
121.83522
  20
181.73255
  0
VERTEX
  5
2d3
  8
Layer_2
  10
121.54462
  20
181.7762
  0
VERTEX
  5
2d4
  8
Layer_2
  10
121.25073
  20
181.78688
  0
VERTEX
  5
2d5
  8
Layer_2
  10
108.82764
  20
181.7869
  42
0.41421356
  0
VERTEX
  5
2d6
  8
Layer_2
  10
106.82764
  20
179.78693
  0
VERTEX
  5
2d7
  8
Layer_2
  10
106.82764
  20
130.26691
  42
0.41421356
  0
VERTEX
  5
2d8
  8
Layer_2
  10
108.82764
  20
128.26688
  0
VERTEX
  5
2d9
  8
Layer_2
  10
121.25073
  20
128.26688
  0
VERTEX
  5
2da
  8
Layer_2
  10
121.56543
  20
128.28418
  0
SEQEND
  0
POLYLINE
  5
2dc
  8
Layer_2
  62
6
  66
1
  10
0
  20
0
  30
0
  0
VERTEX
  5
2dc
  8
Layer_2
  10
81.260498
  20
164.76785
  0
VERTEX
  5
2dd
  8
Layer_2
  10
79.490509
  20
164.76785
  0
VERTEX
  5
2de
  8
Layer_2
  10
79.490509
  20
172.76785
  0
VERTEX
  5
2df
  8
Layer_2
  10
81.260498
  20
172.76785
  0
VERTEX
  5
2e0
  8
Layer_2
  10
81.260498
  20
164.76785
  0
SEQEND
  0
POLYLINE
  5
2e2
  8
Layer_2
  62
6
  66
1
  10
0
  20
0
  30
0
  0
VERTEX
  5
2e2
  8
Layer_2
  10
81.26049
  20
136.76785
  0
VERTEX
  5
2e3
  8
Layer_2
  10
79.490517
  20
136.76785
  0
VERTEX
  5
2e4
  8
Layer_2
  10
79.490517
  20
144.76785
  0
VERTEX
  5
2e5
  8
Layer_2
  10
81.26049
  20
144.76785
  0
VERTEX
  5
2e6
  8
Layer_2
  10
81.26049
  20
136.76785
  0
SEQEND
  0
POLYLINE
  5
2e8
  8
Layer_2
  62
6
  66
1
  10
0
  20
0
  30
0
  0
VERTEX
  5
2e8
  8
Layer_2
  10
129.16473
  20
164.76785
  0
VERTEX
  5
2e9
  8
Layer_2
  10
127.39474
  20
164.76785
  0
VERTEX
  5
2ea
  8
Layer_2
  10
127.39474
  20
172.76785
  0
VERTEX
  5
2eb
  8
Layer_2
  10
129.16473
  20
172.76785
  0
VERTEX
  5
2ec
  8
Layer_2
  10
129.16473
  20
164.76785
  0
SEQEND
  0
POLYLINE
  5
2ee
  8
Layer_2
  62
6
  66
1
  10
0
  20
0
  30
0
  0
VERTEX
  5
2ee
  8
Layer_2
  10
129.16473
  20
136.76785
  0
VERTEX
  5
2ef
  8
Layer_2
  10
127.39475
  20
136.76785
  0
VERTEX
  5
2f0
  8
Layer_2
  10
127.39475
  20
144.76785
  0
VERTEX
  5
2f1
  8
Layer_2
  10
129.16473
  20
144.76785
  0
VERTEX
  5
2f2
  8
Layer_2
  10
129.16473
  20
136.76785
  0
SEQEND
  0
POLYLINE
  5
2f4
  8
Layer_2
  62
6
  66
1
  10
0
  20
0
  30
0
  0
VERTEX
  5
2f4
  8
Layer_2
  10
174.32762
  20
122.26797
  0
VERTEX
  5
2f5
  8
Layer_2
  10
164.57126
  20
122.26797
  0
VERTEX
  5
2f6
  8
Layer_2
  10
164.57126
  20
124.03793
  0
VERTEX
  5
2f7
  8
Layer_2
  10
156.57126
  20
124.03792
  0
VERTEX
  5
2f8
  8
Layer_2
  10
156.57126
  20
122.26797
  0
VERTEX
  5
2f9
  8
Layer_2
  10
144.57126
  20
122.26797
  0
VERTEX
  5
2fa
  8
Layer_2
  10
144.57126
  20
124.03793
  0
VERTEX
  5
2fb
  8
Layer_2
  10
136.57126
  20
124.03792
  0
VERTEX
  5
2fc
  8
Layer_2
  10
136.57126
  20
122.26797
  0
VERTEX
  5
2fd
  8
Layer_2
  10
118.32793
  20
122.26797
  0
VERTEX
  5
2fe
  8
Layer_2
  10
118.32793
  20
124.03792
  0
VERTEX
  5
2ff
  8
Layer_2
  10
110.32793
  20
124.03793
  0
VERTEX
  5
300
  8
Layer_2
  10
110.32793
  20
122.26797
  0
VERTEX
  5
301
  8
Layer_2
  10
98.327934
  20
122.26797
  0
VERTEX
  5
302
  8
Layer_2
  10
98.327934
  20
124.03793
  0
VERTEX
  5
303
  8
Layer_2
  10
90.327934
  20
124.03793
  0
VERTEX
  5
304
  8
Layer_2
  10
90.327934
  20
122.26797
  0
VERTEX
  5
305
  8
Layer_2
  10
72.08461
  20
122.26797
  0
VERTEX
  5
306
  8
Layer_2
  10
72.08461
  20
124.03793
  0
VERTEX
  5
307
  8
Layer_2
  10
64.08461
  20
124.03794
  0
VERTEX
  5
308
  8
Layer_2
  10
64.08461
  20
122.26797
  0
VERTEX
  5
309
  8
Layer_2
  10
52.08461
  20
122.26797
  0
VERTEX
  5
30a
  8
Layer_2
  10
52.08461
  20
124.03793
  0
VERTEX
  5
30b
  8
Layer_2
  10
44.084606
  20
124.03792
  0
VERTEX
  5
30c
  8
Layer_2
  10
44.08461
  20
122.26797
  0
VERTEX
  5
30d
  8
Layer_2
  10
34.327621
  20
122.26797
  0
VERTEX
  5
30e
  8
Layer_2
  10
34.327591
  20
136.76785
  0
VERTEX
  5
30f
  8
Layer_2
  10
36.09758
  20
136.76785
  0
VERTEX
  5
310
  8
Layer_2
  10
36.09758
  20
144.76785
  0
VERTEX
  5
311
  8
Layer_2
  10
34.327591
  20
144.76785
  0
VERTEX
  5
312
  8
Layer_2
  10
34.327591
  20
164.76785
  0
VERTEX
  5
313
  8
Layer_2
  10
36.097595
  20
164.76785
  0
VERTEX
  5
314
  8
Layer_2
  10
36.097572
  20
172.76785
  0
VERTEX
  5
315
  8
Layer_2
  10
34.327621
  20
172.76785
  0
VERTEX
  5
316
  8
Layer_2
  10
34.327621
  20
187.26797
  0
VERTEX
  5
317
  8
Layer_2
  10
44.08461
  20
187.26791
  0
VERTEX
  5
318
  8
Layer_2
  10
44.08461
  20
185.49797
  0
VERTEX
  5
319
  8
Layer_2
  10
52.08461
  20
185.49796
  0
VERTEX
  5
31a
  8
Layer_2
  10
52.08461
  20
187.26791
  0
VERTEX
  5
31b
  8
Layer_2
  10
64.08461
  20
187.26791
  0
VERTEX
  5
31c
  8
Layer_2
  10
64.08461
  20
185.49797
  0
VERTEX
  5
31d
  8
Layer_2
  10
72.08461
  20
185.49797
  0
VERTEX
  5
31e
  8
Layer_2
  10
72.08461
  20
187.26793
  0
VERTEX
  5
31f
  8
Layer_2
  10
90.327934
  20
187.26791
  0
VERTEX
  5
320
  8
Layer_2
  10
90.327934
  20
185.49796
  0
VERTEX
  5
321
  8
Layer_2
  10
98.327934
  20
185.49796
  0
VERTEX
  5
322
  8
Layer_2
  10
98.327934
  20
187.26791
  0
VERTEX
  5
323
  8
Layer_2
  10
110.32793
  20
187.26791
  0
VERTEX
  5
324
  8
Layer_2
  10
110.32792
  20
185.49794
  0
VERTEX
  5
325
  8
Layer_2
  10
118.32793
  20
185.49797
  0
VERTEX
  5
326
  8
Layer_2
  10
118.32793
  20
187.26793
  0
VERTEX
  5
327
  8
Layer_2
  10
136.57126
  20
187.26791
  0
VERTEX
  5
328
  8
Layer_2
  10
136.57126
  20
185.49796
  0
VERTEX
  5
329
  8
Layer_2
  10
144.57126
  20
185.49796
  0
VERTEX
  5
32a
  8
Layer_2
  10
144.57126
  20
187.26791
  0
VERTEX
  5
32b
  8
Layer_2
  10
156.57126
  20
187.26791
  0
VERTEX
  5
32c
  8
Layer_2
  10
156.57126
  20
185.49796
  0
VERTEX
  5
32d
  8
Layer_2
  10
164.57126
  20
185.49796
  0
VERTEX
  5
32e
  8
Layer_2
  10
164.57126
  20
187.26793
  0
VERTEX
  5
32f
  8
Layer_2
  10
174.32762
  20
187.26797
  0
VERTEX
  5
330
  8
Layer_2
  10
174.32762
  20
172.76785
  0
VERTEX
  5
331
  8
Layer_2
  10
172.55762
  20
172.76785
  0
VERTEX
  5
332
  8
Layer_2
  10
172.55762
  20
164.76785
  0
VERTEX
  5
333
  8
Layer_2
  10
174.32761
  20
164.76785
  0
VERTEX
  5
334
  8
Layer_2
  10
174.32761
  20
144.76785
  0
VERTEX
  5
335
  8
Layer_2
  10
172.55762
  20
144.76785
  0
VERTEX
  5
336
  8
Layer_2
  10
172.55762
  20
136.76785
  0
VERTEX
  5
337
  8
Layer_2
  10
174.32761
  20
136.76785
  0
VERTEX
  5
338
  8
Layer_2
  10
174.32762
  20
122.26797
  0
SEQEND
  0
POLYLINE
  5
33a
  8
Layer_2
  62
6
  66
1
  10
0
  20
0
  30
0
  0
VERTEX
  5
33a
  8
Layer_2
  10
38.509109
  20
126.4637
  0
VERTEX
  5
33b
  8
Layer_2
  10
38.509109
  20
128.8636
  0
VERTEX
  5
33c
  8
Layer_2
  10
40.909191
  20
128.8636
  0
VERTEX
  5
33d
  8
Layer_2
  10
40.909191
  20
126.4637
  0
VERTEX
  5
33e
  8
Layer_2
  10
38.509109
  20
126.4637
  0
SEQEND
  0
POLYLINE
  5
340
  8
Layer_2
  62
6
  66
1
  10
0
  20
0
  30
0
  0
VERTEX
  5
340
  8
Layer_2
  10
38.509109
  20
143.10992
  0
VERTEX
  5
341
  8
Layer_2
  10
38.509109
  20
145.50983
  0
VERTEX
  5
342
  8
Layer_2
  10
40.909191
  20
145.50983
  0
VERTEX
  5
343
  8
Layer_2
  10
40.909191
  20
143.10992
  0
VERTEX
  5
344
  8
Layer_2
  10
38.509109
  20
143.10992
  0
SEQEND
  0
POLYLINE
  5
346
  8
Layer_2
  62
6
  66
1
  10
0
  20
0
  30
0
  0
VERTEX
  5
346
  8
Layer_2
  10
38.509129
  20
180.65161
  0
VERTEX
  5
347
  8
Layer_2
  10
38.509129
  20
183.05151
  0
VERTEX
  5
348
  8
Layer_2
  10
40.909073
  20
183.05151
  0
VERTEX
  5
349
  8
Layer_2
  10
40.909073
  20
180.65161
  0
VERTEX
  5
34a
  8
Layer_2
  10
38.509129
  20
180.65161
  0
SEQEND
  0
POLYLINE
  5
34c
  8
Layer_2
  62
6
  66
1
  10
0
  20
0
  30
0
  0
VERTEX
  5
34c
  8
Layer_2
  10
170.14542
  20
180.65161
  0
VERTEX
  5
34d
  8
Layer_2
  10
170.14542
  20
183.05151
  0
VERTEX
  5
34e
  8
Layer_2
  10
167.74548
  20
183.05151
  0
VERTEX
  5
34f
  8
Layer_2
  10
167.74548
  20
180.65161
  0
VERTEX
  5
350
  8
Layer_2
  10
170.14542
  20
180.65161
  0
SEQEND
  0
POLYLINE
  5
352
  8
Layer_2
  62
6
  66
1
  10
0
  20
0
  30
0
  0
VERTEX
  5
352
  8
Layer_2
  10
170.14545
  20
143.10992
  0
VERTEX
  5
353
  8
Layer_2
  10
170.14545
  20
145.50983
  0
VERTEX
  5
354
  8
Layer_2
  10
167.74536
  20
145.50983
  0
VERTEX
  5
355
  8
Layer_2
  10
167.74536
  20
143.10992
  0
VERTEX
  5
356
  8
Layer_2
  10
170.14545
  20
143.10992
  0
SEQEND
  0
POLYLINE
  5
358
  8
Layer_2
  62
6
  66
1
  10
0
  20
0
  30
0
  0
VERTEX
  5
358
  8
Layer_2
  10
170.14545
  20
126.4637
  0
VERTEX
  5
359
  8
Layer_2
  10
170.14545
  20
128.8636
  0
VERTEX
  5
35a
  8
Layer_2
  10
167.74536
  20
128.8636
  0
VERTEX
  5
35b
  8
Layer_2
  10
167.74536
  20
126.4637
  0
VERTEX
  5
35c
  8
Layer_2
  10
170.14545
  20
126.4637
  0
SEQEND
  0
POLYLINE
  5
35e
  8
Layer_2
  62
6
  66
1
  10
0
  20
0
  30
0
  0
VERTEX
  5
35e
  8
Layer_2
  10
131.56465
  20
126.4637
  0
VERTEX
  5
35f
  8
Layer_2
  10
131.56465
  20
128.8636
  0
VERTEX
  5
360
  8
Layer_2
  10
129.16492
  20
128.8636
  0
VERTEX
  5
361
  8
Layer_2
  10
129.16492
  20
126.4637
  0
VERTEX
  5
362
  8
Layer_2
  10
131.56465
  20
126.4637
  0
SEQEND
  0
POLYLINE
  5
364
  8
Layer_2
  62
6
  66
1
  10
0
  20
0
  30
0
  0
VERTEX
  5
364
  8
Layer_2
  10
77.090744
  20
126.4637
  0
VERTEX
  5
365
  8
Layer_2
  10
77.090744
  20
128.8636
  0
VERTEX
  5
366
  8
Layer_2
  10
79.490479
  20
128.8636
  0
VERTEX
  5
367
  8
Layer_2
  10
79.490479
  20
126.4637
  0
VERTEX
  5
368
  8
Layer_2
  10
77.090744
  20
126.4637
  0
SEQEND
  0
POLYLINE
  5
36a
  8
Layer_2
  62
6
  66
1
  10
0
  20
0
  30
0
  0
VERTEX
  5
36a
  8
Layer_2
  10
77.090736
  20
180.65161
  0
VERTEX
  5
36b
  8
Layer_2
  10
77.090736
  20
183.05151
  0
VERTEX
  5
36c
  8
Layer_2
  10
79.490677
  20
183.05151
  0
VERTEX
  5
36d
  8
Layer_2
  10
79.490677
  20
180.65161
  0
VERTEX
  5
36e
  8
Layer_2
  10
77.090736
  20
180.65161
  0
SEQEND
  0
POLYLINE
  5
370
  8
Layer_2
  62
6
  66
1
  10
0
  20
0
  30
0
  0
VERTEX
  5
370
  8
Layer_2
  10
131.56467
  20
180.65161
  0
VERTEX
  5
371
  8
Layer_2
  10
131.56467
  20
183.05151
  0
VERTEX
  5
372
  8
Layer_2
  10
129.16472
  20
183.05151
  0
VERTEX
  5
373
  8
Layer_2
  10
129.16472
  20
180.65161
  0
VERTEX
  5
374
  8
Layer_2
  10
131.56467
  20
180.65161
  0
SEQEND
  0
POLYLINE
  5
376
  8
Layer_2
  62
6
  66
1
  10
0
  20
0
  30
0
  0
VERTEX
  5
376
  8
Layer_2
  10
290.55432
  20
42.23291
  0
VERTEX
  5
377
  8
Layer_2
  10
288.78436
  20
42.23291
  0
VERTEX
  5
378
  8
Layer_2
  10
288.78436
  20
61.23291
  0
VERTEX
  5
379
  8
Layer_2
  10
290.55435
  20
61.23291
  0
VERTEX
  5
37a
  8
Layer_2
  10
290.55435
  20
66.23291
  0
VERTEX
  5
37b
  8
Layer_2
  10
288.78436
  20
66.23291
  0
VERTEX
  5
37c
  8
Layer_2
  10
288.78436
  20
85.23291
  0
VERTEX
  5
37d
  8
Layer_2
  10
290.55435
  20
85.23291
  0
VERTEX
  5
37e
  8
Layer_2
  10
290.55435
  20
90.23291
  0
VERTEX
  5
37f
  8
Layer_2
  10
288.78436
  20
90.23291
  0
VERTEX
  5
380
  8
Layer_2
  10
288.78436
  20
92.462952
  0
VERTEX
  5
381
  8
Layer_2
  10
286.78436
  20
92.462952
  0
VERTEX
  5
382
  8
Layer_2
  10
286.78436
  20
33.00293
  0
VERTEX
  5
383
  8
Layer_2
  10
288.78436
  20
33.002991
  0
VERTEX
  5
384
  8
Layer_2
  10
288.78436
  20
37.23291
  0
VERTEX
  5
385
  8
Layer_2
  10
290.55432
  20
37.23291
  0
VERTEX
  5
386
  8
Layer_2
  10
290.55432
  20
42.23291
  0
SEQEND
  0
POLYLINE
  5
388
  8
Layer_2
  62
6
  66
1
  10
0
  20
0
  30
0
  0
VERTEX
  5
388
  8
Layer_2
  10
290.55438
  20
142.69299
  0
VERTEX
  5
389
  8
Layer_2
  10
288.78442
  20
142.69299
  0
VERTEX
  5
38a
  8
Layer_2
  10
288.78439
  20
123.69299
  0
VERTEX
  5
38b
  8
Layer_2
  10
290.55438
  20
123.69299
  0
VERTEX
  5
38c
  8
Layer_2
  10
290.55438
  20
118.69299
  0
VERTEX
  5
38d
  8
Layer_2
  10
288.78439
  20
118.69299
  0
VERTEX
  5
38e
  8
Layer_2
  10
288.78436
  20
99.692993
  0
VERTEX
  5
38f
  8
Layer_2
  10
290.55435
  20
99.692993
  0
VERTEX
  5
390
  8
Layer_2
  10
290.55435
  20
94.692993
  0
VERTEX
  5
391
  8
Layer_2
  10
288.78436
  20
94.692993
  0
VERTEX
  5
392
  8
Layer_2
  10
288.78436
  20
92.462952
  0
VERTEX
  5
393
  8
Layer_2
  10
286.78436
  20
92.462952
  0
VERTEX
  5
394
  8
Layer_2
  10
286.78442
  20
151.92297
  0
VERTEX
  5
395
  8
Layer_2
  10
288.78442
  20
151.92291
  0
VERTEX
  5
396
  8
Layer_2
  10
288.78442
  20
147.69299
  0
VERTEX
  5
397
  8
Layer_2
  10
290.55438
  20
147.69299
  0
VERTEX
  5
398
  8
Layer_2
  10
290.55438
  20
142.69299
  0
SEQEND
  0
POLYLINE
  5
39a
  8
Layer_2
  62
6
  66
1
  10
0
  20
0
  30
0
  0
VERTEX
  5
39a
  8
Layer_2
  10
256.85001
  20
39.150002
  0
VERTEX
  5
39b
  8
Layer_2
  10
253.14999
  20
39.150002
  0
VERTEX
  5
39c
  8
Layer_2
  10
253.14999
  20
42.850006
  0
VERTEX
  5
39d
  8
Layer_2
  10
256.85001
  20
42.850006
  0
VERTEX
  5
39e
  8
Layer_2
  10
256.85001
  20
39.150002
  0
SEQEND
  0
POLYLINE
  5
3a0
  8
Layer_2
  62
6
  66
1
  10
0
  20
0
  30
0
  0
VERTEX
  5
3a0
  8
Layer_2
  10
285.04553
  20
21.934448
  0
VERTEX
  5
3a1
  8
Layer_2
  10
285.04556
  20
47.904419
  0
VERTEX
  5
3a2
  8
Layer_2
  10
286.78433
  20
47.904419
  0
VERTEX
  5
3a3
  8
Layer_2
  10
286.78433
  20
53.226685
  0
VERTEX
  5
3a4
  8
Layer_2
  10
285.04556
  20
53.226685
  0
VERTEX
  5
3a5
  8
Layer_2
  10
285.04556
  20
79.196655
  0
VERTEX
  5
3a6
  8
Layer_2
  10
286.78433
  20
79.196655
  0
VERTEX
  5
3a7
  8
Layer_2
  10
286.78433
  20
84.518921
  0
VERTEX
  5
3a8
  8
Layer_2
  10
285.04556
  20
84.518921
  0
VERTEX
  5
3a9
  8
Layer_2
  10
285.04559
  20
110.48865
  0
VERTEX
  5
3aa
  8
Layer_2
  10
286.78436
  20
110.48865
  0
VERTEX
  5
3ab
  8
Layer_2
  10
286.78436
  20
115.81091
  0
VERTEX
  5
3ac
  8
Layer_2
  10
285.04559
  20
115.81091
  0
VERTEX
  5
3ad
  8
Layer_2
  10
285.04559
  20
141.78088
  0
VERTEX
  5
3ae
  8
Layer_2
  10
286.78436
  20
141.78088
  0
VERTEX
  5
3af
  8
Layer_2
  10
286.78436
  20
147.10315
  0
VERTEX
  5
3b0
  8
Layer_2
  10
285.04559
  20
147.10315
  0
VERTEX
  5
3b1
  8
Layer_2
  10
285.04559
  20
150.14148
  0
VERTEX
  5
3b2
  8
Layer_2
  10
283.27557
  20
150.14148
  0
VERTEX
  5
3b3
  8
Layer_2
  10
283.27551
  20
13.704224
  0
VERTEX
  5
3b4
  8
Layer_2
  10
285.04553
  20
13.704224
  0
VERTEX
  5
3b5
  8
Layer_2
  10
285.04553
  20
16.612183
  0
VERTEX
  5
3b6
  8
Layer_2
  10
286.7843
  20
16.612183
  0
VERTEX
  5
3b7
  8
Layer_2
  10
286.7843
  20
21.934448
  0
VERTEX
  5
3b8
  8
Layer_2
  10
285.04553
  20
21.934448
  0
SEQEND
  0
POLYLINE
  5
3ba
  8
Layer_2
  62
6
  66
1
  10
0
  20
0
  30
0
  0
VERTEX
  5
3ba
  8
Layer_2
  10
280.31
  20
150.15291
  0
VERTEX
  5
3bb
  8
Layer_2
  10
283.27557
  20
150.15291
  0
VERTEX
  5
3bc
  8
Layer_2
  10
283.27548
  20
13.692894
  0
VERTEX
  5
3bd
  8
Layer_2
  10
280.30991
  20
13.692894
  0
VERTEX
  5
3be
  8
Layer_2
  10
280.30994
  20
11.92289
  0
VERTEX
  5
3bf
  8
Layer_2
  10
278.30994
  20
11.92289
  0
VERTEX
  5
3c0
  8
Layer_2
  10
278.30994
  20
13.692894
  0
VERTEX
  5
3c1
  8
Layer_2
  10
275.34433
  20
13.692894
  0
VERTEX
  5
3c2
  8
Layer_2
  10
275.34445
  20
150.15291
  0
VERTEX
  5
3c3
  8
Layer_2
  10
278.31003
  20
150.15291
  0
VERTEX
  5
3c4
  8
Layer_2
  10
278.31
  20
151.9229
  0
VERTEX
  5
3c5
  8
Layer_2
  10
280.31
  20
151.9229
  0
VERTEX
  5
3c6
  8
Layer_2
  10
280.31
  20
150.15291
  0
SEQEND
  0
POLYLINE
  5
3c8
  8
Layer_2
  62
6
  66
1
  10
0
  20
0
  30
0
  0
VERTEX
  5
3c8
  8
Layer_2
  10
231.92987
  20
151.92297
  0
VERTEX
  5
3c9
  8
Layer_2
  10
231.92987
  20
150.15295
  0
VERTEX
  5
3ca
  8
Layer_2
  10
214.77704
  20
150.15295
  0
VERTEX
  5
3cb
  8
Layer_2
  10
214.77704
  20
151.92297
  0
VERTEX
  5
3cc
  8
Layer_2
  10
207.46625
  20
151.92297
  0
VERTEX
  5
3cd
  8
Layer_2
  10
207.46625
  20
150.15295
  0
VERTEX
  5
3ce
  8
Layer_2
  10
202.46625
  20
150.15295
  0
VERTEX
  5
3cf
  8
Layer_2
  10
202.46625
  20
151.92297
  0
VERTEX
  5
3d0
  8
Layer_2
  10
199.20966
  20
151.92297
  0
VERTEX
  5
3d1
  8
Layer_2
  10
199.20959
  20
11.922974
  0
VERTEX
  5
3d2
  8
Layer_2
  10
202.46619
  20
11.922974
  0
VERTEX
  5
3d3
  8
Layer_2
  10
202.46619
  20
13.692993
  0
VERTEX
  5
3d4
  8
Layer_2
  10
207.46619
  20
13.692993
  0
VERTEX
  5
3d5
  8
Layer_2
  10
207.46619
  20
11.922729
  0
VERTEX
  5
3d6
  8
Layer_2
  10
214.77698
  20
11.922974
  0
VERTEX
  5
3d7
  8
Layer_2
  10
214.77698
  20
13.692993
  0
VERTEX
  5
3d8
  8
Layer_2
  10
231.92981
  20
13.692978
  0
VERTEX
  5
3d9
  8
Layer_2
  10
231.92981
  20
11.922958
  0
VERTEX
  5
3da
  8
Layer_2
  10
235.34436
  20
11.922958
  0
VERTEX
  5
3db
  8
Layer_2
  10
235.34442
  20
151.92297
  0
VERTEX
  5
3dc
  8
Layer_2
  10
231.92987
  20
151.92297
  0
SEQEND
  0
POLYLINE
  5
3de
  8
Layer_2
  62
6
  66
1
  10
0
  20
0
  30
0
  0
VERTEX
  5
3de
  8
Layer_2
  10
207.45328
  20
81.667358
  0
VERTEX
  5
3df
  8
Layer_2
  10
207.41544
  20
81.419067
  42
-0.19874779
  0
VERTEX
  5
3e0
  8
Layer_2
  10
206.34174
  20
79.834625
  42
-0.19899595
  0
VERTEX
  5
3e1
  8
Layer_2
  10
204.46231
  20
79.473755
  42
-0.38486313
  0
VERTEX
  5
3e2
  8
Layer_2
  10
202.47916
  20
82.178589
  42
-0.41393402
  0
VERTEX
  5
3e3
  8
Layer_2
  10
205.22183
  20
84.410034
  42
-0.38393648
  0
VERTEX
  5
3e4
  8
Layer_2
  10
207.46622
  20
81.922974
  0
VERTEX
  5
3e5
  8
Layer_2
  10
207.45328
  20
81.667358
  0
SEQEND
  0
POLYLINE
  5
3e7
  8
Layer_2
  62
6
  66
1
  10
0
  20
0
  30
0
  0
VERTEX
  5
3e7
  8
Layer_2
  10
222.0932
  20
141.85535
  0
VERTEX
  5
3e8
  8
Layer_2
  10
220.32318
  20
141.85535
  0
VERTEX
  5
3e9
  8
Layer_2
  10
220.32318
  20
147.17761
  0
VERTEX
  5
3ea
  8
Layer_2
  10
222.0932
  20
147.17761
  0
VERTEX
  5
3eb
  8
Layer_2
  10
222.0932
  20
141.85535
  0
SEQEND
  0
POLYLINE
  5
3ed
  8
Layer_2
  62
6
  66
1
  10
0
  20
0
  30
0
  0
VERTEX
  5
3ed
  8
Layer_2
  10
222.0932
  20
110.56311
  0
VERTEX
  5
3ee
  8
Layer_2
  10
220.32318
  20
110.56311
  0
VERTEX
  5
3ef
  8
Layer_2
  10
220.32318
  20
115.88538
  0
VERTEX
  5
3f0
  8
Layer_2
  10
222.0932
  20
115.88538
  0
VERTEX
  5
3f1
  8
Layer_2
  10
222.0932
  20
110.56311
  0
SEQEND
  0
POLYLINE
  5
3f3
  8
Layer_2
  62
6
  66
1
  10
0
  20
0
  30
0
  0
VERTEX
  5
3f3
  8
Layer_2
  10
222.09317
  20
79.271118
  0
VERTEX
  5
3f4
  8
Layer_2
  10
220.32315
  20
79.271118
  0
VERTEX
  5
3f5
  8
Layer_2
  10
220.32315
  20
84.593384
  0
VERTEX
  5
3f6
  8
Layer_2
  10
222.09317
  20
84.593384
  0
VERTEX
  5
3f7
  8
Layer_2
  10
222.09317
  20
79.271118
  0
SEQEND
  0
POLYLINE
  5
3f9
  8
Layer_2
  62
6
  66
1
  10
0
  20
0
  30
0
  0
VERTEX
  5
3f9
  8
Layer_2
  10
222.09317
  20
47.978882
  0
VERTEX
  5
3fa
  8
Layer_2
  10
220.32315
  20
47.978882
  0
VERTEX
  5
3fb
  8
Layer_2
  10
220.32315
  20
53.301147
  0
VERTEX
  5
3fc
  8
Layer_2
  10
222.09317
  20
53.301147
  0
VERTEX
  5
3fd
  8
Layer_2
  10
222.09317
  20
47.978882
  0
SEQEND
  0
POLYLINE
  5
3ff
  8
Layer_2
  62
6
  66
1
  10
0
  20
0
  30
0
  0
VERTEX
  5
3ff
  8
Layer_2
  10
222.09314
  20
16.686646
  0
VERTEX
  5
400
  8
Layer_2
  10
220.32312
  20
16.686646
  0
VERTEX
  5
401
  8
Layer_2
  10
220.32312
  20
22.008911
  0
VERTEX
  5
402
  8
Layer_2
  10
222.09314
  20
22.008911
  0
VERTEX
  5
403
  8
Layer_2
  10
222.09314
  20
16.686646
  0
SEQEND
  0
POLYLINE
  5
405
  8
Layer_2
  62
6
  66
1
  10
0
  20
0
  30
0
  0
VERTEX
  5
405
  8
Layer_2
  10
245.7444
  20
98.023346
  0
VERTEX
  5
406
  8
Layer_2
  10
245.7444
  20
98.023346
  0
VERTEX
  5
407
  8
Layer_2
  10
245.7444
  20
98.023346
  0
VERTEX
  5
408
  8
Layer_2
  10
245.7444
  20
98.023346
  0
VERTEX
  5
409
  8
Layer_2
  10
245.7444
  20
98.023346
  0
SEQEND
  0
POLYLINE
  5
40b
  8
Layer_2
  62
6
  66
1
  10
0
  20
0
  30
0
  0
VERTEX
  5
40b
  8
Layer_2
  10
247
  20
48
  42
-0.41421356
  0
VERTEX
  5
40c
  8
Layer_2
  10
248
  20
49
  0
VERTEX
  5
40d
  8
Layer_2
  10
262
  20
49
  42
-0.41421356
  0
VERTEX
  5
40e
  8
Layer_2
  10
263
  20
48
  0
VERTEX
  5
40f
  8
Layer_2
  10
263
  20
34
  42
-0.41421356
  0
VERTEX
  5
410
  8
Layer_2
  10
262
  20
33
  0
VERTEX
  5
411
  8
Layer_2
  10
248
  20
33
  42
-0.41421356
  0
VERTEX
  5
412
  8
Layer_2
  10
247
  20
34
  0
VERTEX
  5
413
  8
Layer_2
  10
247
  20
48
  0
SEQEND
  0
POLYLINE
  5
415
  8
Layer_2
  62
6
  66
1
  10
0
  20
0
  30
0
  0
VERTEX
  5
415
  8
Layer_2
  10
247
  20
66
  42
-0.41421356
  0
VERTEX
  5
416
  8
Layer_2
  10
248
  20
67
  0
VERTEX
  5
417
  8
Layer_2
  10
262
  20
67
  42
-0.41421356
  0
VERTEX
  5
418
  8
Layer_2
  10
263
  20
66
  0
VERTEX
  5
419
  8
Layer_2
  10
263
  20
52
  42
-0.41421356
  0
VERTEX
  5
41a
  8
Layer_2
  10
262
  20
51
  0
VERTEX
  5
41b
  8
Layer_2
  10
248
  20
51
  42
-0.41421356
  0
VERTEX
  5
41c
  8
Layer_2
  10
247
  20
52
  0
VERTEX
  5
41d
  8
Layer_2
  10
247
  20
66
  0
SEQEND
  0
POLYLINE
  5
41f
  8
Layer_2
  62
6
  66
1
  10
0
  20
0
  30
0
  0
VERTEX
  5
41f
  8
Layer_2
  10
25
  20
177.99998
  42
-0.41421356
  0
VERTEX
  5
420
  8
Layer_2
  10
23
  20
179.99998
  0
VERTEX
  5
421
  8
Layer_2
  10
23
  20
185.99995
  42
-0.41421356
  0
VERTEX
  5
422
  8
Layer_2
  10
25
  20
187.99995
  0
VERTEX
  5
423
  8
Layer_2
  10
31
  20
187.99995
  42
-0.41421356
  0
VERTEX
  5
424
  8
Layer_2
  10
33
  20
185.99995
  0
VERTEX
  5
425
  8
Layer_2
  10
33
  20
179.99998
  42
-0.41421356
  0
VERTEX
  5
426
  8
Layer_2
  10
31
  20
177.99998
  0
VERTEX
  5
427
  8
Layer_2
  10
25
  20
177.99998
  0
SEQEND
  0
POLYLINE
  5
429
  8
Layer_2
  62
6
  66
1
  10
0
  20
0
  30
0
  0
VERTEX
  5
429
  8
Layer_2
  10
25
  20
168.00003
  42
-0.41421356
  0
VERTEX
  5
42a
  8
Layer_2
  10
23
  20
170.00003
  0
VERTEX
  5
42b
  8
Layer_2
  10
23
  20
176
  42
-0.41421356
  0
VERTEX
  5
42c
  8
Layer_2
  10
25
  20
178
  0
VERTEX
  5
42d
  8
Layer_2
  10
31
  20
178
  42
-0.41421356
  0
VERTEX
  5
42e
  8
Layer_2
  10
33
  20
176
  0
VERTEX
  5
42f
  8
Layer_2
  10
33
  20
170.00003
  42
-0.41421356
  0
VERTEX
  5
430
  8
Layer_2
  10
31
  20
168.00003
  0
VERTEX
  5
431
  8
Layer_2
  10
25
  20
168.00003
  0
SEQEND
  0
POLYLINE
  5
433
  8
Layer_2
  62
6
  66
1
  10
0
  20
0
  30
0
  0
VERTEX
  5
433
  8
Layer_2
  10
20
  20
178.00002
  42
-0.41421356
  0
VERTEX
  5
434
  8
Layer_2
  10
22
  20
176.00002
  0
VERTEX
  5
435
  8
Layer_2
  10
22
  20
170.00005
  42
-0.41421356
  0
VERTEX
  5
436
  8
Layer_2
  10
20
  20
168.00005
  0
VERTEX
  5
437
  8
Layer_2
  10
14.000001
  20
168.00005
  42
-0.41421356
  0
VERTEX
  5
438
  8
Layer_2
  10
12
  20
170.00005
  0
VERTEX
  5
439
  8
Layer_2
  10
12
  20
176.00002
  42
-0.41421356
  0
VERTEX
  5
43a
  8
Layer_2
  10
13.999999
  20
178.00002
  0
VERTEX
  5
43b
  8
Layer_2
  10
20
  20
178.00002
  0
SEQEND
  0
CIRCLE
  5
43d
  8
Layer_2
  62
6
  10
17
  20
173.00003
  30
0
  40
1.55
  0
POLYLINE
  5
43d
  8
Layer_2
  62
6
  66
1
  10
0
  20
0
  30
0
  0
VERTEX
  5
43d
  8
Layer_2
  10
20
  20
187.99995
  42
-0.41421356
  0
VERTEX
  5
43e
  8
Layer_2
  10
22
  20
185.99995
  0
VERTEX
  5
43f
  8
Layer_2
  10
22
  20
179.99998
  42
-0.41421356
  0
VERTEX
  5
440
  8
Layer_2
  10
20
  20
177.99998
  0
VERTEX
  5
441
  8
Layer_2
  10
14.000001
  20
177.99998
  42
-0.41421356
  0
VERTEX
  5
442
  8
Layer_2
  10
12
  20
179.99998
  0
VERTEX
  5
443
  8
Layer_2
  10
12
  20
185.99995
  42
-0.41421356
  0
VERTEX
  5
444
  8
Layer_2
  10
13.999999
  20
187.99995
  0
VERTEX
  5
445
  8
Layer_2
  10
20
  20
187.99995
  0
SEQEND
  0
CIRCLE
  5
447
  8
Layer_2
  62
6
  10
17
  20
182.99997
  30
0
  40
1.55
  0
POLYLINE
  5
447
  8
Layer_2
  62
6
  66
1
  10
0
  20
0
  30
0
  0
VERTEX
  5
447
  8
Layer_2
  10
68.309631
  20
133.33282
  0
VERTEX
  5
448
  8
Layer_2
  10
61.375549
  20
133.33282
  0
VERTEX
  5
449
  8
Layer_2
  10
61.375549
  20
130.94537
  0
VERTEX
  5
44a
  8
Layer_2
  10
59.60553
  20
130.94537
  0
VERTEX
  5
44b
  8
Layer_2
  10
59.60553
  20
133.33282
  0
VERTEX
  5
44c
  8
Layer_2
  10
58.791565
  20
133.33282
  0
VERTEX
  5
44d
  8
Layer_2
  10
58.791565
  20
158.53302
  0
VERTEX
  5
44e
  8
Layer_2
  10
59.60553
  20
158.53302
  0
VERTEX
  5
44f
  8
Layer_2
  10
59.60553
  20
160.90021
  0
VERTEX
  5
450
  8
Layer_2
  10
61.375549
  20
160.90021
  0
VERTEX
  5
451
  8
Layer_2
  10
61.375549
  20
158.53302
  0
VERTEX
  5
452
  8
Layer_2
  10
68.309631
  20
158.53302
  0
VERTEX
  5
453
  8
Layer_2
  10
68.309631
  20
160.90021
  0
VERTEX
  5
454
  8
Layer_2
  10
70.079651
  20
160.90021
  0
VERTEX
  5
455
  8
Layer_2
  10
70.079651
  20
158.53302
  0
VERTEX
  5
456
  8
Layer_2
  10
71.547913
  20
158.53302
  0
VERTEX
  5
457
  8
Layer_2
  10
71.547913
  20
133.33282
  0
VERTEX
  5
458
  8
Layer_2
  10
70.079651
  20
133.33282
  0
VERTEX
  5
459
  8
Layer_2
  10
70.079651
  20
130.94537
  0
VERTEX
  5
45a
  8
Layer_2
  10
68.309631
  20
130.94537
  0
VERTEX
  5
45b
  8
Layer_2
  10
68.309631
  20
133.33282
  0
SEQEND
  0
POLYLINE
  5
45d
  8
Layer_2
  62
6
  66
1
  10
0
  20
0
  30
0
  0
VERTEX
  5
45d
  8
Layer_2
  10
65.511269
  20
150.92621
  0
VERTEX
  5
45e
  8
Layer_2
  10
65.257362
  20
150.90692
  42
0.39951007
  0
VERTEX
  5
45f
  8
Layer_2
  10
60.775185
  20
145.67548
  42
0.19902447
  0
VERTEX
  5
460
  8
Layer_2
  10
62.419296
  20
142.21957
  42
0.19901246
  0
VERTEX
  5
461
  8
Layer_2
  10
66.025917
  20
140.93939
  42
0.39938156
  0
VERTEX
  5
462
  8
Layer_2
  10
70.768593
  20
145.9328
  42
0.39938413
  0
VERTEX
  5
463
  8
Layer_2
  10
66.025925
  20
150.92621
  42
0.025916584
  0
VERTEX
  5
464
  8
Layer_2
  10
65.511269
  20
150.92621
  0
SEQEND
  0
POLYLINE
  5
466
  8
Layer_2
  62
6
  66
1
  10
0
  20
0
  30
0
  0
VERTEX
  5
466
  8
Layer_2
  10
52.071861
  20
150.92621
  0
VERTEX
  5
467
  8
Layer_2
  10
52.325768
  20
150.90692
  42
-0.39951007
  0
VERTEX
  5
468
  8
Layer_2
  10
56.807945
  20
145.67548
  42
-0.19902447
  0
VERTEX
  5
469
  8
Layer_2
  10
55.163834
  20
142.21957
  42
-0.19901246
  0
VERTEX
  5
46a
  8
Layer_2
  10
51.557213
  20
140.93939
  42
-0.39938156
  0
VERTEX
  5
46b
  8
Layer_2
  10
46.814537
  20
145.9328
  42
-0.39938413
  0
VERTEX
  5
46c
  8
Layer_2
  10
51.557205
  20
150.92621
  42
-0.025916584
  0
VERTEX
  5
46d
  8
Layer_2
  10
52.071861
  20
150.92621
  0
SEQEND
  0
POLYLINE
  5
46f
  8
Layer_2
  62
6
  66
1
  10
0
  20
0
  30
0
  0
VERTEX
  5
46f
  8
Layer_2
  10
49.273499
  20
133.33282
  0
VERTEX
  5
470
  8
Layer_2
  10
56.207581
  20
133.33282
  0
VERTEX
  5
471
  8
Layer_2
  10
56.207581
  20
130.94537
  0
VERTEX
  5
472
  8
Layer_2
  10
57.9776
  20
130.94537
  0
VERTEX
  5
473
  8
Layer_2
  10
57.9776
  20
133.33282
  0
VERTEX
  5
474
  8
Layer_2
  10
58.791565
  20
133.33282
  0
VERTEX
  5
475
  8
Layer_2
  10
58.791565
  20
158.53302
  0
VERTEX
  5
476
  8
Layer_2
  10
57.9776
  20
158.53302
  0
VERTEX
  5
477
  8
Layer_2
  10
57.9776
  20
160.90021
  0
VERTEX
  5
478
  8
Layer_2
  10
56.207581
  20
160.90021
  0
VERTEX
  5
479
  8
Layer_2
  10
56.207581
  20
158.53302
  0
VERTEX
  5
47a
  8
Layer_2
  10
49.273499
  20
158.53302
  0
VERTEX
  5
47b
  8
Layer_2
  10
49.273499
  20
160.90021
  0
VERTEX
  5
47c
  8
Layer_2
  10
47.503479
  20
160.90021
  0
VERTEX
  5
47d
  8
Layer_2
  10
47.503479
  20
158.53302
  0
VERTEX
  5
47e
  8
Layer_2
  10
46.035217
  20
158.53302
  0
VERTEX
  5
47f
  8
Layer_2
  10
46.035217
  20
133.33282
  0
VERTEX
  5
480
  8
Layer_2
  10
47.503479
  20
133.33282
  0
VERTEX
  5
481
  8
Layer_2
  10
47.503479
  20
130.94537
  0
VERTEX
  5
482
  8
Layer_2
  10
49.273499
  20
130.94537
  0
VERTEX
  5
483
  8
Layer_2
  10
49.273499
  20
133.33282
  0
SEQEND
  0
POLYLINE
  5
485
  8
Layer_2
  62
6
  66
1
  10
0
  20
0
  30
0
  0
VERTEX
  5
485
  8
Layer_2
  10
54.801453
  20
161.36461
  0
VERTEX
  5
486
  8
Layer_2
  10
58.785828
  20
161.36461
  0
VERTEX
  5
487
  8
Layer_2
  10
58.785828
  20
180.86461
  0
VERTEX
  5
488
  8
Layer_2
  10
54.801453
  20
180.86461
  0
VERTEX
  5
489
  8
Layer_2
  10
54.801453
  20
183.24571
  0
VERTEX
  5
48a
  8
Layer_2
  10
50.801453
  20
183.24571
  0
VERTEX
  5
48b
  8
Layer_2
  10
50.801453
  20
180.86461
  0
VERTEX
  5
48c
  8
Layer_2
  10
46.785828
  20
180.86461
  0
VERTEX
  5
48d
  8
Layer_2
  10
46.785828
  20
161.36461
  0
VERTEX
  5
48e
  8
Layer_2
  10
50.801453
  20
161.36461
  0
VERTEX
  5
48f
  8
Layer_2
  10
50.801453
  20
158.97765
  0
VERTEX
  5
490
  8
Layer_2
  10
54.801453
  20
158.97765
  0
VERTEX
  5
491
  8
Layer_2
  10
54.801453
  20
161.36461
  0
SEQEND
  0
POLYLINE
  5
493
  8
Layer_2
  62
6
  66
1
  10
0
  20
0
  30
0
  0
VERTEX
  5
493
  8
Layer_2
  10
50.801453
  20
177.48399
  0
VERTEX
  5
494
  8
Layer_2
  10
50.801453
  20
179.25401
  0
VERTEX
  5
495
  8
Layer_2
  10
54.801453
  20
179.25401
  0
VERTEX
  5
496
  8
Layer_2
  10
54.801453
  20
177.48399
  0
VERTEX
  5
497
  8
Layer_2
  10
50.801453
  20
177.48399
  0
SEQEND
  0
POLYLINE
  5
499
  8
Layer_2
  62
6
  66
1
  10
0
  20
0
  30
0
  0
VERTEX
  5
499
  8
Layer_2
  10
52.531189
  20
166.11852
  0
VERTEX
  5
49a
  8
Layer_2
  10
52.039734
  20
166.16783
  42
-0.39938168
  0
VERTEX
  5
49b
  8
Layer_2
  10
47.812439
  20
171.60509
  42
-0.40071309
  0
VERTEX
  5
49c
  8
Layer_2
  10
53.045837
  20
176.10533
  42
-0.19907879
  0
VERTEX
  5
49d
  8
Layer_2
  10
56.502167
  20
174.46156
  42
-0.19909094
  0
VERTEX
  5
49e
  8
Layer_2
  10
57.781921
  20
170.8546
  42
-0.19899035
  0
VERTEX
  5
49f
  8
Layer_2
  10
56.137833
  20
167.39862
  42
-0.19900074
  0
VERTEX
  5
4a0
  8
Layer_2
  10
52.531189
  20
166.11852
  0
SEQEND
  0
POLYLINE
  5
4a2
  8
Layer_2
  62
6
  66
1
  10
0
  20
0
  30
0
  0
VERTEX
  5
4a2
  8
Layer_2
  10
50.801453
  20
162.92784
  0
VERTEX
  5
4a3
  8
Layer_2
  10
50.801453
  20
164.69786
  0
VERTEX
  5
4a4
  8
Layer_2
  10
54.801453
  20
164.69786
  0
VERTEX
  5
4a5
  8
Layer_2
  10
54.801453
  20
162.92784
  0
VERTEX
  5
4a6
  8
Layer_2
  10
50.801453
  20
162.92784
  0
SEQEND
  0
POLYLINE
  5
4a8
  8
Layer_2
  62
6
  66
1
  10
0
  20
0
  30
0
  0
VERTEX
  5
4a8
  8
Layer_2
  10
66.801453
  20
161.36461
  0
VERTEX
  5
4a9
  8
Layer_2
  10
70.785828
  20
161.36461
  0
VERTEX
  5
4aa
  8
Layer_2
  10
70.785828
  20
180.86461
  0
VERTEX
  5
4ab
  8
Layer_2
  10
66.801453
  20
180.86461
  0
VERTEX
  5
4ac
  8
Layer_2
  10
66.801453
  20
183.24571
  0
VERTEX
  5
4ad
  8
Layer_2
  10
62.801453
  20
183.24571
  0
VERTEX
  5
4ae
  8
Layer_2
  10
62.801453
  20
180.86461
  0
VERTEX
  5
4af
  8
Layer_2
  10
58.785828
  20
180.86461
  0
VERTEX
  5
4b0
  8
Layer_2
  10
58.785828
  20
161.36461
  0
VERTEX
  5
4b1
  8
Layer_2
  10
62.801453
  20
161.36461
  0
VERTEX
  5
4b2
  8
Layer_2
  10
62.801453
  20
158.97765
  0
VERTEX
  5
4b3
  8
Layer_2
  10
66.801453
  20
158.97765
  0
VERTEX
  5
4b4
  8
Layer_2
  10
66.801453
  20
161.36461
  0
SEQEND
  0
POLYLINE
  5
4b6
  8
Layer_2
  62
6
  66
1
  10
0
  20
0
  30
0
  0
VERTEX
  5
4b6
  8
Layer_2
  10
62.801453
  20
177.48399
  0
VERTEX
  5
4b7
  8
Layer_2
  10
62.801453
  20
179.25401
  0
VERTEX
  5
4b8
  8
Layer_2
  10
66.801453
  20
179.25401
  0
VERTEX
  5
4b9
  8
Layer_2
  10
66.801453
  20
177.48399
  0
VERTEX
  5
4ba
  8
Layer_2
  10
62.801453
  20
177.48399
  0
SEQEND
  0
POLYLINE
  5
4bc
  8
Layer_2
  62
6
  66
1
  10
0
  20
0
  30
0
  0
VERTEX
  5
4bc
  8
Layer_2
  10
64.531189
  20
166.11852
  0
VERTEX
  5
4bd
  8
Layer_2
  10
64.039734
  20
166.16783
  42
-0.39938168
  0
VERTEX
  5
4be
  8
Layer_2
  10
59.812439
  20
171.60509
  42
-0.40071309
  0
VERTEX
  5
4bf
  8
Layer_2
  10
65.045837
  20
176.10533
  42
-0.19907879
  0
VERTEX
  5
4c0
  8
Layer_2
  10
68.502167
  20
174.46156
  42
-0.19909094
  0
VERTEX
  5
4c1
  8
Layer_2
  10
69.781921
  20
170.8546
  42
-0.19899035
  0
VERTEX
  5
4c2
  8
Layer_2
  10
68.137833
  20
167.39862
  42
-0.19900074
  0
VERTEX
  5
4c3
  8
Layer_2
  10
64.531189
  20
166.11852
  0
SEQEND
  0
POLYLINE
  5
4c5
  8
Layer_2
  62
6
  66
1
  10
0
  20
0
  30
0
  0
VERTEX
  5
4c5
  8
Layer_2
  10
62.801453
  20
162.92784
  0
VERTEX
  5
4c6
  8
Layer_2
  10
62.801453
  20
164.69786
  0
VERTEX
  5
4c7
  8
Layer_2
  10
66.801453
  20
164.69786
  0
VERTEX
  5
4c8
  8
Layer_2
  10
66.801453
  20
162.92784
  0
VERTEX
  5
4c9
  8
Layer_2
  10
62.801453
  20
162.92784
  0
SEQEND
  0
POLYLINE
  5
4cb
  8
Layer_2
  62
6
  66
1
  10
0
  20
0
  30
0
  0
VERTEX
  5
4cb
  8
Layer_2
  10
98.791565
  20
174.41284
  0
VERTEX
  5
4cc
  8
Layer_2
  10
86.791565
  20
174.41284
  0
VERTEX
  5
4cd
  8
Layer_2
  10
86.791565
  20
154.91284
  0
VERTEX
  5
4ce
  8
Layer_2
  10
98.791565
  20
154.91284
  0
VERTEX
  5
4cf
  8
Layer_2
  10
98.791565
  20
174.41284
  0
SEQEND
  0
POLYLINE
  5
4d1
  8
Layer_2
  62
6
  66
1
  10
0
  20
0
  30
0
  0
VERTEX
  5
4d1
  8
Layer_2
  10
90.80719
  20
171.03223
  0
VERTEX
  5
4d2
  8
Layer_2
  10
90.80719
  20
172.80225
  0
VERTEX
  5
4d3
  8
Layer_2
  10
94.80719
  20
172.80225
  0
VERTEX
  5
4d4
  8
Layer_2
  10
94.80719
  20
171.03223
  0
VERTEX
  5
4d5
  8
Layer_2
  10
90.80719
  20
171.03223
  0
SEQEND
  0
POLYLINE
  5
4d7
  8
Layer_2
  62
6
  66
1
  10
0
  20
0
  30
0
  0
VERTEX
  5
4d7
  8
Layer_2
  10
90.80719
  20
156.47607
  0
VERTEX
  5
4d8
  8
Layer_2
  10
90.80719
  20
158.24609
  0
VERTEX
  5
4d9
  8
Layer_2
  10
94.80719
  20
158.24609
  0
VERTEX
  5
4da
  8
Layer_2
  10
94.80719
  20
156.47607
  0
VERTEX
  5
4db
  8
Layer_2
  10
90.80719
  20
156.47607
  0
SEQEND
  0
POLYLINE
  5
4dd
  8
Layer_2
  62
6
  66
1
  10
0
  20
0
  30
0
  0
VERTEX
  5
4dd
  8
Layer_2
  10
98.791565
  20
154.91284
  0
VERTEX
  5
4de
  8
Layer_2
  10
86.791565
  20
154.91284
  0
VERTEX
  5
4df
  8
Layer_2
  10
86.791565
  20
135.41284
  0
VERTEX
  5
4e0
  8
Layer_2
  10
98.791565
  20
135.41284
  0
VERTEX
  5
4e1
  8
Layer_2
  10
98.791565
  20
154.91284
  0
SEQEND
  0
POLYLINE
  5
4e3
  8
Layer_2
  62
6
  66
1
  10
0
  20
0
  30
0
  0
VERTEX
  5
4e3
  8
Layer_2
  10
90.80719
  20
151.53223
  0
VERTEX
  5
4e4
  8
Layer_2
  10
90.80719
  20
153.30225
  0
VERTEX
  5
4e5
  8
Layer_2
  10
94.80719
  20
153.30225
  0
VERTEX
  5
4e6
  8
Layer_2
  10
94.80719
  20
151.53223
  0
VERTEX
  5
4e7
  8
Layer_2
  10
90.80719
  20
151.53223
  0
SEQEND
  0
POLYLINE
  5
4e9
  8
Layer_2
  62
6
  66
1
  10
0
  20
0
  30
0
  0
VERTEX
  5
4e9
  8
Layer_2
  10
90.80719
  20
136.97607
  0
VERTEX
  5
4ea
  8
Layer_2
  10
90.80719
  20
138.74609
  0
VERTEX
  5
4eb
  8
Layer_2
  10
94.80719
  20
138.74609
  0
VERTEX
  5
4ec
  8
Layer_2
  10
94.80719
  20
136.97607
  0
VERTEX
  5
4ed
  8
Layer_2
  10
90.80719
  20
136.97607
  0
SEQEND
  0
POLYLINE
  5
4ef
  8
Layer_2
  62
6
  66
1
  10
0
  20
0
  30
0
  0
VERTEX
  5
4ef
  8
Layer_2
  10
135.18463
  20
140.71452
  0
VERTEX
  5
4f0
  8
Layer_2
  10
135.18465
  20
184.03777
  0
VERTEX
  5
4f1
  8
Layer_2
  10
140.66937
  20
184.03777
  0
VERTEX
  5
4f2
  8
Layer_2
  10
140.66936
  20
140.71452
  0
VERTEX
  5
4f3
  8
Layer_2
  10
135.18463
  20
140.71452
  0
SEQEND
  0
POLYLINE
  5
4f5
  8
Layer_2
  62
6
  66
1
  10
0
  20
0
  30
0
  0
VERTEX
  5
4f5
  8
Layer_2
  10
140.66937
  20
184.03777
  0
VERTEX
  5
4f6
  8
Layer_2
  10
140.6694
  20
140.71452
  0
VERTEX
  5
4f7
  8
Layer_2
  10
161.89499
  20
140.71452
  0
VERTEX
  5
4f8
  8
Layer_2
  10
161.89499
  20
144.90959
  0
VERTEX
  5
4f9
  8
Layer_2
  10
149.93918
  20
144.90959
  0
VERTEX
  5
4fa
  8
Layer_2
  10
149.93915
  20
178.90959
  0
VERTEX
  5
4fb
  8
Layer_2
  10
161.89496
  20
178.90959
  0
VERTEX
  5
4fc
  8
Layer_2
  10
161.89496
  20
184.03777
  0
VERTEX
  5
4fd
  8
Layer_2
  10
140.66937
  20
184.03777
  0
SEQEND
  0
POLYLINE
  5
4ff
  8
Layer_2
  62
6
  66
1
  10
0
  20
0
  30
0
  0
VERTEX
  5
4ff
  8
Layer_2
  10
161.88409
  20
140.69485
  0
VERTEX
  5
500
  8
Layer_2
  10
140.68512
  20
140.69485
  0
VERTEX
  5
501
  8
Layer_2
  10
140.68512
  20
130.26859
  0
VERTEX
  5
502
  8
Layer_2
  10
161.88434
  20
130.26859
  0
VERTEX
  5
503
  8
Layer_2
  10
161.88409
  20
140.69485
  0
SEQEND
  0
POLYLINE
  5
505
  8
Layer_2
  62
6
  66
1
  10
0
  20
0
  30
0
  0
VERTEX
  5
505
  8
Layer_2
  10
154.02716
  20
134.59671
  0
VERTEX
  5
506
  8
Layer_2
  10
148.5423
  20
134.59671
  0
VERTEX
  5
507
  8
Layer_2
  10
148.5423
  20
136.36673
  0
VERTEX
  5
508
  8
Layer_2
  10
154.02716
  20
136.36673
  0
VERTEX
  5
509
  8
Layer_2
  10
154.02716
  20
134.59671
  0
SEQEND
  0
POLYLINE
  5
50b
  8
Layer_2
  62
6
  66
1
  10
0
  20
0
  30
0
  0
VERTEX
  5
50b
  8
Layer_2
  10
160.41695
  20
157.72772
  0
VERTEX
  5
50c
  8
Layer_2
  10
160.41695
  20
178.9267
  0
VERTEX
  5
50d
  8
Layer_2
  10
149.99068
  20
178.9267
  0
VERTEX
  5
50e
  8
Layer_2
  10
149.99068
  20
157.72748
  0
VERTEX
  5
50f
  8
Layer_2
  10
160.41695
  20
157.72772
  0
SEQEND
  0
POLYLINE
  5
511
  8
Layer_2
  62
6
  66
1
  10
0
  20
0
  30
0
  0
VERTEX
  5
511
  8
Layer_2
  10
154.3188
  20
165.58466
  0
VERTEX
  5
512
  8
Layer_2
  10
154.3188
  20
171.06952
  0
VERTEX
  5
513
  8
Layer_2
  10
156.08882
  20
171.06952
  0
VERTEX
  5
514
  8
Layer_2
  10
156.08882
  20
165.58466
  0
VERTEX
  5
515
  8
Layer_2
  10
154.3188
  20
165.58466
  0
SEQEND
  0
POLYLINE
  5
517
  8
Layer_2
  62
6
  66
1
  10
0
  20
0
  30
0
  0
VERTEX
  5
517
  8
Layer_2
  10
153.99992
  20
150.40001
  0
VERTEX
  5
518
  8
Layer_2
  10
149.99992
  20
150.40001
  0
VERTEX
  5
519
  8
Layer_2
  10
149.99992
  20
154.00002
  0
VERTEX
  5
51a
  8
Layer_2
  10
153.99992
  20
154.00002
  0
VERTEX
  5
51b
  8
Layer_2
  10
153.99992
  20
150.40001
  0
SEQEND
  0
POLYLINE
  5
51d
  8
Layer_2
  62
6
  66
1
  10
0
  20
0
  30
0
  0
VERTEX
  5
51d
  8
Layer_2
  10
157.99992
  20
150.40001
  0
VERTEX
  5
51e
  8
Layer_2
  10
153.99992
  20
150.40001
  0
VERTEX
  5
51f
  8
Layer_2
  10
153.99992
  20
154.00002
  0
VERTEX
  5
520
  8
Layer_2
  10
157.99992
  20
154.00002
  0
VERTEX
  5
521
  8
Layer_2
  10
157.99992
  20
150.40001
  0
SEQEND
  0
POLYLINE
  5
523
  8
Layer_2
  62
6
  66
1
  10
0
  20
0
  30
0
  0
VERTEX
  5
523
  8
Layer_2
  10
158.00008
  20
154.00002
  0
VERTEX
  5
524
  8
Layer_2
  10
154.00008
  20
154.00002
  0
VERTEX
  5
525
  8
Layer_2
  10
154.00008
  20
157.60002
  0
VERTEX
  5
526
  8
Layer_2
  10
158.00008
  20
157.60002
  0
VERTEX
  5
527
  8
Layer_2
  10
158.00008
  20
154.00002
  0
SEQEND
  0
POLYLINE
  5
529
  8
Layer_2
  62
6
  66
1
  10
0
  20
0
  30
0
  0
VERTEX
  5
529
  8
Layer_2
  10
154.00008
  20
154.00002
  0
VERTEX
  5
52a
  8
Layer_2
  10
150.00008
  20
154.00002
  0
VERTEX
  5
52b
  8
Layer_2
  10
150.00008
  20
157.60002
  0
VERTEX
  5
52c
  8
Layer_2
  10
154.00008
  20
157.60002
  0
VERTEX
  5
52d
  8
Layer_2
  10
154.00008
  20
154.00002
  0
SEQEND
  0
POLYLINE
  5
52f
  8
Layer_2
  62
6
  66
1
  10
0
  20
0
  30
0
  0
VERTEX
  5
52f
  8
Layer_2
  10
264.9444
  20
18.822861
  0
VERTEX
  5
530
  8
Layer_2
  10
245.74438
  20
18.822876
  0
VERTEX
  5
531
  8
Layer_2
  10
245.74442
  20
69.022858
  0
VERTEX
  5
532
  8
Layer_2
  10
264.94443
  20
69.022858
  0
VERTEX
  5
533
  8
Layer_2
  10
264.9444
  20
18.822861
  0
SEQEND
  0
POLYLINE
  5
535
  8
Layer_2
  62
6
  66
1
  10
0
  20
0
  30
0
  0
VERTEX
  5
535
  8
Layer_2
  10
264.94437
  20
94.822845
  0
VERTEX
  5
536
  8
Layer_2
  10
245.74438
  20
94.822845
  0
VERTEX
  5
537
  8
Layer_2
  10
245.74442
  20
145.02286
  0
VERTEX
  5
538
  8
Layer_2
  10
264.9444
  20
145.02286
  0
VERTEX
  5
539
  8
Layer_2
  10
264.94437
  20
94.822845
  0
SEQEND
  0
POLYLINE
  5
53b
  8
Layer_2
  62
6
  66
1
  10
0
  20
0
  30
0
  0
VERTEX
  5
53b
  8
Layer_2
  10
257.74438
  20
75.922852
  0
VERTEX
  5
53c
  8
Layer_2
  10
245.74438
  20
75.922852
  0
VERTEX
  5
53d
  8
Layer_2
  10
245.74438
  20
87.922852
  0
VERTEX
  5
53e
  8
Layer_2
  10
257.74438
  20
87.922852
  0
VERTEX
  5
53f
  8
Layer_2
  10
257.74438
  20
75.922852
  0
SEQEND
  0
POLYLINE
  5
541
  8
Layer_2
  62
6
  66
1
  10
0
  20
0
  30
0
  0
VERTEX
  5
541
  8
Layer_2
  10
270.34445
  20
83.922882
  0
VERTEX
  5
542
  8
Layer_2
  10
264.34445
  20
83.922882
  0
VERTEX
  5
543
  8
Layer_2
  10
264.34445
  20
89.922882
  0
VERTEX
  5
544
  8
Layer_2
  10
270.34445
  20
89.922882
  0
VERTEX
  5
545
  8
Layer_2
  10
270.34445
  20
83.922882
  0
SEQEND
  0
POLYLINE
  5
547
  8
Layer_2
  62
6
  66
1
  10
0
  20
0
  30
0
  0
VERTEX
  5
547
  8
Layer_2
  10
270.34445
  20
73.922882
  0
VERTEX
  5
548
  8
Layer_2
  10
264.34445
  20
73.922882
  0
VERTEX
  5
549
  8
Layer_2
  10
264.34445
  20
79.922882
  0
VERTEX
  5
54a
  8
Layer_2
  10
270.34445
  20
79.922882
  0
VERTEX
  5
54b
  8
Layer_2
  10
270.34445
  20
73.922882
  0
SEQEND
  0
POLYLINE
  5
54d
  8
Layer_2
  62
6
  66
1
  10
0
  20
0
  30
0
  0
VERTEX
  5
54d
  8
Layer_2
  10
268.85077
  20
150.1528
  0
VERTEX
  5
54e
  8
Layer_2
  10
268.85077
  20
151.92282
  0
VERTEX
  5
54f
  8
Layer_2
  10
260.85077
  20
151.92282
  0
VERTEX
  5
550
  8
Layer_2
  10
260.85077
  20
150.1528
  0
VERTEX
  5
551
  8
Layer_2
  10
249.83807
  20
150.1528
  0
VERTEX
  5
552
  8
Layer_2
  10
249.83807
  20
151.92282
  0
VERTEX
  5
553
  8
Layer_2
  10
241.83807
  20
151.92282
  0
VERTEX
  5
554
  8
Layer_2
  10
241.83807
  20
150.1528
  0
VERTEX
  5
555
  8
Layer_2
  10
235.34442
  20
150.1528
  0
VERTEX
  5
556
  8
Layer_2
  10
235.34436
  20
13.692856
  0
VERTEX
  5
557
  8
Layer_2
  10
241.83801
  20
13.692856
  0
VERTEX
  5
558
  8
Layer_2
  10
241.83801
  20
11.922836
  0
VERTEX
  5
559
  8
Layer_2
  10
249.83801
  20
11.922821
  0
VERTEX
  5
55a
  8
Layer_2
  10
249.83801
  20
13.692841
  0
VERTEX
  5
55b
  8
Layer_2
  10
260.85071
  20
13.692841
  0
VERTEX
  5
55c
  8
Layer_2
  10
260.85071
  20
11.922821
  0
VERTEX
  5
55d
  8
Layer_2
  10
268.85071
  20
11.922821
  0
VERTEX
  5
55e
  8
Layer_2
  10
268.85071
  20
13.692841
  0
VERTEX
  5
55f
  8
Layer_2
  10
275.34436
  20
13.692841
  0
VERTEX
  5
560
  8
Layer_2
  10
275.34442
  20
150.1528
  0
VERTEX
  5
561
  8
Layer_2
  10
268.85077
  20
150.1528
  0
SEQEND
  0
POLYLINE
  5
563
  8
Layer_2
  62
6
  66
1
  10
0
  20
0
  30
0
  0
VERTEX
  5
563
  8
Layer_2
  10
61.794682
  20
109.53802
  0
VERTEX
  5
564
  8
Layer_2
  10
53.794682
  20
109.53802
  0
VERTEX
  5
565
  8
Layer_2
  10
53.794682
  20
113.53802
  0
VERTEX
  5
566
  8
Layer_2
  10
61.794682
  20
113.53802
  0
VERTEX
  5
567
  8
Layer_2
  10
61.794682
  20
109.53802
  0
SEQEND
  0
POLYLINE
  5
569
  8
Layer_2
  62
6
  66
1
  10
0
  20
0
  30
0
  0
VERTEX
  5
569
  8
Layer_2
  10
79.49115
  20
115.53804
  0
VERTEX
  5
56a
  8
Layer_2
  10
81.261108
  20
115.53804
  0
VERTEX
  5
56b
  8
Layer_2
  10
81.261108
  20
107.53804
  0
VERTEX
  5
56c
  8
Layer_2
  10
79.49115
  20
107.53804
  0
VERTEX
  5
56d
  8
Layer_2
  10
79.49115
  20
115.53804
  0
SEQEND
  0
POLYLINE
  5
56f
  8
Layer_2
  62
6
  66
1
  10
0
  20
0
  30
0
  0
VERTEX
  5
56f
  8
Layer_2
  10
127.39538
  20
115.53799
  0
VERTEX
  5
570
  8
Layer_2
  10
129.16536
  20
115.53799
  0
VERTEX
  5
571
  8
Layer_2
  10
129.16534
  20
107.53799
  0
VERTEX
  5
572
  8
Layer_2
  10
127.39538
  20
107.53799
  0
VERTEX
  5
573
  8
Layer_2
  10
127.39538
  20
115.53799
  0
SEQEND
  0
POLYLINE
  5
575
  8
Layer_2
  62
6
  66
1
  10
0
  20
0
  30
0
  0
VERTEX
  5
575
  8
Layer_2
  10
145.36176
  20
117.20195
  0
VERTEX
  5
576
  8
Layer_2
  10
156.36176
  20
117.20195
  0
VERTEX
  5
577
  8
Layer_2
  10
156.36176
  20
108.20195
  0
VERTEX
  5
578
  8
Layer_2
  10
145.36176
  20
108.20195
  0
VERTEX
  5
579
  8
Layer_2
  10
145.36176
  20
117.20195
  0
SEQEND
  0
POLYLINE
  5
57b
  8
Layer_2
  62
6
  66
1
  10
0
  20
0
  30
0
  0
VERTEX
  5
57b
  8
Layer_2
  10
136.57114
  20
122.2681
  0
VERTEX
  5
57c
  8
Layer_2
  10
118.32792
  20
122.26788
  0
VERTEX
  5
57d
  8
Layer_2
  10
118.32791
  20
124.03784
  0
VERTEX
  5
57e
  8
Layer_2
  10
110.32822
  20
124.03812
  0
VERTEX
  5
57f
  8
Layer_2
  10
110.32798
  20
122.2681
  0
VERTEX
  5
580
  8
Layer_2
  10
98.328064
  20
122.26788
  0
VERTEX
  5
581
  8
Layer_2
  10
98.329193
  20
124.03812
  0
VERTEX
  5
582
  8
Layer_2
  10
90.327972
  20
124.03815
  0
VERTEX
  5
583
  8
Layer_2
  10
90.327972
  20
122.26813
  0
VERTEX
  5
584
  8
Layer_2
  10
72.084564
  20
122.26813
  0
VERTEX
  5
585
  8
Layer_2
  10
72.084564
  20
124.02155
  0
VERTEX
  5
586
  8
Layer_2
  10
64.084564
  20
124.0379
  0
VERTEX
  5
587
  8
Layer_2
  10
64.084564
  20
122.26813
  0
VERTEX
  5
588
  8
Layer_2
  10
52.084564
  20
122.26813
  0
VERTEX
  5
589
  8
Layer_2
  10
52.084564
  20
124.03815
  0
VERTEX
  5
58a
  8
Layer_2
  10
44.084564
  20
124.03815
  0
VERTEX
  5
58b
  8
Layer_2
  10
44.084564
  20
122.26813
  0
VERTEX
  5
58c
  8
Layer_2
  10
34.328217
  20
122.26813
  0
VERTEX
  5
58d
  8
Layer_2
  10
34.328217
  20
115.53815
  0
VERTEX
  5
58e
  8
Layer_2
  10
36.098236
  20
115.53815
  0
VERTEX
  5
58f
  8
Layer_2
  10
36.098236
  20
107.53815
  0
VERTEX
  5
590
  8
Layer_2
  10
34.328217
  20
107.53815
  0
VERTEX
  5
591
  8
Layer_2
  10
34.328217
  20
100.80792
  0
VERTEX
  5
592
  8
Layer_2
  10
44.084564
  20
100.80792
  0
VERTEX
  5
593
  8
Layer_2
  10
44.084564
  20
99.037903
  0
VERTEX
  5
594
  8
Layer_2
  10
52.084564
  20
99.037903
  0
VERTEX
  5
595
  8
Layer_2
  10
52.084564
  20
100.80792
  0
VERTEX
  5
596
  8
Layer_2
  10
64.084564
  20
100.80792
  0
VERTEX
  5
597
  8
Layer_2
  10
64.084564
  20
99.037903
  0
VERTEX
  5
598
  8
Layer_2
  10
72.084564
  20
99.037903
  0
VERTEX
  5
599
  8
Layer_2
  10
72.084564
  20
100.80792
  0
VERTEX
  5
59a
  8
Layer_2
  10
81.261078
  20
100.80792
  0
VERTEX
  5
59b
  8
Layer_2
  10
81.261078
  20
102.70807
  0
VERTEX
  5
59c
  8
Layer_2
  10
127.39536
  20
102.70804
  0
VERTEX
  5
59d
  8
Layer_2
  10
127.39536
  20
100.80789
  0
VERTEX
  5
59e
  8
Layer_2
  10
136.57114
  20
100.80789
  0
VERTEX
  5
59f
  8
Layer_2
  10
136.57114
  20
99.037872
  0
VERTEX
  5
5a0
  8
Layer_2
  10
144.57114
  20
99.037872
  0
VERTEX
  5
5a1
  8
Layer_2
  10
144.57114
  20
100.80789
  0
VERTEX
  5
5a2
  8
Layer_2
  10
156.57114
  20
100.80789
  0
VERTEX
  5
5a3
  8
Layer_2
  10
156.57114
  20
99.037872
  0
VERTEX
  5
5a4
  8
Layer_2
  10
164.57114
  20
99.037872
  0
VERTEX
  5
5a5
  8
Layer_2
  10
164.57114
  20
100.80789
  0
VERTEX
  5
5a6
  8
Layer_2
  10
174.32822
  20
100.80789
  0
VERTEX
  5
5a7
  8
Layer_2
  10
174.32822
  20
107.53787
  0
VERTEX
  5
5a8
  8
Layer_2
  10
172.5582
  20
107.53787
  0
VERTEX
  5
5a9
  8
Layer_2
  10
172.5582
  20
115.53787
  0
VERTEX
  5
5aa
  8
Layer_2
  10
174.32822
  20
115.53787
  0
VERTEX
  5
5ab
  8
Layer_2
  10
174.32822
  20
122.2681
  0
VERTEX
  5
5ac
  8
Layer_2
  10
164.57114
  20
122.2681
  0
VERTEX
  5
5ad
  8
Layer_2
  10
164.57114
  20
124.03787
  0
VERTEX
  5
5ae
  8
Layer_2
  10
156.57114
  20
124.03787
  0
VERTEX
  5
5af
  8
Layer_2
  10
156.57114
  20
122.2681
  0
VERTEX
  5
5b0
  8
Layer_2
  10
144.57114
  20
122.2681
  0
VERTEX
  5
5b1
  8
Layer_2
  10
144.57114
  20
124.03812
  0
VERTEX
  5
5b2
  8
Layer_2
  10
136.57114
  20
124.03812
  0
VERTEX
  5
5b3
  8
Layer_2
  10
136.57114
  20
122.2681
  0
SEQEND
  0
POLYLINE
  5
5b5
  8
Layer_0
  62
138
  66
1
  10
0
  20
0
  30
0
  0
VERTEX
  5
5b5
  8
Layer_0
  10
2.3984833
  20
200.00009
  0
VERTEX
  5
5b6
  8
Layer_0
  10
2.3984833
  20
195.60718
  0
VERTEX
  5
5b7
  8
Layer_0
  10
6.0081482e-05
  20
197.67554
  0
VERTEX
  5
5b8
  8
Layer_0
  10
5
  20
197.60718
  0
SEQEND
  0
POLYLINE
  5
5ba
  8
Layer_0
  62
138
  66
1
  10
0
  20
0
  30
0
  0
VERTEX
  5
5ba
  8
Layer_0
  10
2.6081371
  20
4.5303802
  0
VERTEX
  5
5bb
  8
Layer_0
  10
2.6081371
  20
0.13748169
  0
VERTEX
  5
5bc
  8
Layer_0
  10
0.20971394
  20
2.2058411
  0
VERTEX
  5
5bd
  8
Layer_0
  10
5.2096539
  20
2.1374817
  0
SEQEND
  0
POLYLINE
  5
5bf
  8
Layer_0
  62
138
  66
1
  10
0
  20
0
  30
0
  0
VERTEX
  5
5bf
  8
Layer_0
  10
297.3194
  20
195.17526
  0
VERTEX
  5
5c0
  8
Layer_0
  10
297.3194
  20
199.56816
  0
VERTEX
  5
5c1
  8
Layer_0
  10
299.71783
  20
197.52562
  0
VERTEX
  5
5c2
  8
Layer_0
  10
294.7179
  20
197.54016
  0
SEQEND
  0
POLYLINE
  5
5c4
  8
Layer_0
  62
138
  66
1
  10
0
  20
0
  30
0
  0
VERTEX
  5
5c4
  8
Layer_0
  10
297.42963
  20
4.4846344
  0
VERTEX
  5
5c5
  8
Layer_0
  10
297.42963
  20
0.09173584
  0
VERTEX
  5
5c6
  8
Layer_0
  10
299.82803
  20
2.1342773
  0
VERTEX
  5
5c7
  8
Layer_0
  10
294.82809
  20
2.1197357
  0
SEQEND
  0
ENDSEC
  0
EOF
