  0
SECTION
  2
HEADER
  9
$ACADVER
  1
AC1009
  0
ENDSEC
  0
SECTION
  2
ENTITIES
  0
POLYLINE
  5
90
  8
Layer_1
  62
12
  66
1
  10
0
  20
0
  30
0
  0
VERTEX
  5
90
  8
Layer_1
  10
299.99994
  20
-0.00010681152
  0
VERTEX
  5
91
  8
Layer_1
  10
-6.1035156e-05
  20
0.00019836426
  0
VERTEX
  5
92
  8
Layer_1
  10
6.1035156e-05
  20
300.23596
  0
VERTEX
  5
93
  8
Layer_1
  10
300.00006
  20
300.23566
  0
VERTEX
  5
94
  8
Layer_1
  10
299.99994
  20
-0.00010681152
  0
SEQEND
  0
POLYLINE
  5
96
  8
Layer_3
  62
30
  66
1
  10
0
  20
0
  30
0
  0
VERTEX
  5
96
  8
Layer_3
  10
-40000
  20
389.87296
  0
VERTEX
  5
97
  8
Layer_3
  10
40000
  20
389.87296
  0
SEQEND
  0
POLYLINE
  5
99
  8
Layer_0
  62
138
  66
1
  10
0
  20
0
  30
0
  0
VERTEX
  5
99
  8
Layer_0
  10
297.3194
  20
294.75595
  0
VERTEX
  5
9a
  8
Layer_0
  10
297.3194
  20
299.14886
  0
VERTEX
  5
9b
  8
Layer_0
  10
299.71783
  20
297.10632
  0
VERTEX
  5
9c
  8
Layer_0
  10
294.7179
  20
297.12085
  0
SEQEND
  0
POLYLINE
  5
9e
  8
Layer_0
  62
138
  66
1
  10
0
  20
0
  30
0
  0
VERTEX
  5
9e
  8
Layer_0
  10
2.3984833
  20
299.58078
  0
VERTEX
  5
9f
  8
Layer_0
  10
2.3984833
  20
295.1879
  0
VERTEX
  5
a0
  8
Layer_0
  10
6.0081482e-05
  20
297.25626
  0
VERTEX
  5
a1
  8
Layer_0
  10
5
  20
297.1879
  0
SEQEND
  0
POLYLINE
  5
a3
  8
Layer_0
  62
138
  66
1
  10
0
  20
0
  30
0
  0
VERTEX
  5
a3
  8
Layer_0
  10
297.42963
  20
4.4846344
  0
VERTEX
  5
a4
  8
Layer_0
  10
297.42963
  20
0.09173584
  0
VERTEX
  5
a5
  8
Layer_0
  10
299.82803
  20
2.1342773
  0
VERTEX
  5
a6
  8
Layer_0
  10
294.82809
  20
2.1197357
  0
SEQEND
  0
POLYLINE
  5
a8
  8
Layer_0
  62
138
  66
1
  10
0
  20
0
  30
0
  0
VERTEX
  5
a8
  8
Layer_0
  10
2.6081371
  20
4.5303802
  0
VERTEX
  5
a9
  8
Layer_0
  10
2.6081371
  20
0.13748169
  0
VERTEX
  5
aa
  8
Layer_0
  10
0.20971394
  20
2.2058411
  0
VERTEX
  5
ab
  8
Layer_0
  10
5.2096539
  20
2.1374817
  0
SEQEND
  0
POLYLINE
  5
ad
  8
Layer_2
  62
1
  66
1
  10
0
  20
0
  30
0
  0
VERTEX
  5
ad
  8
Layer_2
  10
33.675373
  20
58.667988
  0
VERTEX
  5
ae
  8
Layer_2
  10
31.914223
  20
58.844955
  0
VERTEX
  5
af
  8
Layer_2
  10
31.737255
  20
57.083843
  0
VERTEX
  5
b0
  8
Layer_2
  10
33.498405
  20
56.906876
  0
VERTEX
  5
b1
  8
Layer_2
  10
33.675373
  20
58.667988
  0
SEQEND
  0
POLYLINE
  5
b3
  8
Layer_2
  62
1
  66
1
  10
0
  20
0
  30
0
  0
VERTEX
  5
b3
  8
Layer_2
  10
25.011848
  20
59.526875
  0
VERTEX
  5
b4
  8
Layer_2
  10
23.250698
  20
59.703842
  0
VERTEX
  5
b5
  8
Layer_2
  10
23.07373
  20
57.94273
  0
VERTEX
  5
b6
  8
Layer_2
  10
24.834881
  20
57.765762
  0
VERTEX
  5
b7
  8
Layer_2
  10
25.011848
  20
59.526875
  0
SEQEND
  0
POLYLINE
  5
b9
  8
Layer_2
  62
1
  66
1
  10
0
  20
0
  30
0
  0
VERTEX
  5
b9
  8
Layer_2
  10
139.20657
  20
58.667988
  0
VERTEX
  5
ba
  8
Layer_2
  10
140.96773
  20
58.844955
  0
VERTEX
  5
bb
  8
Layer_2
  10
141.14468
  20
57.083843
  0
VERTEX
  5
bc
  8
Layer_2
  10
139.38353
  20
56.906876
  0
VERTEX
  5
bd
  8
Layer_2
  10
139.20657
  20
58.667988
  0
SEQEND
  0
POLYLINE
  5
bf
  8
Layer_2
  62
1
  66
1
  10
0
  20
0
  30
0
  0
VERTEX
  5
bf
  8
Layer_2
  10
147.8701
  20
59.526875
  0
VERTEX
  5
c0
  8
Layer_2
  10
149.63126
  20
59.703842
  0
VERTEX
  5
c1
  8
Layer_2
  10
149.80821
  20
57.94273
  0
VERTEX
  5
c2
  8
Layer_2
  10
148.04706
  20
57.765762
  0
VERTEX
  5
c3
  8
Layer_2
  10
147.8701
  20
59.526875
  0
SEQEND
  0
POLYLINE
  5
c5
  8
Layer_2
  62
1
  66
1
  10
0
  20
0
  30
0
  0
VERTEX
  5
c5
  8
Layer_2
  10
86.833374
  20
55.102066
  0
VERTEX
  5
c6
  8
Layer_2
  10
87.075638
  20
55.153122
  42
0.3860124
  0
VERTEX
  5
c7
  8
Layer_2
  10
88.908508
  20
57.96524
  42
0.4127621
  0
VERTEX
  5
c8
  8
Layer_2
  10
86.061554
  20
60.04245
  42
0.3888613
  0
VERTEX
  5
c9
  8
Layer_2
  10
83.94397
  20
57.414047
  42
0.41268843
  0
VERTEX
  5
ca
  8
Layer_2
  10
86.57901
  20
55.074371
  0
VERTEX
  5
cb
  8
Layer_2
  10
86.833374
  20
55.102066
  0
SEQEND
  0
POLYLINE
  5
cd
  8
Layer_2
  62
1
  66
1
  10
0
  20
0
  30
0
  0
VERTEX
  5
cd
  8
Layer_2
  10
26.306137
  20
55.206352
  0
VERTEX
  5
ce
  8
Layer_2
  10
26.541595
  20
57.59491
  0
VERTEX
  5
cf
  8
Layer_2
  10
31.195549
  20
57.136147
  0
VERTEX
  5
d0
  8
Layer_2
  10
30.960236
  20
54.749031
  0
VERTEX
  5
d1
  8
Layer_2
  10
35.816475
  20
54.274246
  0
VERTEX
  5
d2
  8
Layer_2
  10
36.468414
  20
55.096581
  0
VERTEX
  5
d3
  8
Layer_2
  10
37.143089
  20
55.900726
  42
-0.21150186
  0
VERTEX
  5
d4
  8
Layer_2
  10
40.845055
  20
57.541077
  0
VERTEX
  5
d5
  8
Layer_2
  10
79.429764
  20
57.550125
  0
VERTEX
  5
d6
  8
Layer_2
  10
79.435715
  20
57.244598
  42
0.40056475
  0
VERTEX
  5
d7
  8
Layer_2
  10
86.401764
  20
50.548447
  42
0.40221063
  0
VERTEX
  5
d8
  8
Layer_2
  10
93.4319
  20
57.216888
  0
VERTEX
  5
d9
  8
Layer_2
  10
93.43956
  20
57.553436
  0
VERTEX
  5
da
  8
Layer_2
  10
132.0336
  20
57.562546
  42
-0.22621423
  0
VERTEX
  5
db
  8
Layer_2
  10
135.91948
  20
55.710495
  0
VERTEX
  5
dc
  8
Layer_2
  10
137.06404
  20
54.298187
  0
VERTEX
  5
dd
  8
Layer_2
  10
141.91299
  20
54.774521
  0
VERTEX
  5
de
  8
Layer_2
  10
141.68047
  20
57.136192
  0
VERTEX
  5
df
  8
Layer_2
  10
146.33412
  20
57.59494
  0
VERTEX
  5
e0
  8
Layer_2
  10
146.56709
  20
55.23172
  0
VERTEX
  5
e1
  8
Layer_2
  10
152.13153
  20
55.778358
  42
0.025749737
  0
VERTEX
  5
e2
  8
Layer_2
  10
151.94594
  20
62.484482
  0
VERTEX
  5
e3
  8
Layer_2
  10
149.52245
  20
62.245575
  0
VERTEX
  5
e4
  8
Layer_2
  10
149.13225
  20
66.203995
  0
VERTEX
  5
e5
  8
Layer_2
  10
151.48997
  20
66.431503
  42
0.0099762781
  0
VERTEX
  5
e6
  8
Layer_2
  10
151.06769
  20
68.680878
  0
VERTEX
  5
e7
  8
Layer_2
  10
150.71619
  20
68.671768
  0
VERTEX
  5
e8
  8
Layer_2
  10
144.20802
  20
68.034317
  0
VERTEX
  5
e9
  8
Layer_2
  10
143.97334
  20
70.430206
  0
VERTEX
  5
ea
  8
Layer_2
  10
139.96864
  20
70.03743
  0
VERTEX
  5
eb
  8
Layer_2
  10
140.20328
  20
67.642075
  0
VERTEX
  5
ec
  8
Layer_2
  10
120.69505
  20
65.731308
  0
VERTEX
  5
ed
  8
Layer_2
  10
120.46068
  20
68.124161
  0
VERTEX
  5
ee
  8
Layer_2
  10
116.45598
  20
67.731384
  0
VERTEX
  5
ef
  8
Layer_2
  10
116.69029
  20
65.339035
  0
VERTEX
  5
f0
  8
Layer_2
  10
97.181854
  20
63.428223
  0
VERTEX
  5
f1
  8
Layer_2
  10
96.946594
  20
65.816589
  0
VERTEX
  5
f2
  8
Layer_2
  10
92.94313
  20
65.424454
  0
VERTEX
  5
f3
  8
Layer_2
  10
93.177094
  20
63.035965
  0
VERTEX
  5
f4
  8
Layer_2
  10
86.669891
  20
62.398605
  0
VERTEX
  5
f5
  8
Layer_2
  10
86.212082
  20
62.398605
  0
VERTEX
  5
f6
  8
Layer_2
  10
79.704865
  20
63.035965
  0
VERTEX
  5
f7
  8
Layer_2
  10
79.912384
  20
65.423828
  0
VERTEX
  5
f8
  8
Layer_2
  10
75.918121
  20
65.813675
  0
VERTEX
  5
f9
  8
Layer_2
  10
75.700119
  20
63.428223
  0
VERTEX
  5
fa
  8
Layer_2
  10
56.191666
  20
65.339035
  0
VERTEX
  5
fb
  8
Layer_2
  10
56.425995
  20
67.731384
  0
VERTEX
  5
fc
  8
Layer_2
  10
52.42128
  20
68.124176
  0
VERTEX
  5
fd
  8
Layer_2
  10
52.186905
  20
65.731308
  0
VERTEX
  5
fe
  8
Layer_2
  10
32.67868
  20
67.642059
  0
VERTEX
  5
ff
  8
Layer_2
  10
32.918427
  20
70.036423
  0
VERTEX
  5
100
  8
Layer_2
  10
28.908623
  20
70.430222
  0
VERTEX
  5
101
  8
Layer_2
  10
28.673927
  20
68.034317
  0
VERTEX
  5
102
  8
Layer_2
  10
21.808846
  20
68.684128
  42
0.0098375005
  0
VERTEX
  5
103
  8
Layer_2
  10
21.387253
  20
66.431274
  0
VERTEX
  5
104
  8
Layer_2
  10
23.743515
  20
66.204147
  0
VERTEX
  5
105
  8
Layer_2
  10
23.353294
  20
62.24556
  0
VERTEX
  5
106
  8
Layer_2
  10
20.929008
  20
62.484528
  42
0.024257785
  0
VERTEX
  5
107
  8
Layer_2
  10
20.748146
  20
55.747116
  0
VERTEX
  5
108
  8
Layer_2
  10
26.306137
  20
55.206352
  0
SEQEND
  0
POLYLINE
  5
10a
  8
Layer_2
  62
1
  66
1
  10
0
  20
0
  30
0
  0
VERTEX
  5
10a
  8
Layer_2
  10
98.865822
  20
102.85698
  0
VERTEX
  5
10b
  8
Layer_2
  10
102.88975
  20
102.85698
  0
VERTEX
  5
10c
  8
Layer_2
  10
102.88975
  20
100.45708
  0
VERTEX
  5
10d
  8
Layer_2
  10
122.49131
  20
100.45708
  0
VERTEX
  5
10e
  8
Layer_2
  10
122.49131
  20
102.85698
  0
VERTEX
  5
10f
  8
Layer_2
  10
126.51548
  20
102.85696
  0
VERTEX
  5
110
  8
Layer_2
  10
126.51548
  20
100.45706
  0
VERTEX
  5
111
  8
Layer_2
  10
146.11703
  20
100.45706
  0
VERTEX
  5
112
  8
Layer_2
  10
146.11703
  20
102.85696
  0
VERTEX
  5
113
  8
Layer_2
  10
150.14096
  20
102.85695
  0
VERTEX
  5
114
  8
Layer_2
  10
150.14096
  20
100.45705
  0
VERTEX
  5
115
  8
Layer_2
  10
156.68027
  20
100.45705
  0
VERTEX
  5
116
  8
Layer_2
  10
156.68027
  20
107.05714
  0
VERTEX
  5
117
  8
Layer_2
  10
154.28036
  20
107.05714
  0
VERTEX
  5
118
  8
Layer_2
  10
154.28036
  20
111.2571
  0
VERTEX
  5
119
  8
Layer_2
  10
156.68027
  20
111.2571
  0
VERTEX
  5
11a
  8
Layer_2
  10
156.68027
  20
115.45705
  0
VERTEX
  5
11b
  8
Layer_2
  10
154.28036
  20
115.45705
  0
VERTEX
  5
11c
  8
Layer_2
  10
154.28036
  20
119.657
  0
VERTEX
  5
11d
  8
Layer_2
  10
156.68027
  20
119.657
  0
VERTEX
  5
11e
  8
Layer_2
  10
156.68027
  20
123.85695
  0
VERTEX
  5
11f
  8
Layer_2
  10
154.28036
  20
123.85695
  0
VERTEX
  5
120
  8
Layer_2
  10
154.2804
  20
128.05714
  0
VERTEX
  5
121
  8
Layer_2
  10
156.6803
  20
128.05714
  0
VERTEX
  5
122
  8
Layer_2
  10
156.6803
  20
130.45705
  0
VERTEX
  5
123
  8
Layer_2
  10
150.14197
  20
130.45705
  0
VERTEX
  5
124
  8
Layer_2
  10
150.14197
  20
128.05714
  0
VERTEX
  5
125
  8
Layer_2
  10
146.11804
  20
128.05716
  0
VERTEX
  5
126
  8
Layer_2
  10
146.11804
  20
130.45706
  0
VERTEX
  5
127
  8
Layer_2
  10
126.51647
  20
130.45706
  0
VERTEX
  5
128
  8
Layer_2
  10
126.51647
  20
128.05716
  0
VERTEX
  5
129
  8
Layer_2
  10
122.4923
  20
128.05717
  0
VERTEX
  5
12a
  8
Layer_2
  10
122.4923
  20
130.45708
  0
VERTEX
  5
12b
  8
Layer_2
  10
102.89074
  20
130.45708
  0
VERTEX
  5
12c
  8
Layer_2
  10
102.89074
  20
128.05717
  0
VERTEX
  5
12d
  8
Layer_2
  10
98.866814
  20
128.05717
  0
VERTEX
  5
12e
  8
Layer_2
  10
98.866814
  20
130.45708
  0
VERTEX
  5
12f
  8
Layer_2
  10
92.327507
  20
130.45709
  0
VERTEX
  5
130
  8
Layer_2
  10
92.327507
  20
128.05719
  0
VERTEX
  5
131
  8
Layer_2
  10
94.727409
  20
128.05719
  0
VERTEX
  5
132
  8
Layer_2
  10
94.727394
  20
123.85699
  0
VERTEX
  5
133
  8
Layer_2
  10
89.927345
  20
123.85699
  0
VERTEX
  5
134
  8
Layer_2
  10
89.927345
  20
119.65704
  0
VERTEX
  5
135
  8
Layer_2
  10
94.727394
  20
119.65704
  0
VERTEX
  5
136
  8
Layer_2
  10
94.727394
  20
115.45709
  0
VERTEX
  5
137
  8
Layer_2
  10
89.927345
  20
115.45709
  0
VERTEX
  5
138
  8
Layer_2
  10
89.927345
  20
111.25714
  0
VERTEX
  5
139
  8
Layer_2
  10
94.727394
  20
111.25714
  0
VERTEX
  5
13a
  8
Layer_2
  10
94.727394
  20
107.05719
  0
VERTEX
  5
13b
  8
Layer_2
  10
89.927345
  20
107.05719
  0
VERTEX
  5
13c
  8
Layer_2
  10
89.927345
  20
102.85699
  0
VERTEX
  5
13d
  8
Layer_2
  10
92.327492
  20
102.85699
  0
VERTEX
  5
13e
  8
Layer_2
  10
92.327492
  20
100.45709
  0
VERTEX
  5
13f
  8
Layer_2
  10
98.865822
  20
100.45708
  0
VERTEX
  5
140
  8
Layer_2
  10
98.865822
  20
102.85698
  0
SEQEND
  0
POLYLINE
  5
142
  8
Layer_2
  62
1
  66
1
  10
0
  20
0
  30
0
  0
VERTEX
  5
142
  8
Layer_2
  10
86.280197
  20
111.25711
  0
VERTEX
  5
143
  8
Layer_2
  10
86.280197
  20
115.45706
  0
VERTEX
  5
144
  8
Layer_2
  10
88.680099
  20
115.45705
  0
VERTEX
  5
145
  8
Layer_2
  10
88.680107
  20
119.657
  0
VERTEX
  5
146
  8
Layer_2
  10
86.280205
  20
119.65701
  0
VERTEX
  5
147
  8
Layer_2
  10
86.280205
  20
123.85696
  0
VERTEX
  5
148
  8
Layer_2
  10
88.680107
  20
123.85695
  0
VERTEX
  5
149
  8
Layer_2
  10
88.680107
  20
130.45705
  0
VERTEX
  5
14a
  8
Layer_2
  10
82.1408
  20
130.45706
  0
VERTEX
  5
14b
  8
Layer_2
  10
82.1408
  20
128.05716
  0
VERTEX
  5
14c
  8
Layer_2
  10
78.116875
  20
128.05716
  0
VERTEX
  5
14d
  8
Layer_2
  10
78.116875
  20
130.45706
  0
VERTEX
  5
14e
  8
Layer_2
  10
58.515312
  20
130.45706
  0
VERTEX
  5
14f
  8
Layer_2
  10
58.515312
  20
128.05716
  0
VERTEX
  5
150
  8
Layer_2
  10
54.491386
  20
128.05716
  0
VERTEX
  5
151
  8
Layer_2
  10
54.491386
  20
130.45706
  0
VERTEX
  5
152
  8
Layer_2
  10
34.88958
  20
130.45708
  0
VERTEX
  5
153
  8
Layer_2
  10
34.88958
  20
128.05717
  0
VERTEX
  5
154
  8
Layer_2
  10
30.865654
  20
128.05717
  0
VERTEX
  5
155
  8
Layer_2
  10
30.865654
  20
130.45708
  0
VERTEX
  5
156
  8
Layer_2
  10
24.327316
  20
130.45708
  0
VERTEX
  5
157
  8
Layer_2
  10
24.327316
  20
128.05717
  0
VERTEX
  5
158
  8
Layer_2
  10
26.727463
  20
128.05717
  0
VERTEX
  5
159
  8
Layer_2
  10
26.727463
  20
123.85698
  0
VERTEX
  5
15a
  8
Layer_2
  10
21.927414
  20
123.85698
  0
VERTEX
  5
15b
  8
Layer_2
  10
21.927414
  20
119.65703
  0
VERTEX
  5
15c
  8
Layer_2
  10
26.727463
  20
119.65703
  0
VERTEX
  5
15d
  8
Layer_2
  10
26.727463
  20
115.45708
  0
VERTEX
  5
15e
  8
Layer_2
  10
21.927414
  20
115.45708
  0
VERTEX
  5
15f
  8
Layer_2
  10
21.927414
  20
111.25713
  0
VERTEX
  5
160
  8
Layer_2
  10
26.727463
  20
111.25713
  0
VERTEX
  5
161
  8
Layer_2
  10
26.727463
  20
107.05717
  0
VERTEX
  5
162
  8
Layer_2
  10
21.927414
  20
107.05717
  0
VERTEX
  5
163
  8
Layer_2
  10
21.927414
  20
102.85698
  0
VERTEX
  5
164
  8
Layer_2
  10
24.327316
  20
102.85698
  0
VERTEX
  5
165
  8
Layer_2
  10
24.327316
  20
100.45708
  0
VERTEX
  5
166
  8
Layer_2
  10
30.866623
  20
100.45708
  0
VERTEX
  5
167
  8
Layer_2
  10
30.866623
  20
102.85698
  0
VERTEX
  5
168
  8
Layer_2
  10
34.890793
  20
102.85698
  0
VERTEX
  5
169
  8
Layer_2
  10
34.890793
  20
100.45708
  0
VERTEX
  5
16a
  8
Layer_2
  10
54.492363
  20
100.45706
  0
VERTEX
  5
16b
  8
Layer_2
  10
54.492363
  20
102.85696
  0
VERTEX
  5
16c
  8
Layer_2
  10
58.516281
  20
102.85696
  0
VERTEX
  5
16d
  8
Layer_2
  10
58.516281
  20
100.45706
  0
VERTEX
  5
16e
  8
Layer_2
  10
78.117844
  20
100.45706
  0
VERTEX
  5
16f
  8
Layer_2
  10
78.117844
  20
102.85696
  0
VERTEX
  5
170
  8
Layer_2
  10
82.141769
  20
102.85696
  0
VERTEX
  5
171
  8
Layer_2
  10
82.141769
  20
100.45706
  0
VERTEX
  5
172
  8
Layer_2
  10
88.680099
  20
100.45705
  0
VERTEX
  5
173
  8
Layer_2
  10
88.680099
  20
102.85695
  0
VERTEX
  5
174
  8
Layer_2
  10
86.280197
  20
102.85696
  0
VERTEX
  5
175
  8
Layer_2
  10
86.280197
  20
107.05716
  0
VERTEX
  5
176
  8
Layer_2
  10
88.680099
  20
107.05714
  0
VERTEX
  5
177
  8
Layer_2
  10
88.680099
  20
111.2571
  0
VERTEX
  5
178
  8
Layer_2
  10
86.280197
  20
111.25711
  0
SEQEND
  0
POLYLINE
  5
17a
  8
Layer_2
  62
1
  66
1
  10
0
  20
0
  30
0
  0
VERTEX
  5
17a
  8
Layer_2
  10
173.54193
  20
72.351288
  0
VERTEX
  5
17b
  8
Layer_2
  10
173.54193
  20
69.951141
  0
VERTEX
  5
17c
  8
Layer_2
  10
178.21844
  20
69.951134
  0
VERTEX
  5
17d
  8
Layer_2
  10
178.21844
  20
72.35128
  0
VERTEX
  5
17e
  8
Layer_2
  10
183.79388
  20
72.35128
  0
VERTEX
  5
17f
  8
Layer_2
  10
183.79388
  20
79.741959
  0
VERTEX
  5
180
  8
Layer_2
  10
181.38202
  20
79.743614
  0
VERTEX
  5
181
  8
Layer_2
  10
181.38202
  20
90.157188
  0
VERTEX
  5
182
  8
Layer_2
  10
183.78217
  20
90.157188
  0
VERTEX
  5
183
  8
Layer_2
  10
183.79388
  20
90.124962
  0
VERTEX
  5
184
  8
Layer_2
  10
183.79388
  20
97.548546
  0
VERTEX
  5
185
  8
Layer_2
  10
178.21844
  20
97.548546
  0
VERTEX
  5
186
  8
Layer_2
  10
178.21844
  20
99.948692
  0
VERTEX
  5
187
  8
Layer_2
  10
173.54193
  20
99.9487
  0
VERTEX
  5
188
  8
Layer_2
  10
173.54193
  20
97.548553
  0
VERTEX
  5
189
  8
Layer_2
  10
168.58661
  20
97.548553
  0
VERTEX
  5
18a
  8
Layer_2
  10
168.58661
  20
72.351288
  0
VERTEX
  5
18b
  8
Layer_2
  10
173.54193
  20
72.351288
  0
SEQEND
  0
POLYLINE
  5
18d
  8
Layer_2
  62
1
  66
1
  10
0
  20
0
  30
0
  0
VERTEX
  5
18d
  8
Layer_2
  10
52.950584
  20
78.43721
  0
VERTEX
  5
18e
  8
Layer_2
  10
52.883446
  20
78.453812
  0
VERTEX
  5
18f
  8
Layer_2
  10
60.343895
  20
78.453812
  0
VERTEX
  5
190
  8
Layer_2
  10
60.343895
  20
82.752884
  0
VERTEX
  5
191
  8
Layer_2
  10
62.743797
  20
82.752884
  0
VERTEX
  5
192
  8
Layer_2
  10
62.743797
  20
86.715775
  0
VERTEX
  5
193
  8
Layer_2
  10
60.343895
  20
86.715775
  0
VERTEX
  5
194
  8
Layer_2
  10
60.343895
  20
88.988235
  0
VERTEX
  5
195
  8
Layer_2
  10
56.143944
  20
88.988235
  0
VERTEX
  5
196
  8
Layer_2
  10
56.143944
  20
91.387161
  0
VERTEX
  5
197
  8
Layer_2
  10
51.944237
  20
91.386917
  0
VERTEX
  5
198
  8
Layer_2
  10
51.943993
  20
88.987259
  0
VERTEX
  5
199
  8
Layer_2
  10
47.743797
  20
88.987259
  0
VERTEX
  5
19a
  8
Layer_2
  10
47.744286
  20
91.387405
  0
VERTEX
  5
19b
  8
Layer_2
  10
43.543846
  20
91.387405
  0
VERTEX
  5
19c
  8
Layer_2
  10
43.543846
  20
88.987259
  0
VERTEX
  5
19d
  8
Layer_2
  10
39.343895
  20
88.987259
  0
VERTEX
  5
19e
  8
Layer_2
  10
39.344383
  20
91.387161
  0
VERTEX
  5
19f
  8
Layer_2
  10
35.143944
  20
91.387161
  0
VERTEX
  5
1a0
  8
Layer_2
  10
35.1437
  20
86.730911
  0
VERTEX
  5
1a1
  8
Layer_2
  10
32.743797
  20
86.730667
  0
VERTEX
  5
1a2
  8
Layer_2
  10
32.743797
  20
82.752884
  0
VERTEX
  5
1a3
  8
Layer_2
  10
35.1437
  20
82.752884
  0
VERTEX
  5
1a4
  8
Layer_2
  10
35.1437
  20
78.453812
  0
VERTEX
  5
1a5
  8
Layer_2
  10
42.58828
  20
78.453812
  0
VERTEX
  5
1a6
  8
Layer_2
  10
42.53701
  20
78.43721
  0
VERTEX
  5
1a7
  8
Layer_2
  10
42.53701
  20
76.037064
  0
VERTEX
  5
1a8
  8
Layer_2
  10
52.950584
  20
76.037064
  0
VERTEX
  5
1a9
  8
Layer_2
  10
52.950584
  20
78.43721
  0
SEQEND
  0
POLYLINE
  5
1ab
  8
Layer_2
  62
1
  66
1
  10
0
  20
0
  30
0
  0
VERTEX
  5
1ab
  8
Layer_2
  10
105.52426
  20
77.98526
  0
VERTEX
  5
1ac
  8
Layer_2
  10
105.5914
  20
78.001862
  0
VERTEX
  5
1ad
  8
Layer_2
  10
98.130951
  20
78.001862
  0
VERTEX
  5
1ae
  8
Layer_2
  10
98.130951
  20
82.300934
  0
VERTEX
  5
1af
  8
Layer_2
  10
95.731049
  20
82.300934
  0
VERTEX
  5
1b0
  8
Layer_2
  10
95.731049
  20
86.263824
  0
VERTEX
  5
1b1
  8
Layer_2
  10
98.130951
  20
86.263824
  0
VERTEX
  5
1b2
  8
Layer_2
  10
98.130951
  20
88.536285
  0
VERTEX
  5
1b3
  8
Layer_2
  10
102.3309
  20
88.536285
  0
VERTEX
  5
1b4
  8
Layer_2
  10
102.3309
  20
90.935211
  0
VERTEX
  5
1b5
  8
Layer_2
  10
106.53061
  20
90.934967
  0
VERTEX
  5
1b6
  8
Layer_2
  10
106.53085
  20
88.535309
  0
VERTEX
  5
1b7
  8
Layer_2
  10
110.73105
  20
88.535309
  0
VERTEX
  5
1b8
  8
Layer_2
  10
110.73056
  20
90.935455
  0
VERTEX
  5
1b9
  8
Layer_2
  10
114.931
  20
90.935455
  0
VERTEX
  5
1ba
  8
Layer_2
  10
114.931
  20
88.535309
  0
VERTEX
  5
1bb
  8
Layer_2
  10
119.13095
  20
88.535309
  0
VERTEX
  5
1bc
  8
Layer_2
  10
119.13046
  20
90.935211
  0
VERTEX
  5
1bd
  8
Layer_2
  10
123.3309
  20
90.935211
  0
VERTEX
  5
1be
  8
Layer_2
  10
123.33115
  20
86.278961
  0
VERTEX
  5
1bf
  8
Layer_2
  10
125.73105
  20
86.278717
  0
VERTEX
  5
1c0
  8
Layer_2
  10
125.73105
  20
82.300934
  0
VERTEX
  5
1c1
  8
Layer_2
  10
123.33115
  20
82.300934
  0
VERTEX
  5
1c2
  8
Layer_2
  10
123.33115
  20
78.001862
  0
VERTEX
  5
1c3
  8
Layer_2
  10
115.88657
  20
78.001862
  0
VERTEX
  5
1c4
  8
Layer_2
  10
115.93784
  20
77.98526
  0
VERTEX
  5
1c5
  8
Layer_2
  10
115.93784
  20
75.585114
  0
VERTEX
  5
1c6
  8
Layer_2
  10
105.52426
  20
75.585114
  0
VERTEX
  5
1c7
  8
Layer_2
  10
105.52426
  20
77.98526
  0
SEQEND
  0
POLYLINE
  5
1c9
  8
Layer_2
  62
1
  66
1
  10
0
  20
0
  30
0
  0
VERTEX
  5
1c9
  8
Layer_2
  10
168.54192
  20
66.548538
  0
VERTEX
  5
1ca
  8
Layer_2
  10
168.54192
  20
68.948685
  0
VERTEX
  5
1cb
  8
Layer_2
  10
173.21844
  20
68.948677
  0
VERTEX
  5
1cc
  8
Layer_2
  10
173.21844
  20
66.548531
  0
VERTEX
  5
1cd
  8
Layer_2
  10
178.79388
  20
66.548531
  0
VERTEX
  5
1ce
  8
Layer_2
  10
178.79388
  20
59.157856
  0
VERTEX
  5
1cf
  8
Layer_2
  10
176.38202
  20
59.156197
  0
VERTEX
  5
1d0
  8
Layer_2
  10
176.38199
  20
48.742622
  0
VERTEX
  5
1d1
  8
Layer_2
  10
178.78214
  20
48.742622
  0
VERTEX
  5
1d2
  8
Layer_2
  10
178.79385
  20
48.774849
  0
VERTEX
  5
1d3
  8
Layer_2
  10
178.79385
  20
41.351265
  0
VERTEX
  5
1d4
  8
Layer_2
  10
173.21841
  20
41.351265
  0
VERTEX
  5
1d5
  8
Layer_2
  10
173.21841
  20
38.951118
  0
VERTEX
  5
1d6
  8
Layer_2
  10
168.54192
  20
38.951122
  0
VERTEX
  5
1d7
  8
Layer_2
  10
168.54192
  20
41.351269
  0
VERTEX
  5
1d8
  8
Layer_2
  10
163.58659
  20
41.351269
  0
VERTEX
  5
1d9
  8
Layer_2
  10
163.58659
  20
66.548538
  0
VERTEX
  5
1da
  8
Layer_2
  10
168.54192
  20
66.548538
  0
SEQEND
  0
POLYLINE
  5
1dc
  8
Layer_2
  62
1
  66
1
  10
0
  20
0
  30
0
  0
VERTEX
  5
1dc
  8
Layer_2
  10
147.98434
  20
37.471458
  0
VERTEX
  5
1dd
  8
Layer_2
  10
8.6232224
  20
37.471458
  0
VERTEX
  5
1de
  8
Layer_2
  10
8.6232224
  20
7.4427204
  0
VERTEX
  5
1df
  8
Layer_2
  10
147.98434
  20
7.4427204
  0
VERTEX
  5
1e0
  8
Layer_2
  10
147.98434
  20
37.471458
  0
SEQEND
  0
POLYLINE
  5
1e2
  8
Layer_2
  62
1
  66
1
  10
0
  20
0
  30
0
  0
VERTEX
  5
1e2
  8
Layer_2
  10
13.059486
  20
32.158737
  0
VERTEX
  5
1e3
  8
Layer_2
  10
13.059486
  20
34.55864
  0
VERTEX
  5
1e4
  8
Layer_2
  10
18.381752
  20
34.55864
  0
VERTEX
  5
1e5
  8
Layer_2
  10
18.381752
  20
32.158737
  0
VERTEX
  5
1e6
  8
Layer_2
  10
13.059486
  20
32.158737
  0
SEQEND
  0
POLYLINE
  5
1e8
  8
Layer_2
  62
1
  66
1
  10
0
  20
0
  30
0
  0
VERTEX
  5
1e8
  8
Layer_2
  10
44.351723
  20
32.158737
  0
VERTEX
  5
1e9
  8
Layer_2
  10
44.351723
  20
34.55864
  0
VERTEX
  5
1ea
  8
Layer_2
  10
49.673988
  20
34.55864
  0
VERTEX
  5
1eb
  8
Layer_2
  10
49.673988
  20
32.158737
  0
VERTEX
  5
1ec
  8
Layer_2
  10
44.351723
  20
32.158737
  0
SEQEND
  0
POLYLINE
  5
1ee
  8
Layer_2
  62
1
  66
1
  10
0
  20
0
  30
0
  0
VERTEX
  5
1ee
  8
Layer_2
  10
75.643959
  20
32.158737
  0
VERTEX
  5
1ef
  8
Layer_2
  10
75.643959
  20
34.55864
  0
VERTEX
  5
1f0
  8
Layer_2
  10
80.966225
  20
34.55864
  0
VERTEX
  5
1f1
  8
Layer_2
  10
80.966225
  20
32.158737
  0
VERTEX
  5
1f2
  8
Layer_2
  10
75.643959
  20
32.158737
  0
SEQEND
  0
POLYLINE
  5
1f4
  8
Layer_2
  62
1
  66
1
  10
0
  20
0
  30
0
  0
VERTEX
  5
1f4
  8
Layer_2
  10
106.93594
  20
32.158737
  0
VERTEX
  5
1f5
  8
Layer_2
  10
106.93594
  20
34.55864
  0
VERTEX
  5
1f6
  8
Layer_2
  10
112.25822
  20
34.55864
  0
VERTEX
  5
1f7
  8
Layer_2
  10
112.25822
  20
32.158737
  0
VERTEX
  5
1f8
  8
Layer_2
  10
106.93594
  20
32.158737
  0
SEQEND
  0
POLYLINE
  5
1fa
  8
Layer_2
  62
1
  66
1
  10
0
  20
0
  30
0
  0
VERTEX
  5
1fa
  8
Layer_2
  10
138.22818
  20
32.158737
  0
VERTEX
  5
1fb
  8
Layer_2
  10
138.22818
  20
34.55864
  0
VERTEX
  5
1fc
  8
Layer_2
  10
143.55045
  20
34.55864
  0
VERTEX
  5
1fd
  8
Layer_2
  10
143.55045
  20
32.158737
  0
VERTEX
  5
1fe
  8
Layer_2
  10
138.22818
  20
32.158737
  0
SEQEND
  0
POLYLINE
  5
200
  8
Layer_2
  62
1
  66
1
  10
0
  20
0
  30
0
  0
VERTEX
  5
200
  8
Layer_2
  10
138.22601
  20
9.8602142
  0
VERTEX
  5
201
  8
Layer_2
  10
138.22601
  20
12.260117
  0
VERTEX
  5
202
  8
Layer_2
  10
143.54828
  20
12.260117
  0
VERTEX
  5
203
  8
Layer_2
  10
143.54828
  20
9.8602142
  0
VERTEX
  5
204
  8
Layer_2
  10
138.22601
  20
9.8602142
  0
SEQEND
  0
POLYLINE
  5
206
  8
Layer_2
  62
1
  66
1
  10
0
  20
0
  30
0
  0
VERTEX
  5
206
  8
Layer_2
  10
106.93376
  20
9.8602142
  0
VERTEX
  5
207
  8
Layer_2
  10
106.93376
  20
12.260117
  0
VERTEX
  5
208
  8
Layer_2
  10
112.25604
  20
12.260117
  0
VERTEX
  5
209
  8
Layer_2
  10
112.25604
  20
9.8602142
  0
VERTEX
  5
20a
  8
Layer_2
  10
106.93376
  20
9.8602142
  0
SEQEND
  0
POLYLINE
  5
20c
  8
Layer_2
  62
1
  66
1
  10
0
  20
0
  30
0
  0
VERTEX
  5
20c
  8
Layer_2
  10
75.641785
  20
9.8602142
  0
VERTEX
  5
20d
  8
Layer_2
  10
75.641785
  20
12.260117
  0
VERTEX
  5
20e
  8
Layer_2
  10
80.96405
  20
12.260117
  0
VERTEX
  5
20f
  8
Layer_2
  10
80.96405
  20
9.8602142
  0
VERTEX
  5
210
  8
Layer_2
  10
75.641785
  20
9.8602142
  0
SEQEND
  0
POLYLINE
  5
212
  8
Layer_2
  62
1
  66
1
  10
0
  20
0
  30
0
  0
VERTEX
  5
212
  8
Layer_2
  10
44.349545
  20
9.8602142
  0
VERTEX
  5
213
  8
Layer_2
  10
44.349545
  20
12.260117
  0
VERTEX
  5
214
  8
Layer_2
  10
49.67181
  20
12.260117
  0
VERTEX
  5
215
  8
Layer_2
  10
49.67181
  20
9.8602142
  0
VERTEX
  5
216
  8
Layer_2
  10
44.349545
  20
9.8602142
  0
SEQEND
  0
POLYLINE
  5
218
  8
Layer_2
  62
1
  66
1
  10
0
  20
0
  30
0
  0
VERTEX
  5
218
  8
Layer_2
  10
13.057308
  20
9.8602142
  0
VERTEX
  5
219
  8
Layer_2
  10
13.057308
  20
12.260117
  0
VERTEX
  5
21a
  8
Layer_2
  10
18.379574
  20
12.260117
  0
VERTEX
  5
21b
  8
Layer_2
  10
18.379574
  20
9.8602142
  0
VERTEX
  5
21c
  8
Layer_2
  10
13.057308
  20
9.8602142
  0
SEQEND
  0
CIRCLE
  5
21e
  8
Layer_2
  62
1
  10
89.053886
  20
22.209427
  30
0
  40
4
  0
POLYLINE
  5
21e
  8
Layer_2
  62
1
  66
1
  10
0
  20
0
  30
0
  0
VERTEX
  5
21e
  8
Layer_2
  10
111.19937
  20
17.171158
  0
VERTEX
  5
21f
  8
Layer_2
  10
112.19937
  20
17.171158
  0
VERTEX
  5
220
  8
Layer_2
  10
112.19937
  20
30.051395
  0
VERTEX
  5
221
  8
Layer_2
  10
102.30389
  20
30.051395
  0
VERTEX
  5
222
  8
Layer_2
  10
102.30389
  20
22.247696
  0
VERTEX
  5
223
  8
Layer_2
  10
111.19937
  20
22.247696
  0
VERTEX
  5
224
  8
Layer_2
  10
111.19937
  20
17.171158
  0
SEQEND
  0
POLYLINE
  5
226
  8
Layer_2
  62
1
  66
1
  10
0
  20
0
  30
0
  0
VERTEX
  5
226
  8
Layer_2
  10
45.280182
  20
27.270065
  0
VERTEX
  5
227
  8
Layer_2
  10
44.280182
  20
27.270065
  0
VERTEX
  5
228
  8
Layer_2
  10
44.280182
  20
14.389828
  0
VERTEX
  5
229
  8
Layer_2
  10
54.175667
  20
14.389828
  0
VERTEX
  5
22a
  8
Layer_2
  10
54.175667
  20
22.193527
  0
VERTEX
  5
22b
  8
Layer_2
  10
45.280182
  20
22.193527
  0
VERTEX
  5
22c
  8
Layer_2
  10
45.280182
  20
27.270065
  0
SEQEND
  0
CIRCLE
  5
22e
  8
Layer_2
  62
1
  10
67.425667
  20
22.231796
  30
0
  40
4
  0
POLYLINE
  5
22e
  8
Layer_2
  62
1
  66
1
  10
0
  20
0
  30
0
  0
VERTEX
  5
22e
  8
Layer_2
  10
245.45029
  20
6.2472839
  0
VERTEX
  5
22f
  8
Layer_2
  10
245.4503
  20
39.668671
  42
-0.28542583
  0
VERTEX
  5
230
  8
Layer_2
  10
247.11455
  20
42.350525
  42
0.09941113
  0
VERTEX
  5
231
  8
Layer_2
  10
248.07359
  20
43.068329
  42
0.17564365
  0
VERTEX
  5
232
  8
Layer_2
  10
248.55553
  20
44.350555
  0
VERTEX
  5
233
  8
Layer_2
  10
248.55553
  20
47.73288
  42
0.25144945
  0
VERTEX
  5
234
  8
Layer_2
  10
247.52892
  20
49.502411
  42
0.031739015
  0
VERTEX
  5
235
  8
Layer_2
  10
247.15303
  20
49.710327
  42
-0.28905108
  0
VERTEX
  5
236
  8
Layer_2
  10
245.4503
  20
52.412354
  0
VERTEX
  5
237
  8
Layer_2
  10
245.4503
  20
91.736206
  42
-0.29025678
  0
VERTEX
  5
238
  8
Layer_2
  10
247.16983
  20
94.448959
  42
0.12750496
  0
VERTEX
  5
239
  8
Layer_2
  10
248.27769
  20
95.42746
  42
0.13151837
  0
VERTEX
  5
23a
  8
Layer_2
  10
248.55553
  20
96.424774
  0
VERTEX
  5
23b
  8
Layer_2
  10
248.55553
  20
99.807098
  42
0.27926279
  0
VERTEX
  5
23c
  8
Layer_2
  10
247.2921
  20
101.71457
  42
0.012338477
  0
VERTEX
  5
23d
  8
Layer_2
  10
247.14172
  20
101.78949
  42
-0.287745
  0
VERTEX
  5
23e
  8
Layer_2
  10
245.4503
  20
104.48706
  0
VERTEX
  5
23f
  8
Layer_2
  10
245.45032
  20
137.87643
  0
VERTEX
  5
240
  8
Layer_2
  10
241.06091
  20
137.87643
  0
VERTEX
  5
241
  8
Layer_2
  10
241.06088
  20
6.2472839
  0
VERTEX
  5
242
  8
Layer_2
  10
245.45029
  20
6.2472839
  0
SEQEND
  0
POLYLINE
  5
244
  8
Layer_2
  62
1
  66
1
  10
0
  20
0
  30
0
  0
VERTEX
  5
244
  8
Layer_2
  10
243.15405
  20
99.315796
  0
VERTEX
  5
245
  8
Layer_2
  10
245.55396
  20
99.315796
  0
VERTEX
  5
246
  8
Layer_2
  10
245.55396
  20
96.916046
  0
VERTEX
  5
247
  8
Layer_2
  10
243.15405
  20
96.916054
  0
VERTEX
  5
248
  8
Layer_2
  10
243.15405
  20
99.315796
  0
SEQEND
  0
POLYLINE
  5
24a
  8
Layer_2
  62
1
  66
1
  10
0
  20
0
  30
0
  0
VERTEX
  5
24a
  8
Layer_2
  10
243.15404
  20
44.841896
  0
VERTEX
  5
24b
  8
Layer_2
  10
245.55394
  20
44.841892
  0
VERTEX
  5
24c
  8
Layer_2
  10
245.55394
  20
47.241634
  0
VERTEX
  5
24d
  8
Layer_2
  10
243.15404
  20
47.241638
  0
VERTEX
  5
24e
  8
Layer_2
  10
243.15404
  20
44.841896
  0
SEQEND
  0
POLYLINE
  5
250
  8
Layer_2
  62
1
  66
1
  10
0
  20
0
  30
0
  0
VERTEX
  5
250
  8
Layer_2
  10
230.32286
  20
99.315735
  0
VERTEX
  5
251
  8
Layer_2
  10
232.72276
  20
99.315735
  0
VERTEX
  5
252
  8
Layer_2
  10
232.72276
  20
96.915985
  0
VERTEX
  5
253
  8
Layer_2
  10
230.32286
  20
96.915993
  0
VERTEX
  5
254
  8
Layer_2
  10
230.32286
  20
99.315735
  0
SEQEND
  0
POLYLINE
  5
256
  8
Layer_2
  62
1
  66
1
  10
0
  20
0
  30
0
  0
VERTEX
  5
256
  8
Layer_2
  10
230.32285
  20
44.841835
  0
VERTEX
  5
257
  8
Layer_2
  10
232.72275
  20
44.841831
  0
VERTEX
  5
258
  8
Layer_2
  10
232.72275
  20
47.241573
  0
VERTEX
  5
259
  8
Layer_2
  10
230.32285
  20
47.241577
  0
VERTEX
  5
25a
  8
Layer_2
  10
230.32285
  20
44.841835
  0
SEQEND
  0
POLYLINE
  5
25c
  8
Layer_2
  62
1
  66
1
  10
0
  20
0
  30
0
  0
VERTEX
  5
25c
  8
Layer_2
  10
228.22958
  20
6.2473602
  0
VERTEX
  5
25d
  8
Layer_2
  10
228.22961
  20
137.87636
  0
VERTEX
  5
25e
  8
Layer_2
  10
241.06091
  20
137.87636
  0
VERTEX
  5
25f
  8
Layer_2
  10
241.06088
  20
6.2473602
  0
VERTEX
  5
260
  8
Layer_2
  10
228.22958
  20
6.2473602
  0
SEQEND
  0
POLYLINE
  5
262
  8
Layer_2
  62
1
  66
1
  10
0
  20
0
  30
0
  0
VERTEX
  5
262
  8
Layer_2
  10
161.06554
  20
71.633293
  0
VERTEX
  5
263
  8
Layer_2
  10
161.06554
  20
74.033195
  0
VERTEX
  5
264
  8
Layer_2
  10
163.46562
  20
74.033195
  0
VERTEX
  5
265
  8
Layer_2
  10
163.46562
  20
71.633293
  0
VERTEX
  5
266
  8
Layer_2
  10
161.06554
  20
71.633293
  0
SEQEND
  0
POLYLINE
  5
268
  8
Layer_2
  62
1
  66
1
  10
0
  20
0
  30
0
  0
VERTEX
  5
268
  8
Layer_2
  10
161.06554
  20
88.279526
  0
VERTEX
  5
269
  8
Layer_2
  10
161.06554
  20
90.679428
  0
VERTEX
  5
26a
  8
Layer_2
  10
163.46562
  20
90.679428
  0
VERTEX
  5
26b
  8
Layer_2
  10
163.46562
  20
88.279526
  0
VERTEX
  5
26c
  8
Layer_2
  10
161.06554
  20
88.279526
  0
SEQEND
  0
POLYLINE
  5
26e
  8
Layer_2
  62
1
  66
1
  10
0
  20
0
  30
0
  0
VERTEX
  5
26e
  8
Layer_2
  10
161.06555
  20
125.8212
  0
VERTEX
  5
26f
  8
Layer_2
  10
161.06555
  20
128.2211
  0
VERTEX
  5
270
  8
Layer_2
  10
163.4655
  20
128.2211
  0
VERTEX
  5
271
  8
Layer_2
  10
163.4655
  20
125.8212
  0
VERTEX
  5
272
  8
Layer_2
  10
161.06555
  20
125.8212
  0
SEQEND
  0
POLYLINE
  5
274
  8
Layer_2
  62
1
  66
1
  10
0
  20
0
  30
0
  0
VERTEX
  5
274
  8
Layer_2
  10
158.77155
  20
69.263481
  0
VERTEX
  5
275
  8
Layer_2
  10
158.82916
  20
130.63634
  0
VERTEX
  5
276
  8
Layer_2
  10
171.8291
  20
130.63635
  0
VERTEX
  5
277
  8
Layer_2
  10
171.8291
  20
128.07703
  0
VERTEX
  5
278
  8
Layer_2
  10
173.60892
  20
128.07703
  0
VERTEX
  5
279
  8
Layer_2
  10
173.60892
  20
102.76867
  0
VERTEX
  5
27a
  8
Layer_2
  10
171.38699
  20
102.76867
  0
VERTEX
  5
27b
  8
Layer_2
  10
170.88781
  20
102.75566
  0
VERTEX
  5
27c
  8
Layer_2
  10
170.4249
  20
102.71704
  0
VERTEX
  5
27d
  8
Layer_2
  10
169.99692
  20
102.65345
  0
VERTEX
  5
27e
  8
Layer_2
  10
169.60253
  20
102.5655
  0
VERTEX
  5
27f
  8
Layer_2
  10
169.2404
  20
102.45384
  0
VERTEX
  5
280
  8
Layer_2
  10
168.90918
  20
102.31909
  0
VERTEX
  5
281
  8
Layer_2
  10
168.60754
  20
102.16187
  0
VERTEX
  5
282
  8
Layer_2
  10
168.33413
  20
101.98282
  0
VERTEX
  5
283
  8
Layer_2
  10
168.08761
  20
101.78256
  0
VERTEX
  5
284
  8
Layer_2
  10
167.86666
  20
101.56172
  0
VERTEX
  5
285
  8
Layer_2
  10
167.66992
  20
101.32093
  0
VERTEX
  5
286
  8
Layer_2
  10
167.49606
  20
101.06083
  0
VERTEX
  5
287
  8
Layer_2
  10
167.34373
  20
100.78202
  0
VERTEX
  5
288
  8
Layer_2
  10
167.2116
  20
100.48515
  0
VERTEX
  5
289
  8
Layer_2
  10
167.09834
  20
100.17085
  0
VERTEX
  5
28a
  8
Layer_2
  10
167.00259
  20
99.839736
  0
VERTEX
  5
28b
  8
Layer_2
  10
166.8583
  20
99.129597
  0
VERTEX
  5
28c
  8
Layer_2
  10
166.76801
  20
98.359763
  0
VERTEX
  5
28d
  8
Layer_2
  10
166.72101
  20
97.535262
  0
VERTEX
  5
28e
  8
Layer_2
  10
166.70659
  20
96.66112
  0
VERTEX
  5
28f
  8
Layer_2
  10
166.71402
  20
95.742362
  0
VERTEX
  5
290
  8
Layer_2
  10
166.7326
  20
94.784017
  0
VERTEX
  5
291
  8
Layer_2
  10
166.7516
  20
93.79111
  0
VERTEX
  5
292
  8
Layer_2
  10
166.76032
  20
92.768668
  0
VERTEX
  5
293
  8
Layer_2
  10
166.7027
  20
69.263481
  0
VERTEX
  5
294
  8
Layer_2
  10
158.77155
  20
69.263481
  0
SEQEND
  0
POLYLINE
  5
296
  8
Layer_2
  62
1
  66
1
  10
0
  20
0
  30
0
  0
VERTEX
  5
296
  8
Layer_2
  10
156.06555
  20
66.266479
  0
VERTEX
  5
297
  8
Layer_2
  10
156.06555
  20
63.866573
  0
VERTEX
  5
298
  8
Layer_2
  10
158.46564
  20
63.866573
  0
VERTEX
  5
299
  8
Layer_2
  10
158.46564
  20
66.266479
  0
VERTEX
  5
29a
  8
Layer_2
  10
156.06555
  20
66.266479
  0
SEQEND
  0
POLYLINE
  5
29c
  8
Layer_2
  62
1
  66
1
  10
0
  20
0
  30
0
  0
VERTEX
  5
29c
  8
Layer_2
  10
156.06555
  20
49.620243
  0
VERTEX
  5
29d
  8
Layer_2
  10
156.06555
  20
47.220341
  0
VERTEX
  5
29e
  8
Layer_2
  10
158.46564
  20
47.220341
  0
VERTEX
  5
29f
  8
Layer_2
  10
158.46564
  20
49.620243
  0
VERTEX
  5
2a0
  8
Layer_2
  10
156.06555
  20
49.620243
  0
SEQEND
  0
POLYLINE
  5
2a2
  8
Layer_2
  62
1
  66
1
  10
0
  20
0
  30
0
  0
VERTEX
  5
2a2
  8
Layer_2
  10
156.06557
  20
12.078564
  0
VERTEX
  5
2a3
  8
Layer_2
  10
156.06557
  20
9.6786613
  0
VERTEX
  5
2a4
  8
Layer_2
  10
158.46552
  20
9.6786613
  0
VERTEX
  5
2a5
  8
Layer_2
  10
158.46552
  20
12.078564
  0
VERTEX
  5
2a6
  8
Layer_2
  10
156.06557
  20
12.078564
  0
SEQEND
  0
POLYLINE
  5
2a8
  8
Layer_2
  62
1
  66
1
  10
0
  20
0
  30
0
  0
VERTEX
  5
2a8
  8
Layer_2
  10
153.77155
  20
68.636322
  0
VERTEX
  5
2a9
  8
Layer_2
  10
153.82913
  20
7.2634583
  0
VERTEX
  5
2aa
  8
Layer_2
  10
166.8291
  20
7.2634506
  0
VERTEX
  5
2ab
  8
Layer_2
  10
166.8291
  20
9.8227768
  0
VERTEX
  5
2ac
  8
Layer_2
  10
168.60889
  20
9.8227768
  0
VERTEX
  5
2ad
  8
Layer_2
  10
168.60892
  20
35.131126
  0
VERTEX
  5
2ae
  8
Layer_2
  10
166.38699
  20
35.131126
  0
VERTEX
  5
2af
  8
Layer_2
  10
165.8878
  20
35.14414
  0
VERTEX
  5
2b0
  8
Layer_2
  10
165.42489
  20
35.182757
  0
VERTEX
  5
2b1
  8
Layer_2
  10
164.99691
  20
35.246351
  0
VERTEX
  5
2b2
  8
Layer_2
  10
164.60252
  20
35.334293
  0
VERTEX
  5
2b3
  8
Layer_2
  10
164.24039
  20
35.445955
  0
VERTEX
  5
2b4
  8
Layer_2
  10
163.90917
  20
35.580709
  0
VERTEX
  5
2b5
  8
Layer_2
  10
163.60753
  20
35.737926
  0
VERTEX
  5
2b6
  8
Layer_2
  10
163.33412
  20
35.916979
  0
VERTEX
  5
2b7
  8
Layer_2
  10
163.0876
  20
36.117238
  0
VERTEX
  5
2b8
  8
Layer_2
  10
162.86665
  20
36.338075
  0
VERTEX
  5
2b9
  8
Layer_2
  10
162.66991
  20
36.578863
  0
VERTEX
  5
2ba
  8
Layer_2
  10
162.49604
  20
36.838972
  0
VERTEX
  5
2bb
  8
Layer_2
  10
162.34372
  20
37.117775
  0
VERTEX
  5
2bc
  8
Layer_2
  10
162.21159
  20
37.414643
  0
VERTEX
  5
2bd
  8
Layer_2
  10
162.09833
  20
37.728948
  0
VERTEX
  5
2be
  8
Layer_2
  10
162.00258
  20
38.060062
  0
VERTEX
  5
2bf
  8
Layer_2
  10
161.85829
  20
38.770201
  0
VERTEX
  5
2c0
  8
Layer_2
  10
161.768
  20
39.540034
  0
VERTEX
  5
2c1
  8
Layer_2
  10
161.721
  20
40.364536
  0
VERTEX
  5
2c2
  8
Layer_2
  10
161.70658
  20
41.238678
  0
VERTEX
  5
2c3
  8
Layer_2
  10
161.71401
  20
42.157436
  0
VERTEX
  5
2c4
  8
Layer_2
  10
161.73259
  20
43.115781
  0
VERTEX
  5
2c5
  8
Layer_2
  10
161.75159
  20
44.108688
  0
VERTEX
  5
2c6
  8
Layer_2
  10
161.76031
  20
45.13113
  0
VERTEX
  5
2c7
  8
Layer_2
  10
161.7027
  20
68.636314
  0
VERTEX
  5
2c8
  8
Layer_2
  10
153.77155
  20
68.636322
  0
SEQEND
  0
POLYLINE
  5
2ca
  8
Layer_2
  62
1
  66
1
  10
0
  20
0
  30
0
  0
VERTEX
  5
2ca
  8
Layer_2
  10
184.79247
  20
19.585022
  0
VERTEX
  5
2cb
  8
Layer_2
  10
184.79247
  20
30.538635
  0
VERTEX
  5
2cc
  8
Layer_2
  10
182.39256
  20
30.538635
  0
VERTEX
  5
2cd
  8
Layer_2
  10
182.39256
  20
14.464172
  0
VERTEX
  5
2ce
  8
Layer_2
  10
184.79247
  20
14.464172
  0
VERTEX
  5
2cf
  8
Layer_2
  10
184.79247
  20
17.18512
  0
VERTEX
  5
2d0
  8
Layer_2
  10
187.15331
  20
17.18512
  0
VERTEX
  5
2d1
  8
Layer_2
  10
187.15331
  20
19.585022
  0
VERTEX
  5
2d2
  8
Layer_2
  10
184.79247
  20
19.585022
  0
SEQEND
  0
POLYLINE
  5
2d4
  8
Layer_2
  62
1
  66
1
  10
0
  20
0
  30
0
  0
VERTEX
  5
2d4
  8
Layer_2
  10
179.99263
  20
19.585052
  0
VERTEX
  5
2d5
  8
Layer_2
  10
179.99263
  20
30.538666
  0
VERTEX
  5
2d6
  8
Layer_2
  10
182.39253
  20
30.538666
  0
VERTEX
  5
2d7
  8
Layer_2
  10
182.39253
  20
14.464203
  0
VERTEX
  5
2d8
  8
Layer_2
  10
179.99263
  20
14.464203
  0
VERTEX
  5
2d9
  8
Layer_2
  10
179.99263
  20
17.18515
  0
VERTEX
  5
2da
  8
Layer_2
  10
177.63179
  20
17.18515
  0
VERTEX
  5
2db
  8
Layer_2
  10
177.63179
  20
19.585052
  0
VERTEX
  5
2dc
  8
Layer_2
  10
179.99263
  20
19.585052
  0
SEQEND
  0
POLYLINE
  5
2de
  8
Layer_2
  62
1
  66
1
  10
0
  20
0
  30
0
  0
VERTEX
  5
2de
  8
Layer_2
  10
179.99266
  20
30.538635
  0
VERTEX
  5
2df
  8
Layer_2
  10
179.99266
  20
19.585022
  0
VERTEX
  5
2e0
  8
Layer_2
  10
177.59276
  20
19.585022
  0
VERTEX
  5
2e1
  8
Layer_2
  10
177.59276
  20
35.659485
  0
VERTEX
  5
2e2
  8
Layer_2
  10
179.99266
  20
35.659485
  0
VERTEX
  5
2e3
  8
Layer_2
  10
179.99266
  20
32.938538
  0
VERTEX
  5
2e4
  8
Layer_2
  10
182.3535
  20
32.938538
  0
VERTEX
  5
2e5
  8
Layer_2
  10
182.3535
  20
30.538635
  0
VERTEX
  5
2e6
  8
Layer_2
  10
179.99266
  20
30.538635
  0
SEQEND
  0
POLYLINE
  5
2e8
  8
Layer_2
  62
1
  66
1
  10
0
  20
0
  30
0
  0
VERTEX
  5
2e8
  8
Layer_2
  10
184.79248
  20
30.538445
  0
VERTEX
  5
2e9
  8
Layer_2
  10
184.79247
  20
19.584831
  0
VERTEX
  5
2ea
  8
Layer_2
  10
187.19237
  20
19.584831
  0
VERTEX
  5
2eb
  8
Layer_2
  10
187.19238
  20
35.659294
  0
VERTEX
  5
2ec
  8
Layer_2
  10
184.79248
  20
35.659294
  0
VERTEX
  5
2ed
  8
Layer_2
  10
184.79248
  20
32.938347
  0
VERTEX
  5
2ee
  8
Layer_2
  10
182.43164
  20
32.938347
  0
VERTEX
  5
2ef
  8
Layer_2
  10
182.43164
  20
30.538445
  0
VERTEX
  5
2f0
  8
Layer_2
  10
184.79248
  20
30.538445
  0
SEQEND
  0
POLYLINE
  5
2f2
  8
Layer_2
  62
1
  66
1
  10
0
  20
0
  30
0
  0
VERTEX
  5
2f2
  8
Layer_2
  10
189.59227
  20
30.538628
  0
VERTEX
  5
2f3
  8
Layer_2
  10
189.59227
  20
19.585014
  0
VERTEX
  5
2f4
  8
Layer_2
  10
187.19237
  20
19.585014
  0
VERTEX
  5
2f5
  8
Layer_2
  10
187.19237
  20
35.659477
  0
VERTEX
  5
2f6
  8
Layer_2
  10
189.59227
  20
35.659477
  0
VERTEX
  5
2f7
  8
Layer_2
  10
189.59227
  20
32.93853
  0
VERTEX
  5
2f8
  8
Layer_2
  10
191.95311
  20
32.93853
  0
VERTEX
  5
2f9
  8
Layer_2
  10
191.95311
  20
30.538628
  0
VERTEX
  5
2fa
  8
Layer_2
  10
189.59227
  20
30.538628
  0
SEQEND
  0
POLYLINE
  5
2fc
  8
Layer_2
  62
1
  66
1
  10
0
  20
0
  30
0
  0
VERTEX
  5
2fc
  8
Layer_2
  10
175.19287
  20
30.538445
  0
VERTEX
  5
2fd
  8
Layer_2
  10
175.19286
  20
19.584831
  0
VERTEX
  5
2fe
  8
Layer_2
  10
177.59276
  20
19.584831
  0
VERTEX
  5
2ff
  8
Layer_2
  10
177.59277
  20
35.659294
  0
VERTEX
  5
300
  8
Layer_2
  10
175.19287
  20
35.659294
  0
VERTEX
  5
301
  8
Layer_2
  10
175.19287
  20
32.938347
  0
VERTEX
  5
302
  8
Layer_2
  10
172.83203
  20
32.938347
  0
VERTEX
  5
303
  8
Layer_2
  10
172.83203
  20
30.538445
  0
VERTEX
  5
304
  8
Layer_2
  10
175.19287
  20
30.538445
  0
SEQEND
  0
POLYLINE
  5
306
  8
Layer_2
  62
1
  66
1
  10
0
  20
0
  30
0
  0
VERTEX
  5
306
  8
Layer_2
  10
21.538202
  20
49.278439
  0
VERTEX
  5
307
  8
Layer_2
  10
19.777052
  20
49.101471
  0
VERTEX
  5
308
  8
Layer_2
  10
19.600084
  20
50.862583
  0
VERTEX
  5
309
  8
Layer_2
  10
21.361235
  20
51.039551
  0
VERTEX
  5
30a
  8
Layer_2
  10
21.538202
  20
49.278439
  0
SEQEND
  0
POLYLINE
  5
30c
  8
Layer_2
  62
1
  66
1
  10
0
  20
0
  30
0
  0
VERTEX
  5
30c
  8
Layer_2
  10
12.874678
  20
48.419552
  0
VERTEX
  5
30d
  8
Layer_2
  10
11.113527
  20
48.242584
  0
VERTEX
  5
30e
  8
Layer_2
  10
10.936562
  20
50.003696
  0
VERTEX
  5
30f
  8
Layer_2
  10
12.697712
  20
50.180664
  0
VERTEX
  5
310
  8
Layer_2
  10
12.874678
  20
48.419552
  0
SEQEND
  0
POLYLINE
  5
312
  8
Layer_2
  62
1
  66
1
  10
0
  20
0
  30
0
  0
VERTEX
  5
312
  8
Layer_2
  10
127.0694
  20
49.278439
  0
VERTEX
  5
313
  8
Layer_2
  10
128.83055
  20
49.101471
  0
VERTEX
  5
314
  8
Layer_2
  10
129.00751
  20
50.862583
  0
VERTEX
  5
315
  8
Layer_2
  10
127.24636
  20
51.039551
  0
VERTEX
  5
316
  8
Layer_2
  10
127.0694
  20
49.278439
  0
SEQEND
  0
POLYLINE
  5
318
  8
Layer_2
  62
1
  66
1
  10
0
  20
0
  30
0
  0
VERTEX
  5
318
  8
Layer_2
  10
135.73293
  20
48.419552
  0
VERTEX
  5
319
  8
Layer_2
  10
137.49408
  20
48.242584
  0
VERTEX
  5
31a
  8
Layer_2
  10
137.67104
  20
50.003696
  0
VERTEX
  5
31b
  8
Layer_2
  10
135.90988
  20
50.180664
  0
VERTEX
  5
31c
  8
Layer_2
  10
135.73293
  20
48.419552
  0
SEQEND
  0
POLYLINE
  5
31e
  8
Layer_2
  62
1
  66
1
  10
0
  20
0
  30
0
  0
VERTEX
  5
31e
  8
Layer_2
  10
74.696198
  20
52.84436
  0
VERTEX
  5
31f
  8
Layer_2
  10
74.938461
  20
52.793304
  42
-0.3860124
  0
VERTEX
  5
320
  8
Layer_2
  10
76.771332
  20
49.981186
  42
-0.4127621
  0
VERTEX
  5
321
  8
Layer_2
  10
73.924377
  20
47.903976
  42
-0.3888613
  0
VERTEX
  5
322
  8
Layer_2
  10
71.806793
  20
50.532379
  42
-0.41268843
  0
VERTEX
  5
323
  8
Layer_2
  10
74.441833
  20
52.872055
  0
VERTEX
  5
324
  8
Layer_2
  10
74.696198
  20
52.84436
  0
SEQEND
  0
POLYLINE
  5
326
  8
Layer_2
  62
1
  66
1
  10
0
  20
0
  30
0
  0
VERTEX
  5
326
  8
Layer_2
  10
14.168961
  20
52.740074
  0
VERTEX
  5
327
  8
Layer_2
  10
14.404419
  20
50.351517
  0
VERTEX
  5
328
  8
Layer_2
  10
19.058372
  20
50.81028
  0
VERTEX
  5
329
  8
Layer_2
  10
18.823059
  20
53.197395
  0
VERTEX
  5
32a
  8
Layer_2
  10
23.679298
  20
53.67218
  0
VERTEX
  5
32b
  8
Layer_2
  10
24.331238
  20
52.849846
  0
VERTEX
  5
32c
  8
Layer_2
  10
25.005913
  20
52.0457
  42
0.21150186
  0
VERTEX
  5
32d
  8
Layer_2
  10
28.707878
  20
50.40535
  0
VERTEX
  5
32e
  8
Layer_2
  10
67.292587
  20
50.396301
  0
VERTEX
  5
32f
  8
Layer_2
  10
67.298538
  20
50.701828
  42
-0.40056475
  0
VERTEX
  5
330
  8
Layer_2
  10
74.264587
  20
57.39798
  42
-0.40221063
  0
VERTEX
  5
331
  8
Layer_2
  10
81.294724
  20
50.729538
  0
VERTEX
  5
332
  8
Layer_2
  10
81.302383
  20
50.39299
  0
VERTEX
  5
333
  8
Layer_2
  10
119.89642
  20
50.383881
  42
0.22621423
  0
VERTEX
  5
334
  8
Layer_2
  10
123.7823
  20
52.235931
  0
VERTEX
  5
335
  8
Layer_2
  10
124.92686
  20
53.648239
  0
VERTEX
  5
336
  8
Layer_2
  10
129.77582
  20
53.171906
  0
VERTEX
  5
337
  8
Layer_2
  10
129.54329
  20
50.810234
  0
VERTEX
  5
338
  8
Layer_2
  10
134.19695
  20
50.351486
  0
VERTEX
  5
339
  8
Layer_2
  10
134.42992
  20
52.714706
  0
VERTEX
  5
33a
  8
Layer_2
  10
139.99435
  20
52.168068
  42
-0.025749737
  0
VERTEX
  5
33b
  8
Layer_2
  10
139.80876
  20
45.461945
  0
VERTEX
  5
33c
  8
Layer_2
  10
137.38527
  20
45.700851
  0
VERTEX
  5
33d
  8
Layer_2
  10
136.99507
  20
41.742432
  0
VERTEX
  5
33e
  8
Layer_2
  10
139.3528
  20
41.514923
  42
-0.0099762781
  0
VERTEX
  5
33f
  8
Layer_2
  10
138.93051
  20
39.265549
  0
VERTEX
  5
340
  8
Layer_2
  10
138.57901
  20
39.274658
  0
VERTEX
  5
341
  8
Layer_2
  10
132.07085
  20
39.912109
  0
VERTEX
  5
342
  8
Layer_2
  10
131.83617
  20
37.51622
  0
VERTEX
  5
343
  8
Layer_2
  10
127.83147
  20
37.908997
  0
VERTEX
  5
344
  8
Layer_2
  10
128.0661
  20
40.304352
  0
VERTEX
  5
345
  8
Layer_2
  10
108.55788
  20
42.215118
  0
VERTEX
  5
346
  8
Layer_2
  10
108.3235
  20
39.822266
  0
VERTEX
  5
347
  8
Layer_2
  10
104.3188
  20
40.215042
  0
VERTEX
  5
348
  8
Layer_2
  10
104.55312
  20
42.607391
  0
VERTEX
  5
349
  8
Layer_2
  10
85.044678
  20
44.518204
  0
VERTEX
  5
34a
  8
Layer_2
  10
84.809418
  20
42.129837
  0
VERTEX
  5
34b
  8
Layer_2
  10
80.805954
  20
42.521973
  0
VERTEX
  5
34c
  8
Layer_2
  10
81.039917
  20
44.910461
  0
VERTEX
  5
34d
  8
Layer_2
  10
74.532715
  20
45.547821
  0
VERTEX
  5
34e
  8
Layer_2
  10
74.074905
  20
45.547821
  0
VERTEX
  5
34f
  8
Layer_2
  10
67.567688
  20
44.910461
  0
VERTEX
  5
350
  8
Layer_2
  10
67.775208
  20
42.522598
  0
VERTEX
  5
351
  8
Layer_2
  10
63.780945
  20
42.132751
  0
VERTEX
  5
352
  8
Layer_2
  10
63.562943
  20
44.518204
  0
VERTEX
  5
353
  8
Layer_2
  10
44.054489
  20
42.607391
  0
VERTEX
  5
354
  8
Layer_2
  10
44.288818
  20
40.215042
  0
VERTEX
  5
355
  8
Layer_2
  10
40.284103
  20
39.82225
  0
VERTEX
  5
356
  8
Layer_2
  10
40.049728
  20
42.215118
  0
VERTEX
  5
357
  8
Layer_2
  10
20.541504
  20
40.304367
  0
VERTEX
  5
358
  8
Layer_2
  10
20.78125
  20
37.910004
  0
VERTEX
  5
359
  8
Layer_2
  10
16.771446
  20
37.516205
  0
VERTEX
  5
35a
  8
Layer_2
  10
16.536751
  20
39.912109
  0
VERTEX
  5
35b
  8
Layer_2
  10
9.671669
  20
39.262299
  42
-0.0098375005
  0
VERTEX
  5
35c
  8
Layer_2
  10
9.2500763
  20
41.515152
  0
VERTEX
  5
35d
  8
Layer_2
  10
11.606339
  20
41.742279
  0
VERTEX
  5
35e
  8
Layer_2
  10
11.216118
  20
45.700867
  0
VERTEX
  5
35f
  8
Layer_2
  10
8.791832
  20
45.461899
  42
-0.024257785
  0
VERTEX
  5
360
  8
Layer_2
  10
8.6109695
  20
52.19931
  0
VERTEX
  5
361
  8
Layer_2
  10
14.168961
  20
52.740074
  0
SEQEND
  0
POLYLINE
  5
363
  8
Layer_2
  62
1
  66
1
  10
0
  20
0
  30
0
  0
VERTEX
  5
363
  8
Layer_2
  10
27.496387
  20
91.932747
  0
VERTEX
  5
364
  8
Layer_2
  10
23.496387
  20
91.932747
  0
VERTEX
  5
365
  8
Layer_2
  10
23.496387
  20
93.702721
  0
VERTEX
  5
366
  8
Layer_2
  10
27.496387
  20
93.702721
  0
VERTEX
  5
367
  8
Layer_2
  10
27.496387
  20
91.932747
  0
SEQEND
  0
POLYLINE
  5
369
  8
Layer_2
  62
1
  66
1
  10
0
  20
0
  30
0
  0
VERTEX
  5
369
  8
Layer_2
  10
84.887993
  20
80.231888
  0
VERTEX
  5
36a
  8
Layer_2
  10
85.169487
  20
80.251175
  42
0.13518589
  0
VERTEX
  5
36b
  8
Layer_2
  10
87.192924
  20
81.038773
  42
0.1086053
  0
VERTEX
  5
36c
  8
Layer_2
  10
89.284233
  20
83.301956
  0
VERTEX
  5
36d
  8
Layer_2
  10
89.547661
  20
83.675003
  42
-0.045277372
  0
VERTEX
  5
36e
  8
Layer_2
  10
91.829643
  20
86.083694
  42
-0.05299222
  0
VERTEX
  5
36f
  8
Layer_2
  10
96.16143
  20
89.251907
  42
-0.029304967
  0
VERTEX
  5
370
  8
Layer_2
  10
97.396294
  20
89.826859
  42
-0.042302572
  0
VERTEX
  5
371
  8
Layer_2
  10
102.56622
  20
91.315872
  42
-0.037631809
  0
VERTEX
  5
372
  8
Layer_2
  10
107.17535
  20
91.858841
  42
-0.012680194
  0
VERTEX
  5
373
  8
Layer_2
  10
109.5816
  20
91.930862
  0
VERTEX
  5
374
  8
Layer_2
  10
137.00519
  20
91.930862
  42
-0.41421356
  0
VERTEX
  5
375
  8
Layer_2
  10
138.00519
  20
90.930862
  0
VERTEX
  5
376
  8
Layer_2
  10
138.00519
  20
90.156448
  0
VERTEX
  5
377
  8
Layer_2
  10
149.98932
  20
90.156448
  0
VERTEX
  5
378
  8
Layer_2
  10
149.98932
  20
99.192093
  0
VERTEX
  5
379
  8
Layer_2
  10
144.66705
  20
99.192093
  0
VERTEX
  5
37a
  8
Layer_2
  10
144.66705
  20
96.81221
  0
VERTEX
  5
37b
  8
Layer_2
  10
118.69708
  20
96.81221
  0
VERTEX
  5
37c
  8
Layer_2
  10
118.69708
  20
99.192093
  0
VERTEX
  5
37d
  8
Layer_2
  10
113.37481
  20
99.192093
  0
VERTEX
  5
37e
  8
Layer_2
  10
113.37481
  20
96.81221
  0
VERTEX
  5
37f
  8
Layer_2
  10
87.404839
  20
96.81221
  0
VERTEX
  5
380
  8
Layer_2
  10
87.404839
  20
99.192093
  0
VERTEX
  5
381
  8
Layer_2
  10
82.082573
  20
99.192093
  0
VERTEX
  5
382
  8
Layer_2
  10
82.082573
  20
96.81221
  0
VERTEX
  5
383
  8
Layer_2
  10
56.112846
  20
96.81221
  0
VERTEX
  5
384
  8
Layer_2
  10
56.112846
  20
99.192093
  0
VERTEX
  5
385
  8
Layer_2
  10
50.790581
  20
99.192093
  0
VERTEX
  5
386
  8
Layer_2
  10
50.790581
  20
96.81221
  0
VERTEX
  5
387
  8
Layer_2
  10
24.82061
  20
96.81221
  0
VERTEX
  5
388
  8
Layer_2
  10
24.82061
  20
99.192093
  0
VERTEX
  5
389
  8
Layer_2
  10
19.498344
  20
99.192093
  0
VERTEX
  5
38a
  8
Layer_2
  10
19.4981
  20
92.88179
  0
VERTEX
  5
38b
  8
Layer_2
  10
19.480766
  20
92.88179
  0
VERTEX
  5
38c
  8
Layer_2
  10
19.480766
  20
90.156448
  0
VERTEX
  5
38d
  8
Layer_2
  10
31.482231
  20
90.156448
  0
VERTEX
  5
38e
  8
Layer_2
  10
31.482231
  20
90.930618
  42
-0.41421356
  0
VERTEX
  5
38f
  8
Layer_2
  10
32.482239
  20
91.930618
  0
VERTEX
  5
390
  8
Layer_2
  10
60.10479
  20
91.930374
  42
-0.048000239
  0
VERTEX
  5
391
  8
Layer_2
  10
67.282036
  20
91.247025
  42
-0.050011174
  0
VERTEX
  5
392
  8
Layer_2
  10
72.839897
  20
89.505814
  42
-0.049331609
  0
VERTEX
  5
393
  8
Layer_2
  10
76.74688
  20
86.865433
  42
-0.055952859
  0
VERTEX
  5
394
  8
Layer_2
  10
79.932671
  20
83.689163
  42
-0.028782684
  0
VERTEX
  5
395
  8
Layer_2
  10
80.400932
  20
82.985306
  0
VERTEX
  5
396
  8
Layer_2
  10
80.618217
  20
82.67305
  42
0.11467188
  0
VERTEX
  5
397
  8
Layer_2
  10
82.971977
  20
80.628128
  42
0.11987231
  0
VERTEX
  5
398
  8
Layer_2
  10
84.887993
  20
80.231888
  0
SEQEND
  0
POLYLINE
  5
39a
  8
Layer_2
  62
1
  66
1
  10
0
  20
0
  30
0
  0
VERTEX
  5
39a
  8
Layer_2
  10
84.620415
  20
81.238724
  0
VERTEX
  5
39b
  8
Layer_2
  10
84.384087
  20
81.261429
  42
-0.39261545
  0
VERTEX
  5
39c
  8
Layer_2
  10
82.250053
  20
83.914749
  42
-0.40817437
  0
VERTEX
  5
39d
  8
Layer_2
  10
84.869194
  20
86.234573
  42
-0.39320827
  0
VERTEX
  5
39e
  8
Layer_2
  10
87.246391
  20
83.789749
  42
-0.40692701
  0
VERTEX
  5
39f
  8
Layer_2
  10
84.86187
  20
81.23848
  0
VERTEX
  5
3a0
  8
Layer_2
  10
84.620415
  20
81.238724
  0
SEQEND
  0
POLYLINE
  5
3a2
  8
Layer_2
  62
1
  66
1
  10
0
  20
0
  30
0
  0
VERTEX
  5
3a2
  8
Layer_2
  10
141.99103
  20
91.932816
  0
VERTEX
  5
3a3
  8
Layer_2
  10
141.99103
  20
93.702835
  0
VERTEX
  5
3a4
  8
Layer_2
  10
145.99103
  20
93.702835
  0
VERTEX
  5
3a5
  8
Layer_2
  10
145.99103
  20
91.932816
  0
VERTEX
  5
3a6
  8
Layer_2
  10
141.99103
  20
91.932816
  0
SEQEND
  0
POLYLINE
  5
3a8
  8
Layer_2
  62
1
  66
1
  10
0
  20
0
  30
0
  0
VERTEX
  5
3a8
  8
Layer_2
  10
17.065144
  20
75.236275
  0
VERTEX
  5
3a9
  8
Layer_2
  10
13.065144
  20
75.236275
  0
VERTEX
  5
3aa
  8
Layer_2
  10
13.065144
  20
73.466301
  0
VERTEX
  5
3ab
  8
Layer_2
  10
17.065144
  20
73.466301
  0
VERTEX
  5
3ac
  8
Layer_2
  10
17.065144
  20
75.236275
  0
SEQEND
  0
POLYLINE
  5
3ae
  8
Layer_2
  62
1
  66
1
  10
0
  20
0
  30
0
  0
VERTEX
  5
3ae
  8
Layer_2
  10
74.456749
  20
86.937134
  0
VERTEX
  5
3af
  8
Layer_2
  10
74.738243
  20
86.917847
  42
-0.13518589
  0
VERTEX
  5
3b0
  8
Layer_2
  10
76.761681
  20
86.130249
  42
-0.1086053
  0
VERTEX
  5
3b1
  8
Layer_2
  10
78.852989
  20
83.867065
  0
VERTEX
  5
3b2
  8
Layer_2
  10
79.116417
  20
83.494019
  42
0.045277372
  0
VERTEX
  5
3b3
  8
Layer_2
  10
81.398399
  20
81.085327
  42
0.05299222
  0
VERTEX
  5
3b4
  8
Layer_2
  10
85.730186
  20
77.917114
  42
0.029304967
  0
VERTEX
  5
3b5
  8
Layer_2
  10
86.96505
  20
77.342163
  42
0.042302572
  0
VERTEX
  5
3b6
  8
Layer_2
  10
92.134972
  20
75.853149
  42
0.037631809
  0
VERTEX
  5
3b7
  8
Layer_2
  10
96.744102
  20
75.310181
  42
0.012680194
  0
VERTEX
  5
3b8
  8
Layer_2
  10
99.150352
  20
75.238159
  0
VERTEX
  5
3b9
  8
Layer_2
  10
126.57394
  20
75.238159
  42
0.41421356
  0
VERTEX
  5
3ba
  8
Layer_2
  10
127.57394
  20
76.238159
  0
VERTEX
  5
3bb
  8
Layer_2
  10
127.57394
  20
77.012573
  0
VERTEX
  5
3bc
  8
Layer_2
  10
139.55807
  20
77.012573
  0
VERTEX
  5
3bd
  8
Layer_2
  10
139.55807
  20
67.976929
  0
VERTEX
  5
3be
  8
Layer_2
  10
134.23581
  20
67.976929
  0
VERTEX
  5
3bf
  8
Layer_2
  10
134.23581
  20
70.356812
  0
VERTEX
  5
3c0
  8
Layer_2
  10
108.26584
  20
70.356812
  0
VERTEX
  5
3c1
  8
Layer_2
  10
108.26584
  20
67.976929
  0
VERTEX
  5
3c2
  8
Layer_2
  10
102.94357
  20
67.976929
  0
VERTEX
  5
3c3
  8
Layer_2
  10
102.94357
  20
70.356812
  0
VERTEX
  5
3c4
  8
Layer_2
  10
76.973595
  20
70.356812
  0
VERTEX
  5
3c5
  8
Layer_2
  10
76.973595
  20
67.976929
  0
VERTEX
  5
3c6
  8
Layer_2
  10
71.651329
  20
67.976929
  0
VERTEX
  5
3c7
  8
Layer_2
  10
71.651329
  20
70.356812
  0
VERTEX
  5
3c8
  8
Layer_2
  10
45.681602
  20
70.356812
  0
VERTEX
  5
3c9
  8
Layer_2
  10
45.681602
  20
67.976929
  0
VERTEX
  5
3ca
  8
Layer_2
  10
40.359337
  20
67.976929
  0
VERTEX
  5
3cb
  8
Layer_2
  10
40.359337
  20
70.356812
  0
VERTEX
  5
3cc
  8
Layer_2
  10
14.389366
  20
70.356812
  0
VERTEX
  5
3cd
  8
Layer_2
  10
14.389366
  20
67.976929
  0
VERTEX
  5
3ce
  8
Layer_2
  10
9.0671005
  20
67.976929
  0
VERTEX
  5
3cf
  8
Layer_2
  10
9.0668564
  20
74.287231
  0
VERTEX
  5
3d0
  8
Layer_2
  10
9.0495224
  20
74.287231
  0
VERTEX
  5
3d1
  8
Layer_2
  10
9.0495224
  20
77.012573
  0
VERTEX
  5
3d2
  8
Layer_2
  10
21.050987
  20
77.012573
  0
VERTEX
  5
3d3
  8
Layer_2
  10
21.050987
  20
76.238403
  42
0.41421356
  0
VERTEX
  5
3d4
  8
Layer_2
  10
22.050997
  20
75.238403
  0
VERTEX
  5
3d5
  8
Layer_2
  10
49.673546
  20
75.238647
  42
0.048000239
  0
VERTEX
  5
3d6
  8
Layer_2
  10
56.850792
  20
75.921997
  42
0.050011174
  0
VERTEX
  5
3d7
  8
Layer_2
  10
62.408653
  20
77.663208
  42
0.049331609
  0
VERTEX
  5
3d8
  8
Layer_2
  10
66.315636
  20
80.303589
  42
0.055952859
  0
VERTEX
  5
3d9
  8
Layer_2
  10
69.501427
  20
83.479858
  42
0.028782684
  0
VERTEX
  5
3da
  8
Layer_2
  10
69.969688
  20
84.183716
  0
VERTEX
  5
3db
  8
Layer_2
  10
70.186974
  20
84.495972
  42
-0.11467188
  0
VERTEX
  5
3dc
  8
Layer_2
  10
72.540733
  20
86.540894
  42
-0.11987231
  0
VERTEX
  5
3dd
  8
Layer_2
  10
74.456749
  20
86.937134
  0
SEQEND
  0
POLYLINE
  5
3df
  8
Layer_2
  62
1
  66
1
  10
0
  20
0
  30
0
  0
VERTEX
  5
3df
  8
Layer_2
  10
74.189171
  20
85.930298
  0
VERTEX
  5
3e0
  8
Layer_2
  10
73.952843
  20
85.907593
  42
0.39261545
  0
VERTEX
  5
3e1
  8
Layer_2
  10
71.81881
  20
83.254272
  42
0.40817437
  0
VERTEX
  5
3e2
  8
Layer_2
  10
74.43795
  20
80.934448
  42
0.39320827
  0
VERTEX
  5
3e3
  8
Layer_2
  10
76.815147
  20
83.379272
  42
0.40692701
  0
VERTEX
  5
3e4
  8
Layer_2
  10
74.430626
  20
85.930542
  0
VERTEX
  5
3e5
  8
Layer_2
  10
74.189171
  20
85.930298
  0
SEQEND
  0
POLYLINE
  5
3e7
  8
Layer_2
  62
1
  66
1
  10
0
  20
0
  30
0
  0
VERTEX
  5
3e7
  8
Layer_2
  10
131.55978
  20
75.236206
  0
VERTEX
  5
3e8
  8
Layer_2
  10
131.55978
  20
73.466187
  0
VERTEX
  5
3e9
  8
Layer_2
  10
135.55978
  20
73.466187
  0
VERTEX
  5
3ea
  8
Layer_2
  10
135.55978
  20
75.236206
  0
VERTEX
  5
3eb
  8
Layer_2
  10
131.55978
  20
75.236206
  0
SEQEND
  0
POLYLINE
  5
3ed
  8
Layer_2
  62
1
  66
1
  10
0
  20
0
  30
0
  0
VERTEX
  5
3ed
  8
Layer_2
  10
186.19022
  20
61.04982
  0
VERTEX
  5
3ee
  8
Layer_2
  10
191.19022
  20
61.04982
  42
-0.41421356
  0
VERTEX
  5
3ef
  8
Layer_2
  10
193.19022
  20
59.04982
  0
VERTEX
  5
3f0
  8
Layer_2
  10
193.19019
  20
9.4499054
  42
0.41421356
  0
VERTEX
  5
3f1
  8
Layer_2
  10
195.19019
  20
7.4499054
  0
VERTEX
  5
3f2
  8
Layer_2
  10
217.19016
  20
7.4498901
  42
0.41421356
  0
VERTEX
  5
3f3
  8
Layer_2
  10
219.19016
  20
9.4498901
  0
VERTEX
  5
3f4
  8
Layer_2
  10
219.19019
  20
59.049805
  42
-0.41421356
  0
VERTEX
  5
3f5
  8
Layer_2
  10
221.19019
  20
61.049805
  0
VERTEX
  5
3f6
  8
Layer_2
  10
226.19022
  20
61.049805
  0
VERTEX
  5
3f7
  8
Layer_2
  10
226.19023
  20
86.849854
  0
VERTEX
  5
3f8
  8
Layer_2
  10
221.1902
  20
86.849854
  42
-0.41421356
  0
VERTEX
  5
3f9
  8
Layer_2
  10
219.1902
  20
88.849854
  0
VERTEX
  5
3fa
  8
Layer_2
  10
219.27158
  20
138.44992
  42
0.41421356
  0
VERTEX
  5
3fb
  8
Layer_2
  10
217.27159
  20
140.44992
  0
VERTEX
  5
3fc
  8
Layer_2
  10
195.27162
  20
140.44992
  42
0.41421356
  0
VERTEX
  5
3fd
  8
Layer_2
  10
193.27162
  20
138.44992
  0
VERTEX
  5
3fe
  8
Layer_2
  10
193.19023
  20
88.849869
  42
-0.41421356
  0
VERTEX
  5
3ff
  8
Layer_2
  10
191.19023
  20
86.849869
  0
VERTEX
  5
400
  8
Layer_2
  10
186.19023
  20
86.849869
  0
VERTEX
  5
401
  8
Layer_2
  10
186.19022
  20
61.04982
  0
SEQEND
  0
POLYLINE
  5
403
  8
Layer_2
  62
1
  66
1
  10
0
  20
0
  30
0
  0
VERTEX
  5
403
  8
Layer_2
  10
201.79016
  20
80.949951
  42
-0.41421356
  0
VERTEX
  5
404
  8
Layer_2
  10
202.79016
  20
81.949951
  0
VERTEX
  5
405
  8
Layer_2
  10
216.79016
  20
81.949951
  42
-0.41421356
  0
VERTEX
  5
406
  8
Layer_2
  10
217.79016
  20
80.949951
  0
VERTEX
  5
407
  8
Layer_2
  10
217.79016
  20
66.949951
  42
-0.41421356
  0
VERTEX
  5
408
  8
Layer_2
  10
216.79016
  20
65.949951
  0
VERTEX
  5
409
  8
Layer_2
  10
202.79016
  20
65.949951
  42
-0.41421356
  0
VERTEX
  5
40a
  8
Layer_2
  10
201.79016
  20
66.949951
  0
VERTEX
  5
40b
  8
Layer_2
  10
201.79016
  20
80.949951
  0
SEQEND
  0
POLYLINE
  5
40d
  8
Layer_2
  62
1
  66
1
  10
0
  20
0
  30
0
  0
VERTEX
  5
40d
  8
Layer_2
  10
196.59019
  20
137.04994
  0
VERTEX
  5
40e
  8
Layer_2
  10
215.79021
  20
137.04994
  0
VERTEX
  5
40f
  8
Layer_2
  10
215.79018
  20
86.849945
  0
VERTEX
  5
410
  8
Layer_2
  10
196.59016
  20
86.849945
  0
VERTEX
  5
411
  8
Layer_2
  10
196.59019
  20
137.04994
  0
SEQEND
  0
POLYLINE
  5
413
  8
Layer_2
  62
1
  66
1
  10
0
  20
0
  30
0
  0
VERTEX
  5
413
  8
Layer_2
  10
196.59018
  20
61.049927
  0
VERTEX
  5
414
  8
Layer_2
  10
215.79016
  20
61.049927
  0
VERTEX
  5
415
  8
Layer_2
  10
215.79016
  20
10.849915
  0
VERTEX
  5
416
  8
Layer_2
  10
196.59018
  20
10.849915
  0
VERTEX
  5
417
  8
Layer_2
  10
196.59018
  20
61.049927
  0
SEQEND
  0
POLYLINE
  5
419
  8
Layer_2
  62
1
  66
1
  10
0
  20
0
  30
0
  0
VERTEX
  5
419
  8
Layer_2
  10
197.4397
  20
73.965607
  42
0.37799024
  0
VERTEX
  5
41a
  8
Layer_2
  10
199.19019
  20
75.949982
  0
VERTEX
  5
41b
  8
Layer_2
  10
199.19019
  20
81.949982
  42
0.19903599
  0
VERTEX
  5
41c
  8
Layer_2
  10
198.60455
  20
83.364227
  42
0.19880589
  0
VERTEX
  5
41d
  8
Layer_2
  10
197.19019
  20
83.949982
  0
VERTEX
  5
41e
  8
Layer_2
  10
191.19019
  20
83.949982
  42
0.19904173
  0
VERTEX
  5
41f
  8
Layer_2
  10
189.77588
  20
83.36441
  42
0.19881492
  0
VERTEX
  5
420
  8
Layer_2
  10
189.19019
  20
81.949982
  0
VERTEX
  5
421
  8
Layer_2
  10
189.19019
  20
75.949982
  42
0.41386122
  0
VERTEX
  5
422
  8
Layer_2
  10
191.18701
  20
73.949982
  0
VERTEX
  5
423
  8
Layer_2
  10
191.06519
  20
73.946075
  42
0.3961176
  0
VERTEX
  5
424
  8
Layer_2
  10
189.19019
  20
71.949982
  0
VERTEX
  5
425
  8
Layer_2
  10
189.19019
  20
65.949982
  42
0.413989
  0
VERTEX
  5
426
  8
Layer_2
  10
191.19019
  20
63.949982
  0
VERTEX
  5
427
  8
Layer_2
  10
197.19019
  20
63.949982
  42
0.19933647
  0
VERTEX
  5
428
  8
Layer_2
  10
198.60442
  20
64.535309
  42
0.19862069
  0
VERTEX
  5
429
  8
Layer_2
  10
199.19019
  20
65.949982
  0
VERTEX
  5
42a
  8
Layer_2
  10
199.19019
  20
71.949982
  42
0.41404352
  0
VERTEX
  5
42b
  8
Layer_2
  10
197.19238
  20
73.949982
  0
VERTEX
  5
42c
  8
Layer_2
  10
197.31519
  20
73.953888
  0
VERTEX
  5
42d
  8
Layer_2
  10
197.4397
  20
73.965607
  0
SEQEND
  0
ENDSEC
  0
EOF
